<svg width="31" height="19" viewBox="0 0 31 19" fill="none" xmlns="http://www.w3.org/2000/svg">
<path fill-rule="evenodd" clip-rule="evenodd" d="M2.83677 1.9H17.0208C19.1011 1.9 20.8032 3.61 20.8032 5.7V7.6V11.4V16.15C20.8032 16.682 20.3872 17.1 19.8577 17.1H5.67361C3.59325 17.1 1.8912 15.39 1.8912 13.3V2.85C1.8912 2.318 2.30723 1.9 2.83677 1.9ZM22.6944 13.3V16.15C22.6944 17.727 21.4274 19 19.8577 19H5.67361C2.53425 19 0 16.454 0 13.3V2.85C0 1.273 1.26709 0 2.83677 0H17.0208C20.1603 0 22.6944 2.546 22.6944 5.7L27.9898 1.71C28.9165 1.007 30.2593 1.672 30.2593 2.85V16.15C30.2593 17.328 28.9165 17.993 27.9898 17.29L22.6944 13.3ZM22.6944 10.925L28.3681 15.2V3.8L22.6944 8.075V10.925Z" fill="white"/>
</svg>
