<svg width="200" height="198" viewBox="0 0 200 198" fill="none" xmlns="http://www.w3.org/2000/svg">
<g opacity="0.302572">
<path fill-rule="evenodd" clip-rule="evenodd" d="M100 198C154.676 198 199 153.676 199 99C199 44.3238 154.676 0 100 0C45.3238 0 1 44.3238 1 99C1 153.676 45.3238 198 100 198Z" fill="#6254E8"/>
<path fill-rule="evenodd" clip-rule="evenodd" d="M32.1203 172C27.269 167.465 22.87 162.439 19 157L43.6125 157C47.6925 157 51 160.358 51 164.5C51 168.642 47.6925 172 43.6125 172H32.1203Z" fill="#08135A"/>
<path fill-rule="evenodd" clip-rule="evenodd" d="M9 59C17.3899 40.158 31.4364 24.4272 48.9628 14L83.5539 14C87.6663 14 91 17.3579 91 21.5C91 25.6421 87.6663 29 83.5539 29H51.2876C55.3999 29 58.7336 32.3579 58.7336 36.5C58.7336 40.6421 55.3999 44 51.2876 44C55.3999 44 58.7336 47.3579 58.7336 51.5C58.7336 55.6421 55.3999 59 51.2876 59H9Z" fill="#08135A"/>
<path fill-rule="evenodd" clip-rule="evenodd" d="M199.918 95L171.158 95C167.725 95 164.941 98.3579 164.941 102.5C164.941 106.642 167.725 110 171.158 110C167.725 110 164.941 113.358 164.941 117.5C164.941 121.642 167.725 125 171.158 125H144.217C140.784 125 138 128.358 138 132.5C138 136.642 140.784 140 144.217 140H192.922C197.471 127.628 200 113.922 200 99.5C200 97.9919 199.972 96.4917 199.918 95Z" fill="#08135A"/>
<path fill-rule="evenodd" clip-rule="evenodd" d="M167 172C160.596 177.883 153.417 182.94 145.633 187H136.516C132.365 187 129 183.642 129 179.5C129 175.358 132.365 172 136.516 172H167Z" fill="#08135A"/>
<path fill-rule="evenodd" clip-rule="evenodd" d="M1.6034 117H22.5C26.6421 117 30 113.642 30 109.5C30 105.358 26.6421 102 22.5 102L0 102C0.157991 107.106 0.701834 112.116 1.6034 117Z" fill="#08135A"/>
<rect x="36" y="29" width="39" height="15" rx="7.5" fill="#6254E8"/>
<rect x="189" y="125" width="39" height="15" rx="7.5" transform="rotate(-180 189 125)" fill="#6254E8"/>
<rect x="129" y="29" width="22" height="15" rx="7.5" fill="#08135A"/>
<rect x="118" y="125" width="15" height="15" rx="7.5" fill="#08135A"/>
</g>
<path d="M82.625 101.75C83.375 102.5 84.75 102.5 85.5 101.75L92 95.25L102.5 105.875C103.25 106.625 104.625 106.625 105.375 105.875L119.125 92.125L122.875 95.75C124.75 97.75 128 96.375 128 93.625V81C128 80 127 79 126 79H113.375C110.625 79 109.25 82.25 111.25 84.125L114.875 87.875L104 98.875L93.375 88.25C92.625 87.5 91.25 87.5 90.5 88.25L81.25 97.5C80.5 98.25 80.5 99.625 81.25 100.375L82.625 101.75ZM130 117H74V77C74 76 73 75 72 75H70C68.875 75 68 76 68 77V119C68 121.25 69.75 123 72 123H130C131 123 132 122.125 132 121V119C132 118 131 117 130 117Z" fill="white"/>
</svg>
