<svg width="17" height="16" viewBox="0 0 17 16" fill="none" xmlns="http://www.w3.org/2000/svg">
<path d="M7.08643 1.26215C6.73486 1.61371 6.77002 2.14105 7.08643 2.49261L11.3403 6.50043H1.25049C0.758301 6.50043 0.406738 6.88715 0.406738 7.34418V8.46918C0.406738 8.96136 0.758301 9.31293 1.25049 9.31293H11.3403L7.08643 13.3559C6.77002 13.7075 6.77002 14.2348 7.08643 14.5864L7.85986 15.3598C8.21143 15.6762 8.73877 15.6762 9.05518 15.3598L15.9106 8.50433C16.2271 8.18793 16.2271 7.66058 15.9106 7.30902L9.05518 0.488708C8.73877 0.172302 8.21143 0.172302 7.85986 0.488708L7.08643 1.26215Z" fill="#082487"/>
</svg>
