<svg width="14" height="14" viewBox="0 0 14 14" fill="none" xmlns="http://www.w3.org/2000/svg">
<path d="M6.8125 0.21875L6.1875 0.8125C6.03125 0.96875 6.03125 1.21875 6.1875 1.34375L11.0312 6.1875H0.375C0.15625 6.1875 0 6.375 0 6.5625V7.4375C0 7.65625 0.15625 7.8125 0.375 7.8125H11.0312L6.1875 12.6875C6.03125 12.8125 6.03125 13.0625 6.1875 13.2188L6.8125 13.8125C6.9375 13.9688 7.1875 13.9688 7.34375 13.8125L13.875 7.28125C14.0312 7.125 14.0312 6.90625 13.875 6.75L7.34375 0.21875C7.1875 0.0625 6.9375 0.0625 6.8125 0.21875Z" fill="white"/>
</svg>
