<svg width="422" height="262" viewBox="0 0 422 262" fill="none" xmlns="http://www.w3.org/2000/svg">
<path opacity="0.246303" fill-rule="evenodd" clip-rule="evenodd" d="M186.259 1C186.259 1 294.259 31.6604 343.259 13C392.259 -5.66037 464.259 140.1 366.259 96.5C268.259 52.9004 144.259 -23 165.259 30.5C186.259 84 245.505 70 238.277 92C231.05 114 131.759 80.8008 110.759 52.9004C89.7589 25 -11.7694 17.5 57.7589 96.5C127.287 175.5 39.2589 203.5 89.7589 252C140.259 300.5 59.2589 120.257 150.259 145.129C241.259 170 281.658 414 225.708 300.5C169.759 187 116.138 131.477 128.198 191.739C136.531 233.373 183.613 331.4 223.387 368.004C241.182 384.38 257.514 388.462 268.259 369.7C303.022 309 213.874 169.5 262.259 144.25C310.644 119 384.233 191 417.259 125.5C450.285 60 457.259 190.5 366.259 180.25C275.259 170 293.259 315 355.259 276C417.259 237 404.11 191.379 454.742 191.559C505.373 191.739 43.2589 346.5 35.2589 261C27.2589 175.5 -46.3787 157 -54.2411 197C-62.1035 237 -36.4911 276 -36.4911 276C-36.4911 276 -36.2411 149.352 -0.491142 237C35.2589 324.648 -79.7411 252 -79.7411 252C-79.7411 252 -63.7411 172.298 -86.2411 166.399C-108.741 160.5 52.2589 1 52.2589 1L186.259 1Z" stroke="white"/>
</svg>
