<svg width="1391" height="286" viewBox="0 0 1391 286" fill="none" xmlns="http://www.w3.org/2000/svg">

<g mask="url(#mask0)">
<path opacity="0.9" fill-rule="evenodd" clip-rule="evenodd" d="M1079.56 106.314C1083.12 104.942 1087.58 105.647 1092.22 107.433C1104.82 112.289 1122 106.302 1122 92.799C1122 79.6552 1111.37 69 1098.27 69C1088.37 69 1079.89 75.0716 1076.33 83.702C1075.13 83.702 1065.67 80.259 1061.42 91.4978C1059.62 90.6368 1057.61 90.1546 1055.49 90.1546C1039.16 90.1546 1051.83 112.553 1067.9 109.649C1071.4 109.018 1075.28 107.958 1079.56 106.314Z" fill="white"/>
<path fill-rule="evenodd" clip-rule="evenodd" d="M1391.12 240.935C1391.12 240.935 1421.45 151.056 1335.05 151.056C1248.65 151.056 1157.44 37.2376 1050.48 108.409C943.521 179.58 1050.48 290 1050.48 290H1391.12V240.935Z" fill="#720059"/>
<mask id="mask1" mask-type="alpha" maskUnits="userSpaceOnUse" x="1002" y="85" width="395" height="205">
<path fill-rule="evenodd" clip-rule="evenodd" d="M1391.12 240.935C1391.12 240.935 1421.45 151.056 1335.05 151.056C1248.65 151.056 1157.44 37.2376 1050.48 108.409C943.521 179.58 1050.48 290 1050.48 290H1391.12V240.935Z" fill="white"/>
</mask>
<g mask="url(#mask1)">
<g opacity="0.149949">
<path fill-rule="evenodd" clip-rule="evenodd" d="M1122.5 179C1139.34 179 1153 165.345 1153 148.5C1153 131.655 1139.34 118 1122.5 118C1105.66 118 1092 131.655 1092 148.5C1092 165.345 1105.66 179 1122.5 179Z" stroke="white"/>
<path fill-rule="evenodd" clip-rule="evenodd" d="M1123 167C1132.94 167 1141 158.941 1141 149C1141 139.059 1132.94 131 1123 131C1113.06 131 1105 139.059 1105 149C1105 158.941 1113.06 167 1123 167Z" stroke="white"/>
<path fill-rule="evenodd" clip-rule="evenodd" d="M1122.5 156C1126.64 156 1130 152.642 1130 148.5C1130 144.358 1126.64 141 1122.5 141C1118.36 141 1115 144.358 1115 148.5C1115 152.642 1118.36 156 1122.5 156Z" stroke="white"/>
<path fill-rule="evenodd" clip-rule="evenodd" d="M1122.5 191C1145.97 191 1165 171.972 1165 148.5C1165 125.028 1145.97 106 1122.5 106C1099.03 106 1080 125.028 1080 148.5C1080 171.972 1099.03 191 1122.5 191Z" stroke="white"/>
<path fill-rule="evenodd" clip-rule="evenodd" d="M1122.5 203C1152.6 203 1177 178.6 1177 148.5C1177 118.4 1152.6 94 1122.5 94C1092.4 94 1068 118.4 1068 148.5C1068 178.6 1092.4 203 1122.5 203Z" stroke="white"/>
<path fill-rule="evenodd" clip-rule="evenodd" d="M1122.5 215C1159.23 215 1189 185.227 1189 148.5C1189 111.773 1159.23 82 1122.5 82C1085.77 82 1056 111.773 1056 148.5C1056 185.227 1085.77 215 1122.5 215Z" stroke="white"/>
<path fill-rule="evenodd" clip-rule="evenodd" d="M1124 229C1167.63 229 1203 193.63 1203 150C1203 106.37 1167.63 71 1124 71C1080.37 71 1045 106.37 1045 150C1045 193.63 1080.37 229 1124 229Z" stroke="white"/>
<path fill-rule="evenodd" clip-rule="evenodd" d="M1124 241C1174.26 241 1215 200.258 1215 150C1215 99.7421 1174.26 59 1124 59C1073.74 59 1033 99.7421 1033 150C1033 200.258 1073.74 241 1124 241Z" stroke="white"/>
<path fill-rule="evenodd" clip-rule="evenodd" d="M1125 254C1181.89 254 1228 207.885 1228 151C1228 94.1147 1181.89 48 1125 48C1068.11 48 1022 94.1147 1022 151C1022 207.885 1068.11 254 1125 254Z" stroke="white"/>
</g>
</g>
<path fill-rule="evenodd" clip-rule="evenodd" d="M1276.5 265.557C1276.5 265.557 1256.13 222.254 1179.41 206.95C1102.68 191.647 978.5 102.5 921.836 122.687C865.172 142.874 734.25 307.122 734.25 307.122L1276.5 321.5V265.557Z" fill="#D20046"/>
<mask id="mask2" mask-type="alpha" maskUnits="userSpaceOnUse" x="734" y="119" width="543" height="203">
<path fill-rule="evenodd" clip-rule="evenodd" d="M1276.5 265.557C1276.5 265.557 1256.13 222.254 1179.41 206.95C1102.68 191.647 978.5 102.5 921.836 122.687C865.172 142.874 734.25 307.122 734.25 307.122L1276.5 321.5V265.557Z" fill="white"/>
</mask>
<g mask="url(#mask2)">
<g opacity="0.149972">
<path d="M791.5 209.5L1005.5 90.5" stroke="white" stroke-linecap="square"/>
<path d="M789.5 198.5L1003.5 79.5" stroke="white" stroke-linecap="square"/>
<path d="M791.5 221.5L1005.5 102.5" stroke="white" stroke-linecap="square"/>
<path d="M791.5 233.5L1005.5 114.5" stroke="white" stroke-linecap="square"/>
<path d="M734.25 277L1005.5 126.5" stroke="white" stroke-linecap="square"/>
<path d="M736 289L1034 122" stroke="white" stroke-linecap="square"/>
<path d="M736 301L1044 128.5" stroke="white" stroke-linecap="square"/>
<path d="M753 304L1054 135" stroke="white" stroke-linecap="square"/>
<path d="M778 301L1066 140.5" stroke="white" stroke-linecap="square"/>
<path d="M786.5 307.25L1074.5 146.75" stroke="white" stroke-linecap="square"/>
<path d="M791.5 317.5L1088 152" stroke="white" stroke-linecap="square"/>
<path d="M791.5 329.5L1092 162" stroke="white" stroke-linecap="square"/>
<path d="M791.5 341.5L1097 171.5" stroke="white" stroke-linecap="square"/>
<path d="M791.5 353.5L1112 174.5" stroke="white" stroke-linecap="square"/>
<path d="M791.5 365.5L1123 180.5" stroke="white" stroke-linecap="square"/>
<path d="M791.5 377.5L1135 186" stroke="white" stroke-linecap="square"/>
<path d="M791.5 389.5L1146 193" stroke="white" stroke-linecap="square"/>
<path d="M791.5 401.5L1160 198" stroke="white" stroke-linecap="square"/>
</g>
</g>
<path fill-rule="evenodd" clip-rule="evenodd" d="M1405.92 238.086C1382.65 192.408 1353.56 47.6892 1256.25 60.8414C1158.94 73.9935 1148.88 172.681 1090.61 197.308C1032.34 221.935 978.725 186.045 919.477 221.935C860.228 257.826 876.51 327 876.51 327L1454 310.064C1454 310.064 1429.18 283.764 1405.92 238.086Z" fill="#EB5131"/>
<mask id="mask3" mask-type="alpha" maskUnits="userSpaceOnUse" x="874" y="60" width="580" height="267">
<path fill-rule="evenodd" clip-rule="evenodd" d="M1405.92 238.086C1382.65 192.408 1353.56 47.6892 1256.25 60.8414C1158.94 73.9935 1148.88 172.681 1090.61 197.308C1032.34 221.935 978.725 186.045 919.477 221.935C860.228 257.826 876.51 327 876.51 327L1454 310.064C1454 310.064 1429.18 283.764 1405.92 238.086Z" fill="white"/>
</mask>
<g mask="url(#mask3)">
<path opacity="0.246303" fill-rule="evenodd" clip-rule="evenodd" d="M1168 60C1168 60 1276 90.6604 1325 72C1374 53.3396 1446 199.1 1348 155.5C1250 111.9 1126 36 1147 89.5C1168 143 1227.25 129 1220.02 151C1212.79 173 1113.5 139.801 1092.5 111.9C1071.5 84 969.972 76.5 1039.5 155.5C1109.03 234.5 1021 262.5 1071.5 311C1122 359.5 1041 179.257 1132 204.129C1223 229 1263.4 473 1207.45 359.5C1151.5 246 1097.88 190.477 1109.94 250.739C1118.27 292.373 1165.35 390.4 1205.13 427.004C1222.92 443.38 1239.25 447.462 1250 428.7C1284.76 368 1195.62 228.5 1244 203.25C1292.38 178 1365.97 250 1399 184.5C1432.03 119 1439 249.5 1348 239.25C1257 229 1275 374 1337 335C1399 296 1385.85 250.379 1436.48 250.559C1487.11 250.739 1025 405.5 1017 320C1009 234.5 935.362 216 927.5 256C919.638 296 945.25 335 945.25 335C945.25 335 945.5 208.352 981.25 296C1017 383.648 902 311 902 311C902 311 918 231.298 895.5 225.399C873 219.5 1034 60 1034 60L1168 60Z" stroke="white"/>
</g>
<path opacity="0.90446" fill-rule="evenodd" clip-rule="evenodd" d="M872.722 163.079C866.426 161.276 858.914 163.158 851.266 166.906C830.608 177.031 800.568 169.398 798.563 146.48C796.613 124.197 813.096 104.553 835.379 102.604C852.199 101.132 867.516 110.164 874.853 124.265C876.897 124.086 892.469 116.842 901.354 135.264C904.28 133.537 907.626 132.421 911.238 132.105C918.81 131.442 924.021 132.593 927.57 134.722C941.986 143.368 926.516 164.709 909.837 166.81C900.483 167.988 888.2 167.512 872.722 163.079Z" fill="white"/>
<g opacity="0.198171">
<path d="M1241 99.7514L1250.56 312.5" stroke="#08135A" stroke-width="5" stroke-linecap="round" stroke-linejoin="round"/>
<path d="M1284.68 110.9L1312.5 312.5" stroke="#08135A" stroke-width="5" stroke-linecap="round" stroke-linejoin="round"/>
<path fill-rule="evenodd" clip-rule="evenodd" d="M1247.72 249.739H1302.08L1304.72 263.622H1249.65L1247.72 249.739Z" fill="#08135A"/>
<path fill-rule="evenodd" clip-rule="evenodd" d="M1245.96 222.963H1300.65L1302.64 236.846H1248.37L1245.96 222.963Z" fill="#08135A"/>
<path fill-rule="evenodd" clip-rule="evenodd" d="M1246.1 196.187H1296.31L1299.1 210.071H1247.63L1246.1 196.187Z" fill="#08135A"/>
<path fill-rule="evenodd" clip-rule="evenodd" d="M1242.24 169.411H1293.13L1295.24 183.295H1243.76L1242.24 169.411Z" fill="#08135A"/>
<path fill-rule="evenodd" clip-rule="evenodd" d="M1243.22 142.635H1289.53L1291.22 156.519H1245.03L1243.22 142.635Z" fill="#08135A"/>
<path fill-rule="evenodd" clip-rule="evenodd" d="M1241.76 115.859H1286.16L1287.76 129.743H1242.92L1241.76 115.859Z" fill="#08135A"/>
<path fill-rule="evenodd" clip-rule="evenodd" d="M1296.41 245.255V247.524C1296.41 247.524 1288.41 249.622 1290.39 250.524C1292.38 251.425 1297.84 250.825 1299.5 250.524C1300.5 250.11 1299.5 244 1299.5 244L1296.41 245.255Z" fill="#08135A"/>
<path fill-rule="evenodd" clip-rule="evenodd" d="M1268.06 229.295L1269.54 232.193C1269.54 232.193 1265 236.537 1265 239.351C1265 242.165 1274 235.092 1274 232.193C1274 229.295 1272.83 228 1272.83 228L1268.06 229.295Z" fill="#08135A"/>
<path fill-rule="evenodd" clip-rule="evenodd" d="M1277 171.247L1295.36 247H1302L1299.49 152L1277 159.267V171.247Z" fill="#08135A"/>
<path fill-rule="evenodd" clip-rule="evenodd" d="M1267.21 150.317C1267.21 150.317 1256.94 172.582 1252.52 181.488C1248.09 190.394 1256.56 206.777 1256.56 206.777L1266.44 229H1274L1265.22 190.574L1284.16 168.218C1284.16 168.218 1303.89 166.724 1297.39 147.002C1297.34 146.928 1267.21 150.317 1267.21 150.317Z" fill="#08135A"/>
<path fill-rule="evenodd" clip-rule="evenodd" d="M1272 78C1272 78 1267.44 84.6174 1266.36 85.3004C1265.28 85.9835 1267.44 86.7192 1267.44 86.7192C1267.44 86.7192 1265.79 91.0426 1268.32 92.8519C1270.86 94.6612 1272 93.8064 1272 100.201C1272 106.596 1292 98.3792 1292 98.3792L1279.23 78H1272Z" fill="#08135A"/>
<path fill-rule="evenodd" clip-rule="evenodd" d="M1271.95 99.3424C1271.97 99.3424 1266.17 127.189 1263 142.382C1261.97 147.35 1265.76 152 1270.84 152H1291.23C1296.87 152 1300.74 146.304 1298.66 141.053L1282 99C1282 99 1277.71 102.857 1271.95 99.3424Z" fill="#08135A"/>
<path fill-rule="evenodd" clip-rule="evenodd" d="M1297.4 76.6943C1302 80.1852 1314.78 71.518 1323.82 76.6943C1326.47 77.9715 1331 81.7844 1331 81.7844C1331 81.7844 1320.83 74.5419 1313.03 76.6943C1305.24 78.8468 1297.79 82.9895 1293.85 81.7844C1289.91 80.5793 1292.8 73.2035 1297.4 76.6943Z" fill="#08135A"/>
<path fill-rule="evenodd" clip-rule="evenodd" d="M1270.29 77.9949C1271.87 72.7834 1281.49 66.0623 1292.17 72.9005C1302.86 79.7387 1302.17 83.6356 1311.96 80.6787C1321.76 77.7219 1328.66 80.7616 1333.63 90.127C1338.61 99.4923 1344.2 99.4923 1352.77 99.4923C1361.33 99.4923 1373.37 115.603 1365.37 130.943C1357.38 146.282 1323.67 150.307 1319.68 130.943C1315.7 111.578 1299.45 117.041 1289.27 112.335C1279.09 107.628 1274.65 92.7474 1274.65 90.1611C1274.57 90.3729 1277.73 91.1173 1278.53 88.978C1279.33 86.8387 1278.53 85.6814 1277.24 86.6245C1275.95 87.5676 1274.63 88.4192 1274.63 88.4192C1274.63 88.4192 1275.22 86.3984 1274.63 84.9242C1274.03 83.4499 1268.71 83.2063 1270.29 77.9949Z" fill="#08135A"/>
<path fill-rule="evenodd" clip-rule="evenodd" d="M1275.65 106.044C1265.79 102.413 1262.8 119.14 1239.55 103.007C1239.59 102.856 1239.55 105 1239.55 105C1239.55 105 1246.56 122.602 1261 122.602C1275.44 122.602 1275.65 120.272 1277.61 117.026C1279.57 113.781 1279.59 108.079 1275.65 106.044Z" fill="#08135A"/>
</g>
<path opacity="0.9" fill-rule="evenodd" clip-rule="evenodd" d="M1156.17 261.974C1163.18 259.269 1171.93 260.636 1181.02 264.132C1205.97 273.719 1240 261.907 1240 235.18C1240 209.123 1219.01 188 1193.13 188C1173.59 188 1156.84 200.037 1149.8 217.146C1147.42 217.146 1128.74 210.321 1120.36 232.601C1116.81 230.894 1112.84 229.938 1108.64 229.938C1097.1 229.938 1090.56 233.149 1087.01 237.538C1076.45 250.586 1092.96 268.231 1109.67 269.803C1121.05 270.874 1136.52 269.562 1156.17 261.974Z" fill="white"/>
<path fill-rule="evenodd" clip-rule="evenodd" d="M936 37.6036C936 37.6036 954.739 34.7365 974.739 45.4881C994.739 56.2396 1016 46.2048 1016 46.2048L1010.95 56.8597C1010.95 56.8597 1010.95 61.9738 1016 67.3495C1002.76 69.6809 985.91 73.1599 969.694 64.1241C953.477 55.0883 936 58.7483 936 58.7483V37.6036Z" fill="#6254E8"/>
<path d="M936 38V138" stroke="#6254E8" stroke-width="5" stroke-linecap="round" stroke-linejoin="round"/>
<path d="M948.582 50.48C948.502 50.54 948.388 50.6067 948.242 50.68C948.102 50.7467 947.935 50.81 947.742 50.87C947.548 50.93 947.332 50.98 947.092 51.02C946.858 51.06 946.608 51.08 946.342 51.08C945.775 51.08 945.265 50.9833 944.812 50.79C944.365 50.59 943.985 50.3233 943.672 49.99C943.358 49.6567 943.118 49.27 942.952 48.83C942.785 48.39 942.702 47.9233 942.702 47.43C942.702 46.8833 942.798 46.38 942.992 45.92C943.192 45.46 943.462 45.0633 943.802 44.73C944.142 44.3967 944.538 44.1367 944.992 43.95C945.452 43.7633 945.938 43.67 946.452 43.67C946.645 43.67 946.842 43.6833 947.042 43.71C947.242 43.7367 947.428 43.7733 947.602 43.82C947.782 43.8667 947.938 43.9233 948.072 43.99C948.212 44.05 948.318 44.1133 948.392 44.18C948.338 44.26 948.295 44.3267 948.262 44.38C948.235 44.4333 948.205 44.49 948.172 44.55C948.138 44.6033 948.102 44.6667 948.062 44.74C948.022 44.8133 947.968 44.91 947.902 45.03C947.815 44.97 947.712 44.92 947.592 44.88C947.478 44.84 947.358 44.8067 947.232 44.78C947.105 44.7533 946.975 44.7333 946.842 44.72C946.715 44.7067 946.598 44.7 946.492 44.7C946.105 44.7 945.745 44.7733 945.412 44.92C945.085 45.06 944.802 45.2533 944.562 45.5C944.322 45.74 944.132 46.02 943.992 46.34C943.858 46.66 943.792 46.9933 943.792 47.34C943.792 47.68 943.855 48.0067 943.982 48.32C944.115 48.6333 944.295 48.9133 944.522 49.16C944.755 49.4067 945.032 49.6033 945.352 49.75C945.678 49.8967 946.035 49.97 946.422 49.97C946.628 49.97 946.828 49.95 947.022 49.91C947.215 49.87 947.388 49.8233 947.542 49.77C947.702 49.7167 947.832 49.6633 947.932 49.61C948.038 49.5567 948.102 49.5167 948.122 49.49L948.582 50.48Z" fill="white"/>
<path d="M950.793 49.38C950.793 48.88 950.89 48.4067 951.083 47.96C951.276 47.5067 951.54 47.11 951.873 46.77C952.213 46.43 952.606 46.1633 953.053 45.97C953.5 45.77 953.98 45.67 954.493 45.67C955 45.67 955.476 45.77 955.923 45.97C956.376 46.1633 956.77 46.43 957.103 46.77C957.443 47.11 957.71 47.5067 957.903 47.96C958.103 48.4067 958.203 48.88 958.203 49.38C958.203 49.8933 958.103 50.3733 957.903 50.82C957.71 51.2667 957.443 51.66 957.103 52C956.77 52.3333 956.376 52.5967 955.923 52.79C955.476 52.9833 955 53.08 954.493 53.08C953.98 53.08 953.5 52.9833 953.053 52.79C952.606 52.5967 952.213 52.3333 951.873 52C951.54 51.66 951.276 51.2667 951.083 50.82C950.89 50.3733 950.793 49.8933 950.793 49.38ZM951.883 49.39C951.883 49.7567 951.95 50.1033 952.083 50.43C952.223 50.75 952.413 51.03 952.653 51.27C952.893 51.51 953.173 51.7 953.493 51.84C953.813 51.98 954.153 52.05 954.513 52.05C954.873 52.05 955.21 51.98 955.523 51.84C955.843 51.7 956.12 51.51 956.353 51.27C956.593 51.03 956.78 50.75 956.913 50.43C957.053 50.1033 957.123 49.7533 957.123 49.38C957.123 49.0133 957.053 48.67 956.913 48.35C956.78 48.0233 956.593 47.74 956.353 47.5C956.113 47.26 955.833 47.07 955.513 46.93C955.2 46.79 954.863 46.72 954.503 46.72C954.143 46.72 953.803 46.79 953.483 46.93C953.163 47.07 952.883 47.26 952.643 47.5C952.41 47.74 952.223 48.0233 952.083 48.35C951.95 48.6767 951.883 49.0233 951.883 49.39Z" fill="white"/>
<path d="M967.678 48.75V56.33C967.584 56.21 967.404 56.0167 967.138 55.75C966.871 55.4833 966.564 55.1767 966.218 54.83C965.871 54.4833 965.501 54.12 965.108 53.74C964.721 53.36 964.354 53 964.008 52.66C963.661 52.3133 963.358 52.0067 963.098 51.74C962.838 51.4667 962.664 51.2733 962.578 51.16L962.388 50.9L962.418 51.22V56H961.318V48.41C961.391 48.5033 961.511 48.6367 961.678 48.81C961.851 48.9833 962.051 49.1867 962.278 49.42C962.511 49.6467 962.764 49.8933 963.038 50.16C963.318 50.4267 963.598 50.6967 963.878 50.97C964.164 51.2433 964.444 51.5133 964.718 51.78C964.998 52.04 965.251 52.2833 965.478 52.51C965.711 52.7367 965.911 52.9367 966.078 53.11C966.244 53.2833 966.361 53.4133 966.428 53.5L966.618 53.78L966.588 53.44V48.75H967.678Z" fill="white"/>
<path d="M976.377 56.53V59.57C976.097 59.73 975.764 59.8567 975.377 59.95C974.99 60.0367 974.597 60.08 974.197 60.08C973.624 60.08 973.107 59.99 972.647 59.81C972.194 59.63 971.804 59.3833 971.477 59.07C971.15 58.75 970.9 58.3733 970.727 57.94C970.554 57.5067 970.467 57.0333 970.467 56.52C970.467 55.9533 970.567 55.4367 970.767 54.97C970.974 54.4967 971.25 54.09 971.597 53.75C971.95 53.41 972.354 53.1467 972.807 52.96C973.267 52.7667 973.754 52.67 974.267 52.67C974.614 52.67 974.977 52.7167 975.357 52.81C975.737 52.8967 976.067 53.0233 976.347 53.19L975.817 54.08C975.717 54.02 975.6 53.9667 975.467 53.92C975.34 53.8733 975.207 53.8333 975.067 53.8C974.927 53.7667 974.787 53.7433 974.647 53.73C974.507 53.71 974.374 53.7 974.247 53.7C973.894 53.7 973.554 53.77 973.227 53.91C972.9 54.05 972.614 54.2433 972.367 54.49C972.12 54.7367 971.924 55.0267 971.777 55.36C971.63 55.6933 971.557 56.0533 971.557 56.44C971.557 56.7933 971.62 57.1267 971.747 57.44C971.88 57.7533 972.064 58.03 972.297 58.27C972.53 58.51 972.81 58.7 973.137 58.84C973.464 58.98 973.824 59.05 974.217 59.05C974.37 59.05 974.55 59.0367 974.757 59.01C974.97 58.9767 975.174 58.9233 975.367 58.85V57.47H973.957V56.53H976.377Z" fill="white"/>
<path d="M979.25 62V54.75H981.23C981.61 54.75 981.957 54.8 982.27 54.9C982.59 55 982.864 55.15 983.09 55.35C983.324 55.5433 983.504 55.7833 983.63 56.07C983.757 56.35 983.82 56.6733 983.82 57.04C983.82 57.24 983.8 57.44 983.76 57.64C983.72 57.8333 983.654 58.0233 983.56 58.21C983.474 58.39 983.36 58.56 983.22 58.72C983.08 58.8733 982.91 59.0033 982.71 59.11C982.977 59.53 983.267 59.9967 983.58 60.51C983.894 61.0167 984.21 61.5133 984.53 62H983.22C983.087 61.7933 982.947 61.5767 982.8 61.35C982.66 61.1233 982.517 60.9 982.37 60.68C982.23 60.4533 982.09 60.2333 981.95 60.02C981.817 59.8 981.69 59.5967 981.57 59.41H981.37H980.35V62H979.25ZM980.35 58.38H981.34C981.607 58.38 981.83 58.3367 982.01 58.25C982.19 58.1567 982.33 58.0433 982.43 57.91C982.537 57.7767 982.61 57.6333 982.65 57.48C982.697 57.3267 982.72 57.1867 982.72 57.06C982.72 56.9333 982.697 56.7967 982.65 56.65C982.61 56.4967 982.537 56.3567 982.43 56.23C982.324 56.0967 982.18 55.9867 982 55.9C981.827 55.8133 981.61 55.77 981.35 55.77H980.35V58.38Z" fill="white"/>
<path d="M991.643 63C991.609 62.9267 991.563 62.82 991.503 62.68C991.443 62.54 991.373 62.38 991.293 62.2C991.219 62.0133 991.136 61.8133 991.043 61.6C990.956 61.38 990.866 61.1533 990.773 60.92H988.213L987.353 63H986.273L989.503 55.41C989.543 55.5033 989.613 55.6733 989.713 55.92C989.819 56.1667 989.943 56.4633 990.083 56.81C990.229 57.15 990.389 57.53 990.563 57.95C990.743 58.3633 990.923 58.7833 991.103 59.21C991.289 59.6367 991.469 60.0567 991.643 60.47C991.823 60.8833 991.986 61.2633 992.133 61.61C992.279 61.9567 992.403 62.2533 992.503 62.5C992.609 62.74 992.683 62.9067 992.723 63H991.643ZM988.593 60H990.403C990.309 59.78 990.219 59.57 990.133 59.37C990.053 59.1633 989.976 58.9767 989.903 58.81C989.836 58.6367 989.776 58.4867 989.723 58.36C989.669 58.2333 989.629 58.1333 989.603 58.06C989.596 58.0467 989.579 58 989.553 57.92C989.533 57.84 989.516 57.7667 989.503 57.7C989.489 57.7667 989.469 57.84 989.443 57.92C989.416 58 989.399 58.0467 989.393 58.06L988.593 60Z" fill="white"/>
<path d="M999.356 55.75V56.79H997.526V63H996.436V56.79H994.646V55.75H999.356Z" fill="white"/>
<path d="M1006.21 56.15L1005.82 57.04C1005.55 56.94 1005.28 56.86 1005 56.8C1004.74 56.74 1004.48 56.71 1004.23 56.71C1003.81 56.71 1003.48 56.7967 1003.22 56.97C1002.98 57.1433 1002.85 57.3633 1002.85 57.63C1002.85 57.8567 1002.94 58.04 1003.12 58.18C1003.3 58.3133 1003.53 58.4367 1003.79 58.55C1004.06 58.6567 1004.35 58.7667 1004.66 58.88C1004.98 58.9867 1005.27 59.1267 1005.53 59.3C1005.8 59.4733 1006.02 59.6933 1006.2 59.96C1006.38 60.22 1006.47 60.5567 1006.47 60.97C1006.47 61.29 1006.41 61.58 1006.29 61.84C1006.18 62.0933 1006.01 62.3133 1005.77 62.5C1005.55 62.6867 1005.26 62.83 1004.91 62.93C1004.57 63.03 1004.17 63.08 1003.71 63.08C1003.42 63.08 1003.15 63.06 1002.91 63.02C1002.68 62.98 1002.47 62.93 1002.27 62.87C1002.09 62.8033 1001.92 62.7333 1001.77 62.66C1001.63 62.5867 1001.51 62.52 1001.41 62.46L1001.89 61.51C1002.16 61.6633 1002.46 61.7867 1002.78 61.88C1003.11 61.9733 1003.41 62.02 1003.67 62.02C1003.81 62.02 1003.97 62.0033 1004.16 61.97C1004.36 61.9367 1004.55 61.88 1004.73 61.8C1004.91 61.7133 1005.07 61.6 1005.19 61.46C1005.33 61.32 1005.39 61.1433 1005.39 60.93C1005.39 60.7367 1005.34 60.5733 1005.23 60.44C1005.13 60.3 1005 60.18 1004.82 60.08C1004.66 59.9733 1004.46 59.88 1004.24 59.8C1004.03 59.7133 1003.81 59.6267 1003.58 59.54C1003.36 59.4467 1003.13 59.35 1002.91 59.25C1002.7 59.15 1002.51 59.03 1002.33 58.89C1002.17 58.7433 1002.03 58.5767 1001.92 58.39C1001.82 58.1967 1001.77 57.9667 1001.77 57.7C1001.77 57.4533 1001.82 57.21 1001.92 56.97C1002.02 56.73 1002.17 56.5167 1002.37 56.33C1002.57 56.1433 1002.82 55.9933 1003.11 55.88C1003.41 55.7667 1003.76 55.71 1004.15 55.71C1004.39 55.71 1004.63 55.73 1004.85 55.77C1005.09 55.81 1005.3 55.8567 1005.48 55.91C1005.67 55.9567 1005.83 56.0033 1005.95 56.05C1006.09 56.0967 1006.17 56.13 1006.21 56.15Z" fill="white"/>
</g>
<defs>
<filter id="filter0_d" x="0" y="0" width="1391" height="286" filterUnits="userSpaceOnUse" color-interpolation-filters="sRGB">
<feFlood flood-opacity="0" result="BackgroundImageFix"/>
<feColorMatrix in="SourceAlpha" type="matrix" values="0 0 0 0 0 0 0 0 0 0 0 0 0 0 0 0 0 0 127 0"/>
<feOffset dy="5"/>
<feGaussianBlur stdDeviation="12.5"/>
<feColorMatrix type="matrix" values="0 0 0 0 0.384314 0 0 0 0 0.329412 0 0 0 0 0.909804 0 0 0 0.203944 0"/>
<feBlend mode="normal" in2="BackgroundImageFix" result="effect1_dropShadow"/>
<feBlend mode="normal" in="SourceGraphic" in2="effect1_dropShadow" result="shape"/>
</filter>
</defs>
</svg>
