<svg xmlns="http://www.w3.org/2000/svg" xmlns:xlink="http://www.w3.org/1999/xlink" width="842px" height="472px" viewBox="0 0 842 472" version="1.1">
    <title>5B897271-486D-4C5C-A310-EEA85E3CEDC8</title>
    <defs>
        <path d="M11.362,361.056 C-17.9261,210.952 15.06,160.657 92.386,114.288 C170.082,67.697 264.044,68.859 338.787,124.635 C427.286,0.276 579.32,-37.7476 693.302,41.764 C802.963,118.262 840.474,221.334 788.546,360.944 L11.362,361.056 Z" id="path-1"/>
        <path d="M24.0360767,5.68434189e-14 C1.96807667,1.807 -4.78992333,12.124 3.76407667,30.951 C16.5940767,59.191 17.4560767,66.52 8.06107667,73.287 C-1.33292333,80.055 48.8820767,103.625 66.5310767,75.589 C66.5430767,75.429 81.4660767,2.913 42.8590767,2.913 C35.6140767,2.624 29.3400767,1.652 24.0360767,5.68434189e-14 Z" id="path-3"/>
        <polygon id="path-5" points="0.968908956 0.833 116.297909 0.833 94.682909 43.683 0.968908956 43.683"/>
        <path d="M21.4184476,0.4804 C15.9344476,1.8094 11.9844476,7.8254 9.56844759,18.5274 C8.47844759,23.3554 7.63544759,35.1784 7.03844759,53.9984 C4.34344759,57.4054 2.28544759,59.5124 0.861447594,60.3184 C-0.552552406,61.1194 -0.225552406,63.3934 1.84044759,67.1414 L21.4184476,84.5334 L21.4184476,0.4804 Z" id="path-7"/>
        <path d="M58.8114476,-11.9966 C69.0994476,-8.8473 76.8954476,-5.854 82.2014476,-3.0166 C90.1594476,1.2398 96.9014476,7.0438 96.9014476,20.1638 C96.9014476,28.9108 85.7124476,64.3368 63.3354476,126.4428 C53.6574476,117.0698 42.0724476,109.7158 28.5804476,104.3808 C15.0894476,99.0458 8.20644759,92.1348 7.93244759,83.6488 C8.20644759,34.0688 12.4694476,6.9588 20.7224476,2.3198 C28.9744476,-2.3194 34.6404476,-5.3425 37.7224476,-6.7494 L58.8114476,-11.9966 Z" id="path-9"/>
        <path d="M50.879,-1.42108547e-14 C61.167,3.1493 68.963,6.1426 74.269,8.98 C82.227,13.2364 88.969,19.0404 88.969,32.1604 C88.969,40.9074 77.78,76.3334 55.403,138.4394 C45.725,129.0664 34.14,121.7124 20.648,116.3774 C7.157,111.0424 0.274,104.1314 0,95.6454 C0.274,46.0654 4.537,18.9554 12.79,14.3164 C21.042,9.6772 26.708,6.6541 29.79,5.2472 L50.879,-1.42108547e-14 Z" id="path-11"/>
    </defs>
    <g id="Front" stroke="none" stroke-width="1" fill="none" fill-rule="evenodd">
        <g id="Home" transform="translate(-598.000000, -282.000000)">
            <g id="banner.7a6684d5" transform="translate(599.000000, 282.000000)">
                <g id="Clipped" transform="translate(96.000000, 110.000000)">
                    <mask id="mask-2" fill="white">
                        <use xlink:href="#path-1"/>
                    </mask>
                    <g id="Path"/>
                    <path d="M11.362,361.056 C-17.9261,210.952 15.06,160.657 92.386,114.288 C170.082,67.697 264.044,68.859 338.787,124.635 C427.286,0.276 579.32,-37.7476 693.302,41.764 C802.963,118.262 840.474,221.334 788.546,360.944 L11.362,361.056 Z" id="Path" fill="#FFEAE0" fill-rule="nonzero" mask="url(#mask-2)"/>
                </g>
                <g id="Group" opacity="0.4" transform="translate(276.000000, 314.000000)" fill="#F0CDBC" fill-rule="nonzero">
                    <g id="Path">
                        <path d="M83.994,44.986 C129.945,44.986 167.196,35.025 167.196,22.737 C167.196,10.449 129.945,0.488 83.994,0.488 C38.042,0.488 0.792,10.449 0.792,22.737 C0.792,35.025 38.042,44.986 83.994,44.986 Z"/>
                    </g>
                </g>
                <path d="M302.608,332.47 C302.813,337.148 300.153,341.032 294.628,344.12 C286.339,348.753 297.924,354.591 307.663,344.879 C309.665,342.883 311.24,341.24 312.387,339.95 L312.387,339.95 C313.579,338.61 313.685,336.619 312.642,335.159 C310.059,331.54 308.098,329.48 306.76,328.979 C305.253,328.415 303.869,329.578 302.608,332.47 Z" id="Path" fill="#08135A" fill-rule="nonzero"/>
                <path d="M402.274,302.411 C402.068,307.089 404.728,310.972 410.254,314.061 C418.543,318.694 406.958,324.531 397.218,314.82 C395.216,312.824 393.642,311.181 392.495,309.891 C391.303,308.551 391.197,306.56 392.239,305.1 C394.823,301.481 396.784,299.421 398.122,298.92 C399.629,298.356 401.013,299.519 402.274,302.411 Z" id="Path" fill="#08135A" fill-rule="nonzero"/>
                <path d="M375.646,21.1289 C378.514915,21.1289 380.956208,23.8804713 381.860982,27.7210515 L382.565,27.7212 C383.293,27.7212 383.884,28.2746 383.884,28.9573 L383.884,31.4294 C383.884,32.112 383.293,32.6654 382.565,32.6654 L382.104761,32.6657494 C381.361168,37.3543936 377.639726,40.9707696 375.646,40.905 C374.086734,40.905 370.020211,37.3417165 369.200308,32.6653134 L368.726,32.6654 C367.998,32.6654 367.408,32.112 367.408,31.4294 L367.408,31.4294 L367.408,28.9573 C367.408,28.2746 367.998,27.7212 368.726,27.7212 L368.726,27.7212 L369.430027,27.7210515 C370.334836,23.8804713 372.776297,21.1289 375.646,21.1289 Z" id="Combined-Shape" fill="#08135A" fill-rule="nonzero"/>
                <path d="M330.707,177.697 L276.902,218.653 C269.736,224.108 266.803,233.531 269.601,242.117 L300.163,335.913 L308.641,329.322 L293.608,242.846 L358.527,201.706 L418.749,216.507 L392.034,293.641 L403.526,297.732 L444.715,213.649 C448.92,205.066 445.404,194.683 436.863,190.458 C435.893,189.979 434.881,189.592 433.84,189.303 L392.034,177.697 L330.707,177.697 Z" id="Path" fill="#082487" fill-rule="nonzero"/>
                <path d="M358.872,201.761 L418.858,216.596 L392.248,293.906 L403.694,298.007 L444.722,213.732 C448.91,205.129 445.408,194.722 436.9,190.487 C435.935,190.007 434.927,189.619 433.889,189.329 L392.248,177.697 L331.161,177.697 L361.087,178.612 L358.872,201.761 Z" id="Path" fill="#082487" fill-rule="nonzero"/>
                <path d="M389.65,220.547 C391.015,220.547 392.121,219.44 392.121,218.075 C392.121,216.71 391.015,215.603 389.65,215.603 C388.285,215.603 387.179,216.71 387.179,218.075 C387.179,219.44 388.285,220.547 389.65,220.547 Z" id="Path" fill="#F2F4FD" fill-rule="nonzero"/>
                <path d="M405.302,235.38 C406.212,235.38 406.949,234.642 406.949,233.732 C406.949,232.821 406.212,232.083 405.302,232.083 C404.392,232.083 403.654,232.821 403.654,233.732 C403.654,234.642 404.392,235.38 405.302,235.38 Z" id="Path" fill="#F2F4FD" fill-rule="nonzero"/>
                <polygon id="Path" fill="#6254E8" fill-rule="nonzero" points="387.179 42.554 365.76 42.554 365.76 45.8501 387.179 45.8501"/>
                <polygon id="Path" fill="#6254E8" fill-rule="nonzero" points="387.179 54.0906 365.76 54.0906 365.76 57.3867 387.179 57.3867"/>
                <path d="M343.681796,76.5593491 C338.308845,86.999763 331.344013,87.1967362 336.119656,98.0310964 C340.8953,108.865457 363.778942,110.638355 378.504546,104.137683 C393.228741,97.6371501 376.712623,82.2719889 373.528861,76.7563222 C370.345099,71.2406555 370.743774,65.921962 370.743774,65.921962 L343.681796,76.5593491 Z" id="Path" fill="#08135A" fill-rule="nonzero" transform="translate(359.524902, 86.921962) scale(-1, 1) rotate(-8.000000) translate(-359.524902, -86.921962) "/>
                <g id="Group-10" transform="translate(324.390923, 101.885000)">
                    <mask id="mask-4" fill="white">
                        <use xlink:href="#path-3"/>
                    </mask>
                    <use id="Path" fill="#6254E8" fill-rule="nonzero" xlink:href="#path-3"/>
                    <path d="M45.133979,2.83887851 C45.133979,3.01398278 44.9524868,3.18908705 44.7697074,3.36419132 C43.8609592,4.23983678 42.5879394,5.11535814 41.1334274,5.99100359 C39.1344387,7.04162922 36.9526707,8.09237895 34.4066311,8.61769177 C32.224863,9.14312868 30.043095,9.14312868 27.861327,8.79279604 C25.3165745,8.26748322 22.5890427,7.2167335 20.4072746,5.11535814 C19.315747,4.06473251 18.2255066,2.66377424 17.133979,0.912607422 C21.1345307,0.0369619648 29.1343468,0.0369619648 29.1343468,0.0369619648 C35.3153793,1.08771169 40.4061714,1.61302451 45.133979,2.83887851 Z" id="Path" fill="#F4A880" fill-rule="nonzero" mask="url(#mask-4)"/>
                    <path d="M2.22007667,12.677 C-3.80192333,28.566 -17.9069233,57.495 -6.95592333,60.885 C0.344076666,63.145 14.3740767,64.275 35.1320767,64.275 L35.1320767,59.786 C20.8266681,58.3284119 12.1934989,54.0726656 9.23256901,47.0187612 C13.5559233,38.1016763 16.8097592,29.5420893 18.9940767,21.34 L19.6860767,18.908 C21.1320767,13.826 18.3360767,8.489 13.4400767,6.987 C8.84507667,5.578 3.97407667,8.048 2.22007667,12.677 Z" id="Path-Copy-3" fill="#000000" fill-rule="nonzero" opacity="0.149553571" mask="url(#mask-4)" transform="translate(12.066038, 35.433583) rotate(-6.000000) translate(-12.066038, -35.433583) "/>
                </g>
                <path d="M343.011875,91.5182242 C348.412512,98.0807472 342.524902,105.02573 342.524902,105.02573 C342.524902,105.02573 358.750957,106.871765 366.491276,104.743457 C366.491276,104.743457 353.452512,94.5334001 354.711556,89.921962 L343.011875,91.5182242 Z" id="Path" fill="#F4A880" fill-rule="nonzero" transform="translate(354.508089, 97.845251) scale(-1, 1) rotate(-8.000000) translate(-354.508089, -97.845251) "/>
                <path d="M368.960395,90.9462735 L356.960395,92.4735828 C359.903489,95.7462117 360.809179,99.67349 361.262826,102.946274 C365.111611,100.109975 367.602661,95.7462117 368.960395,90.9462735 Z" id="Path" fill="#000000" fill-rule="nonzero" opacity="0.20359003" transform="translate(362.960395, 96.946274) scale(-1, 1) translate(-362.960395, -96.946274) "/>
                <path d="M411.897,156.144 C414.195,156.518 415.986,156.073 417.268,154.809 C419.193,152.914 419.193,145.824 414.583,141.011 C411.509,137.803 402.27,129.705 386.865,116.718 L385.531,122.677 L411.897,156.144 Z" id="Path" fill="#6254E8" fill-rule="nonzero"/>
                <path d="M379.194,121.662 C402.492,126.867 414.14,140.498 414.14,162.554 C414.335,161.502 401.732,163.364 401.732,174.125 C401.732,184.886 399.924,195.413 411.91,204.984 C419.901,211.365 426.77,213.944 432.518,212.723 L429.608,218.737 C441.514,277.653 424.709,308.408 379.194,311.002 C310.921,314.894 312.288,258.011 319.875,218.737 C320.14,218.823 319.038,217.429 316.569,214.555 C326.879,212.925 334.005,209.734 337.948,204.984 C343.863,197.859 348.835,182.817 346.349,174.358 C344.691,168.719 340.821,164.784 334.737,162.554 C333.323,139.218 344.661,125.588 368.751,121.662 C369.065,121.707 372.546,121.707 379.194,121.662 Z" id="Path" fill="#192154" fill-rule="nonzero"/>
                <path d="M372.767,314.488 C370.578,314.488 368.804,312.61 368.804,310.293 L368.804,280.231 C365.222,270.526 363.691,262.057 364.212,254.825 C364.223,254.808 370.081,254.808 381.785,254.825 C380.935,265.898 379.25,274.366 376.73,280.231 C376.795,280.087 376.799,290.107 376.742,310.293 C376.735,312.612 374.957,314.488 372.767,314.488 Z" id="Path" fill="#FCA58C" fill-rule="nonzero"/>
                <polygon id="Path" fill="#FCA58C" fill-rule="nonzero" points="380.113 37.6099 381.896 207.679 365.776 207.679 371.184 37.6099"/>
                <line x1="378.126" y1="256.722" x2="378.126" y2="37.6099" id="Path" stroke="#DE8C74"/>
                <line x1="374.531" y1="257.029" x2="376.504" y2="37.6099" id="Path" stroke="#DE8C74"/>
                <line x1="371.362" y1="257.029" x2="374.881" y2="37.8562" id="Path" stroke="#DE8C74"/>
                <line x1="368.005" y1="257.029" x2="373.122" y2="37.6099" id="Path" stroke="#DE8C74"/>
                <path d="M383.06,227.139 L364.936,227.139 C363.572,227.139 362.465,228.246 362.465,229.612 C362.465,230.977 363.572,232.084 364.936,232.084 L383.06,232.084 C384.425,232.084 385.531,230.977 385.531,229.612 C385.531,228.246 384.425,227.139 383.06,227.139 Z" id="Path" fill="#6254E8" fill-rule="nonzero"/>
                <path d="M383.883,241.972 L364.113,241.972 C363.203,241.972 362.465,242.71 362.465,243.62 C362.465,244.53 363.203,245.268 364.113,245.268 L383.883,245.268 C384.793,245.268 385.531,244.53 385.531,243.62 C385.531,242.71 384.793,241.972 383.883,241.972 Z" id="Path" fill="#6254E8" fill-rule="nonzero"/>
                <path d="M365.486,40.906 L367.408,40.906 L367.408,47.4983 L365.486,47.4983 C363.817,47.4983 362.465,46.0226 362.465,44.2022 C362.465,42.3818 363.817,40.906 365.486,40.906 Z" id="Path" fill="#F4A880" fill-rule="nonzero"/>
                <path d="M365.486,52.4424 L367.408,52.4424 L367.408,59.0347 L365.486,59.0347 C363.817,59.0347 362.465,57.559 362.465,55.7386 C362.465,53.9181 363.817,52.4424 365.486,52.4424 Z" id="Path" fill="#F4A880" fill-rule="nonzero"/>
                <g id="Group-8" transform="translate(365.096856, 76.074225) scale(-1, 1) rotate(-8.000000) translate(-365.096856, -76.074225) translate(345.096856, 54.574225)" fill-rule="nonzero">
                    <path d="M5.52919341,9.24507465 C-1.03452142,13.8764486 -0.377840186,19.6106126 3.99745345,24.903723 C8.37274708,30.4173602 11.6546045,8.80402118 11.6546045,8.80402118 L5.52919341,9.24507465 Z" id="Path" fill="#08135A"/>
                    <path d="M8.29841197,8.98207739 C-0.0394653249,24.6294614 1.34535859,41.8942694 12.2102736,42.3360081 C23.0736504,42.7777468 30.4620388,37.2555438 30.8958355,29.0827522 C31.5480688,21.13083 16.5339852,-6.47331639 8.29841197,8.98207739 Z" id="Path" fill="#F4A880"/>
                    <path d="M24.8309493,4.50262674 C10.475238,-1.21497773 2.54804575,0.385860756 4.68987418,6.33231851 C6.8332195,12.2787763 4.0467189,10.9064669 11.7600317,11.3640114 C19.6887407,12.0500851 22.0444487,9.07677514 25.0448287,17.0816159 C28.0452088,25.0864566 29.7592783,28.0597666 36.6155563,24.400383 C43.4718343,20.7409994 36.6155563,9.30562843 24.8309493,4.50262674 Z" id="Path" fill="#08135A"/>
                    <path d="M26.4466967,23.2432088 C32.4708395,21.8811293 36.6427881,21.4271565 36.1785091,28.0102455 C35.7158707,34.8204819 26.213737,36.4093869 26.213737,36.4093869 L26.4466967,23.2432088 Z" id="Path" fill="#F4A880"/>
                </g>
                <path d="M387.453,40.906 L385.531,40.906 L385.531,47.4983 L387.453,47.4983 C389.122,47.4983 390.474,46.0226 390.474,44.2022 C390.474,42.3818 389.122,40.906 387.453,40.906 Z" id="Path" fill="#F4A880" fill-rule="nonzero"/>
                <path d="M387.453,52.4424 L385.531,52.4424 L385.531,59.0347 L387.453,59.0347 C389.122,59.0347 390.474,57.559 390.474,55.7386 C390.474,53.9181 389.122,52.4424 387.453,52.4424 Z" id="Path" fill="#F4A880" fill-rule="nonzero"/>
                <path d="M390.879,216.024 C391.625,213.438 392.803,213.213 394.415,215.35 C396.832,218.555 397.333,223.143 397.333,228.068 C397.333,232.993 397.866,241.399 402.6,241.935 C407.334,242.472 409.874,237.002 407.951,233.742 C406.669,231.568 406.028,232.366 406.028,236.134 C406.645,239.147 406.004,240.653 404.105,240.653 C401.256,240.653 399.122,236.273 399.738,231.843 C400.353,227.414 400.252,219.3 397.333,215.35 C394.415,211.399 389.656,210.962 388.97,216.024 C388.512,219.399 389.149,219.399 390.879,216.024 Z" id="Path" fill="#F2F4FD" fill-rule="nonzero"/>
                <path d="M389.65,220.547 C391.015,220.547 392.121,219.44 392.121,218.075 C392.121,216.71 391.015,215.603 389.65,215.603 C388.285,215.603 387.179,216.71 387.179,218.075 C387.179,219.44 388.285,220.547 389.65,220.547 Z" id="Path" fill="#6254E8" fill-rule="nonzero"/>
                <path d="M358.298,221.064 C356.906,221.064 355.778,219.934 355.778,218.54 C355.778,217.145 356.906,216.015 358.298,216.015 C359.689,216.015 360.818,217.145 360.818,218.54 C360.818,219.934 359.689,221.064 358.298,221.064 Z" id="Path" fill="#6254E8" fill-rule="nonzero"/>
                <path d="M342.549,235.582 C341.505,235.582 340.659,234.734 340.659,233.688 C340.659,232.642 341.505,231.794 342.549,231.794 C343.593,231.794 344.439,232.642 344.439,233.688 C344.439,234.734 343.593,235.582 342.549,235.582 Z" id="Path" fill="#6254E8" fill-rule="nonzero"/>
                <path d="M357.438,216.015 C356.705,213.435 355.546,213.211 353.962,215.342 C351.587,218.54 351.094,223.116 351.094,228.029 C351.094,232.942 350.571,241.326 345.918,241.861 C341.265,242.396 338.769,236.94 340.659,233.688 C341.919,231.52 342.549,232.315 342.549,236.075 C341.942,239.08 342.572,240.582 344.439,240.582 C347.239,240.582 349.336,236.213 348.731,231.794 C348.126,227.376 348.226,219.283 351.094,215.342 C353.962,211.401 358.64,210.965 359.314,216.015 C359.764,219.381 359.138,219.381 357.438,216.015 Z" id="Path" fill="#6254E8" fill-rule="nonzero"/>
                <path d="M405.302,235.38 C406.212,235.38 406.949,234.642 406.949,233.732 C406.949,232.821 406.212,232.083 405.302,232.083 C404.392,232.083 403.654,232.821 403.654,233.732 C403.654,234.642 404.392,235.38 405.302,235.38 Z" id="Path" fill="#6254E8" fill-rule="nonzero"/>
                <path d="M390.879,216.024 C391.625,213.438 392.803,213.213 394.415,215.35 C396.832,218.555 397.333,223.143 397.333,228.068 C397.333,232.993 397.866,241.399 402.6,241.935 C407.334,242.472 409.874,237.002 407.951,233.742 C406.669,231.568 406.028,232.366 406.028,236.134 C406.645,239.147 406.004,240.653 404.105,240.653 C401.256,240.653 399.122,236.273 399.738,231.843 C400.353,227.414 400.252,219.3 397.333,215.35 C394.415,211.399 389.656,210.962 388.97,216.024 C388.512,219.399 389.149,219.399 390.879,216.024 Z" id="Path" fill="#6254E8" fill-rule="nonzero"/>
                <polygon id="Path" fill="#FF9779" fill-rule="nonzero" points="372.351 307.896 372.351 354.042 373.998 354.042 373.998 307.896"/>
                <path d="M373.174,362.282 C375.449,362.282 377.293,359.7 377.293,356.514 C377.293,353.328 375.449,350.746 373.174,350.746 C370.9,350.746 369.055,353.328 369.055,356.514 C369.055,359.7 370.9,362.282 373.174,362.282 Z" id="Path" fill="#FF9779" fill-rule="nonzero"/>
                <line x1="319.436" y1="177.865" x2="436.538" y2="161.384" id="Path" stroke="#B5BEEC" stroke-linecap="square"/>
                <polygon id="Path" fill="#6254E8" fill-rule="nonzero" points="442.19 156.994 442.19 159.922 435.704 160.508 435.704 162.722 450.926 160.508 450.926 156.406 459.067 155.476 459.067 152.976 316.333 171.389 316.333 179.156 320.143 179.156 320.143 173.659"/>
                <path d="M357.794,163.884 C363.808,170.471 367.693,172.551 369.45,170.125 C372.086,166.486 374.382,161.425 369.45,160.151 C366.163,159.302 362.187,159.38 357.522,160.385 L357.794,163.884 Z" id="Path" fill="#FFA478" fill-rule="nonzero"/>
                <path d="M387.179,117.101 C382.565,108.123 379.36,105.031 377.564,107.823 C374.871,112.012 375.145,114.097 377.564,116.2 C379.177,117.603 382.056,119.423 386.202,121.662 L387.179,117.101 Z" id="Path" fill="#F4A880" fill-rule="nonzero"/>
                <path d="M324.611,114.562 C318.589,130.451 304.484,159.38 315.435,162.77 C322.735,165.03 336.765,166.16 357.523,166.16 L357.523,161.671 L330.381,150.16 L341.385,123.225 L342.077,120.793 C343.523,115.711 340.727,110.374 335.831,108.872 C331.236,107.463 326.365,109.933 324.611,114.562 Z" id="Path" fill="#694EF1" fill-rule="nonzero"/>
                <path d="M434.572,73.4932 L443.532,43.9785 C443.858,42.9054 444.958,42.3102 445.99,42.6491 C446.478,42.8095 446.887,43.1627 447.128,43.6328 C447.698,44.744 448.278,46.0877 448.868,47.6639 C451.058,53.5161 451.058,53.5161 454.777,57.1765 C458.495,60.8369 462.954,67.0955 456.09,70.3622 C454.726,71.1054 458.089,65.2267 454.777,63.797 C451.464,62.3672 447.181,57.7511 446.548,54.4445 C445.915,51.1379 444.263,55.9238 441.689,64.3398 C440.18,69.2707 438.642,74.4047 437.074,79.7418 C436.95,84.7085 432.467,88.7003 426.956,88.7003 C421.366,88.7003 416.835,84.5952 416.835,79.5313 C416.835,74.4674 421.366,70.3622 426.956,70.3622 C429.993,70.3622 432.717,71.5741 434.572,73.4932 Z" id="Path" fill="#395DFF"/>
                <path d="M277.422,128.891 L281.902,114.134 C282.065,113.597 282.615,113.3 283.131,113.469 C283.375,113.549 283.58,113.726 283.7,113.961 C283.985,114.517 284.275,115.189 284.57,115.977 C285.665,118.903 285.665,118.903 287.525,120.733 C289.384,122.563 291.613,125.692 288.181,127.326 C287.499,127.697 289.181,124.758 287.525,124.043 C285.868,123.328 283.727,121.02 283.41,119.367 C283.094,117.714 282.268,120.107 280.981,124.315 C280.226,126.78 279.457,129.347 278.673,132.016 C278.611,134.499 276.37,136.495 273.614,136.495 C270.819,136.495 268.554,134.442 268.554,131.91 C268.554,129.378 270.819,127.326 273.614,127.326 C275.132,127.326 276.495,127.932 277.422,128.891 Z" id="Path" fill="#08135A"/>
                <path d="M302.491,30.9045 L302.491,11.57706 C302.491,10.35254 303.291,9.26755 304.471,8.89039 L322.476,3.138051 C323.979,2.657674 325.593,3.471118 326.08,4.95493 C326.172,5.2359 326.219,5.5294 326.219,5.82473 L326.219,32.1995 C326.219,35.8386 322.802,38.7887 318.588,38.7887 C314.373,38.7887 310.957,35.8386 310.957,32.1995 C310.957,28.5603 314.373,25.6102 318.588,25.6102 C320.469,25.6102 322.191,26.1979 323.521,27.1721 L323.521,13.9853 C323.521,13.4654 323.094,13.044 322.567,13.044 C322.464,13.044 322.361,13.0605 322.263,13.093 L305.884,18.5254 C305.495,18.6542 305.234,19.0134 305.234,19.4177 L305.234,35.9648 C305.234,39.6039 301.817,42.554 297.603,42.554 C293.389,42.554 289.972,39.6039 289.972,35.9648 C289.972,32.3256 293.389,29.3755 297.603,29.3755 C299.463,29.3755 301.167,29.9499 302.491,30.9045 Z" id="Path" fill="#FCA58C" transform="translate(308.095500, 22.777000) rotate(-10.000000) translate(-308.095500, -22.777000) "/>
                <g id="Group" opacity="0.4" transform="translate(525.000000, 314.000000)" fill="#F0CDBC" fill-rule="nonzero">
                    <g id="Path">
                        <path d="M83.777,44.986 C129.728,44.986 166.979,35.025 166.979,22.737 C166.979,10.449 129.728,0.488 83.777,0.488 C37.825,0.488 0.574,10.449 0.574,22.737 C0.574,35.025 37.825,44.986 83.777,44.986 Z"/>
                    </g>
                </g>
                <g id="Group-13" transform="translate(620.165091, 122.477000)">
                    <mask id="mask-6" fill="white">
                        <use xlink:href="#path-5"/>
                    </mask>
                    <use id="Path" fill="#FCA58C" fill-rule="nonzero" xlink:href="#path-5"/>
                    <path d="M84.463909,-0.049 C85.6147901,15.9849229 81.4194273,35.4120339 71.8778204,58.2323329 L71.8778214,58.2323333 C70.4469244,61.6545554 67.2392911,64.0035823 63.5447876,64.3348141 C41.8822733,66.2769732 23.6903138,66.0843685 8.96890896,63.757 C8.08905935,61.3440449 7.32090896,60.1643049 8.96890896,56.514 C24.3795756,52.1248177 39.5505756,48.253151 54.481909,44.899 L54.481909,1.029 C54.481909,-7.271 61.202909,-14 69.492909,-14 C77.364909,-14 83.899909,-7.91 84.463909,-0.049 Z" id="Path" fill-opacity="0.058927" fill="#000000" fill-rule="nonzero" mask="url(#mask-6)"/>
                </g>
                <path d="M663.147,240.324 L539.579,240.324 C536.394,240.324 533.812,242.907 533.812,246.092 C533.812,249.278 536.394,251.861 539.579,251.861 L663.147,251.861 C666.331,251.861 668.913,249.278 668.913,246.092 C668.913,242.907 666.331,240.324 663.147,240.324 Z" id="Path" fill="#08135A" fill-rule="nonzero"/>
                <path d="M539.027,245.187 L590.589,334.714 C592.11,337.356 591.206,340.731 588.568,342.257 C585.936,343.78 582.569,342.881 581.046,340.249 C581.044,340.246 581.043,340.243 581.041,340.24 L529.479,250.713 C527.958,248.071 528.862,244.696 531.5,243.169 C534.131,241.646 537.499,242.545 539.021,245.178 C539.023,245.181 539.025,245.184 539.027,245.187 Z" id="Path" fill="#08135A" fill-rule="nonzero"/>
                <path d="M730.846,123.586 L609.894,333.596 C608.372,336.237 609.276,339.612 611.914,341.139 C614.546,342.662 617.914,341.763 619.436,339.13 C619.438,339.127 619.44,339.124 619.441,339.121 L740.394,129.112 C741.915,126.47 741.011,123.095 738.373,121.569 C735.741,120.046 732.374,120.945 730.851,123.577 C730.849,123.58 730.848,123.583 730.846,123.586 Z" id="Path" fill="#08135A" fill-rule="nonzero"/>
                <path d="M645.892,123.586 L524.939,333.596 C523.418,336.237 524.322,339.612 526.96,341.139 C529.592,342.662 532.959,341.763 534.482,339.13 C534.484,339.127 534.485,339.124 534.487,339.121 L655.439,129.112 C656.961,126.47 656.057,123.095 653.419,121.569 C650.787,120.046 647.419,120.945 645.897,123.577 C645.895,123.58 645.893,123.583 645.892,123.586 Z" id="Path" fill="#08135A" fill-rule="nonzero"/>
                <path d="M601.467,168.567 C594.618,164.969 590.023,163.766 587.68,164.956 C584.165,166.742 583.752,173.731 587.68,175.572 C590.298,176.8 595.408,175.657 603.01,172.143 L601.467,168.567 Z" id="Path" fill="#8E5A3E" fill-rule="nonzero"/>
                <g id="Group-12" transform="translate(598.067552, 107.996600)">
                    <mask id="mask-8" fill="white">
                        <use xlink:href="#path-7"/>
                    </mask>
                    <use id="Path" fill="#3B58FF" fill-rule="nonzero" xlink:href="#path-7"/>
                    <mask id="mask-10" fill="white">
                        <use xlink:href="#path-9"/>
                    </mask>
                    <use id="Path" fill="#000000" fill-rule="nonzero" opacity="0.144717262" transform="translate(52.416948, 57.223100) rotate(2.000000) translate(-52.416948, -57.223100) " xlink:href="#path-9"/>
                </g>
                <path d="M578.307,321.379 C577.925,325.508 575.642,329.204 571.459,332.467 C565.184,337.362 553.015,341.457 561.661,345.327 C581.252,343.122 591.876,343.618 589.292,331.492 C587.569,323.408 585.587,318.497 583.344,316.761 L578.307,321.379 Z" id="Path" fill="#2842B6" fill-rule="nonzero"/>
                <path d="M557.179,318.404 C556.797,322.534 554.514,326.23 550.331,329.493 C544.056,334.387 531.887,338.482 540.533,342.352 C560.124,340.147 570.748,340.643 568.164,328.517 C566.441,320.433 564.458,315.523 562.216,313.786 L557.179,318.404 Z" id="Path" fill="#2842B6" fill-rule="nonzero"/>
                <path d="M642.377,209.936 C643.812,227.545 636.429,236.35 620.229,236.35 C604.029,236.35 584.492,237.833 561.619,240.8 L567.057,321.08 L555.471,321.08 L529.596,237.43 C527.009,229.069 531.545,220.165 539.813,217.371 L613.34,192.53 L642.377,209.936 Z" id="Path" fill="#08135A" fill-rule="nonzero"/>
                <path d="M663.795,214.15 C665.234,231.998 657.831,240.922 641.586,240.922 C625.342,240.922 605.752,242.425 582.816,245.433 L589.036,322.728 L577.419,322.728 L551.114,242.287 C548.308,233.723 552.884,224.475 561.329,221.634 C561.33,221.634 561.332,221.633 561.334,221.637 L628.318,199.122 L663.795,214.15 Z" id="Path" fill="#111F7A" fill-rule="nonzero"/>
                <g id="Group-9" transform="translate(607.953000, 91.996600)">
                    <mask id="mask-12" fill="white">
                        <use xlink:href="#path-11"/>
                    </mask>
                    <use id="Path" fill="#395DFF" fill-rule="nonzero" xlink:href="#path-11"/>
                    <path d="M90.510909,35.9544 C91.6617901,51.9883229 87.4664273,71.4154339 77.9248204,94.2357329 L77.9248214,94.2357333 C76.4939244,97.6579554 73.2862911,100.006982 69.5917876,100.338214 C47.9292733,102.280373 29.7373138,102.087769 15.015909,99.7604 C14.1360593,97.3474449 13.367909,96.1677049 15.015909,92.5174 C30.4265756,88.1282177 45.5975756,84.256551 60.528909,80.9024 L60.528909,37.0324 C60.528909,28.7324 67.249909,22.0034 75.539909,22.0034 C83.411909,22.0034 89.946909,28.0934 90.510909,35.9544 Z" id="Path" fill="#000000" fill-rule="nonzero" opacity="0.114025298" mask="url(#mask-12)" transform="translate(52.371860, 61.833406) rotate(3.000000) translate(-52.371860, -61.833406) "/>
                    <path d="M87.8504764,31.1046632 C89.0931431,48.4173299 78.1644629,65.6143939 55.0644358,82.6958554 L57.8684764,32.1826632 C57.8684764,23.8826632 64.5894764,17.1536632 72.8794764,17.1536632 C80.7514764,17.1536632 87.2864764,23.2436632 87.8504764,31.1046632 Z" id="Path-Copy" fill="#000000" fill-rule="nonzero" opacity="0.114025298" mask="url(#mask-12)" transform="translate(71.505034, 49.924759) rotate(3.000000) translate(-71.505034, -49.924759) "/>
                </g>
                <g id="Group-11" transform="translate(635.500000, 67.500000) scale(-1, 1) rotate(-12.000000) translate(-635.500000, -67.500000) translate(603.000000, 29.000000)" fill-rule="nonzero">
                    <path d="M57.2844693,18.6584011 C54.0392551,29.4892685 58.6647167,54.713193 48.4074226,55.9849574 C38.1501286,57.2567218 37.6809913,52.625517 31.7629601,57.4781889 C25.844929,62.3308608 24.505467,67.4195108 24.505467,67.4195108 L4.76194322,57.4781889 C4.76194322,57.4781889 16.0432555,52.2525398 18.2625171,40.1215214 C20.4817788,27.9902385 15.4883746,8.39345924 36.7563644,10.633042 C58.0242232,12.8727571 61.3007173,5.25421623 57.2844693,18.6584011 Z" id="Path" fill="#8E5A3E"/>
                    <path d="M38.9254421,3.06686342 C28.8599164,4.37185468 22.1495659,-5.32217743 18.4215934,4.55826313 C14.6936209,14.4387037 3.50970347,10.1510451 0.713790082,18.540086 C-2.08225527,26.9291268 6.30574882,26.5561778 6.30574882,34.0131764 C6.30574882,41.4700429 8.72886496,46.6898758 18.0487962,47.0628248 C27.3687274,47.4356417 38.5526449,15.743695 47.4997789,19.0993113 C56.4469128,22.4549276 65.7675039,21.8957023 63.9028578,11.0830874 C62.0388716,0.270604539 49.1774325,1.57559581 38.9254421,3.06686342 Z" id="Path" fill="#08135A"/>
                    <path d="M33.9451287,7.04247094 C41.3235882,10.7018442 48.3235346,5.12572695 55.7019941,5.4742034 C57.9722687,5.64844163 60.0532868,5.99704157 62.3235614,6.69399448 C58.1613913,0.943639024 47.7560329,2.1634301 38.864057,3.20898296 C34.3235078,3.73169764 30.5397168,2.33766833 27.3235614,1.29223897 C29.2154569,3.38322118 31.1073524,5.4742034 33.9451287,7.04247094 Z" id="Path" fill="#2842B6"/>
                    <path d="M36.7521768,29.10242 C23.0916771,20.6144647 21.9372744,30.611271 23.0916771,36.0813905 C24.2460797,41.5513764 34.8281724,43.8147866 34.8281724,43.8147866 L36.7521768,29.10242 Z" id="Path" fill="#8E5A3E"/>
                    <path d="M24.505467,67.4195108 C21.9290228,64.93134 18.6714734,60.2132279 14.254712,58.2989373 C10.942141,56.9585269 8.16037953,56.2475691 4.47974504,57.5879796 C10.3687602,61.033974 10.390111,71.3177416 16.0950293,74.9550295 C24.0084586,79.9327278 24.6894335,72.3972092 24.505467,67.4195108 Z" id="Path" fill="#8E5A3E"/>
                </g>
                <polygon id="Path" fill="#6254E8" fill-rule="nonzero" points="591.477 159.11 595.008 159.11 594.109 177.697 592.186 177.697"/>
                <path d="M593.243,154.624 C594.217,154.624 595.008,155.341 595.008,156.226 L595.008,159.751 L591.477,159.751 L591.477,156.226 C591.477,155.341 592.268,154.624 593.243,154.624 Z" id="Path" fill="#3225AE" fill-rule="nonzero"/>
                <path d="M593.596,155.264 L595.714,155.264 C596.104,155.264 596.42,155.551 596.42,155.905 L596.42,159.302 C596.42,159.55 596.209,159.751 595.949,159.751 C595.689,159.751 595.479,159.55 595.479,159.302 L595.479,156.228 C595.479,156.051 595.321,155.908 595.126,155.908 L593.596,155.908 L593.596,155.264 Z" id="Path" fill="#3225AE" fill-rule="nonzero"/>
                <path d="M595.614,168.254 L581.24,163.944 C580.194,163.631 579.092,164.225 578.779,165.271 C578.664,165.654 578.668,166.064 578.791,166.445 L589.455,199.563 C589.698,200.318 590.368,200.855 591.157,200.927 L607.222,202.39 L622.522,199.536 C623.595,199.335 624.303,198.303 624.103,197.229 C624.091,197.167 624.077,197.105 624.059,197.045 L614.776,164.768 C614.474,163.718 613.379,163.112 612.33,163.414 C612.328,163.414 612.327,163.415 612.326,163.415 L595.614,168.254 Z" id="Path" fill="#EE967C" fill-rule="nonzero"/>
                <path d="M607.222,202.39 L622.522,199.536 C623.595,199.335 624.303,198.303 624.103,197.229 C624.091,197.167 624.077,197.105 624.059,197.045 L614.776,164.768 C614.474,163.718 613.379,163.112 612.33,163.414 C612.329,163.414 612.327,163.415 612.326,163.415 L595.614,168.254" id="Path" fill="#FCA58C" fill-rule="nonzero"/>
                <path d="M622.745,180.682 C615.274,176.571 610.261,175.196 607.705,176.556 C603.871,178.597 603.42,186.584 607.705,188.689 C610.561,190.092 616.136,188.785 624.429,184.77 L622.745,180.682 Z" id="Path" fill="#8E5A3E" fill-rule="nonzero"/>
                <path d="M696.629,122.428 C697.779881,138.461923 693.584518,157.889034 684.042911,180.709333 L684.042912,180.709333 C682.612015,184.131555 679.404382,186.480582 675.709879,186.811814 C654.047364,188.753973 635.855405,188.561369 621.134,186.234 C620.25415,183.821045 619.486,182.641305 621.134,178.991 C636.544667,174.601818 651.715667,170.730151 666.647,167.376 L666.647,123.506 C666.647,115.206 673.368,108.477 681.658,108.477 C689.53,108.477 696.065,114.567 696.629,122.428 Z" id="Path" fill="#395DFF" fill-rule="nonzero"/>
                <path d="M641.977,245.187 L692.891,333.588 C694.412,336.23 693.508,339.605 690.87,341.131 C688.238,342.654 684.871,341.755 683.348,339.123 C683.346,339.12 683.345,339.117 683.343,339.114 L632.429,250.713 C630.908,248.071 631.812,244.696 634.45,243.169 C637.082,241.646 640.449,242.545 641.972,245.178 C641.974,245.181 641.975,245.184 641.977,245.187 Z" id="Path" fill="#08135A" fill-rule="nonzero"/>
                <path d="M73.8284,472.704 C61.5363,415.382 3.27586,355.915 0,354.042 C76.0714,354.042 157.901,393.596 245.488,472.704 L73.8284,472.704 Z" id="Path" fill="#6254E8"/>
                <path d="M143.339,472.704 C102.996,397.013 55.2162,357.459 0,354.042" id="Path" stroke="#8F9AD2" stroke-width="2" stroke-linecap="round"/>
                <line x1="123.568" y1="439.742" x2="87.3213" y2="434.798" id="Path" stroke="#8F9AD2" stroke-width="2" stroke-linecap="round"/>
                <line x1="104.048" y1="384" x2="104" y2="413.196" id="Path" stroke="#8F9AD2" stroke-width="2" stroke-linecap="round"/>
                <path d="M590.061,472.704 C599.988,426.528 647.038,378.624 649.683,377.115 C588.25,377.115 522.167,408.978 451.434,472.704 L590.061,472.704 Z" id="Path" fill="#FCA58C"/>
                <path d="M508.506,472.704 C546.823,418.952 593.882,387.089 649.683,377.115" id="Path" stroke="#FFC8B8" stroke-width="2" stroke-linecap="round"/>
                <path d="M140.775,472.704 C92.4164,420.695 84.3142,333.347 116.469,210.658 C106.024,258.074 143.051,299.156 227.548,333.903 C304.735,365.644 360.398,411.911 394.536,472.704 L140.775,472.704 Z" id="Path" fill="#08135A"/>
                <path d="M258.668,474.224 C145.893,407.202 95.8086297,324.17748 113.75293,225.29248" id="Path" stroke="#656FB2" stroke-width="2" stroke-linecap="round"/>
                <line x1="226" y1="452.525" x2="229.105" y2="408" id="Path" stroke="#656FB2" stroke-width="2" stroke-linecap="round"/>
                <line x1="141" y1="367.525" x2="144.105" y2="323" id="Path" stroke="#656FB2" stroke-width="2" stroke-linecap="round"/>
                <line x1="130.819" y1="410.782" x2="175.438" y2="410.789" id="Path" stroke="#656FB2" stroke-width="2" stroke-linecap="round"/>
                <path d="M759.53,472.704 C783.916,447.627 815.576,429.651 854.509,418.777 C912.133,402.682 940.945,380.554 940.945,352.394 C953.463,402.681 950.549,442.785 932.203,472.704 L759.53,472.704 Z" id="Path" fill="#08135A"/>
                <path d="M726.139,472.704 C701.752,447.627 670.092,429.651 631.16,418.777 C573.535,402.682 544.723,380.554 544.723,352.394 C532.206,402.681 535.12,442.785 553.465,472.704 L726.139,472.704 Z" id="Path" fill="#395DFF"/>
                <path d="M650.79,472.704 C574.239,470.622 538.817,432.45 544.522,358.185" id="Path" stroke="#5E7AF7" stroke-width="2" stroke-linecap="round"/>
                <line x1="597.359" y1="462.857" x2="602.187" y2="430.575" id="Path" stroke="#5E7AF7" stroke-width="2" stroke-linecap="round"/>
                <line x1="571.041" y1="447.305" x2="574.336" y2="425.993" id="Path" stroke="#5E7AF7" stroke-width="2" stroke-linecap="round"/>
                <line x1="543.928" y1="436.649" x2="560.626" y2="434.566" id="Path" stroke="#5E7AF7" stroke-width="2" stroke-linecap="round"/>
                <path d="M425.326,397.775 C450.849,374.951 458.167,351.583 447.28,327.672 C494.143,387.734 498.504,436.078 460.361,472.704 L365.76,472.704 C381.68,444.027 401.535,419.051 425.326,397.775 Z" id="Path" fill="#6254E8"/>
                <path d="M416.847,472.704 C454.16,424.101 464.305,375.757 447.28,327.672" id="Path" stroke="#766AF1" stroke-width="2" stroke-linecap="round"/>
                <line x1="430.609375" y1="452.918945" x2="422.239" y2="424.909" id="Path" stroke="#766AF1" stroke-width="2" stroke-linecap="round"/>
                <line x1="470.438477" y1="414.462191" x2="446.491067" y2="421.692383" id="Path" stroke="#766AF1" stroke-width="2" stroke-linecap="round"/>
                <line x1="449.131836" y1="388.118164" x2="452.722656" y2="400.188" id="Path" stroke="#766AF1" stroke-width="2" stroke-linecap="round"/>
                <path d="M769.874,298.153 C829.37,244.984 846.429,190.548 821.05,134.847 C930.295,274.763 940.459,387.382 851.543,472.704 L631.019,472.704 C668.128,405.9 714.413,347.717 769.874,298.153 Z" id="Path" fill="#6254E8"/>
                <path d="M751.593,472.704 C852.443,328.686 877.527176,218.671914 824.805176,141.211914" id="Path" stroke="#766AF1" stroke-width="2" stroke-linecap="round"/>
                <line x1="782.595" y1="425.605" x2="858.849" y2="413.245" id="Path" stroke="#766AF1" stroke-width="2" stroke-linecap="round"/>
                <line x1="835.318" y1="318.48" x2="890.511" y2="306.595" id="Path" stroke="#766AF1" stroke-width="2" stroke-linecap="round"/>
                <line x1="816.782" y1="363.976" x2="793.993" y2="321.08" id="Path" stroke="#766AF1" stroke-width="2" stroke-linecap="round"/>
            </g>
        </g>
    </g>
</svg>