<svg width="107" height="203" viewBox="0 0 107 203" fill="none" xmlns="http://www.w3.org/2000/svg">
<path d="M20.6793 31.3636C21.1032 28.3609 22.2825 25.6005 25.1222 23.4197C29.9745 19.6918 46.8845 0.316695 85.7095 21.9577C89.2323 23.9213 85.04 27.9788 84.0908 31.2758C81.6712 39.6903 84.162 44.2524 88.3176 51.4256C90.0332 54.3973 85.9721 51.1755 81.0407 46.639C72.1885 38.5081 61.1383 38.7687 50.3836 42.3332C39.1581 46.0575 25.8267 51.2937 20.975 63.1653C20.0264 65.4857 18.0748 60.6357 18.1364 60.016C18.6696 55.0094 20.0126 50.1105 20.5153 45.115C20.9406 40.5381 20.0343 35.9054 20.6793 31.3636Z" fill="#2D2C2C"/>
<path opacity="0.25" d="M53.0353 202.992C82.3258 202.992 106.071 200.126 106.071 196.591C106.071 193.056 82.3258 190.191 53.0353 190.191C23.7447 190.191 0 193.056 0 196.591C0 200.126 23.7447 202.992 53.0353 202.992Z" fill="#C74442"/>
<path d="M63.5524 119.449C62.3635 117.236 60.2992 112.163 62.4824 109.983C66.4922 105.968 69.1186 115.25 70.2102 117.571C71.9719 121.316 74.5874 125.461 74.6739 129.703C74.7063 131.506 72.977 132.844 70.9127 131.981C67.8756 130.707 67.065 128.116 65.8761 125.278C65.0979 123.432 64.5251 121.252 63.5524 119.449Z" fill="#DE8C79"/>
<path d="M38.5313 120.874C39.9472 118.802 42.8329 114.203 40.8875 111.796C37.3208 107.393 33.0948 115.693 31.7763 117.884C29.6363 121.424 27.1396 124.954 26.61 129.174C26.383 130.966 26.4587 133.643 29.031 132.801C32.1653 131.776 33.8082 128.71 35.2997 126.001C36.2508 124.263 37.3748 122.569 38.5313 120.874Z" fill="#DE8C79"/>
<path d="M62.6876 122.882C52.9711 99.3298 63.4982 104.619 66.773 108.947C67.8971 110.436 73.2471 119.05 72.9769 119.082C68.9347 119.579 66.2759 122.04 62.6876 122.882Z" fill="#405B70"/>
<path d="M38.7799 122.86C52.852 103.172 43.3409 105.158 38.942 108.342C37.4289 109.433 29.7984 116.114 30.047 116.222C33.7649 117.884 35.5807 121.014 38.7799 122.86Z" fill="#405B70"/>
<path d="M58.343 138.133C53.0146 137.539 47.5241 136.751 42.7901 137.863C37.2888 139.158 37.8833 142.85 37.7644 147.782C37.6131 153.849 37.0078 159.904 37.1267 165.97C37.2348 171.442 38.7695 177.26 39.6017 182.722C40.488 188.582 50.7341 188.216 51.0475 182.139C51.2745 177.789 50.5395 173.256 50.3234 168.916C50.2153 166.671 50.2261 164.416 50.4855 162.17C50.5719 161.458 51.3826 155.457 52.0418 155.435C52.5823 155.414 53.1118 155.403 53.6414 155.435C54.0846 162.116 55.6409 168.711 55.7598 175.403C55.8463 180.39 54.6142 187.438 62.0285 186.445C65.3142 186.014 66.73 185.355 66.903 181.934C67.4001 171.755 70.113 161.264 68.362 151.085C67.6379 146.908 66.7408 142.828 66.3626 138.597C63.8227 138.694 61.099 138.435 58.343 138.133Z" fill="#28C76F"/>
<path d="M57.5426 101.758C57.4993 101.715 57.4993 101.715 57.5426 101.758C60.4932 103.777 61.4659 107.922 62.4711 111.127C67.2374 126.346 66.924 143.422 68.2642 146.962C68.4587 147.48 69.2045 148.419 69.3018 148.862C69.9611 151.97 66.697 151.226 64.2652 151.398C57.521 151.852 50.2039 153.751 43.4596 152.791C41.7952 152.553 37.4612 151.97 36.6181 150.287C36.175 149.402 36.7911 149.186 36.8559 148.355C36.964 146.919 37.3207 145.483 37.472 144.048C38.2501 136.913 38.034 129.66 38.9959 122.525C39.6552 117.657 40.7144 112.833 42.7139 108.429C44.7674 103.906 49.4581 101.165 54.419 101.542C56.2672 101.683 57.5426 101.758 57.5426 101.758Z" fill="#273744"/>
<path d="M50.6366 185.873C50.4205 187.341 48.6587 187.946 47.4158 188.259C45.2974 188.798 40.9742 188.766 40.6499 185.841C39.8718 186.661 39.3422 187.751 38.7693 188.712C38.1641 189.748 37.5696 190.795 37.0509 191.875C36.4672 193.094 35.8728 194.206 36.0349 195.588C36.1106 196.224 35.97 197.099 36.3591 197.66C36.651 198.092 37.5372 198.448 38.0344 198.599C40.5635 199.344 43.2007 199.419 45.8054 199.074C46.6917 198.955 47.6752 199.042 48.4318 198.459C49.037 197.984 49.5126 197.444 49.8044 196.764C50.7879 194.476 52.2362 191.043 51.5229 188.529C51.3391 187.838 51.3608 186.251 50.6366 185.873Z" fill="#FFAA00"/>
<path d="M48.4416 198.34C47.6093 200.153 45.4045 199.765 43.8049 199.711C41.6757 199.646 39.406 200.035 37.4173 199.052C35.1584 197.93 37.0066 195.296 38.5306 194.519C40.4436 193.548 43.1456 193.558 45.1343 194.282C46.5826 194.81 49.2954 196.483 48.4416 198.34Z" fill="white"/>
<path d="M36.0993 197.109C36.0993 197.109 36.8342 198.664 41.5898 198.75C46.3454 198.836 48.1611 198.437 48.9609 197.574C50.0741 196.376 51.5224 190.979 51.7062 189.176C51.7062 189.176 51.8683 190.989 51.6954 191.875C51.5224 192.76 50.5173 199.117 48.8312 199.808C47.1343 200.509 44.2918 200.866 41.6871 200.671C39.0823 200.477 36.5857 199.581 36.2398 198.804C35.8831 198.038 35.9156 197.336 36.0993 197.109Z" fill="white"/>
<path d="M39.6443 188.626C42.3787 186.856 46.6371 188.744 48.4312 189.921C48.7122 190.104 48.0638 191.313 47.7179 191.184C46.7452 190.806 45.3293 190.461 43.8918 190.407C45.3185 190.515 46.6371 190.795 47.7503 191.616C47.9233 191.745 47.5125 192.468 47.318 192.371C46.2048 191.842 45.0159 191.659 43.6108 191.616C42.1301 191.572 40.617 191.939 39.1687 191.896C38.5526 191.875 39.3741 190.612 39.5686 190.428C40.0009 190.018 40.4981 189.716 41.0385 189.489C40.4116 189.576 39.828 189.759 39.3416 190.094C38.7148 190.547 39.1255 188.949 39.6443 188.626Z" fill="white"/>
<path d="M56.1596 185.56C56.365 187.039 58.1267 187.643 59.3588 187.967C61.4772 188.518 65.8004 188.518 66.1355 185.593C66.9137 186.413 67.4325 187.514 67.9945 188.475C68.5889 189.511 69.1834 190.558 69.6913 191.648C70.2642 192.878 70.8586 193.99 70.6857 195.361C70.61 195.998 70.7397 196.872 70.3506 197.433C70.048 197.865 69.1617 198.21 68.6646 198.362C66.1355 199.096 63.4983 199.15 60.8828 198.793C59.9965 198.675 59.013 198.75 58.2564 198.167C57.6511 197.692 57.1756 197.142 56.8946 196.462C55.9218 194.174 54.4952 190.72 55.2301 188.216C55.4355 187.525 55.4247 185.938 56.1596 185.56Z" fill="#FFAA00"/>
<path d="M58.2663 198.049C59.0877 199.862 61.2925 199.495 62.8921 199.452C65.0213 199.398 67.2802 199.808 69.2797 198.836C71.5494 197.725 69.712 195.091 68.1989 194.303C66.2967 193.321 63.5839 193.31 61.5952 194.023C60.1577 194.53 57.4341 196.181 58.2663 198.049Z" fill="white"/>
<path d="M70.6204 196.894C70.6204 196.894 69.8746 198.448 65.119 198.502C60.3635 198.556 58.5585 198.146 57.7479 197.282C56.6347 196.084 55.2297 190.676 55.0567 188.863C55.0567 188.863 54.8838 190.676 55.0459 191.562C55.208 192.447 56.17 198.804 57.8668 199.516C59.5529 200.229 62.4062 200.607 65.011 200.423C67.6157 200.25 70.1232 199.365 70.469 198.588C70.8365 197.822 70.8041 197.12 70.6204 196.894Z" fill="white"/>
<path d="M66.7839 188.399C66.3516 188.01 65.7571 187.762 65.2167 187.676C63.6279 187.428 61.7149 187.935 60.2558 188.539C59.4776 188.863 58.6778 189.23 57.9429 189.651C57.6078 189.835 57.8564 191.076 58.2239 190.946C59.2831 190.569 60.7422 190.223 62.1364 190.191C60.7314 190.288 59.3804 190.558 58.051 191.389C57.8456 191.518 58.0077 192.263 58.2239 192.166C59.5425 191.605 61.034 191.421 62.439 191.249C64.0711 191.054 65.7247 190.882 67.3675 191.043C68.1889 191.13 67.9079 190.461 67.3027 190.331C66.9244 190.245 66.6758 190.212 66.4164 189.899C66.4921 189.996 67.1514 189.619 67.2162 189.522C67.3783 189.284 67.2811 189.047 67.1406 188.82C67.0541 188.669 66.9244 188.529 66.7839 188.399Z" fill="white"/>
<path d="M41.6762 183.488C43.373 184.006 45.2861 184.222 46.9505 184.006C47.6747 183.909 48.4961 183.725 49.1554 183.412C49.739 183.132 50.1497 182.506 50.7117 182.257C51.3926 181.966 51.6088 182.376 51.652 182.991C51.6736 183.337 51.4683 183.639 51.4791 183.963C51.4899 184.373 51.7709 184.729 51.7709 185.15C51.7601 185.787 50.4848 187.244 49.9984 187.611C48.5177 188.734 46.3561 189.101 44.5511 188.831C42.6165 188.539 39.8712 188.27 39.5146 185.938C39.4065 185.236 38.3689 183.175 39.32 182.722C39.7848 182.506 40.0225 182.851 40.4008 183.013C40.8007 183.196 41.233 183.348 41.6762 183.488Z" fill="#248D53"/>
<path d="M65.1953 183.563C63.4984 184.071 61.5746 184.276 59.9209 184.049C59.1968 183.952 58.3862 183.758 57.7161 183.445C57.1324 183.164 56.7325 182.527 56.1705 182.279C55.4896 181.977 55.2734 182.387 55.2302 183.002C55.2086 183.348 55.414 183.65 55.4031 183.974C55.3923 184.384 55.1113 184.74 55.1113 185.161C55.1113 185.798 56.3867 187.266 56.8622 187.633C58.3321 188.766 60.4938 189.144 62.3095 188.885C64.2442 188.604 67.0002 188.345 67.3569 186.024C67.465 185.323 68.5242 183.272 67.573 182.808C67.1083 182.581 66.8705 182.927 66.4814 183.099C66.0707 183.272 65.6384 183.423 65.1953 183.563Z" fill="#248D53"/>
<path d="M10.9049 74.6663C13.9311 70.2409 18.9028 72.4104 21.3347 76.0587C23.1504 78.7895 23.9394 84.672 20.0485 86.0968C17.6167 86.9819 14.0068 85.4168 12.3099 83.6466C10.0294 81.2828 8.89457 77.6022 10.9049 74.6663Z" fill="#C77D6C"/>
<path d="M94.6037 76.4365C91.772 71.8815 86.7138 73.846 84.1307 77.3863C82.1961 80.0415 81.1693 85.8809 84.9954 87.4676C87.3839 88.4606 91.0587 87.0466 92.8312 85.352C95.1982 83.0746 96.4843 79.4479 94.6037 76.4365Z" fill="#C77D6C"/>
<path d="M86.9072 43.6669C82.9839 35.6688 72.2083 34.3088 64.2751 33.413C51.4243 31.945 39.3949 30.8441 27.3547 37.0936C12.9151 44.5952 19.5405 67.1107 19.2703 79.9768C19.0217 91.8822 28.2842 95.8542 36.0012 97.6028C43.7182 99.3514 48.8088 100.636 48.3548 103.41C47.9009 106.184 45.6636 113.901 51.8242 114.031C51.8891 114.031 51.9431 114.031 52.008 114.031C52.0728 114.031 52.1268 114.031 52.1917 114.042C58.3523 114.171 56.7095 106.259 55.8664 103.442C55.0666 100.755 60.7733 99.7292 68.5551 98.3044C75.7317 96.9876 84.0323 93.0695 85.8372 85.2333C86.8208 82.1355 86.9829 74.472 86.9829 74.472C87.5341 65.5241 90.7225 53.1006 87.2963 44.5844C87.1775 44.2606 87.0478 43.9584 86.9072 43.6669Z" fill="#DE8C79"/>
<path d="M20.6029 55.2681C20.9271 54.5449 21.2946 53.8002 21.7053 53.0338C28.0497 40.9557 44.0997 40.1246 56.4317 40.2541C63.4353 40.3297 69.0123 41.096 75.3242 43.7081C68.0612 48.5113 78.1559 55.0306 82.9871 55.0091C82.4792 60.611 82.825 65.7164 85.2352 70.9621C83.3978 72.5919 81.1498 79.1544 84.8785 76.251C84.8785 76.0783 84.8786 76.0675 84.8677 76.2402C84.5867 77.0605 84.7813 77.9564 84.6192 78.7767C91.5796 76.9094 90.3366 55.0198 89.4936 50.0764C85.5487 26.7405 55.2428 26.1037 37.0744 29.8167C27.6822 31.7271 19.922 37.1024 17.4469 46.7843C16.3445 51.1125 16.3877 55.743 16.4202 60.1684C16.431 62.5754 15.0367 76.931 19.3383 77.503C22.1376 77.8808 20.9271 73.423 19.5437 72.4948C23.7697 71.0052 20.0193 67.1411 19.4464 64.4643C18.6791 60.9132 19.2951 58.1716 20.6029 55.2681Z" fill="#2D2C2C"/>
<path d="M54.2883 82.2111C53.802 82.4593 53.2724 82.6428 52.7212 82.6536C52.1051 82.6644 51.5863 82.4161 51.0351 82.1787C50.3542 81.8873 49.4463 81.4447 50.0192 80.5488C50.3542 80.0092 51.0351 80.1495 51.5539 80.3006C52.1267 80.4625 52.8293 80.6676 53.4237 80.5488C54.0073 80.4301 54.5802 80.0308 55.1746 80.0092C55.9528 79.9768 56.0393 81.013 55.6394 81.4771C55.3043 81.8657 54.7747 81.952 54.3316 82.1895C54.31 82.2003 54.2992 82.2003 54.2883 82.2111Z" fill="#DBAE98"/>
<path d="M34.8556 76.5552C33.8504 75.9184 32.6507 75.4003 31.3213 75.0873C26.9116 74.0511 22.783 75.5946 22.0912 78.5304C21.3995 81.4663 24.4042 84.6936 28.8139 85.7298C30.1433 86.0428 31.4402 86.1184 32.6291 85.9888C36.4876 86.2479 39.6436 85.0066 40.1623 82.7723C40.6919 80.5704 38.4331 78.0447 34.8556 76.5552Z" fill="#EC9B92"/>
<path d="M84.9735 79.8689C84.4007 76.9006 80.3368 75.1844 75.8947 76.0371C74.5545 76.2962 73.344 76.7603 72.3064 77.3539C68.6749 78.6923 66.3079 81.1101 66.7403 83.3552C67.1726 85.6003 70.2637 86.9819 74.133 86.8847C75.3219 87.0574 76.6188 87.0358 77.959 86.7876C82.3904 85.9241 85.5355 82.8371 84.9735 79.8689Z" fill="#EC9B92"/>
<path d="M34.1001 78.1742C37.0615 78.4441 37.4938 73.0796 34.7486 72.432C31.0522 71.5577 31.1603 77.9152 34.1001 78.1742Z" fill="black"/>
<path d="M71.312 78.973C74.2842 79.1781 74.576 73.8028 71.82 73.2092C68.1128 72.432 68.3614 78.7787 71.312 78.973Z" fill="black"/>
<path d="M52.8297 90.6301C50.9923 90.5869 48.085 90.0796 46.8204 88.5469C45.6964 87.1869 46.0531 86.2479 47.912 86.1184C50.5816 85.9349 52.7216 87.7914 55.5858 87.3273C56.6234 87.1654 58.7525 86.4961 58.3851 88.2987C58.0176 90.1228 54.2672 90.6409 52.8297 90.6301Z" fill="#DF8C8D"/>
<path d="M55.1421 87.3812C55.2502 87.446 55.3691 87.4892 55.4772 87.5647C55.9636 88.0504 56.4391 88.8815 56.9255 89.799C55.6069 90.425 53.7371 90.6409 52.8184 90.6301C51.0026 90.5869 48.1817 90.0904 46.8848 88.6225C48.0953 87.5107 49.5868 86.8415 51.1107 86.6581C52.3969 87.0466 53.683 87.5 55.1421 87.3812Z" fill="#C06568"/>
<path d="M57.3269 88.385C56.2245 88.6873 48.2806 88.4174 47.4051 87.4784C47.0917 87.133 47.0484 86.6904 47.1241 86.2587C47.3511 86.1939 47.5997 86.14 47.9023 86.1184C50.5719 85.9349 52.7119 87.7914 55.576 87.3273C56.2245 87.2193 57.2945 86.9171 57.9214 87.1546C57.9754 87.6727 57.8781 88.2339 57.3269 88.385Z" fill="white"/>
<path d="M36.4878 60.0517C36.4986 55.2485 30.338 58.7457 29.3652 61.3038C29.83 61.0771 36.4878 59.0911 36.4878 60.0517Z" fill="#6E2D07"/>
<path d="M68.2642 61.3362C66.6646 56.8028 73.625 58.0657 75.3976 60.1489C74.8896 60.0841 67.9508 60.4187 68.2642 61.3362Z" fill="#6E2D07"/>
<path d="M57.0131 112.746L47.783 112.714L47.1777 113.782C47.1777 113.782 47.4804 114.538 47.502 114.581C47.5236 114.624 57.4238 114.247 57.4238 114.247V113.523L57.0131 112.746Z" fill="#28C76F"/>
<path d="M39.2329 121.122C37.7414 121.414 36.4876 122.288 35.6554 124.155C33.6343 128.667 38.606 126.897 41.1351 127.188C43.8804 127.49 46.0852 128.786 48.6143 129.617C51.5757 130.588 63.5078 132.553 66.2855 132.887C68.4904 133.157 77.2017 132.952 73.8944 128.451C71.3329 124.976 65.5722 124.792 61.6813 124.803C58.3956 124.814 55.11 124.652 51.8675 124.112C48.3009 123.518 43.0265 120.388 39.2329 121.122Z" fill="#C77D6C"/>
<path d="M61.4541 120.151C62.9564 120.334 64.275 121.133 65.2261 122.936C67.5391 127.307 62.4701 125.871 59.9626 126.314C57.2389 126.8 55.1314 128.235 52.6563 129.228C49.7706 130.394 37.9898 133.136 35.2445 133.654C33.0613 134.064 24.2419 134.28 27.3654 129.725C29.808 126.163 35.4282 125.526 39.3191 125.278C42.594 125.073 45.8688 124.695 49.068 123.95C52.5699 123.13 57.628 119.665 61.4541 120.151Z" fill="#DE8C79"/>
</svg>
