<?xml version="1.0" encoding="UTF-8"?>
<svg width="606px" height="340px" viewBox="0 0 606 340" version="1.1" xmlns="http://www.w3.org/2000/svg" xmlns:xlink="http://www.w3.org/1999/xlink">
    <title>7B371909-86BB-4674-8BCD-E5F09FCC5CE0</title>
    <g id="Front" stroke="none" stroke-width="1" fill="none" fill-rule="evenodd">
        <g id="Home" transform="translate(-834.000000, -4605.000000)" fill-rule="nonzero">
            <g id="Group-46" transform="translate(0.000000, 4585.000000)">
                <g id="banner-teachwithus.ca21a21c" transform="translate(833.000000, 20.000000)">
                    <path d="M746,319.727235 C743.471082,330.731905 740.305957,341.123966 736.520532,352.128635 L628.906304,355.185311 C618.138519,357.018362 339,355.185311 339,355.185311 C339,355.185311 373.814777,349.682976 387.739734,306.278498 C401.669462,262.261413 457.369289,226.193912 506.738866,269.598389 C555.472238,313.613884 576.371602,247.590642 632.707634,284.270751 C661.814054,303.221823 699.159341,289.160478 725.752747,301.998198 C733.355408,305.054873 740.305957,312.39185 746,319.727235 Z" id="Path" fill="#B2ABF3"></path>
                    <path d="M310.368,164.858 C316.338,166.01 475.53,164.858 475.53,164.858 C475.53,164.858 455.63,161.784 447.67,138.732 C439.71,115.68 407.87,96.47 380.01,119.522 C352.16,142.574 340.216,107.996 308.378,127.206 C276.541,146.416 233.56,162.937 233.56,162.937 L310.368,164.858 Z" id="Path" fill="#B2ABF3"></path>
                    <path d="M380.01,515.248 C379.22,519.09 385.19,508.717 383.99,512.175 C364.09,514.096 350.56,521.395 329.073,527.158 C314.348,529.079 299.623,530.232 284.5,530.232 C257.836,530.232 232.366,526.774 208.089,520.627 C205.701,519.09 203.712,517.169 201.324,515.632 C151.577,477.981 101.83,427.266 71.982,362.337 C48.9,312.006 40.543,258.987 40.145,209.425 C39.349,152.948 49.298,100.696 59.247,63.045 C69.197,24.6249 79.544,0.8045 79.544,0.8045 C79.544,0.8045 92.677,5.4149 113.372,15.0199 C175.057,43.4507 304.797,114.912 361.71,239.008 C379.22,277.428 388.37,317.385 391.95,356.189 C396.73,415.356 389.56,471.833 380.01,515.248 Z" id="Path" fill="#5245CF"></path>
                    <path d="M177.047,186.757 C176.252,186.757 175.456,186.373 175.058,185.605 C174.66,184.452 122.127,70.729 85.514,16.9409 C84.718,16.1725 85.116,15.0199 85.912,14.2515 C86.708,13.4831 87.901,13.8672 88.697,14.6356 C125.311,68.808 177.843,182.915 178.241,184.068 C178.639,185.22 178.241,185.989 177.047,186.757 C177.445,186.757 177.445,186.757 177.047,186.757 Z" id="Path" fill="#6254E8"></path>
                    <path d="M140.036,182.915 L139.638,182.915 C95.463,171.773 76.758,171.389 76.36,171.389 C75.166,171.389 74.37,170.621 74.37,169.468 C74.37,168.316 75.166,167.547 76.36,167.547 C77.156,167.547 95.861,167.547 140.434,179.073 C141.628,179.457 142.026,180.226 142.026,181.378 C141.628,182.531 140.832,182.915 140.036,182.915 Z" id="Path" fill="#6254E8"></path>
                    <path d="M119.341,98.391 C118.943,98.391 118.943,98.391 118.545,98.391 C118.545,98.391 100.637,90.707 85.514,89.939 C84.32,89.939 83.524,88.786 83.524,88.018 C83.524,87.25 84.718,86.097 85.514,86.097 C101.433,87.25 119.341,94.549 120.137,94.933 C121.331,95.318 121.729,96.47 121.331,97.623 C120.933,98.007 120.137,98.391 119.341,98.391 Z" id="Path" fill="#6254E8"></path>
                    <path d="M525.27,388.078 C520.5,415.74 509.75,445.708 487.86,469.144 C460.8,497.959 422.2,510.253 389.17,516.401 C369.67,519.858 351.36,522.164 340.216,522.548 C332.257,522.548 327.879,522.548 327.879,522.548 C327.879,522.548 311.96,422.272 366.48,363.873 C372.45,357.342 379.22,351.579 386.38,346.968 C443.29,306.628 526.47,310.854 526.47,310.854 C526.47,310.854 532.44,346.584 525.27,388.078 Z" id="Path" fill="#111F7A"></path>
                    <path d="M449.26,394.225 C448.86,394.225 448.46,394.225 448.07,393.841 C447.67,393.457 447.27,392.688 447.27,392.304 C450.06,360.8 438.52,330.832 438.52,330.832 C438.12,329.679 438.52,328.911 439.71,328.527 C440.9,328.143 441.7,328.527 442.1,329.679 C442.5,330.832 453.24,358.879 451.25,389.999 C478.71,379.625 512.54,381.931 514.13,381.931 C515.32,381.931 516.12,383.083 516.12,383.852 C516.12,385.004 514.93,385.773 514.13,385.773 C513.73,385.773 477.12,383.467 450.06,394.609 C449.66,394.225 449.26,394.225 449.26,394.225 Z" id="Path" fill="#2842B6"></path>
                    <path d="M369.27,501.033 C368.87,501.033 368.07,501.033 367.68,500.648 C366.88,499.88 366.88,498.727 367.68,497.959 C383.6,482.591 402.7,454.929 422.99,425.345 C455.23,378.473 489.06,329.68 518.51,316.233 C519.3,315.848 520.5,316.233 521.29,317.001 C521.69,317.769 521.29,318.922 520.5,319.69 C491.84,332.753 457.22,383.083 426.58,427.651 C406.28,457.234 386.78,485.281 370.46,501.033 C370.06,500.648 369.67,501.033 369.27,501.033 Z" id="Path" fill="#2842B6"></path>
                    <path d="M200.926,314.695 C249.876,400.756 200.528,517.937 200.528,517.937 C200.528,517.937 71.585,495.269 22.634,409.209 C-26.317,323.148 23.032,205.967 23.032,205.967 C23.032,205.967 151.975,228.635 200.926,314.695 Z" id="Path" fill="#111F7A"></path>
                    <path d="M216.049,509.485 C215.253,509.485 214.457,509.1 214.059,508.332 C183.813,446.86 98.249,295.101 29.399,219.798 C28.603,219.03 28.603,217.877 29.399,217.109 C30.195,216.34 31.389,216.34 32.185,217.109 C101.432,292.796 186.997,444.939 217.641,506.795 C218.039,507.564 217.641,508.716 216.845,509.485 C216.447,509.485 216.049,509.485 216.049,509.485 Z" id="Path" fill="#395DFF"></path>
                    <path d="M138.444,371.173 C138.046,371.173 138.046,371.173 137.648,371.173 C92.279,356.189 32.981,368.099 32.185,368.484 C30.991,368.868 30.195,368.099 29.797,366.947 C29.399,365.794 30.195,365.026 31.389,364.642 C31.787,364.642 90.289,352.731 136.454,366.947 C137.25,357.342 141.23,323.916 152.771,315.08 C153.567,314.311 154.761,314.696 155.557,315.464 C156.353,316.232 155.955,317.385 155.159,318.153 C145.21,325.453 141.23,357.726 140.036,369.252 C140.036,370.02 139.638,370.405 139.24,370.789 C138.842,371.173 138.444,371.173 138.444,371.173 Z" id="Path" fill="#395DFF"></path>
                    <path d="M85.514,291.644 L85.116,291.644 C56.064,283.96 34.971,283.96 34.971,283.96 C33.777,283.96 32.981,283.191 32.981,282.039 C32.981,280.886 33.777,280.118 34.971,280.118 C35.767,280.118 56.462,280.118 86.31,287.802 C87.504,288.186 87.902,288.954 87.902,290.107 C87.106,290.875 86.31,291.644 85.514,291.644 Z" id="Path" fill="#395DFF"></path>
                    <path d="M326.685,124.132 C321.909,109.149 308.776,110.685 307.98,110.301 C303.603,108.38 300.021,114.143 303.603,116.448 C300.817,117.217 300.419,112.991 300.419,115.68 C300.419,117.217 305.593,124.901 303.205,131.048 C299.623,129.127 295.643,128.359 291.664,129.127 C284.898,130.28 279.724,135.658 279.724,142.19 C279.724,142.958 279.724,143.342 280.122,144.111 C280.122,144.495 280.122,144.879 279.724,145.263 C278.928,145.647 278.132,146.032 277.735,146.8 C273.755,149.874 270.969,155.637 274.153,159.863 C276.939,163.705 282.112,163.321 285.694,161.015 C286.888,162.552 288.878,163.321 290.868,161.784 C291.266,161.4 291.664,161.015 292.062,161.015 C295.245,164.089 299.225,166.01 304.001,165.626 C309.97,164.857 319.124,161.784 324.297,155.637 C324.695,155.637 324.695,155.637 325.093,155.637 C325.491,155.637 325.889,155.252 325.889,155.252 C340.216,149.489 340.614,131.048 326.685,124.132 Z" id="Path" fill="#08135A"></path>
                    <path d="M356.14,192.52 C347.78,154.868 333.451,147.184 312.358,144.879 C310.766,144.879 309.174,144.495 307.583,144.495 C307.185,144.879 307.185,144.879 306.787,145.263 C300.419,149.49 293.653,152.947 286.49,155.637 L288.48,159.863 L291.664,166.779 L304.797,196.362 C302.409,192.904 313.95,224.024 330.665,262.829 C346.58,299.712 366.48,343.895 383.6,371.941 C393.15,364.257 402.7,357.342 413.05,350.81 C395.14,318.922 366.48,239.392 356.14,192.52 Z" id="Path" fill="#FCA58C"></path>
                    <path d="M304.399,196.362 C302.011,192.904 313.552,224.024 330.267,262.829 C335.441,275.123 341.41,288.186 347.38,301.249 C346.98,287.417 341.808,271.281 340.216,260.908 C330.665,194.825 304.399,196.362 304.399,196.362 Z" id="Path" fill="#EB947B"></path>
                    <polygon id="Path" fill="#6254E8" points="469.56 310.854 468.76 312.006 466.77 315.464 464.78 318.538 378.42 461.46 362.9 452.239 372.05 436.871 374.04 433.798 380.81 422.656 382.8 419.198 390.76 405.751 392.75 402.677 430.95 339.669 432.94 336.211 448.86 309.701 451.25 306.243 453.24 303.17 453.64 302.017"></polygon>
                    <polygon id="Path" fill="#6254E8" points="495.43 291.259 493.83 292.412 471.55 308.933 469.56 310.854 453.64 302.017 454.04 299.328 458.41 272.818 458.81 270.513"></polygon>
                    <path d="M495.43,293.18 C495.03,293.18 494.63,293.181 494.23,292.796 L457.62,272.049 C456.82,271.665 456.42,270.513 456.82,269.36 C457.22,268.592 458.41,268.207 459.61,268.592 L496.22,289.338 C497.02,289.723 497.42,290.875 497.02,292.028 C496.62,292.796 496.22,293.18 495.43,293.18 Z" id="Path" fill="#08135A"></path>
                    <path d="M440.9,340.821 L430.95,335.443 C428.57,334.29 426.58,337.364 428.96,338.9 L438.91,344.279 C440.9,345.432 443.29,341.974 440.9,340.821 Z" id="Path" fill="#08135A"></path>
                    <polygon id="Path" fill="#FFFFFF" points="471.55 308.933 469.56 310.854 468.76 312.006 453.24 303.17 453.64 302.017 454.04 299.328"></polygon>
                    <polygon id="Path" fill="#FFFFFF" points="466.77 315.464 464.78 318.538 448.86 309.701 451.25 306.243"></polygon>
                    <path d="M339.42,346.2 C336.237,317.001 333.053,288.57 330.267,262.829 C327.083,234.014 325.093,209.041 324.297,192.52 C324.297,192.52 310.766,177.921 294.847,164.858 C292.857,163.321 290.47,161.4 288.48,159.863 C281.316,154.484 273.755,149.874 267.387,147.185 C266.591,146.8 265.795,146.416 264.999,146.416 C253.458,142.574 241.917,149.874 232.764,162.553 C225.202,172.926 219.232,186.757 216.049,202.125 C214.855,207.504 214.059,213.267 213.263,219.03 C212.467,227.867 211.273,246.308 209.283,270.128 C208.487,282.807 207.691,296.638 206.497,311.622 C206.099,320.843 205.303,330.064 204.507,340.053 C249.478,341.205 294.449,343.895 339.42,346.2 Z" id="Path" fill="#FCA58C"></path>
                    <path d="M253.458,311.238 C265.397,299.712 254.652,296.254 244.305,294.717 C237.141,293.565 229.978,292.796 222.814,291.644 C217.641,290.491 212.467,289.339 207.691,287.033 C207.293,295.102 206.497,303.938 206.099,312.775 C205.701,317.769 205.303,323.148 205.303,328.143 C222.018,324.685 241.121,323.148 253.458,311.238 Z" id="Path" fill="#EB947B"></path>
                    <path d="M182.619,268.592 C169.088,265.134 163.914,257.066 167.894,245.54 C170.282,238.624 177.843,230.556 185.405,223.64 C193.364,215.956 201.722,208.656 215.651,202.509 C244.305,189.831 276.541,180.994 276.541,180.994 L274.153,172.542 L270.173,158.326 C255.846,157.174 241.121,152.563 234.355,142.19 C229.58,142.958 225.202,143.342 221.62,144.111 C193.364,148.721 183.017,156.789 162.322,178.689 C122.525,220.951 119.341,244.387 119.341,263.597 C119.341,276.275 133.27,295.101 177.445,306.627 C179.037,293.949 181.027,281.27 182.619,268.592 Z" id="Path" fill="#FCA58C"></path>
                    <path d="M201.324,175.999 C187.793,175.231 174.262,175.999 161.924,179.457 C152.373,189.831 144.812,199.051 138.842,207.504 C140.434,224.024 147.199,240.545 157.945,250.918 C160.73,253.608 164.312,255.913 167.496,257.834 C166.302,254.376 166.302,250.534 167.894,245.924 C170.282,239.008 177.843,230.94 185.405,224.024 C193.364,216.34 201.722,209.041 215.651,202.893 C228.386,197.13 242.315,192.136 253.458,188.678 C240.723,177.152 216.447,176.768 201.324,175.999 Z" id="Path" fill="#EB947B"></path>
                    <path d="M272.959,297.022 L175.057,303.17 C173.466,260.908 167.496,220.567 159.934,174.847 L258.234,164.858 C264.999,200.588 269.775,246.308 272.959,297.022 Z" id="Path" fill="#F2F4FD"></path>
                    <path d="M270.969,302.785 L172.272,293.18 C179.435,251.303 183.813,206.735 185.803,160.631 L284.5,170.236 C283.306,206.735 278.132,252.839 270.969,302.785 Z" id="Path" fill="#FFFFFF"></path>
                    <path d="M270.173,190.983 C260.224,190.983 200.926,182.531 198.14,182.147 C196.946,182.147 196.15,180.994 196.548,179.842 C196.548,178.689 197.742,177.921 198.936,178.305 C199.732,178.305 260.622,186.757 270.173,186.757 C271.367,186.757 272.163,187.526 272.163,188.678 C272.163,189.831 271.367,190.983 270.173,190.983 Z" id="Path" fill="#395DFF" opacity="0.163504464"></path>
                    <path d="M270.173,200.588 C260.224,200.588 200.926,192.136 198.14,191.752 C196.946,191.752 196.15,190.599 196.548,189.446 C196.548,188.294 197.742,187.525 198.936,187.91 C199.732,187.91 260.622,196.362 270.173,196.362 C271.367,196.362 272.163,197.13 272.163,198.283 C272.163,199.436 271.367,200.588 270.173,200.588 Z" id="Path" fill="#395DFF" opacity="0.163504464"></path>
                    <path d="M270.173,210.193 C260.224,210.193 200.926,201.741 198.14,201.357 C196.946,201.357 196.15,200.204 196.548,199.052 C196.548,197.899 197.742,197.131 198.936,197.515 C199.732,197.515 260.622,205.967 270.173,205.967 C271.367,205.967 272.163,206.736 272.163,207.888 C272.163,209.041 271.367,210.193 270.173,210.193 Z" id="Path" fill="#395DFF" opacity="0.163504464"></path>
                    <path d="M264.999,234.398 C255.05,234.398 195.752,225.946 192.966,225.561 C191.772,225.561 190.976,224.409 191.374,223.256 C191.374,222.104 192.568,221.335 193.762,221.719 C194.558,221.719 255.448,230.172 264.999,230.172 C266.193,230.172 266.989,230.94 266.989,232.093 C266.989,233.246 266.193,234.398 264.999,234.398 Z" id="Path" fill="#395DFF" opacity="0.163504464"></path>
                    <path d="M264.999,244.003 C255.05,244.003 195.752,235.55 192.966,235.166 C191.772,235.166 190.976,234.014 191.374,232.861 C191.374,231.708 192.568,230.94 193.762,231.324 C194.558,231.324 255.448,239.777 264.999,239.777 C266.193,239.777 266.989,240.545 266.989,241.698 C266.989,242.85 266.193,244.003 264.999,244.003 Z" id="Path" fill="#395DFF" opacity="0.163504464"></path>
                    <path d="M264.999,253.608 C255.05,253.608 195.752,245.156 192.966,244.771 C191.772,244.771 190.976,243.619 191.374,242.466 C191.374,241.314 192.568,240.545 193.762,240.929 C194.558,240.929 255.448,249.382 264.999,249.382 C266.193,249.382 266.989,250.15 266.989,251.303 C266.989,252.455 266.193,253.608 264.999,253.608 Z" id="Path" fill="#395DFF" opacity="0.163504464"></path>
                    <path d="M246.693,155.253 C255.05,158.711 263.805,159.863 272.561,161.016 C281.316,159.479 289.674,156.79 297.633,154.1 C286.092,137.964 288.48,116.064 290.47,96.47 C291.664,87.25 284.102,83.023 276.541,83.792 C267.785,76.876 251.866,79.566 253.856,92.628 C257.04,114.143 254.652,135.274 246.693,155.253 Z" id="Path" fill="#FDCEB5"></path>
                    <path d="M312.358,144.879 C303.205,143.726 292.46,143.726 280.52,142.574 L264.601,138.732 C249.478,140.269 237.937,141.805 228.386,143.342 C232.366,157.558 287.286,180.994 312.358,144.879 Z" id="Path" fill="#F4A880"></path>
                    <path d="M252.662,136.811 C266.591,139.501 279.724,132.585 289.276,121.827 C289.276,113.375 290.072,104.923 291.266,96.47 C292.459,87.25 284.898,83.023 277.337,83.792 C268.581,76.876 252.662,79.566 254.652,92.628 C256.244,107.612 255.448,122.596 252.662,136.811 Z" id="Path" fill="#F0C1A8"></path>
                    <path d="M228.784,84.944 C224.804,111.838 224.804,119.522 240.723,119.522 C256.642,119.522 272.561,107.996 272.561,107.996 C272.561,107.996 296.439,123.364 308.378,119.522 C320.318,115.68 304.399,84.944 304.399,84.944 L228.784,84.944 Z" id="Path" fill="#08135A"></path>
                    <path d="M250.672,97.623 C247.887,94.549 244.703,92.244 239.927,91.86 C237.141,91.86 233.958,92.628 231.57,94.165 C229.58,95.318 229.58,109.917 228.784,110.301 C220.824,113.759 207.691,88.786 200.13,86.481 C194.16,84.56 187.395,86.481 182.221,89.939 C178.639,92.244 175.058,96.086 173.864,100.696 C171.874,100.312 170.282,99.928 169.088,99.544 C165.904,99.16 163.118,99.16 159.935,99.928 C155.557,101.465 151.975,104.923 151.179,109.533 C150.781,114.528 153.965,118.754 158.741,121.443 C152.771,124.901 148.393,129.127 151.577,137.58 C157.547,152.948 180.629,153.716 192.966,146.416 C198.538,143.343 200.926,137.964 208.885,140.269 C211.671,141.037 214.457,144.879 217.641,145.648 C223.61,147.569 229.978,146.8 234.355,142.19 C239.529,137.195 232.366,121.443 243.907,114.528 C244.703,114.528 245.897,114.143 246.693,114.143 C248.683,112.991 251.468,113.375 253.458,111.07 C259.826,105.307 256.244,100.312 250.672,97.623 Z" id="Path" fill="#08135A"></path>
                    <path d="M305.593,49.2136 C309.97,94.549 305.593,127.206 272.959,127.206 C251.468,127.206 245.897,114.912 240.325,100.312 C233.957,83.407 229.58,63.045 231.172,53.0556 C235.947,20.3986 301.215,-0.3482 305.593,49.2136 Z" id="Path" fill="#FDCEB5"></path>
                    <path d="M267.387,41.5295 C269.377,38.4559 274.153,38.4559 276.143,41.5295 C283.704,52.6713 294.847,60.3553 306.787,67.271 C306.389,61.5079 305.991,55.7449 305.593,49.2135 C300.817,0.0359 235.947,20.3985 231.172,53.4397 C230.774,57.2817 229.978,63.045 229.978,69.192 C244.703,62.276 258.234,55.3607 267.387,41.5295 Z" id="Path" fill="#08135A"></path>
                    <path d="M272.163,29.2352 C278.133,30.3878 282.908,31.1562 288.082,34.9982 C295.643,40.7612 300.419,50.7504 306.389,56.8975 C306.389,54.2081 305.991,51.5188 305.593,48.8294 C302.807,17.325 274.949,14.2514 254.254,25.009 C257.836,28.0826 267.785,28.4668 272.163,29.2352 Z" id="Path" fill="#2842B6"></path>
                    <path d="M252.264,78.029 C253.856,86.097 248.683,93.781 239.927,95.318 C231.172,96.854 225.202,93.012 221.222,83.792 C217.641,76.492 221.222,65.35 233.56,66.503 C242.315,67.655 250.672,70.345 252.264,78.029 Z" id="Path" fill="#FDCEB5"></path>
                    <path d="M284.5,78.028 C282.908,86.097 288.082,93.781 296.837,95.317 C305.593,96.854 312.756,91.86 315.542,83.791 C318.328,76.107 315.542,65.35 303.205,66.502 C294.847,67.655 286.49,70.344 284.5,78.028 Z" id="Path" fill="#FDCEB5"></path>
                    <path d="M285.296,280.118 C281.316,280.118 278.133,282.039 274.153,282.423 C271.367,282.807 250.672,281.27 233.957,278.965 C224.804,278.197 216.845,277.044 210.477,275.507 C208.089,287.417 207.293,299.712 206.099,312.006 C217.641,313.927 229.978,315.08 240.325,314.696 C248.285,314.311 254.254,316.617 259.826,313.159 C260.224,312.775 261.02,312.39 261.418,312.006 C263.01,311.622 264.601,311.238 265.795,310.469 C268.581,308.933 270.173,306.243 271.367,303.554 C272.561,302.785 273.755,302.017 274.551,300.48 C276.541,297.407 280.52,290.491 280.52,290.107 C282.908,288.186 285.296,285.881 287.286,283.191 C288.082,282.039 287.286,280.502 285.296,280.118 Z" id="Path" fill="#FDCEB5"></path>
                    <path d="M226.794,279.733 C241.519,272.049 243.111,270.513 261.02,271.281 C278.928,272.049 267.785,279.349 261.816,278.581 L247.091,286.649 L226.794,279.733 Z" id="Path" fill="#FDCEB5"></path>
                    <path d="M167.098,257.45 C155.557,266.671 145.607,277.812 137.25,290.107 C149.985,298.943 171.476,307.396 206.099,312.39 C208.487,312.775 210.875,313.159 212.865,313.543 C214.457,301.633 216.447,289.723 219.232,277.812 C216.049,277.428 212.865,276.66 210.477,276.276 C186.201,270.128 170.282,267.055 167.098,257.45 Z" id="Path" fill="#FCA58C"></path>
                    <path d="M360.91,521.011 C350.56,523.701 339.818,526.006 329.073,527.543 C319.92,528.695 310.766,529.848 301.613,530.232 C298.827,507.948 293.255,472.602 287.286,442.25 C281.316,411.13 275.745,384.62 272.561,381.547 C268.581,401.525 255.448,456.466 249.876,528.695 C235.549,527.158 221.62,524.469 207.691,521.011 C202.916,519.859 198.14,518.322 193.364,516.785 C195.354,485.281 200.13,404.599 204.507,334.674 C248.682,335.443 292.857,328.143 336.634,326.606 C345.39,400.757 355.74,481.439 360.91,521.011 Z" id="Path" fill="#395DFF"></path>
                </g>
            </g>
        </g>
    </g>
</svg>