<svg xmlns="http://www.w3.org/2000/svg" xmlns:xlink="http://www.w3.org/1999/xlink" width="678px" height="487px" viewBox="0 0 678 487" version="1.1">
    <title>618F0620-CA88-4782-9F59-DDC4910B2F59</title>
    <g id="Front" stroke="none" stroke-width="1" fill="none" fill-rule="evenodd">
        <g id="Teach-with-us" transform="translate(-682.000000, -108.000000)" fill-rule="nonzero">
            <g id="bannerAbout.e50b17c1" transform="translate(682.000000, 108.000000)">
                <path d="M678,344.83942 C678,354.492351 677.542001,364.565626 676.623701,374.218557 C676.164551,377.156355 676.164551,380.094154 675.705401,383.452296 C675.705401,385.131367 675.246251,386.809286 674.787101,388.908701 C674.327951,391.426156 673.868801,393.944762 673.409651,396.463369 C672.950501,398.561632 672.492501,400.659895 672.033351,402.758158 C672.033351,404.018037 671.574201,405.276764 671.115051,406.535492 C670.655901,408.633755 670.196751,410.733169 669.737601,412.831432 C669.737601,413.250624 669.737601,414.09016 669.278451,414.510503 C668.819301,417.027958 667.902152,419.965757 666.983852,422.484363 C666.983852,422.903555 666.524702,423.743091 666.524702,424.163434 C666.065552,425.842505 665.606402,427.940768 665.147252,429.619839 C664.688102,431.718102 663.769802,433.816365 663.311803,435.914628 C663.311803,436.334972 663.311803,436.334972 662.852653,436.754164 C661.934353,439.27277 661.016053,441.790225 660.556903,443.88964 C660.556903,444.308832 660.556903,444.308832 660.097753,444.308832 C658.262304,449.344893 656.425704,454.382106 654.129953,459.418168 C652.753654,462.355966 651.376204,465.293765 649.998754,468.231563 C648.622455,470.75017 647.704155,473.268776 646.326705,475.786231 C646.326705,476.206575 645.867555,476.625767 645.867555,476.625767 C643.113806,481.66298 640.358906,487.118233 637.605156,491.735103 C637.146006,492.574638 636.686856,492.994982 636.227706,493.833366 C634.851407,496.351972 633.014807,499.289771 631.178207,501.808377 C629.342758,504.746176 627.047008,508.104318 625.211558,511.042116 C623.834108,513.559571 621.997508,515.658986 620.162059,517.757249 C618.784609,519.855512 617.407159,521.534583 616.029709,523.632846 C616.029709,523.632846 616.029709,524.052038 615.57171,524.052038 C613.73511,526.570644 611.89851,529.089251 610.063061,531.187514 C608.226461,533.70612 605.931861,536.223575 604.095261,538.32299 C604.095261,538.32299 604.095261,538.32299 604.095261,538.742182 C601.799511,541.260788 599.964062,543.778243 597.668312,545.877658 C595.373713,547.975921 593.077963,550.493376 590.783363,553.011982 C588.487613,555.530589 586.193014,557.628852 583.897264,559.727115 C581.602665,561.825378 579.306915,564.343984 576.553165,566.442247 C574.257415,568.54051 571.962816,570.639925 569.207916,572.738188 C569.207916,572.738188 569.207916,572.738188 568.748766,573.15738 C565.995017,575.256794 563.699267,577.355057 560.945517,579.45332 C554.977718,584.07019 549.469069,588.266716 543.50242,592.464393 C540.74752,594.562656 537.993771,596.241727 534.780872,598.33999 C531.566822,600.438253 527.894772,602.537668 524.681873,604.635931 C521.926973,606.315002 519.632374,607.573729 516.877474,609.2528 C515.960325,610.091184 514.582875,610.511528 513.664574,610.930719 C508.615075,613.868518 503.106426,616.387125 498.056927,618.905731 C495.303177,620.164459 492.548277,621.423186 490.253678,622.683065 C481.991279,626.460399 474.18688,629.817389 465.465331,632.755188 C463.629882,633.594723 461.334132,634.434259 459.497532,634.854603 C458.121233,635.273795 456.284633,636.11333 454.907183,636.532522 C452.612584,637.372057 450.775984,637.792401 448.481384,638.631937 C445.267334,639.471472 442.513585,640.7302 439.300686,641.569735 C438.841536,641.569735 438.382386,641.988927 437.923236,641.988927 C437.923236,641.988927 437.923236,641.988927 437.464086,641.988927 C437.004936,641.988927 436.086636,642.409271 435.627486,642.409271 C434.710336,642.409271 434.251186,642.828462 433.332886,642.828462 C431.037136,643.247654 428.742537,644.08719 426.446787,644.507534 C420.020988,646.186605 413.134889,647.445332 406.70794,648.704059 C401.200441,649.963939 395.691792,650.802322 389.723993,651.641858 C379.165844,652.901737 368.607695,654.160464 358.050698,654.580808 C351.623748,655 345.196799,655 338.31185,655 C336.0161,655 333.262351,655 330.966601,655 C323.622502,655 315.819254,654.579656 308.933155,653.741273 C305.720255,653.320929 302.048206,653.320929 298.834156,652.901737 C290.571757,652.062202 282.309359,650.802322 274.504959,649.543595 C273.12866,649.124403 271.29206,649.124403 269.91461,648.704059 C264.865111,647.864524 260.274762,646.605796 255.225262,645.766261 C253.848963,645.347069 252.012363,644.926725 250.634913,644.507534 C245.126264,643.248806 239.618765,641.569735 234.110116,639.890664 C232.273516,639.471472 230.438066,638.631937 228.142316,638.211593 C225.388567,637.372057 222.174517,636.11333 219.420768,635.273795 C217.584168,634.434259 215.748719,634.015067 213.912119,633.175532 C211.617519,632.335996 209.780919,631.496461 207.485169,630.656925 C205.19057,629.817389 202.43567,628.558662 200.141071,627.719127 C198.763621,627.299935 196.928171,626.460399 195.550721,625.620864 C194.173271,625.201672 192.337822,624.362136 190.960372,623.522601 C188.664622,622.683065 186.370023,621.423186 184.074273,620.584802 C182.697973,620.164459 181.779673,619.745267 180.861373,618.905731 C179.483923,618.485387 178.565623,617.645852 177.648474,617.22666 C175.811874,616.387125 173.975274,615.547589 172.598975,614.708053 C170.303225,613.449326 168.008626,612.190599 165.712876,610.930719 C163.877426,610.092336 162.040826,608.832457 160.204226,607.992921 C158.368777,607.153386 156.532177,605.894658 154.695577,605.055123 C153.319278,604.215587 151.941828,603.376052 150.564378,602.537668 C146.892328,600.019061 142.761129,597.920798 139.08908,595.402192 C136.79333,593.723121 134.03958,592.04405 131.74383,590.36613 C129.449231,588.687059 126.694331,587.007988 124.399732,584.909725 C118.891083,580.712048 113.841698,576.934714 108.792199,572.317844 C107.415094,571.059117 106.037989,570.219581 105.11992,568.960854 C103.28378,567.281783 101.44764,565.602712 99.6115004,563.924792 C97.3162107,562.245721 95.4800709,560.147458 93.6439312,558.048044 C92.7258614,557.20966 92.2668264,556.789316 91.3487566,555.949781 C90.4306867,555.110245 89.5126169,554.27071 89.0535819,553.432326 C88.1355121,552.59279 87.6763621,552.172447 87.2173271,551.332911 C85.3811874,549.654992 83.5450477,547.555577 81.708908,545.457314 C80.7908381,544.198587 79.8727683,543.359051 78.4956635,542.100324 C78.0366285,541.67998 78.0366285,541.260788 77.5775936,541.260788 C77.1185587,540.421253 76.2004888,540.000909 75.7414539,539.161374 C73.9051991,537.063111 72.0690594,535.38404 70.6919546,533.285777 C68.8558149,531.187514 67.4787101,529.508443 66.1016053,527.41018 C65.6425704,526.990988 65.1835354,526.151452 64.7245005,525.731109 C63.3473957,524.472381 62.4293258,522.79331 61.511256,521.534583 C61.511256,521.534583 61.0522211,521.114239 61.0522211,520.695047 C59.6750012,519.015976 58.7569313,517.336905 57.3798265,516.078178 C56.0027217,514.399107 55.0846519,512.720036 53.7075471,511.042116 C52.7894772,509.782237 52.3304423,508.942702 51.4123724,507.683974 C51.4123724,507.683974 50.9533375,507.264782 50.9533375,506.844439 C49.5762327,504.746176 48.1991279,502.647913 46.8220232,500.54965 C32.1326752,477.885646 21.1158369,453.542571 12.8530931,427.940768 C4.59038382,401.079087 0,372.539486 0,343.160349 C0,269.29274 28.0013609,201.721072 75.282419,148.418053 C76.6595237,146.738982 78.4956635,145.061062 79.8727683,143.381991 C87.6764771,134.568596 96.3981408,126.593584 105.11992,119.038916 C116.595332,108.966217 128.990081,99.3130561 141.842829,90.9189677 C197.386171,54.4048159 265.783411,33 339.6893,33 C395.232642,33 447.563084,45.1713072 493.466577,66.5762382 C496.221477,67.8353112 499.434377,69.5141519 502.188126,70.7732248 C548.09277,93.4372288 587.569313,125.754049 617.407159,164.787268 C618.784609,166.885531 620.621209,168.983794 621.997508,170.662865 C632.555657,184.932665 641.736356,200.042001 649.539604,215.570529 C661.475203,239.913604 670.196751,266.354942 675.246251,293.635815 C676.623701,311.262606 678,327.631821 678,344.83942 Z" id="Path" fill="#5547D5"/>
                <path d="M458,91.1637407 C458,91.1637407 358.487369,91.5819277 275.942997,92 C274.566912,92 272.732133,92 271.357198,92 C218.161246,92 173.219502,92 169.551093,91.1637407 L76,89.0731497 C77.3758545,87.4006311 79.2101739,85.7282271 80.5859134,84.0557085 C88.3817708,75.2751576 97.0949028,67.3307513 105.808035,59.8045321 C125.526738,51.0239813 147.080796,40.5709117 166.341379,29.6997699 C214.034143,2.52177769 236.045745,40.1528394 271.814743,28.0272513 C273.190828,27.609179 275.025607,26.7729196 276.401692,26.3547326 C280.98749,24.2641416 286.031983,21.3372914 291.534022,17.1561094 C294.286191,15.0654037 296.578515,13.3929998 299.330684,11.7204812 C301.623008,10.047974 304.375177,8.79359645 306.667501,7.53923041 C329.137799,-3.3319573 352.067941,-1.65947307 370.411135,7.53923041 C373.162154,8.79359645 375.455628,10.047974 378.206647,11.7204812 C392.881432,20.9191043 404.346503,34.2991389 409.390996,48.9333903 C423.148392,86.5644865 458,91.1637407 458,91.1637407 Z" id="Path" fill="#FFFFFF"/>
                <path d="M676,234 C665.434317,234 654.867481,234 644.300646,234 C636.950505,234 629.599213,234 622.7086,234 L618.114474,234 C607.547639,234 596.980804,234 587.333024,233.582251 C578.144772,233.582251 569.416048,233.582251 562.064756,233.165647 C550.580017,233.165647 540.932237,232.749043 534.5,232.749043 C532.663041,232.749043 530.82493,232.749043 529.905874,232.749043 C528.068915,232.749043 526.690331,232.749043 526.230804,232.331294 L497.287465,231.496941 L492.693339,231.496941 L474.776363,231.080336 L461.453513,230.662587 L451.346205,230.245983 L426.537465,229.828234 L394.378583,228.995026 L393,228.995026 C393,228.995026 393.459528,228.995026 394.378583,228.577277 C398.053654,227.326319 408.160961,223.572303 421.943339,218.14958 C428.835104,215.229916 436.644772,212.310252 444.913969,208.556235 C448.129511,207.304133 451.346205,206.053176 454.561748,204.38447 C456.399859,203.550117 458.696346,202.716908 460.993985,201.464806 C467.884598,198.545142 475.235891,195.208874 482.586031,191.454858 C486.261102,189.786151 489.477796,188.117445 493.152867,186.448739 C496.368409,184.780033 499.125576,183.529075 502.341118,181.860369 C504.638757,180.609411 506.935244,179.358454 509.691259,178.106352 C514.286537,175.604437 519.339039,173.101378 523.474789,170.598318 C566.658882,145.988907 588.711607,174.352335 619.032378,171.016067 C620.410961,171.016067 622.249072,170.598318 623.626504,170.181714 C631.437324,168.513008 639.70652,164.758991 648.894772,157.668706 C649.813828,157.250957 650.273355,156.416604 651.192411,156 C662.217622,181.026016 670.946346,206.887529 676,234 Z" id="Path" fill="#FFFFFF"/>
                <path d="M678,312.954382 C672.495984,365.751737 652.773738,414.359337 622.044609,456.261488 C620.668318,458.356366 619.292026,460.032728 617.916884,462.127606 L617.45812,462.547271 C615.623065,465.060664 613.78801,467.575207 611.954104,469.670085 C610.119049,472.184628 607.826379,474.699171 605.991324,476.794049 C605.991324,476.794049 605.991324,476.794049 605.53256,477.212564 C603.239891,479.727107 601.404835,482.24165 599.111016,484.336528 C596.818347,486.431405 594.524528,488.945948 592.231858,491.459342 C589.938039,493.973885 587.64537,496.068762 585.35155,498.16364 C583.058881,500.259667 580.306298,502.773061 578.013629,504.867938 C575.719809,506.963966 573.42714,509.058843 570.674557,511.153721 C570.674557,511.153721 570.675707,511.153721 570.216943,511.573386 C567.46436,513.668264 565.17169,515.763142 562.419107,517.858019 C559.667674,519.952897 556.456327,522.46744 553.704894,524.562317 C550.953461,526.658345 547.742114,528.753222 544.531917,530.8481 C541.780484,532.942978 539.0279,534.61934 536.276467,536.714217 C535.817703,537.133883 535.35894,537.133883 534.900176,537.552398 C532.148742,539.22876 528.937396,541.323638 526.185962,543 C497.749503,505.706119 455.094814,435.728928 464.267791,361.142316 C477.109729,250.938186 597.277111,173 597.277111,173 C597.277111,173 605.53256,181.38066 617.45812,196.465619 C618.833262,198.141981 620.668318,200.236858 622.044609,202.331736 C641.308091,227.473717 666.07444,267.280991 678,312.954382 Z" id="Path" fill="#FCA58C"/>
                <path d="M581.313849,282 C579.92554,282 579,281.164944 579,279.911788 C579,279.077878 579,258.203775 588.253076,209.778561 C588.253076,208.525405 589.641385,207.691495 591.029694,208.10845 C592.416844,208.10845 593.342383,209.36046 592.879613,210.613617 C583.626538,259.038831 583.626538,279.911788 583.626538,280.329889 C583.626538,281.164944 582.700998,282 581.313849,282 Z" id="Path" fill="#FFC9B9"/>
                <path d="M582.963927,263 C582.036818,263 581.573264,262.578411 581.110871,261.734075 C581.110871,261.734075 568.597222,240.629157 553.766963,229.65395 C552.841016,228.809615 552.841016,227.54369 553.30457,226.699354 C554.230518,225.855019 555.621181,225.855019 556.54829,226.277766 C571.842104,238.096149 584.354591,258.77948 584.818145,259.623815 C585.2817,260.468151 584.818145,261.734075 583.891036,262.578411 C583.891036,263 583.427482,263 582.963927,263 Z" id="Path" fill="#FFC9B9"/>
                <path d="M519,547.810517 C518.080292,548.650452 516.701882,549.069843 515.782174,549.490386 C510.724931,552.429581 505.207835,554.948232 500.150592,557.468036 C497.39262,558.727361 494.633495,559.987839 492.335377,561.247165 C484.060309,565.026294 476.243942,568.386031 467.509019,571.325226 C465.670755,572.16516 463.371484,573.003943 461.532068,573.424486 C460.153658,573.843877 458.314242,574.683812 456.93468,575.104355 C454.636562,575.944289 452.797145,576.363681 450.499027,577.203615 C447.280049,578.043549 444.522077,579.302875 441.30425,580.14281 C440.844396,580.14281 440.384542,580.563353 439.924688,580.563353 C439.924688,580.563353 439.924688,580.563353 439.464834,580.563353 C439.00498,580.563353 438.085272,580.982744 437.625418,580.982744 C436.706862,580.982744 436.247008,581.402135 435.3273,581.822679 C433.028029,582.24207 430.729911,583.082004 428.430641,583.502547 C421.994988,585.181264 415.098329,586.441742 408.661525,587.701068 C403.14558,588.960393 397.628484,589.800328 391.651533,590.640262 C381.077194,591.899588 370.502855,593.160066 359.929668,593.579457 C353.492863,594 347.056058,594 340.160552,594 C337.861281,594 335.103309,594 332.804039,594 C303.381444,512.539031 343.378378,421 343.378378,421 C343.378378,421 467.049165,451.652423 514.402612,537.732456 C515.782174,541.511585 517.62159,544.45078 519,547.810517 Z" id="Path" fill="#2842B6"/>
                <path d="M439,580.32289 C439,580.742742 439,580.742742 439,580.32289 C439,580.742742 439,580.742742 439,580.32289 C438.082675,580.742742 437.624013,580.742742 436.706689,581.161445 C435.790514,581.161445 435.331851,581.581298 434.414527,582 C411.48716,536.724927 380.763684,479.29253 350.50002,438.210232 C349.582695,437.371676 350.041358,436.113269 350.958682,435.275864 C351.874857,434.856011 353.250844,434.856011 354.168169,435.694566 C384.890495,477.196717 416.072633,535.047816 439,580.32289 Z" id="Path" fill="#4765EB"/>
                <path d="M169.54701,135.829992 C174.157903,193.806194 177.386337,194.226954 157.097946,196.746907 C136.809554,199.268012 140.036832,213.972731 144.647725,234.978484 C144.647725,234.978484 100.844357,235.818853 99,226.99556 C99,226.99556 108.682991,217.333052 107.760697,177.421891 C106.838518,137.510729 104.994161,122.386403 131.737456,117.344192 C158.941609,111.883065 168.6246,124.065987 169.54701,135.829992 Z" id="Path" fill="#F4A880"/>
                <path d="M175.708691,184.642406 C177.537565,201.079483 169.309922,210.773115 146.454721,203.608709 C123.59952,196.443147 139.597588,175.790693 124.512812,184.22029 C109.428608,192.228927 105.771776,186.749516 98.0010077,171.154357 C90.2301248,155.560355 96.1725917,156.40343 96.1725917,145.866723 C96.1725917,135.330017 98.0010077,127.321379 106.685984,118.049864 C107.143088,117.627748 107.600192,116.784673 108.5144,116.784673 L108.971504,116.363713 C109.428608,115.941597 109.885827,115.941597 109.885827,115.520638 C112.171347,114.256025 114.456867,113.413065 116.742387,112.991643 C117.199606,112.991643 117.656824,112.991643 118.114043,112.991643 C124.512812,111.727146 132.284382,112.991643 140.054807,112.148684 C140.969244,112.148684 141.426462,112.148684 141.883681,111.727146 C152.85349,110.041342 159.253404,107.933885 168.395485,109.619805 C173.880962,110.462764 177.080347,112.570106 178.909221,115.941597 C183.93748,125.636385 171.137651,143.759613 149.654105,145.444607 C149.654105,145.444607 144.168628,159.353616 156.967311,171.576473 C168.852703,182.956255 173.880962,168.204172 175.708691,184.642406 Z" id="Path" fill="#111F7A"/>
                <path d="M179,114.213987 C174.850812,119.366629 168.857027,122.802509 160.558652,124.520448 C147.648783,126.667284 136.584668,121.084569 124.597098,118.078763 C118.603313,116.790897 113.071371,115.931927 108,115.931927 L108.461034,115.501853 C108.922067,115.072957 109.383101,115.072957 109.383101,114.643354 C111.68827,113.355135 113.993438,112.496283 116.298722,112.066798 C116.759872,112.066798 117.221021,112.066798 117.68217,112.066798 C124.135949,110.778579 131.974331,112.066916 139.811557,111.208064 C140.733856,111.208064 141.195005,111.208064 141.656154,110.778579 C152.72027,109.060875 159.175204,106.913803 168.395878,108.631507 C173.928514,108.631507 177.155403,111.208064 179,114.213987 Z" id="Path" fill="#2842B6"/>
                <path d="M140.735296,151.00891 C122.544396,150.595779 125.8091,164.659248 131.40657,170.449887 C134.671273,173.759473 139.80219,175 144,175 C140.735296,167.141437 138.869083,158.868608 140.735296,151.00891 Z" id="Path" fill="#F4A880"/>
                <path d="M176,439.319689 C169.104119,451.909996 179.255492,490.326958 170.981356,499.140058 C152.593876,518.865602 121.797496,543.902268 102.490181,540.125061 C77.5195763,547.981191 60.3310387,544.517216 47,523.952165 C47.9194893,503.806291 49.1251161,399.868601 50.9638642,378.044865 C62.9158418,224.43805 92.7957283,199.676614 129.571496,220.241665 C153.475451,233.67148 164.507248,242.904909 163.587644,305.438419 C163.128994,328.101662 168.644316,380.982565 176,439.319689 Z" id="Path" fill="#6254E8"/>
                <path d="M138.300728,237.838378 C113.510525,231.965926 102.032725,263.011303 94.6858148,327.618032 C87.3387898,392.22476 84.124789,410.264347 150.229139,502.978785 C216.334986,595.692072 171.807243,472.77232 171.807243,472.77232 C171.807243,472.77232 147.478059,393.901519 141.050948,379.218911 C139.357433,375.349112 138.907484,361.308342 142.221052,347.164332 C142.548362,345.767205 145.533087,347.486941 145.879523,346.029989 C155.333734,306.269792 170.914301,245.586143 138.300728,237.838378 Z" id="Path" fill="#5346D2" transform="translate(138.696433, 387.361458) rotate(-6.000000) translate(-138.696433, -387.361458) "/>
                <path d="M127.596761,235.701383 C102.692973,229.837108 91.163487,260.835467 83.7846898,325.344789 C76.405777,389.854112 73.1775532,407.86647 139.586844,500.443164 C205.997637,593.018708 161.26287,470.282722 161.26287,470.282722 C161.26287,470.282722 136.820257,391.529948 130.363347,376.86926 C123.907593,362.207424 173.714243,246.592015 127.596761,235.701383 Z" id="Path-Copy-3" fill="#F4A880"/>
                <path d="M78.0422575,344 C98.3662137,343.148232 118.690556,341.445864 138.493577,340.594096 C148.916152,300.141539 164.54937,241.37772 128.591423,233.712976 C100.450729,227.751768 87.4225747,259.262513 79.0845149,324.838139 C78.0422575,331.651116 77.5210643,338.038792 77,344 C77.5210643,344 77.5210643,344 78.0422575,344 Z" id="Path-Copy" fill="#6254E8"/>
                <path d="M442.059363,183.541091 C429.702697,205.665263 413.683778,206.082181 424.668245,229.041336 C435.651566,251.999345 488.283847,255.756193 522.151666,241.980701 C556.019484,228.206353 518.032777,195.646618 510.710564,183.959155 C503.387203,172.270545 504.302766,161 504.302766,161 L442.059363,183.541091 Z" id="Path" fill="#08135A"/>
                <path d="M385.818981,304.173699 C384.906707,297.889958 384.45057,287.834362 385.362844,271.913481 C388.099664,218.705158 387.643528,214.515997 382.171029,195.242868 C376.698531,175.970888 372.138307,188.957977 367.121945,193.566744 C362.105584,198.17551 358.457633,207.8115 358.001496,223.732382 C357.545359,237.558682 349.79332,282.387533 351.16173,318 C364.386268,315.90542 377.610805,313.810839 385.818981,304.173699 Z" id="Path" fill="#F4A880"/>
                <path d="M480,231.895499 C480,231.895499 479.541961,234.838334 478.164393,241.145067 C477.246014,243.666837 476.327636,246.609672 474.951218,250.393481 C469.442096,265.108807 457.505473,289.072547 432.714999,322.706919 C428.583446,328.172677 424.451892,334.058346 419.401959,339.944015 C395.989054,369.793425 380.380066,376.521222 372.576148,371.475374 C362.017093,364.74873 355.590743,352.977392 352.835607,334.899321 C351.458039,326.910639 351,318.082135 351,308.832567 C363.394661,306.730708 375.789323,302.946898 385.429999,297.902204 C386.807567,320.605059 393.235068,311.775402 398.743039,296.220255 C416.188784,248.291621 431.338582,233.997359 447.864797,230.63346 C457.964663,228.952665 468.523717,231.054524 480,231.895499 Z" id="Path" fill="#3059EF"/>
                <path d="M378,226.950694 C390.34245,216.426041 389.42794,199.586135 395.37111,200.007768 C401.31428,200.428245 395.828365,226.108583 392.17147,230.739615 C388.970685,235.370648 378.457255,248 378.457255,248 L378,226.950694 Z" id="Path" fill="#F4A880"/>
                <path d="M563,518.852183 C551.50212,528.093502 539.543034,536.494597 526.664993,544.055468 C522.985717,546.155453 519.306442,548.255439 515.626014,550.355424 C494.929368,561.69673 472.85141,570.938049 449.854497,578.498919 C442.495946,580.598905 435.596295,582.698891 427.777691,584.800029 C421.338094,586.479326 414.439597,587.740239 408,589 C409.840214,545.734764 414.439597,468.026077 427.317637,427.281516 C445.255114,369.734764 438.356617,343.692407 432.837127,323.109782 C432.837127,322.689094 432.837127,322.690246 432.837127,322.269558 C426.857584,301.686933 427.317637,288.245642 452.614818,237 L456.294094,242.040196 L478.370899,242.040196 L486.189504,242.040196 L505.048241,242.040196 C505.048241,242.040196 506.427248,242.880421 508.727516,244.56087 C518.386335,251.281516 543.682363,270.603227 539.08298,289.505403 C537.703972,294.546751 536.783865,300.007636 535.403705,305.888056 C531.724429,326.890218 530.804322,353.353263 542.303355,389.897853 C551.042067,414.68045 557.940564,472.227201 563,518.852183 Z" id="Path" fill="#395DFF"/>
                <path d="M563,518.530667 C551.489016,527.761702 539.516301,536.153448 526.623583,543.705903 C522.940115,545.803552 519.256646,547.902352 515.572023,550 C504.982195,514.75444 492.088324,477.831451 464,451.397857 C489.786589,444.265622 515.111445,435.034587 541.81919,431.258359 C545.042081,430.83929 548.266126,430.419069 551.949594,430 C556.093641,456.433595 559.777109,489.580355 563,518.530667 Z" id="Path" fill="#3059EF"/>
                <path d="M605,348.170809 L583.006644,431 C543.600779,419.647688 501.446176,410.398553 457,402.830345 L478.994505,320 C514.275538,325.466184 557.805085,335.977456 605,348.170809 Z" id="Path" fill="#FFFFFF"/>
                <path d="M477.979524,397 L477.527061,397 C476.169673,396.580177 475.717211,395.319554 476.169673,394.478755 C476.169673,394.057778 492.454924,342.777076 493.358715,334.79121 C493.358715,333.529434 494.716103,332.688634 496.073491,333.109611 C497.430878,333.109611 498.334669,334.370233 497.882207,335.632009 C496.525953,344.038852 481.145628,394.057778 480.240703,396.160354 C479.78824,396.580177 478.884449,397 477.979524,397 Z" id="Path" fill="#C9D2FC"/>
                <path d="M486.978414,399 L486.52595,399 C485.169692,398.579028 484.717228,397.318418 485.169692,396.477627 C485.169692,396.057808 501.453865,344.777626 502.358793,336.790687 C502.358793,335.530077 503.716186,334.689286 505.072444,335.109105 C506.429837,335.109105 507.334765,336.370869 506.882301,337.631478 C505.524908,346.038236 490.145663,396.057808 489.240735,398.159209 C488.788271,398.579028 487.883343,399 486.978414,399 Z" id="Path" fill="#C9D2FC"/>
                <path d="M496.979467,400 L496.527017,400 C495.169669,399.579028 494.717219,398.318418 495.169669,397.477627 C495.169669,397.057808 511.454451,345.777626 512.358217,337.790687 C512.358217,336.530077 513.715565,335.689286 515.072914,336.109105 C516.430263,336.109105 517.334028,337.370869 516.882712,338.631478 C515.525364,347.038236 500.14548,397.057808 499.240581,399.159209 C498.788131,399.579028 497.884366,400 496.979467,400 Z" id="Path" fill="#C9D2FC"/>
                <path d="M663.923773,388.065022 L659.332232,375.524249 C655.199962,365.073413 642.801998,359.638657 630.864454,362.983475 L567.041011,383.466471 C565.205086,381.795209 562.90874,380.1228 560.613546,378.867919 C555.562736,376.777982 550.052658,376.360453 544.54258,378.032862 L514.237725,387.647493 C505.973183,390.15496 500.463105,397.262124 500.003836,404.786818 L439.854546,424.01608 C428.37512,427.778427 422.406924,439.065467 426.079925,449.934978 L430.671466,462.475751 C434.803737,472.926587 447.2017,478.361343 459.139244,475.016525 L649.689883,413.98392 C661.627427,410.221573 667.596774,398.515857 663.923773,388.065022 Z M515.615532,391.827369 L545.920387,382.212737 C547.756313,381.795209 549.593389,381.376533 551.430466,381.376533 C553.72566,381.376533 556.481275,381.795209 558.3172,383.048942 C559.695007,383.466471 561.072815,384.302675 561.990202,385.13888 L504.596527,403.533084 C505.973183,398.098329 509.646185,393.499778 515.615532,391.827369 Z" id="Shape" fill="#08135A"/>
                <path d="M584.7302,300.136159 C559.574613,255.171131 541.280057,242.143438 518.869341,236.260335 C517.039427,235.840608 514.753181,235.419727 512.465788,235 C505.604756,240.042494 504.690946,240.462222 496,242.564318 C496.914957,243.824654 509.264585,275.342262 517.954384,284.587796 C522.528023,289.63029 528.931576,296.774881 535.333983,305.179807 C552.714728,326.611273 572.380573,354.767603 570.551805,364.013137 C569.179369,369.896239 567.350602,383.343659 563.233295,398.052568 C571.466762,405.196006 584.7302,406.877222 597.993639,405.616887 C601.65232,395.530745 604.85467,385.865483 606.683438,377.460557 C613.54447,351.406324 604.85467,335.856807 584.7302,300.136159 Z" id="Path" fill="#3059EF"/>
                <path d="M564.588792,395 C560.448741,410.538297 554.010969,427.756721 543.893151,439.935916 C526.41755,442.456107 519.518619,455.054757 519.058613,457.574948 C518.598608,459.255075 520.898636,459.255075 524.117522,458.415011 C529.176431,459.674531 536.534215,461.354658 537.914231,460.93405 C548.032049,459.255075 558.149866,457.994403 566.887667,452.955174 C571.48657,450.015527 575.625468,446.655272 579.764365,443.29617 C588.503319,429.436848 594.941091,415.158071 600,401.719357 C587.123302,401.298749 574.705456,399.199166 564.588792,395 Z" id="Path" fill="#F4A880"/>
                <path d="M439.191759,144.830423 C425.468399,153.548161 426.841079,164.341387 435.989986,174.305329 C445.138893,184.683913 452,144 452,144 L439.191759,144.830423 Z" id="Path" fill="#08135A"/>
                <path d="M451,202.780627 C464.8,218.323846 458.359539,239.746632 458.359539,239.746632 C458.359539,239.746632 477.219654,247.307887 497,242.267435 C497,242.267435 477.679769,209.922324 480.899423,199 L451,202.780627 Z" id="Path" fill="#F4A880"/>
                <path d="M475,201 L451,203.92721 C456.885914,210.200459 458.697663,217.727899 459.603538,224 C467.301201,218.564408 472.282376,210.200459 475,201 Z" id="Path" fill="#E4976F"/>
                <path d="M518.869341,236.260335 C518.869341,236.687882 518.538848,236.705239 518.077697,237.132786 C515.773095,239.272869 512.54619,241.414127 508.856978,243.55421 C503.785467,246.123014 498.25396,248.690644 491.798994,249.975634 C486.266331,251.259449 480.733669,251.259449 475.201006,250.40318 C468.747196,249.119365 461.831079,246.550561 456.298416,241.414127 C453.532663,238.845322 450.631707,234.913627 447.864797,230.63346 C458.00782,228.493377 478.429067,229 478.429067,229 C494.103596,231.56763 506.882869,233.263984 518.869341,236.260335 Z" id="Path" fill="#F4A880"/>
                <path d="M444.135706,147.768675 C434.478047,178.314372 429.419218,210.116158 452.41337,210.953168 C475.407522,211.790178 491.044007,201.329276 491.964004,185.846314 C493.342846,170.782431 454.713362,113.456433 444.135706,147.768675 Z" id="Path" fill="#F4A880"/>
                <path d="M478.90111,137.53694 C448.138534,127.0164 431.151036,129.962059 435.742345,140.902912 C440.333654,151.84492 434.364607,149.319575 450.89401,150.161356 C467.881508,151.423452 472.932063,145.953602 479.360356,160.681896 C485.787498,175.411345 489.461466,180.882349 504.153885,174.148095 C518.846303,167.414995 504.153885,146.373916 478.90111,137.53694 Z" id="Path" fill="#08135A"/>
                <path d="M481.46359,174.548809 C493.514612,172.018896 501.856913,171.175592 500.929732,183.401766 C500.002552,196.049014 481,199 481,199 L481.46359,174.548809 Z" id="Path" fill="#F4A880"/>
                <path d="M471.733464,137.061946 C474.003829,137.061946 476.729634,137.476245 479,137.891683 C478.545699,137.891683 478.091398,137.476245 477.637097,137.476245 C447.661211,127.106236 430.855495,130.009748 434.489902,140.379757 C444.027943,142.868968 467.191594,137.061946 471.733464,137.061946 Z" id="Path" fill="#111F7A"/>
                <path d="M202.472981,315.369262 C219.897748,333.003942 243.742709,353.157039 227.692796,363.654668 C211.644032,374.151144 205.682504,372.050927 207.058507,388.005895 C208.434509,403.960862 213.020034,409 213.020034,409 C213.020034,409 183.213545,406.899783 177.252017,398.502371 C177.252017,398.502371 186.423068,384.647621 179.545355,376.250209 C172.666492,367.852798 141.48515,357.356321 157.533914,333.424446 C173.583827,309.491419 194.219266,306.973002 202.472981,315.369262 Z" id="Path" fill="#F4A880"/>
                <path d="M200.670061,329.414635 C193.377714,311.736041 214.344068,302.055374 202.037804,297.004842 C189.731541,291.953155 183.805796,307.527457 169.21996,308.789801 C154.634125,310.052145 156.912554,323.522155 149.620208,330.676979 C141.871947,337.832958 141.416032,352.564158 152.810467,360.982481 C164.206043,369.400804 155.090039,367.296512 171.042475,376.977179 C186.996054,386.657847 209.786065,371.084699 199.758232,358.456637 C189.731541,346.250126 205.683978,342.041542 200.670061,329.414635 Z" id="Path" fill="#111F7A"/>
                <path d="M200.973973,297.610809 C189.567492,293.884391 183.180869,308.375384 169.493779,309.618281 C164.018714,310.031822 161.28061,312.101801 159,315 C178.618506,313.344698 201.886674,311.68826 200.973973,297.610809 Z" id="Path" fill="#2842B6"/>
                <path d="M206.05303,340.778409 C202.838301,337.370906 196.870393,336.945552 193.196417,340.351887 C188.145851,345.03662 188.145851,351.425104 200.08397,357.387066 C205.134536,359.942693 208.348114,359.090818 210.185102,357.387066 C213.857927,354.406085 213.857927,349.295999 210.644349,346.313849 L206.05303,340.778409 Z" id="Path" fill="#F4A880"/>
                <path d="M172,392.214395 L176.629544,385.05988 C176.629544,385.05988 208.574439,384.217969 213.203983,388.847904 C217.833527,393.476685 222,404 222,404 L172,392.214395 Z" id="Path" fill="#FEFEFE"/>
                <path d="M160,393 C135.706277,404.355893 121.955308,449.359387 124.247711,479.220537 C126.538965,509.502917 146.249031,536 146.249031,536 L160,393 Z" id="Path" fill="#082487"/>
                <path d="M256,585 C254.167162,584.580267 252.791671,584.161684 250.957684,583.743101 C245.45802,582.485052 239.957207,580.808419 234.456394,579.132937 C232.622407,578.713204 230.789569,577.874888 228.497084,577.456305 C196.410349,567.397661 166.61495,553.148587 139.570531,535.127664 C137.736543,491.122392 136.362202,434.126094 142.320363,418.62012 C151.488001,394.312402 157.905808,385.930391 197.78584,391.797454 C227.580091,395.989034 238.12322,406.466261 236.747729,451.728433 C235.831885,486.093645 249.124846,553.56832 256,585 Z" id="Path" fill="#08135A"/>
                <path d="M299.031197,417.745471 C303.175043,418.582206 306.857308,418.582206 311,419 C311,404.359997 309.618718,392.229054 309.618718,383.862846 C309.618718,369.221695 303.63547,370.477373 298.111496,362.947901 C292.587521,355.418428 287.523974,360.855488 283.381282,396.411584 C282.920855,401.849791 282.460427,407.287998 282,413.143999 C287.523974,414.81747 293.047949,416.908735 299.031197,417.745471 Z" id="Path" fill="#F4A880"/>
                <path d="M281.742848,417.551469 C279.456596,448.966982 277.62874,479.964128 262.085663,453.994292 C242.885728,422.577629 244.25748,397.02616 199,392 L205.857611,430.955329 C205.857611,430.955329 214.543077,468.654406 250.199443,499.651552 C266.199771,513.474929 282.657349,521.85263 292.71342,507.609735 C301.400033,495.043759 306.428642,472.005945 308.713748,455.668913 C310.54275,443.940822 311,432.631099 311,422.577629 C300.942782,423.415514 290.428314,421.321376 281.742848,417.551469 Z" id="Path" fill="#082487"/>
                <path d="M311,425.163492 C311,420.207513 311,415.664059 311,411.120605 C310.539573,411.120605 309.618718,411.120605 309.158291,410.706946 C300.412479,409.468234 291.266154,407.848196 282.520342,406.195825 C282.059915,410.326752 282.059915,414.870206 281.599487,419 C290.805727,421.891083 301.333333,423.923648 311,425.163492 Z" id="Path" fill="#FEFEFE"/>
                <path d="M287.50033,407 C279.081774,389.028494 275.806979,366.043497 282.823224,368.132833 C289.838297,370.22217 283.75888,383.596448 292.177436,389.028494 C300.595991,394.461686 287.50033,407 287.50033,407 Z" id="Path" fill="#F4A880"/>
            </g>
        </g>
    </g>
</svg>