<svg xmlns="http://www.w3.org/2000/svg" xmlns:xlink="http://www.w3.org/1999/xlink" width="568px" height="469px" viewBox="0 0 568 469" version="1.1">
    <title>4821D071-8A86-4FCF-B469-0D4DA2741A9A</title>
    <defs>
        <path d="M35.699,10.323877 C30.145,5.42987695 18.4404297,3.496 6.54142969,9.41469125e-14 C3.76442969,6.642 2.38,11.722877 1.88293825e-13,18.364877 C0.794,18.364877 1.984,18.364877 2.777,18.713877 C9.123,19.063877 17.056,21.860877 21.023,21.860877 C28.162,21.860877 34.905,20.461877 38.078,18.713877 C41.252,17.315877 42.442,16.616877 35.699,10.323877 Z" id="path-1"/>
    </defs>
    <g id="Front" stroke="none" stroke-width="1" fill="none" fill-rule="evenodd">
        <g id="How-it-works" transform="translate(-772.000000, -126.000000)">
            <g id="banner-howitworks.af6d6992" transform="translate(772.000000, 126.000000)">
                <path d="M568,248.223 C568,267.8 565.62,286.678 560.86,304.856 C490.257,305.206 397.838,305.206 392.285,304.507 L276.464,301.71 C276.464,301.71 341.117,279.336 389.112,252.768 C437.106,226.199 455.352,274.093 497.397,242.28 C521.195,224.102 547.374,224.801 567.207,234.939 C568,239.134 568,243.678 568,248.223 Z" id="Path" fill="#FFFFFF" fill-rule="nonzero"/>
                <path d="M208.24,155.583 C208.24,155.583 71,156.282 0,156.282 C7.93296,138.103 18.2458,120.624 30.1453,104.5429 C40.0615,105.2421 50.771,103.1446 63.8603,93.3561 C105.905,61.5437 153.899,88.1123 166.196,119.925 C178.492,151.388 208.24,155.583 208.24,155.583 Z" id="Path" fill="#FFFFFF" fill-rule="nonzero"/>
                <g id="Group-3" transform="translate(224.899000, 384.026123)">
                    <mask id="mask-2" fill="white">
                        <use xlink:href="#path-1"/>
                    </mask>
                    <use id="Path" fill="#F4A880" fill-rule="nonzero" xlink:href="#path-1"/>
                    <path d="M14.28,22.9924316 C14.28,16.5583496 16.8090078,5.86694336 20.9843008,2.05541992 C23.7678294,-0.485595703 29.5705638,0.77726237 38.3925039,5.84399414 L27.1796133,25.4406738 C18.5798711,28.0979004 14.28,27.2818197 14.28,22.9924316 Z" id="Path-3" fill="#E29972" mask="url(#mask-2)"/>
                </g>
                <path d="M228.469,381.416 C209.43,376.521 188.408,372.676 179.285,367.782 C164.212,359.741 154.692,335.62 127.72,298.913 C127.72,298.913 102.732,319.888 122.564,353.798 C142.396,387.708 157.469,392.253 177.301,396.448 C189.598,398.895 206.257,401.342 220.536,402.74 C222.519,395.05 224.899,387.708 228.469,381.416 Z" id="Path" fill="#5750D8" fill-rule="nonzero"/>
                <path d="M224.840107,380.52883 C222.064107,387.52083 219.311857,395.068912 217.328857,402.409912 C220.897857,402.759912 224.071857,403.108912 227.244857,403.458912 C229.227857,396.816912 231.980107,389.61783 234.360107,382.97583 C231.187107,382.27683 228.013107,381.22783 224.840107,380.52883 Z" id="Path" fill="#ECE2E0" fill-rule="nonzero"/>
                <path d="M128.514,230.744 C154.693,263.255 155.09,273.043 145.173,276.889 C134.464,281.084 126.134,277.588 130.894,294.368 C136.05,312.896 136.844,310.799 136.844,310.799 C136.844,310.799 106.302,316.742 98.7655,298.214 C98.7655,298.214 109.078,296.466 100.749,280.385 C92.4192,264.304 70.6036,255.914 85.2795,240.182 C99.9555,224.451 120.978,221.654 128.514,230.744 Z" id="Path" fill="#F4A880" fill-rule="nonzero"/>
                <path d="M129.704,289.125 C128.118,278.637 135.654,280.735 145.173,276.889 C145.967,276.54 136.05,278.987 129.704,279.336 C113.442,280.735 124.151,288.775 129.704,289.125 Z" id="Path" fill="#E29972" fill-rule="nonzero"/>
                <path d="M111.458,240.532 C131.687,237.736 140.017,216.061 120.184,216.76 C100.352,217.46 102.335,227.598 88.8493,234.589 C75.3633,241.581 67.827,253.467 79.7264,263.955 C91.6258,274.442 90.0392,283.532 103.129,285.28 C116.218,287.028 116.615,273.743 113.441,266.402 C109.872,258.711 115.425,253.817 111.458,240.532 Z" id="Path" fill="#2842B6" fill-rule="nonzero"/>
                <path d="M102.335,238.784 C113.441,236.687 124.547,229.695 130.101,220.256 C128.514,217.809 125.341,216.411 119.788,216.411 C99.9554,217.11 101.939,227.248 88.4527,234.24 C84.4862,236.337 80.9164,238.784 78.5365,241.581 C86.0728,240.183 94.4024,240.183 102.335,238.784 Z" id="Path" fill="#6254E8" fill-rule="nonzero"/>
                <path d="M98.3689,251.719 C71.7935,240.881 46.408,240.882 42.4415,264.304 C38.0784,287.726 1.19007,278.287 14.6761,300.311 C28.1622,322.335 57.9108,318.839 63.8605,287.726 C69.017,261.158 67.0337,253.467 81.3131,257.662 C95.1958,261.857 98.3689,251.719 98.3689,251.719 Z" id="Path" fill="#2842B6" fill-rule="nonzero"/>
                <path d="M113.045,258.361 C103.525,257.662 101.938,262.207 106.698,268.499 C111.458,274.792 119.788,271.646 119.788,271.646 L113.045,258.361 Z" id="Path" fill="#F4A880" fill-rule="nonzero"/>
                <path d="M92.4189,450.983 C101.145,449.585 109.871,447.837 118.201,446.089 C133.67,442.943 149.536,439.797 165.006,435.951 C159.849,404.838 155.089,372.326 152.709,359.042 C147.95,330.026 143.587,309.75 117.804,295.068 C111.061,291.222 103.922,294.368 95.9887,310.1 C95.5921,310.799 95.1954,311.498 94.7988,312.547 C92.0222,318.14 89.2457,325.482 86.0725,334.221 C78.5362,356.595 82.106,410.082 86.0725,446.788 C88.0557,448.187 90.039,449.585 92.4189,450.983 Z" id="Path" fill="#6254E8" fill-rule="nonzero"/>
                <path d="M126.134,471.609 C111.855,464.267 98.3686,455.877 86.0725,446.788 C82.106,409.732 78.5362,356.595 86.0725,334.221 C88.849,325.482 92.0222,318.14 94.7988,312.547 C95.1954,311.848 95.5921,311.148 95.9887,310.1 C98.3686,321.986 101.542,334.221 105.905,345.758 C111.855,361.839 121.374,376.521 127.721,392.602 C137.637,418.472 134.86,445.39 126.134,471.609 Z" id="Path" fill="#5750D8" fill-rule="nonzero"/>
                <path d="M174.128,491.536 C141.603,481.048 111.855,466.016 86.0726,446.788 C86.0726,446.439 86.0726,446.439 86.0726,446.089 C109.078,444.341 132.877,444.341 155.089,443.642 C158.659,443.642 162.229,443.293 166.195,443.293 C168.972,461.471 172.145,479.3 174.128,491.536 Z" id="Path" fill="#B5BEEC" fill-rule="nonzero"/>
                <path d="M136.844,310.799 C132.084,304.856 126.531,297.864 118.201,292.97 C115.028,291.222 107.095,292.97 103.525,295.067 C103.525,295.067 103.525,295.067 103.128,295.067 C105.905,295.767 108.285,296.815 110.268,297.515 C116.615,300.311 118.598,303.457 122.961,305.555 C126.531,307.653 131.687,309.75 136.844,310.799 Z" id="Path" fill="#F4A880" fill-rule="nonzero"/>
                <path d="M205.067,458.325 L52.3575,481.747 C29.3519,483.845 9.1228,469.862 9.1228,452.033 L9.1228,424.066 C9.1228,406.237 28.9552,392.253 51.9608,394.001 L204.67,415.675 C224.106,417.423 239.179,421.618 239.179,437 C238.782,452.033 224.106,456.577 205.067,458.325 Z" id="Path" fill="#111F7A" fill-rule="nonzero"/>
                <path d="M119.518555,441.474121 C119.121555,441.125121 112.302329,447.128387 104.369629,453.421387 C113.889329,461.112387 116.218,470.211 122.564,470.91 C137.637,472.658 142.397,473.357 146.363,469.162 C150.726,464.967 134.987555,457.206121 119.518555,441.474121 Z" id="Path" fill="#F4A880" fill-rule="nonzero"/>
                <path d="M101.965332,460.636719 C108.708332,453.645719 115.821,446.439 123.357,440.846 C123.357,440.846 123.357,440.846 123.357,440.496 C120.581,437.35 117.011,433.854 113.838,430.358 C108.682,434.204 103.128,437.35 97.5754,440.846 C94.4022,442.943 90.8324,445.041 87.6592,447.138 C92.419,452.382 96.8286133,457.361816 101.965332,460.636719 Z" id="Path" fill="#ECE2E0" fill-rule="nonzero"/>
                <path d="M119,447 C127.377441,444.847168 147.955,452.735697 147.955,455.739 C147.955,462.597584 141.950152,455.129391 132.431152,458.275391 L119,447 Z" id="Path" fill="#F4A880" fill-rule="nonzero"/>
                <path d="M103.129,295.068 C91.6258,296.117 82.8995,301.36 74.5699,322.685 C62.6704,353.099 43.6313,380.367 61.8772,412.879 C71.3967,429.659 83.1824742,444.134697 94.2885742,454.272697 C96.2718742,452.874697 97.9722,451.333 99.9554,449.935 C105.905,445.041 112.300973,440.024492 118.646973,435.479492 C103.970973,419.747492 86.0727,397.846 90.8325,377.221 C94.799,360.79 107.492,325.832 114.631,307.303 C112.648,304.157 111.062,300.661 109.475,297.515 C108.285,296.816 105.905,296.117 103.129,295.068 Z" id="Path" fill="#6254E8" fill-rule="nonzero"/>
                <path d="M346.274,234.939 C343.497,237.736 340.324,241.231 337.151,244.727 C301.452,283.881 294.313,288.426 272.497,268.15 C250.681,247.874 249.888,221.655 214.19,213.964 C178.492,206.273 178.492,202.427 176.508,208.021 C174.525,213.964 177.302,223.752 196.341,228.996 C215.38,234.24 214.586,240.183 241.162,277.239 C253.061,293.669 264.961,305.555 276.86,313.596 C292.726,324.783 307.005,324.433 332.391,299.962 C346.274,286.678 357.776,274.792 367.296,264.654 C361.346,254.516 354.207,244.378 346.274,234.939 Z" id="Path" fill="#F4A880" fill-rule="nonzero"/>
                <path d="M393.078,218.508 C390.698,216.76 389.508,213.964 389.905,211.516 C389.508,211.516 389.111,211.516 388.715,211.516 C372.849,209.769 365.709,214.313 341.91,240.183 C350.636,248.223 362.536,265.353 368.089,274.792 C368.486,274.092 368.089,267.45 368.486,266.751 C376.815,257.312 379.592,247.174 385.541,240.183 C393.078,231.443 398.631,224.801 402.201,220.606 C398.631,220.955 395.458,220.606 393.078,218.508 Z" id="Path" fill="#08135A" fill-rule="nonzero"/>
                <path d="M237.538086,224.554199 C228.812086,214.067199 204.616086,200.782199 207.790086,208.124199 C210.963086,215.814199 220.879086,215.115199 218.499086,224.554199 C215.723086,233.643199 237.538086,224.554199 237.538086,224.554199 Z" id="Path" fill="#F4A880" fill-rule="nonzero"/>
                <path d="M375.626,374.774 C375.626,375.123 375.626,375.473 375.229,375.822 C375.229,376.172 375.229,376.522 374.832,376.871 C374.832,377.57 374.436,378.27 374.436,378.619 C398.235,383.513 424.413,380.717 448.212,377.221 C460.508,375.473 472.804,372.676 484.307,368.831 C484.307,368.481 484.307,368.131 484.307,367.782 C484.307,366.384 483.911,364.985 483.514,363.237 C483.117,362.188 483.117,360.79 482.721,359.741 C479.151,343.66 472.408,327.23 465.268,308.352 C455.352,281.434 450.196,220.955 450.196,220.955 L414.497,216.411 L406.168,215.362 L397.045,214.313 L385.939,225.5 L378.799,232.841 C370.469,246.825 365.71,256.613 364.123,264.304 C362.14,273.393 364.123,280.036 368.883,289.125 C378.006,306.255 387.129,324.433 375.626,374.774 Z" id="Path" fill="#111F7A" fill-rule="nonzero"/>
                <path d="M485.894,470.947 C441.313,480.782 414.894,479.65 369.676,493.284 C368.089,493.983 366.106,494.332 364.519,494.682 C365.709,455.878 367.797225,405.166344 374.937225,376.500344 C374.937225,376.150344 374.937225,375.801344 375.334225,375.451344 C375.334225,375.101344 375.334225,374.752344 375.730225,374.402344 C413.412225,377.199344 449.006,371.627 483.514,360.441 C483.911,361.489 483.911,362.888 484.307,363.936 C484.704,365.335 484.704,366.733 485.101,368.481 C485.101,369.879 485.497,371.278 485.497,372.676 C485.497,373.026 485.497,373.375 485.497,373.725 C485.497,374.774 485.497,376.172 485.894,377.221 C485.894,378.619 485.894,380.017 485.894,381.765 C485.497,392.603 484.704,455.215 485.894,470.947 Z" id="Path" fill="#6254E8" fill-rule="nonzero"/>
                <path d="M414.894,216.761 L385.146,258.012 C385.146,258.012 385.146,250.671 385.542,240.532 C385.939,235.988 385.939,230.744 386.732,225.5 C387.129,220.606 387.922,215.712 388.715,211.167 C393.872,211.517 399.822,212.915 407.755,214.313 C407.755,214.313 407.358,214.663 406.565,215.362 L414.894,216.761 Z" id="Path" fill="#F4A880" fill-rule="nonzero"/>
                <path d="M401.011,265.353 C397.441,274.093 393.475,283.182 389.508,291.223 C374.832,320.239 370.469,331.425 310.972,358.344 C251.475,385.262 250.681,382.115 244.335,397.497 C237.592,412.529 245.128,408.684 260.201,405.538 C268.531,403.79 271.704,401.692 278.447,397.497 C287.966,396.099 293.916,395.05 300.659,388.408 C321.285,383.863 373.246,367.782 394.665,353.799 C410.134,343.661 428.776,303.808 437.503,278.987 C425.207,274.443 413.307,269.548 401.011,265.353 Z" id="Path" fill="#F4A880" fill-rule="nonzero"/>
                <path d="M431.156,284.231 C432.346,284.58 433.625402,284.964453 435.212402,285.314453 C437.592402,279.021453 439.486,273.743 440.676,269.199 C447.419,247.175 451.385,228.996 433.536,226.199 C418.464,223.752 408.62843,247.361764 398.31543,271.832764 C409.02543,275.328764 420.05,280.735 431.156,284.231 Z" id="Path" fill="#08135A" fill-rule="nonzero"/>
                <path d="M379.592,136.355 C373.642,144.046 370.469,151.737 366.502,157.68 C350.24,184.249 355.396,191.241 375.625,191.94 C389.905,192.289 390.698,193.688 391.491,223.403 C391.491,223.403 412.514,227.248 424.413,220.256 C424.413,220.256 408.547,201.029 413.307,187.046 C418.067,173.062 439.089,145.095 419.257,133.559 C399.424,122.022 389.111,123.77 379.592,136.355 Z" id="Path" fill="#F4A880" fill-rule="nonzero"/>
                <path d="M378.402,191.939 C385.938,192.289 389.111,193.687 390.301,203.126 C392.285,199.98 393.474,196.834 393.871,194.037 C393.871,188.094 383.558,191.24 378.402,191.939 Z" id="Path" fill="#E29972" fill-rule="nonzero"/>
                <path d="M414.1,128.317 C395.061,120.276 377.212,110.8376 373.246,122.374 C369.279,133.91 382.369,139.154 396.251,152.788 C410.134,166.072 408.151,161.528 402.994,180.755 C397.838,199.982 388.318,228.648 420.843,237.738 C453.368,247.176 492.24,215.014 463.285,195.787 C434.329,176.56 432.346,179.007 434.726,161.877 C437.106,145.097 429.173,134.609 414.1,128.317 Z" id="Path" fill="#2842B6" fill-rule="nonzero"/>
                <path d="M396.252,152.786 C410.134,166.07 408.151,161.525 402.995,180.753 C402.598,182.151 402.201,183.899 401.805,185.647 C402.598,185.297 402.995,185.297 403.788,184.948 C411.324,182.151 418.86,180.054 420.05,171.314 C421.24,161.176 412.118,153.835 403.788,148.94 C390.699,140.55 383.559,129.363 387.525,117.827 C380.782,116.079 375.229,116.778 373.643,122.372 C368.883,133.908 382.369,139.152 396.252,152.786 Z" id="Path" fill="#6254E8" fill-rule="nonzero"/>
                <path d="M339.927,100.878785 C339.927,125.628692 330.408,148.503854 314.145,166.128187 C306.609,174.378264 297.486,181.504158 287.57,187.128284 C279.637,191.628228 270.91,195.00399 261.788,197.628868 C259.804,198.003238 257.821,198.754122 255.838,199.128492 C248.698,200.628115 241.162,201.379 233.626,201.379 L233.229,201.379 C229.262,201.379 225.693,201.003558 222.123,200.628115 C212.207,199.503934 202.687,197.253426 193.961,193.878736 C180.475,188.62898 168.179,180.753274 158.262,171.003574 C154.296,167.253442 151.123,163.50331 147.949,159.378808 C142.793,153.003798 138.827,145.878976 135.653,138.378712 C130.894,126.753946 128.117,114.378296 128.117,101.253799 C127.72,45.3788687 175.318,0.379 234.022,0.379 C292.726,0.379 339.927,45.3788687 339.927,100.878785 Z" id="Path" fill="#FFEAE0" fill-rule="nonzero"/>
                <path d="M314.145,168.168 C294.709,188.094 265.754,201.029 233.625,201.029 C203.877,201.029 176.905,190.192 157.866,172.713 C153.899,169.217 150.726,165.721 147.553,161.875 C149.139,151.038 154.692,138.803 165.402,126.917 C186.821,102.4456 183.251,101.7464 228.072,101.0473 C228.469,101.0473 229.262,101.0473 229.659,101.0473 L229.659,101.3968 C236.005,108.3886 244.731,106.2911 252.268,102.096 C253.061,101.7464 253.458,101.0472 253.854,100.3481 C254.251,100.3481 255.044,100.3481 255.441,100.3481 C273.29,99.9985 292.329,100.3481 296.692,117.478 C301.055,130.413 312.162,150.689 314.145,168.168 Z" id="Path" fill="#08135A" fill-rule="nonzero"/>
                <path d="M297.486,117.478 C295.106,108.0391 288.363,103.844 280.033,101.7465 C280.43,119.226 284.396,132.86 285.586,150.339 C286.379,162.225 284,177.957 284.396,189.842 C295.899,184.249 306.212,177.257 314.541,168.518 C312.162,150.689 301.055,130.413 297.486,117.478 Z" id="Path" fill="#111F7A" fill-rule="nonzero"/>
                <path d="M165.006,115.031 C172.542,104.1935 176.508,100.6976 183.251,99.2993 C189.994,97.9009 195.548,99.2992 190.391,106.6406 C185.235,113.9819 165.006,115.031 165.006,115.031 Z" id="Path" fill="#905F45" fill-rule="nonzero"/>
                <path d="M255.838,198.932 C248.698,200.33 241.162,201.029 233.625,201.029 C219.346,201.029 205.86,198.582 193.564,194.037 C193.167,192.289 192.374,189.842 191.581,187.395 C199.514,184.249 203.48,175.859 200.704,168.517 C197.927,162.225 191.977,160.477 184.838,160.827 C184.838,160.827 184.838,160.827 184.441,160.477 C185.631,157.331 185.631,153.835 184.441,150.339 C184.441,149.989 184.044,149.29 183.648,148.941 C181.268,144.746 181.268,139.851 184.044,136.355 C186.424,133.559 189.597,131.112 193.564,129.713 L201.894,126.917 C205.86,125.518 210.223,125.518 213.793,126.567 C218.949,127.616 222.123,131.461 223.709,136.006 C223.709,136.355 224.106,137.055 224.106,137.404 C225.692,140.9 228.072,143.347 231.642,145.095 L231.642,145.445 C225.692,149.29 222.123,154.184 224.899,160.477 C228.072,167.818 237.195,172.013 245.525,169.916 C248.698,175.509 251.078,179.704 251.475,181.103 L254.648,188.793 C256.631,192.289 256.631,195.785 255.838,198.932 Z" id="Path" fill="#6254E8" fill-rule="nonzero"/>
                <g id="Group-4" transform="translate(181.433580, 88.141632) rotate(-21.000000) translate(-181.433580, -88.141632) translate(171.933580, 81.641632)" fill-rule="nonzero">
                    <polygon id="Path" fill="#6254E8" points="15.179251 1.54000528 2.17925102 1.54000528 2.17925102 3.54000528 15.179251 3.54000528"/>
                    <polygon id="Path" fill="#6254E8" points="15.4714167 9.15017211 2.47141665 9.15017211 2.47141665 11.1501721 15.4714167 11.1501721"/>
                    <path d="M2.43920021,0.59534958 L3.60569829,0.59534958 L3.60569829,4.59534958 L2.43920021,4.59534958 C1.42625261,4.59534958 0.605698288,3.6999413 0.605698288,2.59537992 C0.605698288,1.49081854 1.42625261,0.59534958 2.43920021,0.59534958 Z" id="Path" fill="#F4A880"/>
                    <path d="M1.95642046,8.0131843 L3.12291854,8.0131843 L3.12291854,12.0131843 L1.95642046,12.0131843 C0.943472855,12.0131843 0.122918536,11.117776 0.122918536,10.0132146 C0.122918536,8.90859258 0.943472855,8.0131843 1.95642046,8.0131843 Z" id="Path" fill="#F4A880"/>
                    <path d="M15.9664561,0.528097293 L14.799958,0.528097293 L14.799958,4.52809729 L15.9664561,4.52809729 C16.9794037,4.52809729 17.799958,3.63268901 17.799958,2.52812763 C17.799958,1.42356625 16.9794037,0.528097293 15.9664561,0.528097293 Z" id="Path" fill="#F4A880"/>
                    <path d="M16.2827368,8.07544224 L15.1162387,8.07544224 L15.1162387,12.0754422 L16.2827368,12.0754422 C17.2956844,12.0754422 18.1162387,11.180034 18.1162387,10.0754726 C18.1162387,8.97085052 17.2956844,8.07544224 16.2827368,8.07544224 Z" id="Path" fill="#F4A880"/>
                </g>
                <polygon id="Path" fill="#FCA58C" fill-rule="nonzero" points="216.967 156.282 204.274 160.477 174.922 79.3729 179.682 77.9746"/>
                <path d="M175.661881,65 C178.079698,65 180.133577,67.4120838 180.87046,70.7644443 L181.502431,70.7640443 C182.165052,70.7640443 182.702977,71.2117608 182.702977,71.7640848 L182.702977,73.7640848 C182.702977,74.3163278 182.165052,74.7640443 181.502431,74.7640443 L181.074126,74.7647007 C180.509582,78.8686522 177.3466,82.0564853 175.661881,81.999241 C174.365859,81.999241 170.994261,78.9609121 170.291125,74.9650398 L169.2,74.9648689 C168.537178,74.9648689 168,74.5171524 168,73.9649094 L168,73.9649094 L168,71.9649094 C168,71.4125855 168.537178,70.9648689 169.2,70.9648689 L169.2,70.9648689 L170.410427,70.9638356 C171.108525,67.5081448 173.195712,65 175.661881,65 Z" id="Combined-Shape" fill="#08135A" fill-rule="nonzero" transform="translate(175.351488, 73.500000) rotate(-19.000000) translate(-175.351488, -73.500000) "/>
                <path d="M213,183.2 C212.206,183.2 211.413,182.85 211.016,182.151 C210.62,181.102 211.016,180.403 212.206,180.054 L225.692,175.859 C226.882,175.509 227.676,175.859 228.072,176.907 C228.469,177.956 228.072,178.655 226.882,179.005 L213.396,183.2 L213,183.2 Z" id="Path" fill="#FFFFFF" fill-rule="nonzero"/>
                <path d="M233.625,201.029 C229.659,201.029 226.089,200.679 222.519,200.33 L218.156,193.338 L230.849,189.143 L233.625,201.029 Z" id="Path" fill="#FCA58C" fill-rule="nonzero"/>
                <line x1="177.936035" y1="83.1113661" x2="224.842773" y2="199.824219" id="Path-2" stroke="#DE8C74"/>
                <line x1="178.709756" y1="81.80805" x2="228.469" y2="199.824219" id="Path-2-Copy" stroke="#DE8C74"/>
                <line x1="179.992676" y1="81.08495" x2="231.852539" y2="199.824219" id="Path-2-Copy-2" stroke="#DE8C74"/>
                <path d="M170.955,148.242 C175.715,139.502 179.682,132.51 181.268,130.762 C185.631,125.169 191.184,125.518 197.531,118.177 C203.877,110.8358 201.1,112.2341 199.117,104.1936 C196.737,94.4052 194.754,98.6002 180.871,104.1936 C174.128,106.9903 165.402,113.9821 155.883,122.372 C159.453,131.461 164.212,140.551 170.955,148.242 Z" id="Path" fill="#905F45" fill-rule="nonzero"/>
                <path d="M157.072,120.974 C149.933,127.266 142.396,134.608 135.257,141.949 C140.413,153.485 148.346,163.973 157.866,172.713 C163.022,162.924 169.765,150.213268 174.922,141.124268 C168.179,135.531268 161.832,128.665 157.072,120.974 Z" id="Path" fill="#111F7A" fill-rule="nonzero"/>
                <path d="M233.310517,80.2156016 C235.294517,91.0528016 231.642,97.9599012 228.469,101.106201 C228.469,101.106201 242.461211,104.474616 256.741211,100.279516 C256.741211,100.279516 253.143517,92.4512016 253.936517,79.8660016 C255.126517,67.2809016 233.310517,80.2156016 233.310517,80.2156016 Z" id="Path" fill="#905F45" fill-rule="nonzero"/>
                <path d="M232.883058,93.2569529 C240.419058,94.3057529 248.352058,91.1594529 253.905058,85.9156529 C253.905058,83.8181529 253.905058,81.7205529 253.905058,79.2734529 C255.095058,66.6883529 233.280058,79.6230529 233.280058,79.6230529 C234.470058,85.5660529 234.073058,89.7611529 232.883058,93.2569529 Z" id="Path" fill="#7B4E37" fill-rule="nonzero"/>
                <path d="M264.249517,58.1918016 C265.042517,72.5249016 258.299517,84.7604016 246.796517,85.8092016 C230.137517,87.2075016 222.601517,74.6224016 221.808517,60.2893016 C221.014517,45.9563016 229.741517,33.7207016 241.243517,33.3711016 C253.143517,32.6720016 263.059517,43.8587016 264.249517,58.1918016 Z" id="Path" fill="#905F45" fill-rule="nonzero"/>
                <path d="M243.227517,46.6552016 C251.160517,45.9560016 255.919517,45.9560016 258.696517,47.3543016 C261.869517,49.1023016 262.266517,52.5981016 263.456517,52.5981016 C262.266517,36.5171016 250.366517,32.6717016 241.243517,33.0213016 C230.931517,33.3709016 221.014517,37.9155016 221.808517,54.6957016 C227.757517,54.3461016 224.584517,49.8014016 231.327517,47.3543016 C233.311517,46.6552016 238.467517,47.0048016 243.227517,46.6552016 Z" id="Path" fill="#08135A" fill-rule="nonzero"/>
                <path d="M233.311517,61.3378016 C234.500517,66.2320016 231.724517,71.4758016 226.964517,72.8742016 C222.204517,74.2725016 218.635517,71.8254016 215.858517,66.2320016 C213.875517,61.6874016 215.065517,54.3461016 222.204517,54.6957016 C226.964517,55.0452016 232.121517,56.0940016 233.311517,61.3378016 Z" id="Path" fill="#905F45" fill-rule="nonzero"/>
                <path d="M251.556517,62.0367016 C250.763517,67.2805016 254.333517,71.8251016 259.092517,72.5243016 C263.852517,73.2234016 267.819517,69.7276016 269.405517,64.4838016 C270.595517,59.5896016 269.009517,52.5979016 261.869517,53.9962016 C257.109517,55.0450016 252.349517,57.1425016 251.556517,62.0367016 Z" id="Path" fill="#905F45" fill-rule="nonzero"/>
                <path d="M256.741211,100.3478 C256.741211,100.3478 249.407916,116.950312 242.352,117.128 C237.800944,117.242608 233.173277,111.902009 228.469,101.106201 C233.626,101.106201 239.179,100.3478 245.922,100.3478 C249.095,100.3478 253.172211,100.6974 256.741211,100.3478 Z" id="Path" fill="#905F45" fill-rule="nonzero"/>
                <path d="M228.551517,47.7040016 C226.567517,56.0941016 226.567517,63.7850016 224.981517,62.0371016 C223.394517,60.2891016 222.997517,53.2974016 222.997517,53.2974016 L228.551517,47.7040016 Z" id="Path" fill="#08135A" fill-rule="nonzero"/>
                <path d="M261.076517,49.4518016 C261.870517,53.9964016 261.473517,60.2890016 263.060517,60.2890016 C264.646517,60.2890016 263.853517,55.3948016 263.456517,52.5981016 C263.2677,49.8980713 261.076517,49.4518016 261.076517,49.4518016 Z" id="Path" fill="#08135A" fill-rule="nonzero"/>
            </g>
        </g>
    </g>
</svg>