<svg width="422" height="279" viewBox="0 0 422 279" fill="none" xmlns="http://www.w3.org/2000/svg">
<g filter="url(#filter0_d)">
<rect x="25" y="20" width="372" height="229" rx="4" fill="#F6732F"/>
</g>
<mask id="mask0" mask-type="alpha" maskUnits="userSpaceOnUse" x="25" y="20" width="372" height="229">
<rect x="25" y="20" width="372" height="229" rx="4" fill="white"/>
</mask>
<g mask="url(#mask0)">
<path opacity="0.246303" fill-rule="evenodd" clip-rule="evenodd" d="M186.259 18C186.259 18 294.259 48.6604 343.259 30C392.259 11.3396 464.259 157.1 366.259 113.5C268.259 69.9004 144.259 -6 165.259 47.5C186.259 101 245.505 87 238.277 109C231.05 131 131.759 97.8008 110.759 69.9004C89.7589 42 -11.7694 34.5 57.7589 113.5C127.287 192.5 39.2589 220.5 89.7589 269C140.259 317.5 59.2589 137.257 150.259 162.129C241.259 187 281.658 431 225.708 317.5C169.759 204 116.138 148.477 128.198 208.739C136.531 250.373 183.613 348.4 223.387 385.004C241.182 401.38 257.514 405.462 268.259 386.7C303.022 326 213.874 186.5 262.259 161.25C310.644 136 384.233 208 417.259 142.5C450.285 77 457.259 207.5 366.259 197.25C275.259 187 293.259 332 355.259 293C417.259 254 404.11 208.379 454.742 208.559C505.373 208.739 43.2589 363.5 35.2589 278C27.2589 192.5 -46.3787 174 -54.2411 214C-62.1035 254 -36.4911 293 -36.4911 293C-36.4911 293 -36.2411 166.352 -0.491142 254C35.2589 341.648 -79.7411 269 -79.7411 269C-79.7411 269 -63.7411 189.298 -86.2411 183.399C-108.741 177.5 52.2589 18 52.2589 18L186.259 18Z" stroke="white"/>
</g>
<defs>
<filter id="filter0_d" x="0" y="0" width="422" height="279" filterUnits="userSpaceOnUse" color-interpolation-filters="sRGB">
<feFlood flood-opacity="0" result="BackgroundImageFix"/>
<feColorMatrix in="SourceAlpha" type="matrix" values="0 0 0 0 0 0 0 0 0 0 0 0 0 0 0 0 0 0 127 0"/>
<feOffset dy="5"/>
<feGaussianBlur stdDeviation="12.5"/>
<feColorMatrix type="matrix" values="0 0 0 0 0.384314 0 0 0 0 0.329412 0 0 0 0 0.909804 0 0 0 0.203944 0"/>
<feBlend mode="normal" in2="BackgroundImageFix" result="effect1_dropShadow"/>
<feBlend mode="normal" in="SourceGraphic" in2="effect1_dropShadow" result="shape"/>
</filter>
</defs>
</svg>
