<svg width="567" height="224" viewBox="0 0 567 224" fill="none" xmlns="http://www.w3.org/2000/svg">
<path fill-rule="evenodd" clip-rule="evenodd" d="M657.117 205.935C657.117 205.935 687.453 116.056 601.051 116.056C514.65 116.056 423.436 2.23759 316.479 73.409C209.521 144.58 316.479 255 316.479 255H657.117V205.935Z" fill="#720059"/>
<mask id="mask0" mask-type="alpha" maskUnits="userSpaceOnUse" x="268" y="50" width="395" height="205">
<path fill-rule="evenodd" clip-rule="evenodd" d="M657.117 205.935C657.117 205.935 687.453 116.056 601.051 116.056C514.65 116.056 423.436 2.23759 316.479 73.409C209.521 144.58 316.479 255 316.479 255H657.117V205.935Z" fill="white"/>
</mask>
<g mask="url(#mask0)">
<g opacity="0.149949">
<path fill-rule="evenodd" clip-rule="evenodd" d="M388.5 144C405.345 144 419 130.345 419 113.5C419 96.6553 405.345 83 388.5 83C371.655 83 358 96.6553 358 113.5C358 130.345 371.655 144 388.5 144Z" stroke="white"/>
<path fill-rule="evenodd" clip-rule="evenodd" d="M389 132C398.941 132 407 123.941 407 114C407 104.059 398.941 96 389 96C379.059 96 371 104.059 371 114C371 123.941 379.059 132 389 132Z" stroke="white"/>
<path fill-rule="evenodd" clip-rule="evenodd" d="M388.5 121C392.642 121 396 117.642 396 113.5C396 109.358 392.642 106 388.5 106C384.358 106 381 109.358 381 113.5C381 117.642 384.358 121 388.5 121Z" stroke="white"/>
<path fill-rule="evenodd" clip-rule="evenodd" d="M388.5 156C411.972 156 431 136.972 431 113.5C431 90.0279 411.972 71 388.5 71C365.028 71 346 90.0279 346 113.5C346 136.972 365.028 156 388.5 156Z" stroke="white"/>
<path fill-rule="evenodd" clip-rule="evenodd" d="M388.5 168C418.6 168 443 143.6 443 113.5C443 83.4005 418.6 59 388.5 59C358.4 59 334 83.4005 334 113.5C334 143.6 358.4 168 388.5 168Z" stroke="white"/>
<path fill-rule="evenodd" clip-rule="evenodd" d="M388.5 180C425.227 180 455 150.227 455 113.5C455 76.7731 425.227 47 388.5 47C351.773 47 322 76.7731 322 113.5C322 150.227 351.773 180 388.5 180Z" stroke="white"/>
<path fill-rule="evenodd" clip-rule="evenodd" d="M390 194C433.63 194 469 158.63 469 115C469 71.3695 433.63 36 390 36C346.37 36 311 71.3695 311 115C311 158.63 346.37 194 390 194Z" stroke="white"/>
<path fill-rule="evenodd" clip-rule="evenodd" d="M390 206C440.258 206 481 165.258 481 115C481 64.7421 440.258 24 390 24C339.742 24 299 64.7421 299 115C299 165.258 339.742 206 390 206Z" stroke="white"/>
<path fill-rule="evenodd" clip-rule="evenodd" d="M391 219C447.885 219 494 172.885 494 116C494 59.1147 447.885 13 391 13C334.115 13 288 59.1147 288 116C288 172.885 334.115 219 391 219Z" stroke="white"/>
</g>
</g>
<path fill-rule="evenodd" clip-rule="evenodd" d="M542.5 230.557C542.5 230.557 522.127 187.254 445.406 171.95C368.685 156.647 244.5 67.5 187.836 87.6868C131.172 107.874 0.249634 272.122 0.249634 272.122L542.5 286.5V230.557Z" fill="#D20046"/>
<mask id="mask1" mask-type="alpha" maskUnits="userSpaceOnUse" x="0" y="84" width="543" height="203">
<path fill-rule="evenodd" clip-rule="evenodd" d="M542.5 230.557C542.5 230.557 522.127 187.254 445.406 171.95C368.685 156.647 244.5 67.5 187.836 87.6868C131.172 107.874 0.249634 272.122 0.249634 272.122L542.5 286.5V230.557Z" fill="white"/>
</mask>
<g mask="url(#mask1)">
<g opacity="0.149972">
<path d="M57.5 174.5L271.5 55.5" stroke="white" stroke-linecap="square"/>
<path d="M55.5 163.5L269.5 44.5" stroke="white" stroke-linecap="square"/>
<path d="M57.5 186.5L271.5 67.5" stroke="white" stroke-linecap="square"/>
<path d="M57.5 198.5L271.5 79.5" stroke="white" stroke-linecap="square"/>
<path d="M0.249657 242L271.5 91.5" stroke="white" stroke-linecap="square"/>
<path d="M2 254L300 87" stroke="white" stroke-linecap="square"/>
<path d="M2 266L310 93.5" stroke="white" stroke-linecap="square"/>
<path d="M19 269L320 100" stroke="white" stroke-linecap="square"/>
<path d="M44 266L332 105.5" stroke="white" stroke-linecap="square"/>
<path d="M52.5 272.25L340.5 111.75" stroke="white" stroke-linecap="square"/>
<path d="M57.5 282.5L354 117" stroke="white" stroke-linecap="square"/>
<path d="M57.5 294.5L358 127" stroke="white" stroke-linecap="square"/>
<path d="M57.5 306.5L363 136.5" stroke="white" stroke-linecap="square"/>
<path d="M57.5 318.5L378 139.5" stroke="white" stroke-linecap="square"/>
<path d="M57.5 330.5L389 145.5" stroke="white" stroke-linecap="square"/>
<path d="M57.5 342.5L401 151" stroke="white" stroke-linecap="square"/>
<path d="M57.5 354.5L412 158" stroke="white" stroke-linecap="square"/>
<path d="M57.5 366.5L426 163" stroke="white" stroke-linecap="square"/>
</g>
</g>
<path fill-rule="evenodd" clip-rule="evenodd" d="M671.915 203.086C648.647 157.408 619.56 12.6892 522.251 25.8414C424.942 38.9935 414.876 137.681 356.607 162.308C298.338 186.935 244.725 151.045 185.477 186.935C126.228 222.826 142.51 292 142.51 292L720 275.064C720 275.064 695.184 248.764 671.915 203.086Z" fill="#EB5131"/>
<mask id="mask2" mask-type="alpha" maskUnits="userSpaceOnUse" x="140" y="25" width="580" height="267">
<path fill-rule="evenodd" clip-rule="evenodd" d="M671.915 203.086C648.647 157.408 619.56 12.6892 522.251 25.8414C424.942 38.9935 414.876 137.681 356.607 162.308C298.338 186.935 244.725 151.045 185.477 186.935C126.228 222.826 142.51 292 142.51 292L720 275.064C720 275.064 695.184 248.764 671.915 203.086Z" fill="white"/>
</mask>
<g mask="url(#mask2)">
<path opacity="0.246303" fill-rule="evenodd" clip-rule="evenodd" d="M434 25C434 25 542 55.6604 591 37C640 18.3396 712 164.1 614 120.5C516 76.9004 392 1 413 54.5C434 108 493.246 94 486.019 116C478.791 138 379.5 104.801 358.5 76.9004C337.5 49 235.972 41.5 305.5 120.5C375.028 199.5 287 227.5 337.5 276C388 324.5 307 144.257 398 169.129C489 194 529.399 438 473.45 324.5C417.5 211 363.879 155.477 375.94 215.739C384.272 257.373 431.354 355.4 471.128 392.004C488.923 408.38 505.255 412.462 516 393.7C550.763 333 461.615 193.5 510 168.25C558.385 143 631.974 215 665 149.5C698.026 84 705 214.5 614 204.25C523 194 541 339 603 300C665 261 651.851 215.379 702.483 215.559C753.114 215.739 291 370.5 283 285C275 199.5 201.362 181 193.5 221C185.638 261 211.25 300 211.25 300C211.25 300 211.5 173.352 247.25 261C283 348.648 168 276 168 276C168 276 184 196.298 161.5 190.399C139 184.5 300 25 300 25L434 25Z" stroke="white"/>
</g>
<path fill-rule="evenodd" clip-rule="evenodd" d="M202 2.6036C202 2.6036 220.739 -0.263484 240.739 10.4881C260.739 21.2396 282 11.2048 282 11.2048L276.955 21.8597C276.955 21.8597 276.955 26.9738 282 32.3495C268.758 34.6809 251.91 38.1599 235.694 29.1241C219.477 20.0883 202 23.7483 202 23.7483V2.6036Z" fill="#6254E8"/>
<path d="M202 3V103" stroke="#6254E8" stroke-width="5" stroke-linecap="round" stroke-linejoin="round"/>
<path d="M215.082 15.48C215.002 15.54 214.888 15.6067 214.742 15.68C214.602 15.7467 214.435 15.81 214.242 15.87C214.048 15.93 213.832 15.98 213.592 16.02C213.358 16.06 213.108 16.08 212.842 16.08C212.275 16.08 211.765 15.9833 211.312 15.79C210.865 15.59 210.485 15.3233 210.172 14.99C209.858 14.6567 209.618 14.27 209.452 13.83C209.285 13.39 209.202 12.9233 209.202 12.43C209.202 11.8833 209.298 11.38 209.492 10.92C209.692 10.46 209.962 10.0633 210.302 9.73C210.642 9.39667 211.038 9.13667 211.492 8.95C211.952 8.76333 212.438 8.67 212.952 8.67C213.145 8.67 213.342 8.68333 213.542 8.71C213.742 8.73667 213.928 8.77333 214.102 8.82C214.282 8.86667 214.438 8.92333 214.572 8.99C214.712 9.05 214.818 9.11333 214.892 9.18C214.838 9.26 214.795 9.32667 214.762 9.38C214.735 9.43333 214.705 9.49 214.672 9.55C214.638 9.60333 214.602 9.66667 214.562 9.74C214.522 9.81333 214.468 9.91 214.402 10.03C214.315 9.97 214.212 9.92 214.092 9.88C213.978 9.84 213.858 9.80667 213.732 9.78C213.605 9.75333 213.475 9.73333 213.342 9.72C213.215 9.70667 213.098 9.7 212.992 9.7C212.605 9.7 212.245 9.77333 211.912 9.92C211.585 10.06 211.302 10.2533 211.062 10.5C210.822 10.74 210.632 11.02 210.492 11.34C210.358 11.66 210.292 11.9933 210.292 12.34C210.292 12.68 210.355 13.0067 210.482 13.32C210.615 13.6333 210.795 13.9133 211.022 14.16C211.255 14.4067 211.532 14.6033 211.852 14.75C212.178 14.8967 212.535 14.97 212.922 14.97C213.128 14.97 213.328 14.95 213.522 14.91C213.715 14.87 213.888 14.8233 214.042 14.77C214.202 14.7167 214.332 14.6633 214.432 14.61C214.538 14.5567 214.602 14.5167 214.622 14.49L215.082 15.48Z" fill="white"/>
<path d="M216.793 14.38C216.793 13.88 216.89 13.4067 217.083 12.96C217.276 12.5067 217.54 12.11 217.873 11.77C218.213 11.43 218.606 11.1633 219.053 10.97C219.5 10.77 219.98 10.67 220.493 10.67C221 10.67 221.476 10.77 221.923 10.97C222.376 11.1633 222.77 11.43 223.103 11.77C223.443 12.11 223.71 12.5067 223.903 12.96C224.103 13.4067 224.203 13.88 224.203 14.38C224.203 14.8933 224.103 15.3733 223.903 15.82C223.71 16.2667 223.443 16.66 223.103 17C222.77 17.3333 222.376 17.5967 221.923 17.79C221.476 17.9833 221 18.08 220.493 18.08C219.98 18.08 219.5 17.9833 219.053 17.79C218.606 17.5967 218.213 17.3333 217.873 17C217.54 16.66 217.276 16.2667 217.083 15.82C216.89 15.3733 216.793 14.8933 216.793 14.38ZM217.883 14.39C217.883 14.7567 217.95 15.1033 218.083 15.43C218.223 15.75 218.413 16.03 218.653 16.27C218.893 16.51 219.173 16.7 219.493 16.84C219.813 16.98 220.153 17.05 220.513 17.05C220.873 17.05 221.21 16.98 221.523 16.84C221.843 16.7 222.12 16.51 222.353 16.27C222.593 16.03 222.78 15.75 222.913 15.43C223.053 15.1033 223.123 14.7533 223.123 14.38C223.123 14.0133 223.053 13.67 222.913 13.35C222.78 13.0233 222.593 12.74 222.353 12.5C222.113 12.26 221.833 12.07 221.513 11.93C221.2 11.79 220.863 11.72 220.503 11.72C220.143 11.72 219.803 11.79 219.483 11.93C219.163 12.07 218.883 12.26 218.643 12.5C218.41 12.74 218.223 13.0233 218.083 13.35C217.95 13.6767 217.883 14.0233 217.883 14.39Z" fill="white"/>
<path d="M233.678 13.75V21.33C233.584 21.21 233.404 21.0167 233.138 20.75C232.871 20.4833 232.564 20.1767 232.218 19.83C231.871 19.4833 231.501 19.12 231.108 18.74C230.721 18.36 230.354 18 230.008 17.66C229.661 17.3133 229.358 17.0067 229.098 16.74C228.838 16.4667 228.664 16.2733 228.578 16.16L228.388 15.9L228.418 16.22V21H227.318V13.41C227.391 13.5033 227.511 13.6367 227.678 13.81C227.851 13.9833 228.051 14.1867 228.278 14.42C228.511 14.6467 228.764 14.8933 229.038 15.16C229.318 15.4267 229.598 15.6967 229.878 15.97C230.164 16.2433 230.444 16.5133 230.718 16.78C230.998 17.04 231.251 17.2833 231.478 17.51C231.711 17.7367 231.911 17.9367 232.078 18.11C232.244 18.2833 232.361 18.4133 232.428 18.5L232.618 18.78L232.588 18.44V13.75H233.678Z" fill="white"/>
<path d="M242.377 21.53V24.57C242.097 24.73 241.764 24.8567 241.377 24.95C240.99 25.0367 240.597 25.08 240.197 25.08C239.624 25.08 239.107 24.99 238.647 24.81C238.194 24.63 237.804 24.3833 237.477 24.07C237.15 23.75 236.9 23.3733 236.727 22.94C236.554 22.5067 236.467 22.0333 236.467 21.52C236.467 20.9533 236.567 20.4367 236.767 19.97C236.974 19.4967 237.25 19.09 237.597 18.75C237.95 18.41 238.354 18.1467 238.807 17.96C239.267 17.7667 239.754 17.67 240.267 17.67C240.614 17.67 240.977 17.7167 241.357 17.81C241.737 17.8967 242.067 18.0233 242.347 18.19L241.817 19.08C241.717 19.02 241.6 18.9667 241.467 18.92C241.34 18.8733 241.207 18.8333 241.067 18.8C240.927 18.7667 240.787 18.7433 240.647 18.73C240.507 18.71 240.374 18.7 240.247 18.7C239.894 18.7 239.554 18.77 239.227 18.91C238.9 19.05 238.614 19.2433 238.367 19.49C238.12 19.7367 237.924 20.0267 237.777 20.36C237.63 20.6933 237.557 21.0533 237.557 21.44C237.557 21.7933 237.62 22.1267 237.747 22.44C237.88 22.7533 238.064 23.03 238.297 23.27C238.53 23.51 238.81 23.7 239.137 23.84C239.464 23.98 239.824 24.05 240.217 24.05C240.37 24.05 240.55 24.0367 240.757 24.01C240.97 23.9767 241.174 23.9233 241.367 23.85V22.47H239.957V21.53H242.377Z" fill="white"/>
<path d="M245.25 27V19.75H247.23C247.61 19.75 247.957 19.8 248.27 19.9C248.59 20 248.864 20.15 249.09 20.35C249.324 20.5433 249.504 20.7833 249.63 21.07C249.757 21.35 249.82 21.6733 249.82 22.04C249.82 22.24 249.8 22.44 249.76 22.64C249.72 22.8333 249.654 23.0233 249.56 23.21C249.474 23.39 249.36 23.56 249.22 23.72C249.08 23.8733 248.91 24.0033 248.71 24.11C248.977 24.53 249.267 24.9967 249.58 25.51C249.894 26.0167 250.21 26.5133 250.53 27H249.22C249.087 26.7933 248.947 26.5767 248.8 26.35C248.66 26.1233 248.517 25.9 248.37 25.68C248.23 25.4533 248.09 25.2333 247.95 25.02C247.817 24.8 247.69 24.5967 247.57 24.41H247.37H246.35V27H245.25ZM246.35 23.38H247.34C247.607 23.38 247.83 23.3367 248.01 23.25C248.19 23.1567 248.33 23.0433 248.43 22.91C248.537 22.7767 248.61 22.6333 248.65 22.48C248.697 22.3267 248.72 22.1867 248.72 22.06C248.72 21.9333 248.697 21.7967 248.65 21.65C248.61 21.4967 248.537 21.3567 248.43 21.23C248.324 21.0967 248.18 20.9867 248 20.9C247.827 20.8133 247.61 20.77 247.35 20.77H246.35V23.38Z" fill="white"/>
<path d="M257.643 28C257.609 27.9267 257.563 27.82 257.503 27.68C257.443 27.54 257.373 27.38 257.293 27.2C257.219 27.0133 257.136 26.8133 257.043 26.6C256.956 26.38 256.866 26.1533 256.773 25.92H254.213L253.353 28H252.273L255.503 20.41C255.543 20.5033 255.613 20.6733 255.713 20.92C255.819 21.1667 255.943 21.4633 256.083 21.81C256.229 22.15 256.389 22.53 256.563 22.95C256.743 23.3633 256.923 23.7833 257.103 24.21C257.289 24.6367 257.469 25.0567 257.643 25.47C257.823 25.8833 257.986 26.2633 258.133 26.61C258.279 26.9567 258.403 27.2533 258.503 27.5C258.609 27.74 258.683 27.9067 258.723 28H257.643ZM254.593 25H256.403C256.309 24.78 256.219 24.57 256.133 24.37C256.053 24.1633 255.976 23.9767 255.903 23.81C255.836 23.6367 255.776 23.4867 255.723 23.36C255.669 23.2333 255.629 23.1333 255.603 23.06C255.596 23.0467 255.579 23 255.553 22.92C255.533 22.84 255.516 22.7667 255.503 22.7C255.489 22.7667 255.469 22.84 255.443 22.92C255.416 23 255.399 23.0467 255.393 23.06L254.593 25Z" fill="white"/>
<path d="M265.356 20.75V21.79H263.526V28H262.436V21.79H260.646V20.75H265.356Z" fill="white"/>
<path d="M272.213 21.15L271.823 22.04C271.55 21.94 271.276 21.86 271.003 21.8C270.736 21.74 270.48 21.71 270.233 21.71C269.813 21.71 269.476 21.7967 269.223 21.97C268.976 22.1433 268.853 22.3633 268.853 22.63C268.853 22.8567 268.943 23.04 269.123 23.18C269.303 23.3133 269.526 23.4367 269.793 23.55C270.06 23.6567 270.35 23.7667 270.663 23.88C270.976 23.9867 271.266 24.1267 271.533 24.3C271.8 24.4733 272.023 24.6933 272.203 24.96C272.383 25.22 272.473 25.5567 272.473 25.97C272.473 26.29 272.413 26.58 272.293 26.84C272.18 27.0933 272.006 27.3133 271.773 27.5C271.546 27.6867 271.26 27.83 270.913 27.93C270.573 28.03 270.173 28.08 269.713 28.08C269.42 28.08 269.153 28.06 268.913 28.02C268.68 27.98 268.466 27.93 268.273 27.87C268.086 27.8033 267.92 27.7333 267.773 27.66C267.633 27.5867 267.513 27.52 267.413 27.46L267.893 26.51C268.16 26.6633 268.456 26.7867 268.783 26.88C269.11 26.9733 269.406 27.02 269.673 27.02C269.806 27.02 269.97 27.0033 270.163 26.97C270.363 26.9367 270.553 26.88 270.733 26.8C270.913 26.7133 271.066 26.6 271.193 26.46C271.326 26.32 271.393 26.1433 271.393 25.93C271.393 25.7367 271.34 25.5733 271.233 25.44C271.133 25.3 270.996 25.18 270.823 25.08C270.656 24.9733 270.463 24.88 270.243 24.8C270.03 24.7133 269.81 24.6267 269.583 24.54C269.356 24.4467 269.133 24.35 268.913 24.25C268.7 24.15 268.506 24.03 268.333 23.89C268.166 23.7433 268.03 23.5767 267.923 23.39C267.823 23.1967 267.773 22.9667 267.773 22.7C267.773 22.4533 267.823 22.21 267.923 21.97C268.023 21.73 268.173 21.5167 268.373 21.33C268.573 21.1433 268.82 20.9933 269.113 20.88C269.413 20.7667 269.76 20.71 270.153 20.71C270.393 20.71 270.626 20.73 270.853 20.77C271.086 20.81 271.296 20.8567 271.483 20.91C271.67 20.9567 271.826 21.0033 271.953 21.05C272.086 21.0967 272.173 21.13 272.213 21.15Z" fill="white"/>
<path d="M444 90.3017L474.419 303.5" stroke="#08135A" stroke-width="5" stroke-linecap="round" stroke-linejoin="round"/>
<path d="M499.684 101.9L527.5 303.5" stroke="#08135A" stroke-width="5" stroke-linecap="round" stroke-linejoin="round"/>
<path fill-rule="evenodd" clip-rule="evenodd" d="M457.424 187.187H511.119L514.102 201.071H459.063L457.424 187.187Z" fill="#08135A"/>
<path fill-rule="evenodd" clip-rule="evenodd" d="M453.564 160.411H507.982L510.242 174.295H455.184L453.564 160.411Z" fill="#08135A"/>
<path fill-rule="evenodd" clip-rule="evenodd" d="M449.545 133.635H504.227L506.223 147.519H451.677L449.545 133.635Z" fill="#08135A"/>
<path fill-rule="evenodd" clip-rule="evenodd" d="M446.08 106.859H500.786L502.758 120.743H447.512L446.08 106.859Z" fill="#08135A"/>
<path fill-rule="evenodd" clip-rule="evenodd" d="M485 161.247L503.359 237H510L507.492 142L485 149.267V161.247Z" fill="#2842B6"/>
<path fill-rule="evenodd" clip-rule="evenodd" d="M476.21 140.317C476.21 140.317 465.944 162.582 461.519 171.488C457.094 180.394 465.561 196.777 465.561 196.777L475.439 219H483.001L474.218 180.574L493.162 158.218C493.162 158.218 512.887 156.724 506.391 137.002C506.339 136.928 476.21 140.317 476.21 140.317Z" fill="#395DFF"/>
<path fill-rule="evenodd" clip-rule="evenodd" d="M481.002 68C481.002 68 476.439 74.6174 475.36 75.3004C474.28 75.9835 476.439 76.7192 476.439 76.7192C476.439 76.7192 474.786 81.0426 477.322 82.8519C479.857 84.6612 481.002 83.8064 481.002 90.2013C481.002 96.5962 501 88.3792 501 88.3792L488.225 68H481.002Z" fill="#DCE0F6"/>
<path fill-rule="evenodd" clip-rule="evenodd" d="M480.949 89.3424C480.968 89.3424 475.169 117.189 472.004 132.382C470.969 137.35 474.765 142 479.839 142H500.225C505.874 142 509.743 136.304 507.663 131.053L491 89C491 89 486.709 92.8566 480.949 89.3424Z" fill="#D20046"/>
<path fill-rule="evenodd" clip-rule="evenodd" d="M506.399 66.6943C510.999 70.1852 523.781 61.518 532.816 66.6943C535.471 67.9715 540 71.7844 540 71.7844C540 71.7844 529.826 64.5419 522.031 66.6943C514.236 68.8468 506.794 72.9895 502.854 71.7844C498.915 70.5793 501.799 63.2035 506.399 66.6943Z" fill="#6254E8"/>
<path fill-rule="evenodd" clip-rule="evenodd" d="M479.292 67.9949C480.872 62.7834 490.487 56.0623 501.174 62.9005C511.861 69.7387 511.17 73.6356 520.965 70.6787C530.759 67.7219 537.657 70.7616 542.631 80.127C547.606 89.4923 553.201 89.4923 561.768 89.4923C570.335 89.4923 582.374 105.603 574.374 120.943C566.375 136.282 532.671 140.307 528.684 120.943C524.698 101.578 508.45 107.041 498.271 102.335C488.092 97.6278 483.655 82.7474 483.655 80.1611C483.569 80.3729 486.726 81.1173 487.527 78.978C488.329 76.8387 487.527 75.6814 486.237 76.6245C484.946 77.5676 483.626 78.4192 483.626 78.4192C483.626 78.4192 484.221 76.3984 483.626 74.9242C483.031 73.4499 477.712 73.2063 479.292 67.9949Z" fill="#6254E8"/>
<path fill-rule="evenodd" clip-rule="evenodd" d="M448 93.5795L446.301 92.4647C446.301 92.4647 444.783 88.499 442.707 90.9141C440.631 93.3292 444.652 94.142 444.652 94.142L446.686 96L448 93.5795Z" fill="#DCE0F6"/>
<path fill-rule="evenodd" clip-rule="evenodd" d="M484.652 96.0443C474.792 92.4128 471.796 109.14 448.548 93.0068C448.591 92.8564 446 96.0443 446 96.0443C446 96.0443 455.564 112.602 470 112.602C484.436 112.602 484.652 110.272 486.613 107.026C488.574 103.781 488.588 98.0787 484.652 96.0443Z" fill="#F60C5A"/>
</svg>
