<svg width="133" height="76" viewBox="0 0 133 76" fill="none" xmlns="http://www.w3.org/2000/svg">
<path fill-rule="evenodd" clip-rule="evenodd" d="M66.5 75.8171C103.227 75.8171 133 74.049 133 71.8679C133 69.6867 103.227 67.9186 66.5 67.9186C29.7731 67.9186 0 69.6867 0 71.8679C0 74.049 29.7731 75.8171 66.5 75.8171Z" fill="#574BDA"/>
<path d="M57.4828 41.6164C39.2785 33.6013 34.6994 25.1374 36.4623 19.8781C37.8704 15.7128 43.0023 13.7213 49.5348 14.8152L48.6832 19.3031C44.7577 18.6475 41.7025 19.4328 41.0862 21.2561C40.1301 24.0926 44.2535 30.7543 59.5408 37.4826L57.4828 41.6164Z" fill="#F2BA49"/>
<path d="M74.634 41.6165L72.5723 37.4897C87.8595 30.7614 91.9942 24.0997 91.0268 21.2632C90.4105 19.4399 87.3553 18.6546 83.4299 19.3102L82.582 14.8363C89.1182 13.7424 94.2501 15.7339 95.6544 19.8993C97.4286 25.1375 92.8383 33.6154 74.634 41.6165Z" fill="#F2BA49"/>
<rect x="63.8203" y="35.8314" width="4.47449" height="23.558" fill="#F2BA49"/>
<path d="M42.0977 9.58765L53.9151 39.6636C55.7935 44.433 60.6371 47.5997 66.0538 47.5997C71.4705 47.5997 76.3142 44.433 78.1925 39.6636L90.01 9.58765H42.0977Z" fill="#FFD34D"/>
<path d="M68.6938 59.3894H63.42C58.657 59.3894 54.7959 63.014 54.7959 67.4851H77.3179C77.3179 63.014 73.4568 59.3894 68.6938 59.3894Z" fill="#FFD34D"/>
<path d="M78.6045 67.4395V71.6399H53.5091V67.4395H78.6045Z" fill="#F2BA49"/>
<path d="M66.0581 14.4788L68.751 22.259H77.4648L70.4131 27.0659L73.106 34.8461L66.0581 30.0357L59.0101 34.8461L61.703 27.0659L54.6514 22.259H63.3651L66.0581 14.4788Z" fill="#F2BA49"/>
<path d="M50.4314 46.4936V44.2006H49.0794V46.4936H46.6367V47.7628H49.0794V50.0559H50.4314V47.7628H52.8741V46.4936H50.4314Z" fill="#F2BA49"/>
<path d="M45.2317 40.9573C45.2332 41.5677 44.8424 42.1187 44.2419 42.353C43.6415 42.5872 42.9498 42.4585 42.49 42.0268C42.0302 41.5952 41.893 40.9459 42.1425 40.3822C42.3921 39.8185 42.9791 39.4517 43.6293 39.4531C44.5143 39.4531 45.2317 40.1266 45.2317 40.9573Z" fill="#FFD34D"/>
<path d="M59.4362 5.01209V3.19238H58.3642V5.01209H56.4258V6.02187H58.3642V7.84157H59.4362V6.02187H61.3746V5.01209H59.4362Z" fill="#F2BA49"/>
<path d="M82.226 46.4059C82.226 47.0721 81.6507 47.612 80.9411 47.612C80.2315 47.612 79.6562 47.0721 79.6562 46.4059C79.6562 45.7398 80.2315 45.1998 80.9411 45.1998C81.2822 45.1989 81.6096 45.3257 81.8507 45.5521C82.0919 45.7785 82.227 46.0858 82.226 46.4059Z" fill="#FFD34D"/>
<path d="M96.7747 9.86103C96.7747 10.6046 96.1326 11.2074 95.3405 11.2074C94.5484 11.2074 93.9062 10.6046 93.9062 9.86103C93.9062 9.11744 94.5484 8.51465 95.3405 8.51465C96.1326 8.51465 96.7747 9.11744 96.7747 9.86103Z" fill="#FFD34D"/>
<path d="M78.6714 2.24576C78.6714 3.29723 77.7634 4.14961 76.6433 4.14961C75.5232 4.14961 74.6152 3.29723 74.6152 2.24576C74.6152 1.1943 75.5232 0.341919 76.6433 0.341919C77.7626 0.343849 78.6694 1.1951 78.6714 2.24576Z" fill="#FFD34D"/>
<path d="M83.025 4.35292C83.0265 4.82405 82.7253 5.24958 82.2621 5.43086C81.7988 5.61214 81.2649 5.51341 80.9095 5.18078C80.5541 4.84814 80.4473 4.34719 80.639 3.91178C80.8307 3.47638 81.2831 3.19238 81.785 3.19238C82.4683 3.19238 83.0229 3.71141 83.025 4.35292Z" fill="#F2BA49"/>
</svg>
