<svg width="1236" height="209" viewBox="0 0 1236 209" fill="none" xmlns="http://www.w3.org/2000/svg">
<path d="M527.674 81.7279C527.674 81.7279 410.605 82.0998 313.498 82.4718C311.879 82.4718 309.721 82.4718 308.103 82.4718C245.522 82.4718 192.652 82.4718 188.336 81.7279L78.2808 79.8681C79.8992 78.3803 82.0572 76.8926 83.6756 75.4048C92.8469 67.5939 103.097 60.5269 113.347 53.8318C136.545 46.0209 161.901 36.7222 184.56 27.0516C240.667 2.87497 266.562 36.3503 308.642 25.5638C310.261 25.1918 312.419 24.4479 314.037 24.076C319.432 22.2162 325.366 19.6126 331.84 15.8931C335.077 14.0334 337.775 12.5456 341.011 11.0578C343.709 9.57001 346.946 8.45417 349.643 7.33833C376.078 -2.33232 403.053 -0.844525 424.632 7.33833C427.869 8.45417 430.566 9.57001 433.803 11.0578C451.067 19.2407 464.554 31.143 470.489 44.1612C486.673 77.6365 527.674 81.7279 527.674 81.7279Z" fill="white"/>
<path d="M1077.5 134.454C1077.5 134.454 960.429 134.826 863.321 135.198C861.703 135.198 859.545 135.198 857.926 135.198C795.346 135.198 742.476 135.198 738.16 134.454L628.104 132.594C629.723 131.106 631.881 129.618 633.499 128.131C642.671 120.32 652.921 113.253 663.171 106.558C686.369 98.7466 711.725 89.448 734.384 79.7773C790.49 55.6007 816.386 89.076 858.466 78.2895C860.084 77.9176 862.242 77.1737 863.861 76.8017C869.256 74.942 875.19 72.3384 881.664 68.6189C884.901 66.7591 887.598 65.2713 890.835 63.7835C893.533 62.2958 896.77 61.1799 899.467 60.0641C925.902 50.3934 952.876 51.8812 974.456 60.0641C977.693 61.1799 980.39 62.2958 983.627 63.7835C1000.89 71.9664 1014.38 83.8687 1020.31 96.8869C1036.5 130.362 1077.5 134.454 1077.5 134.454Z" fill="white"/>
<g filter="url(#filter0_d)">
<circle cx="55.9402" cy="54.2137" r="35.2137" fill="#F0F3FF"/>
<circle cx="55.9402" cy="54.2137" r="30.7137" stroke="#ADB4E7" stroke-width="9"/>
</g>
<g filter="url(#filter1_d)">
<rect x="4" y="58.6154" width="103" height="76.5897" rx="20" fill="#F2BA49"/>
</g>
<circle cx="55.94" cy="90.3077" r="14.0855" fill="black"/>
<path d="M55.5002 90.3077L68.8422 123.32H42.1582L55.5002 90.3077Z" fill="black"/>
<g filter="url(#filter2_d)">
<rect width="110.099" height="64.5643" rx="20" transform="matrix(0.872985 -0.487747 0.421397 0.906876 1063 139.701)" fill="#20D4CE"/>
<path d="M1069.88 154.51C1068.49 151.505 1069.7 147.759 1072.59 146.142L1158.23 98.2947C1161.12 96.6784 1164.6 97.8043 1166 100.809L1170.27 110.006L1074.15 163.707L1069.88 154.51Z" fill="black"/>
</g>
<g filter="url(#filter3_d)">
<rect x="1124.13" y="135.286" width="107.872" height="65.7143" rx="20" fill="#7E72F2"/>
<rect x="1191.25" y="155" width="29.9645" height="19.7143" rx="9.85714" fill="#FFAE62"/>
<line x1="1180.46" y1="186.986" x2="1198.44" y2="186.986" stroke="#F4A880" stroke-width="7"/>
<line x1="1203.83" y1="186.986" x2="1221.81" y2="186.986" stroke="#F4A880" stroke-width="7"/>
<line x1="1134.32" y1="186.986" x2="1152.29" y2="186.986" stroke="#F4A880" stroke-width="7"/>
<line x1="1157.69" y1="186.986" x2="1175.67" y2="186.986" stroke="#F4A880" stroke-width="7"/>
</g>
<path fill-rule="evenodd" clip-rule="evenodd" d="M644.989 146.629C644.499 142.675 643.566 140.532 642.053 139.885C641.479 139.639 640.549 139.496 639.384 140.214L639.157 140.354L639.038 140.581C637.219 144.061 635.649 145.562 635.346 145.834C634.999 146.15 634.474 146.497 634.292 146.555C634.029 146.601 633.201 146.501 632.901 146.362C632.785 146.305 632.477 146.066 632.374 145.949C631.874 145.403 631.06 143.879 630.714 143.23C630.239 142.338 629.6 140.934 629.046 139.565C628.597 138.454 628.199 137.557 627.694 136.422C627.305 135.548 626.864 134.558 626.277 133.195C624.552 129.22 623.339 127.03 622.09 125.637C620.894 124.31 619.718 123.408 618.388 122.8C616.327 121.859 614.236 121.759 612.168 122.503C610.384 123.151 609.199 124.289 608.276 125.317L608.222 125.383C606.671 127.461 606.283 128.071 605.432 129.408L605.411 129.441C604.332 131.13 603.949 131.823 603.187 133.204C603.031 133.486 602.858 133.799 602.659 134.157C601.432 136.365 601.303 136.627 600.068 139.137L600.029 139.218C598.486 142.354 597.557 143.833 595.913 145.766C595.823 145.848 595.736 145.921 595.649 145.987C595.573 146.044 595.506 146.1 595.44 146.155C595.236 146.325 595.089 146.448 594.364 146.667C594.156 146.686 593.513 146.547 592.992 146.337C592.878 146.278 592.602 146.058 592.496 145.938C592.018 145.416 591.205 144.002 590.853 143.253C590.392 142.289 589.559 140.539 589.158 139.639C588.864 138.972 588.458 138.005 588.028 136.98C587.433 135.561 586.817 134.093 586.39 133.164C585.099 130.384 583.457 127.015 582.211 125.626C581.017 124.299 579.841 123.398 578.51 122.789C576.449 121.848 574.357 121.748 572.29 122.492C570.506 123.14 569.321 124.278 568.398 125.306L568.344 125.372C566.795 127.447 566.407 128.057 565.557 129.392L565.532 129.432C564.264 131.426 561.936 135.176 561.909 135.22L559.538 139.102L556 144.208L556.389 158.156L557.838 157.408C558.524 157.053 559.035 156.509 559.485 156.028C559.636 155.868 559.778 155.716 559.921 155.577L559.958 155.539C561.23 154.152 562.436 152.069 562.487 151.98L562.502 151.953C562.542 151.877 566.534 144.363 568.02 141.949C568.865 140.575 570.812 137.887 571.939 136.8C572.265 136.484 572.953 136.005 573.351 135.86L573.411 135.836C573.792 135.694 575.248 135.875 575.662 136.165C576.393 136.682 577.586 138.453 578.159 139.303L578.335 139.563C578.954 140.469 580.087 142.443 580.648 143.536C581.198 144.609 582.007 146.435 582.72 148.045C583.223 149.18 583.697 150.252 584.062 151.022C584.57 152.089 585.625 154.181 586.207 155.172C586.955 156.447 588.113 158.131 589.389 158.913C590.307 159.465 591.299 159.811 592.331 159.939C593.232 160.056 594.143 160.004 595.03 159.786C595.958 159.565 596.782 159.204 597.541 158.686C598.369 158.129 599.134 157.418 599.957 156.441C600.584 155.68 601.19 154.798 601.807 153.748C602.91 151.887 603.8 149.941 604.527 148.28C604.837 147.684 605.149 147.073 605.457 146.47C606.356 144.71 607.205 143.047 607.89 141.962C609.501 139.443 610.89 137.566 611.695 136.82C612.195 136.365 612.788 135.962 612.991 135.9C613.505 135.806 614.951 136.064 615.592 136.365C616.635 136.858 617.813 138.782 618.2 139.413C618.66 140.166 618.947 140.628 619.145 140.946C619.561 141.612 619.561 141.612 619.994 142.466C620.128 142.73 620.302 143.073 620.54 143.539C621.303 145.012 622.094 146.825 622.792 148.424C623.214 149.391 623.612 150.303 623.953 151.022C624.46 152.089 625.516 154.181 626.097 155.172C626.846 156.447 628.004 158.131 629.28 158.913C630.198 159.465 631.19 159.811 632.222 159.939C632.535 159.98 632.849 160 633.162 160C633.752 160 634.341 159.928 634.92 159.786C635.849 159.565 636.672 159.204 637.432 158.686C638.259 158.129 639.024 157.418 639.847 156.441C640.475 155.679 641.081 154.797 641.698 153.749C642.834 151.831 644.153 149.12 644.898 147.412L644.957 147.277L645 146.714L644.989 146.629Z" fill="#F78036"/>
<path fill-rule="evenodd" clip-rule="evenodd" d="M563.983 148.153C563.44 145.379 562.362 143.535 560.779 142.674C559.196 141.813 557.755 142.283 557.596 142.339C557.401 142.408 557.235 142.535 557.122 142.702C556.666 143.373 555.367 145.229 554.846 145.748C554.841 145.753 554.836 145.758 554.831 145.763C554.682 145.918 554.224 146.224 553.838 146.427C553.539 146.583 553.052 146.484 552.867 146.387C552.764 146.332 552.447 146.081 552.303 145.932C551.856 145.462 551.221 144.379 550.757 143.297C550.3 142.228 550.031 141.654 549.815 141.193C549.573 140.676 549.413 140.335 549.13 139.586C549.128 139.58 549.126 139.574 549.123 139.567C548.796 138.759 548.47 137.992 548.091 137.103C547.576 135.893 546.991 134.521 546.251 132.673C546.248 132.665 546.245 132.657 546.241 132.649C544.609 128.889 543.485 126.574 542.217 125.107C541.068 123.781 539.936 122.88 538.656 122.272C536.674 121.332 534.662 121.232 532.673 121.975C531.254 122.511 529.993 123.43 528.818 124.789C527.935 125.814 527.281 126.966 526.647 128.08C526.487 128.362 526.327 128.645 526.163 128.924C523.395 133.621 522.447 135.509 521.245 137.899C520.975 138.437 520.69 139.005 520.366 139.64C520.062 140.238 519.824 140.72 519.62 141.134C518.969 142.454 518.672 143.056 517.589 144.646C517.581 144.657 517.574 144.668 517.567 144.68C517.465 144.844 517.136 145.154 516.857 145.351C516.772 145.409 516.739 145.424 516.601 145.356C515.75 144.939 515.321 144.401 515.211 143.619C515.113 142.888 514.997 142.038 514.872 141.202C514.636 139.541 514.494 137.824 514.356 136.163L514.311 135.624C514.248 134.784 514.169 133.74 514.119 132.736L514.117 132.697C514.035 131.167 513.951 129.586 513.915 128.045C513.85 124.941 513.932 121.85 514.011 119.505C514.012 119.495 514.012 119.485 514.012 119.475C514.012 119.451 514.014 119.427 514.016 119.403C514.019 119.351 514.022 119.299 514.024 119.248C514.083 118.434 514.144 117.594 514.18 116.757C514.214 115.868 514.281 114.963 514.344 114.088C514.37 113.733 514.396 113.379 514.419 113.039C514.436 112.837 514.456 112.632 514.476 112.426C514.498 112.192 514.521 111.957 514.539 111.731C514.582 111.274 514.626 110.821 514.671 110.367C514.717 109.909 514.763 109.45 514.804 109.001C514.838 108.674 514.868 108.347 514.899 108.02C514.942 107.551 514.987 107.065 515.045 106.585C515.149 105.638 515.267 104.683 515.404 103.666L515.457 103.275C515.618 102.084 515.785 100.852 515.958 99.6454C516.171 98.2589 516.391 96.8252 516.631 95.4266C516.965 93.4433 517.268 91.6556 517.605 89.865C517.956 88.0365 518.334 86.1749 518.699 84.3746C518.825 83.7537 518.951 83.1327 519.077 82.5093C519.099 82.3971 519.125 82.285 519.151 82.1728C519.213 81.9059 519.277 81.63 519.305 81.3454C519.477 79.8797 519.438 78.4414 519.189 77.0729C519.015 76.1039 518.731 75.3413 518.296 74.6732C517.848 73.9853 517.293 73.5006 516.641 73.2299C516.466 73.0821 516.24 73 516.005 73H515.8C515.361 73 514.976 73.2853 514.867 73.6938L514.834 73.8144C514.652 74.4916 514.47 75.168 514.289 75.8306C513.137 79.9749 512.057 84.2659 511.08 88.5835C510.144 92.7056 509.497 95.8835 508.983 98.8847L508.942 99.1166C508.611 101.008 508.269 102.963 507.978 104.906C507.654 107.034 507.36 109.216 507.104 111.393C506.913 113.059 506.741 114.771 506.595 116.475C506.48 117.725 506.382 119.07 506.279 120.84C506.249 121.382 506.227 121.933 506.206 122.465C506.185 122.992 506.164 123.538 506.134 124.067C506.101 124.64 506.064 125.311 506.001 126.651C506 126.665 506 126.679 506 126.693V130.827C506 130.842 506 130.858 506.001 130.874L506.055 131.903C506.082 132.418 506.082 132.418 506.115 132.948L506.134 133.245C506.218 134.631 506.279 136.055 506.337 137.431L506.339 137.468C506.383 138.38 506.451 139.377 506.546 140.519C506.687 142.155 506.863 143.73 507.07 145.194C507.335 147.142 507.725 149.046 508.232 150.86C508.672 152.377 509.153 153.584 509.741 154.651C510.226 155.553 510.78 156.299 511.428 156.928C513.528 158.995 516.427 159.435 518.999 158.073C519.751 157.669 520.442 157.143 521.109 156.467C522.104 155.468 522.951 154.285 523.699 152.852C524.354 151.603 525.133 149.994 525.958 148.29C526.983 146.176 528.042 143.989 528.817 142.605C529.519 141.353 531.653 137.542 532.868 135.957C532.998 135.791 533.432 135.426 533.902 135.128C534.202 134.957 535.393 135.092 535.802 135.341C536.561 135.807 537.825 137.309 538.627 138.481C539.436 139.678 540.809 142.595 541.448 144.152C541.764 144.924 542.103 145.993 542.462 147.125C542.941 148.636 543.484 150.348 544.112 151.787C544.849 153.474 545.555 154.783 546.338 155.914C547.274 157.247 548.229 158.199 549.352 158.914C550.235 159.466 551.189 159.811 552.182 159.939C552.483 159.98 552.785 160 553.087 160C553.654 160 554.221 159.928 554.778 159.786C555.672 159.565 556.463 159.205 557.194 158.687C557.99 158.13 558.726 157.42 559.518 156.444C560.122 155.682 560.705 154.801 561.297 153.755C562.287 152.031 562.784 151.166 563.865 148.883C563.902 148.806 563.927 148.726 563.94 148.646C563.999 148.494 564.017 148.324 563.983 148.153Z" fill="#082487"/>
<defs>
<filter id="filter0_d" x="16.7266" y="19" width="78.4274" height="78.4274" filterUnits="userSpaceOnUse" color-interpolation-filters="sRGB">
<feFlood flood-opacity="0" result="BackgroundImageFix"/>
<feColorMatrix in="SourceAlpha" type="matrix" values="0 0 0 0 0 0 0 0 0 0 0 0 0 0 0 0 0 0 127 0"/>
<feOffset dy="4"/>
<feGaussianBlur stdDeviation="2"/>
<feColorMatrix type="matrix" values="0 0 0 0 0 0 0 0 0 0 0 0 0 0 0 0 0 0 0.25 0"/>
<feBlend mode="normal" in2="BackgroundImageFix" result="effect1_dropShadow"/>
<feBlend mode="normal" in="SourceGraphic" in2="effect1_dropShadow" result="shape"/>
</filter>
<filter id="filter1_d" x="0" y="58.6154" width="111" height="84.5897" filterUnits="userSpaceOnUse" color-interpolation-filters="sRGB">
<feFlood flood-opacity="0" result="BackgroundImageFix"/>
<feColorMatrix in="SourceAlpha" type="matrix" values="0 0 0 0 0 0 0 0 0 0 0 0 0 0 0 0 0 0 127 0"/>
<feOffset dy="4"/>
<feGaussianBlur stdDeviation="2"/>
<feColorMatrix type="matrix" values="0 0 0 0 0 0 0 0 0 0 0 0 0 0 0 0 0 0 0.25 0"/>
<feBlend mode="normal" in2="BackgroundImageFix" result="effect1_dropShadow"/>
<feBlend mode="normal" in="SourceGraphic" in2="effect1_dropShadow" result="shape"/>
</filter>
<filter id="filter2_d" x="1065.3" y="93.2941" width="118.524" height="105.664" filterUnits="userSpaceOnUse" color-interpolation-filters="sRGB">
<feFlood flood-opacity="0" result="BackgroundImageFix"/>
<feColorMatrix in="SourceAlpha" type="matrix" values="0 0 0 0 0 0 0 0 0 0 0 0 0 0 0 0 0 0 127 0"/>
<feOffset dy="4"/>
<feGaussianBlur stdDeviation="2"/>
<feColorMatrix type="matrix" values="0 0 0 0 0 0 0 0 0 0 0 0 0 0 0 0 0 0 0.25 0"/>
<feBlend mode="normal" in2="BackgroundImageFix" result="effect1_dropShadow"/>
<feBlend mode="normal" in="SourceGraphic" in2="effect1_dropShadow" result="shape"/>
</filter>
<filter id="filter3_d" x="1120.13" y="135.286" width="115.872" height="73.7143" filterUnits="userSpaceOnUse" color-interpolation-filters="sRGB">
<feFlood flood-opacity="0" result="BackgroundImageFix"/>
<feColorMatrix in="SourceAlpha" type="matrix" values="0 0 0 0 0 0 0 0 0 0 0 0 0 0 0 0 0 0 127 0"/>
<feOffset dy="4"/>
<feGaussianBlur stdDeviation="2"/>
<feColorMatrix type="matrix" values="0 0 0 0 0 0 0 0 0 0 0 0 0 0 0 0 0 0 0.25 0"/>
<feBlend mode="normal" in2="BackgroundImageFix" result="effect1_dropShadow"/>
<feBlend mode="normal" in="SourceGraphic" in2="effect1_dropShadow" result="shape"/>
</filter>
</defs>
</svg>
