<svg width="1083" height="404" viewBox="0 0 1083 404" fill="none" xmlns="http://www.w3.org/2000/svg">
<path fill-rule="evenodd" clip-rule="evenodd" d="M80.4206 38.7653L80.6213 37.6226L58.4594 34.477L58.2683 35.6202L58.1323 36.5407L57.7401 38.8351L57.3944 40.8893L55.1257 53.9793C53.2866 52.4593 50.5797 52.134 48.3764 53.1684C45.5016 54.4108 44.1267 57.2174 45.3516 59.4483C46.5765 61.6792 49.8801 62.4703 52.7548 61.2279C54.5702 60.4941 55.8565 59.0072 56.1936 57.253C56.2615 57.1636 56.315 57.066 56.3526 56.9632L59.0129 41.2385L77.8164 43.8966L75.591 56.8951C73.7504 55.3752 71.0433 55.0484 68.8371 56.0797C65.9623 57.3222 64.5775 60.1368 65.8073 62.3637C67.0372 64.5906 70.3358 65.3857 73.206 64.1388C75.0219 63.4068 76.3098 61.9218 76.6493 60.1684C76.7224 60.0828 76.7778 59.9862 76.8128 59.8831L79.4936 44.0446L79.8439 41.9948L80.2315 39.6959L80.4206 38.7653Z" fill="#D8D8D8"/>
<path fill-rule="evenodd" clip-rule="evenodd" d="M29.5226 8.60403L29.6636 7.82586L14.5795 5.75205L14.445 6.53052L14.3489 7.1573L14.073 8.71972L13.8297 10.1186L12.2348 19.0326C10.9878 18.0038 9.14513 17.7907 7.64039 18.5011C5.67748 19.3552 4.73031 21.2691 5.55621 22.7835C6.3821 24.2978 8.62939 24.8262 10.5923 23.9721C11.8317 23.4673 12.7135 22.4517 12.9498 21.257C12.9964 21.196 13.0332 21.1295 13.0592 21.0594L14.9309 10.3514L27.7292 12.1035L26.164 20.9552C24.916 19.9265 23.0733 19.7122 21.5666 20.4206C19.6037 21.2747 18.6497 23.1941 19.479 24.7057C20.3083 26.2174 22.5522 26.7485 24.512 25.8914C25.7517 25.3879 26.6346 24.3734 26.8725 23.1793C26.9226 23.1208 26.9607 23.0549 26.985 22.9847L28.8711 12.1991L29.1175 10.8033L29.3902 9.23784L29.5226 8.60403Z" fill="#D8D8D8"/>
<path fill-rule="evenodd" clip-rule="evenodd" d="M1070.42 52.7653L1070.62 51.6226L1048.46 48.477L1048.27 49.6202L1048.13 50.5407L1047.74 52.8351L1047.39 54.8893L1045.13 67.9793C1043.29 66.4593 1040.58 66.134 1038.38 67.1684C1035.5 68.4108 1034.13 71.2174 1035.35 73.4483C1036.58 75.6792 1039.88 76.4703 1042.75 75.2279C1044.57 74.4941 1045.86 73.0072 1046.19 71.253C1046.26 71.1636 1046.32 71.066 1046.35 70.9632L1049.01 55.2385L1067.82 57.8966L1065.59 70.8951C1063.75 69.3752 1061.04 69.0484 1058.84 70.0797C1055.96 71.3222 1054.58 74.1368 1055.81 76.3637C1057.04 78.5906 1060.34 79.3857 1063.21 78.1388C1065.02 77.4068 1066.31 75.9218 1066.65 74.1684C1066.72 74.0828 1066.78 73.9862 1066.81 73.8831L1069.49 58.0446L1069.84 55.9948L1070.23 53.6959L1070.42 52.7653Z" fill="#D8D8D8"/>
<path fill-rule="evenodd" clip-rule="evenodd" d="M1019.52 22.604L1019.66 21.8258L1004.58 19.752L1004.45 20.5305L1004.35 21.1572L1004.07 22.7197L1003.83 24.1185L1002.23 33.0326C1000.99 32.0038 999.145 31.7906 997.64 32.5011C995.677 33.3551 994.73 35.269 995.556 36.7834C996.382 38.2978 998.629 38.8262 1000.59 37.9721C1001.83 37.4673 1002.71 36.4517 1002.95 35.257C1003 35.1959 1003.03 35.1294 1003.06 35.0593L1004.93 24.3513L1017.73 26.1034L1016.16 34.9551C1014.92 33.9264 1013.07 33.7122 1011.57 34.4206C1009.6 35.2747 1008.65 37.194 1009.48 38.7057C1010.31 40.2173 1012.55 40.7484 1014.51 39.8913C1015.75 39.3878 1016.63 38.3734 1016.87 37.1792C1016.92 37.1208 1016.96 37.0549 1016.98 36.9846L1018.87 26.1991L1019.12 24.8032L1019.39 23.2378L1019.52 22.604Z" fill="#D8D8D8"/>
<path fill-rule="evenodd" clip-rule="evenodd" d="M739.421 367.773L739.621 366.63L717.459 363.485L717.268 364.628L717.132 365.548L716.74 367.843L716.394 369.897L714.126 382.987C712.287 381.467 709.58 381.142 707.376 382.176C704.501 383.418 703.127 386.225 704.351 388.456C705.576 390.687 708.88 391.478 711.755 390.235C713.57 389.502 714.856 388.015 715.193 386.261C715.261 386.171 715.315 386.074 715.352 385.971L718.013 370.246L736.816 372.904L734.591 385.903C732.75 384.383 730.043 384.056 727.837 385.087C724.962 386.33 723.577 389.144 724.807 391.371C726.037 393.598 729.336 394.393 732.206 393.146C734.022 392.414 735.31 390.929 735.649 389.176C735.722 389.09 735.778 388.994 735.813 388.891L738.494 373.052L738.844 371.002L739.231 368.703L739.421 367.773Z" fill="#D8D8D8"/>
<path fill-rule="evenodd" clip-rule="evenodd" d="M671.968 326.638L671.387 326L659 334.927L659.586 335.56L660.067 336.062L661.239 337.337L662.291 338.476L668.965 345.767C667.192 345.909 665.714 347.027 665.28 348.555C664.65 350.498 665.659 352.479 667.562 352.964C669.465 353.448 671.502 352.271 672.131 350.328C672.559 349.125 672.289 347.814 671.411 346.821C671.39 346.747 671.358 346.675 671.314 346.608L663.267 337.881L673.77 330.302L680.41 337.528C678.636 337.671 677.157 338.789 676.72 340.317C676.09 342.26 677.099 344.249 679.002 344.73C680.905 345.21 682.942 344.037 683.567 342.094C683.995 340.892 683.728 339.58 682.851 338.587C682.835 338.512 682.804 338.44 682.759 338.374L674.654 329.583L673.606 328.444L672.429 327.169L671.968 326.638Z" fill="#D8D8D8"/>
<path fill-rule="evenodd" clip-rule="evenodd" d="M899.372 229.427L898.791 228.789L886.405 237.716L886.991 238.35L887.471 238.851L888.644 240.127L889.696 241.266L896.37 248.556C894.596 248.698 893.118 249.817 892.684 251.345C892.055 253.288 893.064 255.268 894.967 255.753C896.869 256.238 898.906 255.06 899.536 253.117C899.963 251.915 899.694 250.603 898.815 249.61C898.794 249.536 898.762 249.464 898.719 249.398L890.671 240.671L901.174 233.091L907.814 240.318C906.04 240.461 904.561 241.579 904.124 243.107C903.495 245.049 904.504 247.039 906.407 247.519C908.309 247.999 910.346 246.826 910.971 244.883C911.4 243.681 911.132 242.37 910.255 241.376C910.239 241.301 910.208 241.229 910.164 241.164L902.058 232.373L901.011 231.234L899.834 229.958L899.372 229.427Z" fill="#D8D8D8"/>
</svg>
