<svg width="14" height="16" viewBox="0 0 14 16" fill="none" xmlns="http://www.w3.org/2000/svg">
<path d="M12.5 2H11V0.375C11 0.1875 10.8125 0 10.625 0H9.375C9.15625 0 9 0.1875 9 0.375V2H5V0.375C5 0.1875 4.8125 0 4.625 0H3.375C3.15625 0 3 0.1875 3 0.375V2H1.5C0.65625 2 0 2.6875 0 3.5V14.5C0 15.3438 0.65625 16 1.5 16H12.5C13.3125 16 14 15.3438 14 14.5V3.5C14 2.6875 13.3125 2 12.5 2ZM12.3125 14.5H1.6875C1.5625 14.5 1.5 14.4375 1.5 14.3125V5H12.5V14.3125C12.5 14.4375 12.4062 14.5 12.3125 14.5ZM10.6562 8.25C10.7812 8.09375 10.7812 7.875 10.6562 7.71875L9.9375 7C9.8125 6.84375 9.5625 6.84375 9.40625 7L5.9375 10.4375L4.5625 9.0625C4.40625 8.90625 4.1875 8.90625 4.03125 9.0625L3.3125 9.75C3.1875 9.90625 3.1875 10.1562 3.3125 10.2812L5.65625 12.6562C5.8125 12.8125 6.0625 12.8125 6.1875 12.6562L10.6562 8.25Z" fill="white"/>
</svg>
