<svg width="253" height="264" viewBox="0 0 253 264" fill="none" xmlns="http://www.w3.org/2000/svg">
<path d="M244.5 140.497H8.5C3.80558 140.497 0 144.303 0 148.997C0 153.692 3.80558 157.497 8.5 157.497H244.5C249.194 157.497 253 153.692 253 148.997C253 144.303 249.194 140.497 244.5 140.497Z" fill="#DCE0F6"/>
<path fill-rule="evenodd" clip-rule="evenodd" d="M126 140.405H244.5C249.194 140.405 253 144.21 253 148.905C253 153.599 249.194 157.405 244.5 157.405H126V140.405Z" fill="#B5BEEC"/>
<path d="M244.5 246.497H8.5C3.80558 246.497 0 250.303 0 254.997C0 259.692 3.80558 263.497 8.5 263.497H244.5C249.194 263.497 253 259.692 253 254.997C253 250.303 249.194 246.497 244.5 246.497Z" fill="#DCE0F6"/>
<path d="M236 157.497H17V246.497H236V157.497Z" fill="#F2F4FD"/>
<path d="M236 157.497H126V246.497H236V157.497Z" fill="#DCE0F6"/>
<path fill-rule="evenodd" clip-rule="evenodd" d="M17 214.196L22.2726 219.684C24.951 222.471 29.3823 222.56 32.1701 219.882C32.2208 219.833 32.2708 219.784 32.32 219.733L67.2318 184.108C69.7841 181.503 73.9084 181.295 76.7107 183.628L121.798 221.172C124.384 223.326 128.137 223.334 130.733 221.192L176.255 183.62C179.074 181.293 183.209 181.528 185.748 184.158L220.161 219.819C222.845 222.601 227.277 222.68 230.059 219.996C230.069 219.986 230.078 219.977 230.088 219.967L236 214.196V246.497H17V214.196Z" fill="#F6732F"/>
<path fill-rule="evenodd" clip-rule="evenodd" d="M127 222.756C128.334 222.618 129.637 222.097 130.733 221.192L176.255 183.62C179.074 181.293 183.209 181.528 185.748 184.158L220.161 219.819C222.845 222.601 227.277 222.68 230.059 219.996C230.069 219.986 230.078 219.977 230.088 219.967L236 214.196V246.497H127V222.756Z" fill="#DA6021"/>
<path fill-rule="evenodd" clip-rule="evenodd" d="M127 246.405H244.5C249.194 246.405 253 250.21 253 254.905C253 259.599 249.194 263.405 244.5 263.405H127V246.405Z" fill="#B5BEEC"/>
<path fill-rule="evenodd" clip-rule="evenodd" d="M223.852 34.8122C221.375 32.3383 217.362 32.3383 214.884 34.8122L150.911 98.6894C148.438 101.158 148.435 105.165 150.904 107.637C150.906 107.64 150.909 107.642 150.911 107.644C153.389 110.118 157.402 110.118 159.879 107.644L223.852 43.7669C226.325 41.2978 226.328 37.2917 223.859 34.8189C223.857 34.8166 223.854 34.8144 223.852 34.8122Z" fill="#F2F4FD"/>
<path fill-rule="evenodd" clip-rule="evenodd" d="M224.069 35.0399C226.326 37.5249 226.253 41.3702 223.852 43.767L159.879 107.644C157.402 110.118 153.389 110.118 150.911 107.644C150.909 107.642 150.906 107.64 150.904 107.638C150.806 107.539 150.712 107.439 150.622 107.336L224.069 35.0399Z" fill="#DCE0F6"/>
<path fill-rule="evenodd" clip-rule="evenodd" d="M223.852 34.8122C221.375 32.3383 217.362 32.3383 214.884 34.8122L185.289 64.3629L194.257 73.3176L223.852 43.7669C226.325 41.2978 226.328 37.2917 223.859 34.8189C223.857 34.8166 223.854 34.8144 223.852 34.8122Z" fill="#DCE0F6"/>
<path fill-rule="evenodd" clip-rule="evenodd" d="M189.703 68.7704L223.83 34.7899C223.837 34.7973 223.845 34.8048 223.852 34.8123C223.854 34.8145 223.857 34.8167 223.859 34.819C226.328 37.2918 226.325 41.2979 223.852 43.767L194.257 73.3177L189.703 68.7704Z" fill="#B5BEEC"/>
<path d="M138.066 119.892C131.137 112.963 131.137 101.729 138.066 94.7997C144.995 87.8707 156.229 87.8706 163.158 94.7996C170.087 101.729 170.087 112.963 163.158 119.892C156.229 126.821 144.995 126.821 138.066 119.892Z" fill="#DA6021"/>
<path fill-rule="evenodd" clip-rule="evenodd" d="M163.167 94.8091L138.057 119.882C131.122 112.959 131.122 101.733 138.057 94.8091C144.991 87.8853 156.233 87.8853 163.167 94.8091Z" fill="#F6732F"/>
<path fill-rule="evenodd" clip-rule="evenodd" d="M22.0037 4.53202C24.4813 2.05815 28.4944 2.05815 30.9719 4.53202L94.945 68.4093C97.4178 70.8784 97.4208 74.8845 94.9517 77.3573C94.9494 77.3596 94.9472 77.3618 94.945 77.364C92.4674 79.8379 88.4544 79.8379 85.9768 77.364L22.0037 13.4868C19.531 11.0177 19.528 7.01151 21.997 4.53873C21.9993 4.53649 22.0015 4.53425 22.0037 4.53202Z" fill="#DCE0F6"/>
<path fill-rule="evenodd" clip-rule="evenodd" d="M21.7866 4.75964C19.5302 7.24464 19.6033 11.0899 22.0037 13.4867L85.9768 77.3639C88.4544 79.8378 92.4674 79.8378 94.945 77.3639C94.9472 77.3617 94.9494 77.3595 94.9517 77.3572C95.0497 77.2591 95.1438 77.1585 95.234 77.0557L21.7866 4.75964Z" fill="#F2F4FD"/>
<path fill-rule="evenodd" clip-rule="evenodd" d="M22.0037 4.53202C24.4813 2.05815 28.4943 2.05815 30.9719 4.53202L60.5669 34.0827L51.5988 43.0375L22.0037 13.4868C19.531 11.0177 19.528 7.01151 21.997 4.53873C21.9993 4.53649 22.0015 4.53425 22.0037 4.53202Z" fill="#B5BEEC"/>
<path fill-rule="evenodd" clip-rule="evenodd" d="M56.1529 38.4901L22.0262 4.50964C22.0187 4.51707 22.0112 4.52452 22.0037 4.53199C22.0015 4.53422 21.9993 4.53646 21.997 4.53869C19.5279 7.01148 19.5309 11.0177 22.0037 13.4867L51.5987 43.0374L56.1529 38.4901Z" fill="#DCE0F6"/>
<path d="M107.79 89.6116C114.719 82.6826 114.719 71.4485 107.79 64.5195C100.861 57.5905 89.6269 57.5905 82.6979 64.5195C75.7689 71.4485 75.7689 82.6826 82.6979 89.6116C89.6269 96.5406 100.861 96.5406 107.79 89.6116Z" fill="#F6732F"/>
<path fill-rule="evenodd" clip-rule="evenodd" d="M82.6884 64.5288L107.799 89.6021C114.734 82.6783 114.734 71.4526 107.799 64.5288C100.865 57.605 89.6226 57.605 82.6884 64.5288H82.6884Z" fill="#DA6021"/>
</svg>
