<svg width="45" height="44" viewBox="0 0 45 44" fill="none" xmlns="http://www.w3.org/2000/svg">
<g clip-path="url(#clip0)">
<path fill-rule="evenodd" clip-rule="evenodd" d="M22.0221 44.0464C34.1846 44.0464 44.0442 34.1863 44.0442 22.0232C44.0442 9.86013 34.1846 0 22.0221 0C9.85962 0 0 9.86013 0 22.0232C0 34.1863 9.85962 44.0464 22.0221 44.0464Z" fill="#CED4F3"/>
<path d="M14.5312 21.2812C13.0078 21.2812 11.9531 22.2773 11.9531 23.625C11.9531 25.0312 13.0078 25.9688 14.5312 25.9688H15.1172C17.4609 25.9688 17.8125 24.7969 17.8125 24.0938C17.8125 22.6875 15.9375 21.2812 14.5312 21.2812ZM15.1172 24.5625C14.9414 24.5625 14.707 24.5625 14.5312 24.5625C13.8281 24.5625 13.3594 24.2109 13.3594 23.625C13.3594 23.0977 13.8281 22.6875 14.5312 22.6875C15.293 22.6875 16.4062 23.5664 16.4062 24.0938C16.4062 24.5625 15.7617 24.5625 15.1172 24.5625ZM30.4102 21.2812C29.0039 21.2812 27.1875 22.6875 27.1875 24.0938C27.1875 24.7969 27.4805 26.0273 29.8242 26.0273L30.4102 25.9688C31.9336 25.9688 33.0469 25.0312 33.0469 23.625C32.9883 22.2773 31.9336 21.2812 30.4102 21.2812ZM30.4102 24.5625C30.2344 24.5625 30 24.5625 29.8242 24.5625C29.1797 24.5625 28.5352 24.5625 28.5352 24.0938C28.5352 23.5664 29.6484 22.6875 30.4102 22.6875C31.1133 22.6875 31.582 23.0977 31.582 23.625C31.582 24.2109 31.1133 24.5625 30.4102 24.5625ZM37.0898 16.3008C36.6797 15.6562 35.918 15.1875 35.0977 15.1875H32.2266L31.7578 13.7812C31.1133 11.8477 29.2969 10.5 27.3047 10.5H17.6367C15.6445 10.5 13.8281 11.8477 13.1836 13.7812L12.7148 15.1875H9.84375C9.02344 15.1875 8.26172 15.6562 7.85156 16.3008C7.38281 17.0039 7.38281 17.8828 7.73438 18.5859L8.08594 19.2891C8.32031 19.7578 8.61328 20.1094 9.08203 20.4023C8.67188 21.0469 8.4375 21.8672 8.4375 22.6875V30.1875C8.4375 31.7695 9.66797 33 11.25 33H12.1875C13.7109 33 15 31.7695 15 30.1875V29.25H30V30.1875C30 31.7695 31.2305 33 32.8125 33H33.75C35.2734 33 36.5625 31.7695 36.5625 30.1875V22.6875C36.5625 21.8672 36.2695 21.0469 35.8594 20.4023C36.3281 20.1094 36.6797 19.7578 36.8555 19.2891L37.207 18.5859C37.5586 17.8828 37.5586 17.0039 37.0898 16.3008ZM15 14.3672C15.3516 13.1953 16.4648 12.375 17.6367 12.375H27.3047C28.5352 12.375 29.5898 13.1953 29.9414 14.3672L31.1719 18H13.7695L15 14.3672ZM9.72656 18.4688L9.375 17.7656C9.31641 17.5312 9.375 17.3555 9.43359 17.2969C9.49219 17.2383 9.60938 17.0625 9.84375 17.0625H12.1289L11.7188 18.2344C11.3086 18.3516 10.7227 18.6445 10.3711 18.9375C10.1367 18.8789 9.84375 18.7031 9.72656 18.4688ZM13.125 30.1875C13.125 30.7148 12.6562 31.125 12.1875 31.125H11.25C10.7227 31.125 10.3125 30.7148 10.3125 30.1875V29.25H13.125V30.1875ZM34.6289 30.1875C34.6289 30.7148 34.2188 31.125 33.6914 31.125H32.7539C32.2852 31.125 31.8164 30.7148 31.8164 30.1875V29.25H34.6289V30.1875ZM34.6289 25.5V27.375H10.3125V22.6875C10.3125 21.1641 11.543 19.875 13.125 19.875H31.8164C33.3984 19.875 34.6289 21.1641 34.6289 22.6875V25.5ZM35.5664 17.7656L35.2148 18.4688C35.0977 18.7031 34.8047 18.8789 34.5703 18.9375C34.1602 18.6445 33.6914 18.4102 33.2227 18.2344L32.8125 17.0625H35.0977C35.332 17.0625 35.4492 17.2383 35.5078 17.2969C35.5664 17.3555 35.625 17.5312 35.5664 17.7656Z" fill="#6254E8"/>
</g>
<defs>
<clipPath id="clip0">
<rect width="44.0442" height="44.0464" fill="white"/>
</clipPath>
</defs>
</svg>
