<?xml version="1.0" encoding="UTF-8"?>
<svg width="140px" height="140px" viewBox="0 0 140 140" version="1.1" xmlns="http://www.w3.org/2000/svg" xmlns:xlink="http://www.w3.org/1999/xlink">
    <title>Group</title>
    <g id="Page-1" stroke="none" stroke-width="1" fill="none" fill-rule="evenodd">
        <g id="Group">
            <rect id="Rectangle" fill="#3F69FC" x="0" y="0" width="140" height="140" rx="25"></rect>
            <g id="iconfinder_42_Bit_Connect_logo_logos_4373800" transform="translate(51.000000, 46.000000)" fill="#FFFFFF" fill-rule="nonzero">
                <path d="M9.88342971,16.7313614 C9.88342971,14.7414519 9.88342971,12.790151 9.88342971,10.8759979 C9.88342971,10.7258416 9.66588742,10.5010768 9.48209815,10.3853553 C8.23457443,9.48660903 7.57793425,8.24810688 7.76038575,6.66880534 C7.94221982,5.05412994 8.78470738,3.92884499 10.2890833,3.3666199 C12.1213162,2.69316022 14.2092694,3.5920108 15.0150197,5.39555542 C15.8576102,7.23416085 15.2014845,9.41220916 13.5157891,10.4266769 C13.1859768,10.6108505 13.073604,10.8006589 13.1094151,11.1759973 C13.1094151,12.8280292 13.1094151,14.4792262 13.0732953,16.1688232 C13.0732953,16.4325097 13.0732953,16.8087873 13.0732953,16.8087873 C13.0732953,16.8087873 13.4424174,16.8839176 13.6598568,16.9210654 C14.3218481,17.0317782 14.979826,17.2569604 15.6014783,17.518873 C15.8228281,17.5934816 15.9704975,17.7078466 15.9704975,17.7078466 C15.9704975,17.7078466 16.2644986,17.4476036 16.3361209,17.4094123 C19.3040192,14.8149126 22.2741815,12.2270911 25.2431089,9.63791311 C26.4918675,8.54925417 27.7703658,7.42344747 29.0187127,6.33457984 C29.238416,6.14372801 29.349554,5.99597175 29.274433,5.65433757 C28.8679561,3.81886257 29.3493482,2.20345675 30.8117387,1.04039794 C32.2456243,-0.122243471 33.8228573,-0.311112701 35.4717126,0.477129378 C37.1207737,1.26808449 37.9640845,2.69336892 37.9988666,4.52894827 C38.0700772,7.76142948 34.7723667,10.047895 31.8749586,8.77464507 C31.54669,8.6231323 31.3650617,8.69899303 31.1096502,8.88681879 C27.1113588,12.2266737 23.1162574,15.530007 19.0839043,18.8359489 C18.9379843,18.9833922 18.7909323,19.0970267 18.6111563,19.2466613 C23.4094353,23.3379236 24.107958,30.6229541 20.1457865,35.7249276 C21.2821722,37.1147339 22.456633,38.5445052 23.6300647,39.8913202 C23.7372923,40.0078766 23.9956881,40.0078766 24.1792715,40.0078766 C26.2333688,39.6275294 28.2119334,40.9442923 28.7269756,43.0118364 C29.2381073,45.1111023 28.0267034,47.2521072 26.0124306,47.8153757 C24.5080547,48.2635488 23.1519657,47.8893582 22.0873051,46.7627167 C20.988274,45.6384752 20.7325538,44.2475212 21.1746359,42.7074544 C21.2460524,42.4069332 21.2460524,42.2225509 21.0659677,41.958447 C20.1107986,40.7966404 19.1612893,39.5923642 18.240079,38.3924707 C18.0952909,38.239184 17.9844616,38.090906 17.8397765,37.900889 C11.4220732,42.2222378 3.32155578,39.1065216 0.865097904,32.572168 C-0.489653379,29.0431308 -0.268303587,25.5915196 1.6355516,22.286308 C3.4708717,19.0971311 6.32773498,17.2943169 9.88342971,16.7313614 L9.88342971,16.7313614 Z" id="Path"></path>
            </g>
        </g>
    </g>
</svg>