<svg xmlns="http://www.w3.org/2000/svg" xmlns:xlink="http://www.w3.org/1999/xlink" width="266px" height="265px" viewBox="0 0 266 265" version="1.1">
    <title>BF95537C-4381-4B37-8493-8401EAEC7177</title>
    <g id="Front" stroke="none" stroke-width="1" fill="none" fill-rule="evenodd">
        <g id="Home" transform="translate(-587.000000, -2597.000000)" fill-rule="nonzero">
            <g id="Group-24" transform="translate(162.000000, 2381.000000)">
                <g id="Group-22" transform="translate(425.000000, 124.000000)">
                    <g id="connect.b756849e" transform="translate(0.000000, 92.000000)">
                        <path d="M265.333333,132.500329 C265.333333,142.52707 264.258378,152.195986 262.109734,161.507075 C258.349924,178.695412 251.009042,194.631359 241.339511,208.597993 C237.579701,213.96919 233.46115,218.98256 228.985126,223.817018 C214.482098,239.216225 196.217992,251.033366 175.80651,258.017317 C175.090296,258.375143 174.194077,258.554056 173.477862,258.732969 C171.509223,259.448621 169.360579,259.986629 167.211935,260.523368 C162.555907,261.777028 157.721141,262.851775 152.887643,263.567427 C148.769093,264.104166 144.650542,264.642174 140.531991,264.821087 C138.025874,265 135.518489,265 132.833635,265 C127.640129,265 122.44789,264.642174 117.255397,264.104166 C110.809466,263.388514 104.542525,262.134854 98.2757108,260.523368 C96.1270671,259.986629 93.9784233,259.269708 91.8297796,258.554056 C91.113565,258.375143 90.2182334,258.017317 89.5020188,257.837135 C88.7858042,257.658222 88.0695896,257.300396 87.353375,257.121483 C79.8331219,254.435251 72.4919858,250.854453 65.6879472,246.915829 C59.2420159,243.154849 53.154192,238.858399 47.6034655,234.202855 C27.5494572,217.371074 12.5089889,194.631359 5.16778939,168.668671 C2.1238774,157.209356 0.333333333,145.033121 0.333333333,132.500329 C0.333333333,115.847969 3.37724025,99.9121498 8.92790329,85.2297367 C12.5089762,75.9189009 17.1643457,66.966145 22.5359551,58.7296755 C25.2218231,54.6115042 28.0866815,50.8512858 31.3096471,47.0911943 C38.471793,38.6756849 46.5291437,31.155375 55.481826,24.7094313 C77.3263708,9.13175523 104.005428,0 132.833635,0 C203.738879,0 261.572256,55.6857435 265.153329,125.695925 C265.333333,127.844784 265.333333,130.171922 265.333333,132.500329 Z" id="Path" fill="#F9E8DF"/>
                        <path d="M265.333333,132.290286 C265.333333,142.174308 264.255149,151.705597 262.100052,160.884153 C230.133418,161.060519 188.287667,161.060519 185.774023,160.707787 L133.333333,159.295605 C133.333333,159.295605 162.60705,147.999401 184.337292,134.5843 C206.067534,121.170073 214.329375,145.351404 233.365428,129.289556 C244.140912,120.111125 255.99458,120.464108 264.973515,125.582735 C265.333333,127.701008 265.333333,129.995021 265.333333,132.290286 Z" id="Path" fill="#FFFFFF"/>
                        <path d="M102.333333,85.6381011 C102.333333,85.6381011 40.3828571,86 8.33333333,86 C11.9142857,76.589988 16.5695872,67.5417466 21.9410158,59.2174311 C26.4171429,59.57933 31.251492,58.4935051 37.16,53.4265361 C56.1390476,36.9588547 77.8038729,50.7121663 83.3542857,67.1798477 C88.9046985,83.4665796 102.333333,85.6381011 102.333333,85.6381011 Z" id="Path" fill="#FFFFFF"/>
                        <path d="M126.152428,207.176323 C123.69168,204.706544 118.946014,202.764485 113.672982,201 C112.442546,204.352647 111.38794,207.882868 110.333333,211.235515 C110.684869,211.235515 111.21211,211.235515 111.563645,211.411838 C114.375929,211.588162 117.891407,213 119.649085,213 C122.812904,213 125.800893,212.293456 127.206661,211.411838 C128.612803,210.705294 129.140417,210.352647 126.152428,207.176323 Z" id="Path" fill="#F4A880"/>
                        <path d="M111.333333,200.114197 C102.782529,197.615319 93.341078,195.652637 89.2437543,193.155023 C82.4743672,189.050084 78.1989649,176.736531 66.0853248,158 C66.0853248,158 54.8624566,168.706228 63.7695449,186.016273 C72.6766332,203.326318 79.4460203,205.645622 88.3531086,207.787879 C93.8754403,209.037318 101.357394,210.285493 107.770498,211 C108.66127,207.073372 109.73012,203.326318 111.333333,200.114197 Z" id="Path" fill="#5750D8"/>
                        <path d="M110.761905,200 C109.428639,203.692106 108.285782,207.568687 107.333333,211.446577 C109.047686,211.631051 110.571496,211.815526 112.095306,212 C113.047619,208.492368 114.190476,204.800262 115.333333,201.291321 C113.809524,200.922372 112.285714,200.368949 110.761905,200 Z" id="Path" fill="#ECE2E0"/>
                        <path d="M67.1017522,123.634233 C78.9281459,140.244887 79.1073971,145.24593 74.6276391,147.211666 C69.7896324,149.354608 66.0267524,147.568612 68.1770058,156.141648 C70.5063835,165.608316 70.8647591,164.536212 70.8647591,164.536212 C70.8647591,164.536212 57.0672363,167.572786 53.6627319,158.106118 C53.6627319,158.106118 58.3216142,157.213752 54.5587342,148.997662 C50.7957273,140.781572 40.9404626,136.494421 47.5703472,128.456803 C54.2003586,120.419186 63.6972477,118.990262 67.1017522,123.634233 Z" id="Path" fill="#F4A880"/>
                        <path d="M67.2641075,153 C66.5411472,147.870723 69.975145,148.896821 74.3129074,147.016651 C74.6743876,146.845837 70.1559491,148.041537 67.2641075,148.213563 C59.8536996,148.896821 64.7337462,152.829186 67.2641075,153 Z" id="Path" fill="#111F7A"/>
                        <path d="M59.3009716,128.120574 C68.4147243,126.695452 72.1673567,115.652213 63.232367,116.00843 C54.2973773,116.364648 55.1909396,121.530303 49.1151466,125.092727 C43.0393536,128.655783 39.6439942,134.710971 45.0049881,140.055492 C50.3659819,145.398751 49.6513092,150.03008 55.5483391,150.919992 C61.4454956,151.811166 61.6241321,145.042786 60.1945338,141.301369 C58.5861724,137.383232 61.0879695,134.888954 59.3009716,128.120574 Z" id="Path" fill="#2842B6"/>
                        <path d="M54.9487179,127.555484 C59.9025641,126.471778 64.8564103,122.860873 67.3333333,117.986113 C66.625641,116.722258 65.2102564,116 62.7333333,116 C53.8871795,116.361193 54.7717322,121.597018 48.7563476,125.207923 C46.9871169,126.291373 45.3948718,127.555484 44.3333333,129 C47.6948092,128.277103 51.4102564,128.277103 54.9487179,127.555484 Z" id="Path" fill="#6254E8"/>
                        <path d="M53.3333333,133.616138 C41.3710559,128.016583 29.9443424,128.016583 28.1589185,140.118022 C26.1948889,152.218182 9.5904459,147.341769 15.6609506,158.720066 C21.7313921,170.098363 35.1220088,168.292426 37.8002079,152.218182 C40.1211959,138.492551 39.2285471,134.518467 45.6560734,136.686615 C51.9049942,138.853483 53.3333333,133.616138 53.3333333,133.616138 Z" id="Path" fill="#2842B6"/>
                        <path d="M60.3246488,138.035095 C56.0771827,137.689272 55.3692717,139.93835 57.4930048,143.053211 C59.6167378,146.168073 63.3333333,144.610642 63.3333333,144.610642 L60.3246488,138.035095 Z" id="Path" fill="#F4A880"/>
                        <path d="M50.2387844,236 C54.2173564,235.289842 58.1959283,234.400886 61.9937201,233.513188 C69.0465791,231.914074 76.2803463,230.31496 83.3333333,228.359508 C80.982295,212.545904 78.8121648,196.022143 77.7270997,189.270607 C75.5569696,174.5235 73.5677476,164.217397 61.8128119,156.755704 C58.7385249,154.800251 55.4833297,156.399365 51.8664461,164.394937 C51.6855379,164.751275 51.5047577,165.106354 51.3238495,165.638972 C50.0580043,168.482122 48.792031,172.212969 47.3452776,176.655233 C43.9093022,188.026572 45.5368358,215.211515 47.3452776,233.868267 C48.2495625,234.578425 49.1537194,235.289842 50.2387844,236 Z" id="Path" fill="#6254E8"/>
                        <path d="M65.7215822,247 C59.1755601,243.226463 52.9932058,238.915667 47.356289,234.244578 C45.5379496,215.201199 43.9015084,187.893978 47.356289,176.396402 C48.629191,171.904823 50.0838626,168.132558 51.3566359,165.257846 C51.5385342,164.898825 51.7203038,164.539804 51.9022021,164 C52.9932058,170.108446 54.4478774,176.396402 56.4479865,182.325337 C59.1755601,190.58918 63.5395748,198.133709 66.448918,206.398825 C70.9947023,219.692778 69.7219291,233.525263 65.7215822,247 Z" id="Path" fill="#5750D8"/>
                        <path d="M87.3333333,257 C72.5585586,251.565552 59.0451088,243.775279 47.3333333,233.811483 C47.3333333,233.630463 47.3333333,233.630463 47.3333333,233.449443 C57.7837838,232.54306 68.5945946,232.54306 78.6846847,232.18102 C80.3063701,232.18102 81.9279279,232 83.7297297,232 C84.9910548,241.419453 86.4324962,250.659169 87.3333333,257 Z" id="Path" fill="#F4A880"/>
                        <path d="M70.3333333,164 C68.2156951,161.115815 65.7451171,157.721879 62.0391878,155.347445 C60.6274289,154.498661 57.0980319,155.347445 55.5098657,156.365747 C55.5098657,156.365747 55.5098657,156.365747 55.3333333,156.365747 C56.5686848,156.70478 57.6275039,157.213329 58.5097907,157.552362 C61.3333083,158.909696 62.2157201,160.436547 64.156826,161.454848 C65.7451171,162.473149 68.0391628,163.490248 70.3333333,164 Z" id="Path" fill="#F4A880"/>
                        <path d="M101.912644,239.92935 L32.8782244,251.893324 C22.4782244,252.965083 13.3333333,245.822129 13.3333333,236.715337 L13.3333333,222.43196 C13.3333333,213.325168 22.2988506,206.182214 32.6988506,207.075557 L101.733397,218.146187 C110.51954,219.038266 117.333333,221.181785 117.333333,229.038401 C117.154086,236.715337 110.51954,239.037272 101.912644,239.92935 Z" id="Path" fill="#111F7A"/>
                        <path d="M64.4888658,230.543825 C64.3117322,230.362978 64.1347239,230.180848 63.9575903,230 C60.4161713,233.076974 56.8747523,236.153948 53.3333333,239.411769 C57.5830361,243.394263 61.478597,245.927412 64.3117322,246.289107 C71.0404283,247.194628 73.1652797,247.556323 74.9359892,245.384869 C76.8838323,243.212133 71.3945702,238.688379 64.4888658,230.543825 Z" id="Path" fill="#F4A880"/>
                        <path d="M55.0888889,241 C58.111174,237.321929 60.9556185,233.460085 64.3333333,230.517107 C64.3333333,230.517107 64.3333333,230.517107 64.3333333,230.333333 C63.0889518,228.678071 61.4888889,226.839036 60.0666667,225 C57.7556185,227.022809 55.2667296,228.678071 52.7778407,230.517107 C51.3556185,231.621049 49.7555556,232.723688 48.3333333,233.827631 C50.4666667,236.586836 52.7778407,238.977191 55.0888889,241 Z" id="Path" fill="#ECE2E0"/>
                        <path d="M65.3333333,235 C73.9637125,236.828154 76.6606424,237.74288 78.4586381,239.571034 C81.6950303,242.861971 75.2222459,239.205662 70.9070563,240.851131" id="Path" fill="#F4A880"/>
                        <path d="M55.4905236,156 C50.2684431,156.53365 46.3068164,159.204423 42.5252,170.062877 C37.1229818,185.551343 28.4795601,199.437598 36.7628339,215.993365 C41.0846084,224.538073 46.4868266,231.837598 51.5288969,237 C52.4293304,236.288467 53.1496261,235.575672 54.0499321,234.864138 C56.7511049,232.371248 59.4521503,229.87962 62.3333333,227.564613 C55.6706613,219.553555 47.747408,208.338073 49.9082952,197.835387 C51.7090346,189.4673 57.4714007,171.665088 60.7127316,162.229702 C59.8122982,160.62749 59.0920024,158.847395 58.3717067,157.245183 C57.8315486,156.889417 56.7511049,156.53365 55.4905236,156 Z" id="Path" fill="#6254E8"/>
                        <path d="M164.88443,125.131362 C163.636104,126.561822 162.209807,128.350372 160.78351,130.14019 C144.737035,150.17297 141.528497,152.497705 131.722388,142.123859 C121.916784,131.750013 121.560209,118.334363 105.514366,114.399172 C89.4685217,110.464107 89.4685217,108.496448 88.5771491,111.358383 C87.6856502,114.399172 88.9337234,119.407493 97.4915068,122.090573 C106.04929,124.773652 105.692716,127.814188 117.637892,146.774597 C122.986507,155.181164 128.334616,161.262997 133.683862,165.376282 C140.815348,171.100658 147.233686,170.92193 158.644064,158.400809 C164.88443,151.604064 170.054442,145.522231 174.333333,140.335308 C171.65871,135.148385 168.450173,129.960195 164.88443,125.131362 Z" id="Path" fill="#F4A880"/>
                        <path d="M186.247493,116.799401 C185.182332,115.892614 184.649123,114.441626 184.82644,113.171995 C184.649123,113.171995 184.471806,113.171995 184.293231,113.171995 C177.187968,112.26508 173.991228,114.622983 163.333333,128.044203 C167.240599,132.216323 172.570175,141.102964 175.057646,146 C175.234964,145.637542 175.056389,142.191623 175.234964,141.829165 C178.964912,136.93213 180.208648,131.671351 182.872178,128.044203 C186.247493,123.510139 188.734964,120.064091 190.333333,117.887674 C188.734964,118.069031 187.313911,117.887674 186.247493,116.799401 Z" id="Path" fill="#08135A"/>
                        <path d="M116.333333,119.853831 C112.265604,114.282106 100.986966,107.224562 102.46614,111.124756 C103.945314,115.210793 108.567668,114.839239 107.458288,119.853831 C106.164076,124.682712 116.333333,119.853831 116.333333,119.853831 Z" id="Path" fill="#F4A880"/>
                        <path d="M177.910826,196.70182 C177.910826,196.879679 177.910826,197.057539 177.730774,197.235398 C177.730774,197.413258 177.730774,197.592378 177.550721,197.770238 C177.550721,198.125957 177.369392,198.481676 177.369392,198.659535 C188.191699,201.15209 200.096875,199.727953 210.919182,197.948097 C216.511026,197.057539 222.101594,195.633402 227.333333,193.675686 C227.333333,193.497827 227.333333,193.319967 227.333333,193.142108 C227.333333,192.429409 227.152004,191.717971 226.971951,190.827412 C226.791899,190.293834 226.791899,189.582396 226.611846,189.047556 C224.987542,180.859715 221.921541,172.494013 218.675488,162.882035 C214.165235,149.175504 211.820721,118.381979 211.820721,118.381979 L195.587899,116.067914 L191.799134,115.533957 L187.651541,115 L182.601131,120.695917 L179.3538,124.433993 C175.566312,131.553543 173.401851,136.537392 172.680364,140.454084 C171.778824,145.082214 172.680364,148.464066 174.844825,153.092196 C178.993695,161.813616 183.141289,171.069876 177.910826,196.70182 Z" id="Path" fill="#111F7A"/>
                        <path d="M228.333333,223.960729 C213.961588,239.414324 195.865648,251.273202 175.639445,258.28182 C174.929775,258.64091 174.043003,258.820455 173.333333,259 C173.865899,239.055235 174.929775,213.359939 178.123915,198.625796 C178.123915,198.446251 178.123915,198.266706 178.301019,198.085888 C178.301019,197.906343 178.301019,197.726798 178.478122,197.547253 C195.333082,198.984886 211.12291,195.750531 226.558532,190 C226.735635,190.539908 226.735635,191.258088 226.913995,191.797996 C227.091098,192.516175 227.091098,193.234355 227.268201,194.133353 C227.268201,194.851533 227.445305,195.570986 227.445305,196.289165 C227.445305,196.46871 227.445305,196.649528 227.445305,196.829073 C227.445305,197.367708 227.445305,198.085888 227.623664,198.625796 C227.623664,199.343975 227.623664,200.063428 227.623664,200.961153 C227.445305,206.532139 227.800767,215.874841 228.333333,223.960729 Z" id="Path" fill="#6254E8"/>
                        <path d="M195.333333,115.865556 L182.333333,137 C182.333333,137 182.333333,133.239251 182.506356,128.044265 C182.680605,125.716484 182.680605,123.029764 183.02665,120.34317 C183.199673,117.835792 183.546945,115.328288 183.89299,113 C186.14719,113.179089 188.746209,113.895447 192.212793,114.611931 C192.212793,114.611931 192.039771,114.79102 191.693726,115.149199 L195.333333,115.865556 Z" id="Path" fill="#F4A880"/>
                        <path d="M189.920219,141 C188.314904,145.459397 186.530238,150.097019 184.746836,154.198704 C178.146225,169.003954 176.183472,174.710921 149.422328,188.445562 C122.662447,202.178939 122.30564,200.573657 119.451185,208.421843 C116.418264,216.091804 119.807992,214.130074 126.587322,212.524792 C130.33411,211.632407 131.761337,210.563061 134.793879,208.421843 C139.075561,207.708946 141.751928,207.173009 144.78447,203.784221 C154.061448,201.466042 177.432611,193.261408 187.065764,186.126119 C194.023813,180.953825 202.40909,160.619832 206.333333,147.955801 C200.802512,145.637622 195.451041,143.139955 189.920219,141 Z" id="Path" fill="#F4A880"/>
                        <path d="M203.3229,150.468194 C203.871646,150.645045 204.420392,150.821895 205.151622,151 C206.24782,147.814184 207.161534,145.158918 207.71028,142.857354 C210.817683,131.706996 212.646405,122.504 204.420392,121.088068 C197.47306,119.849237 193.085681,131.885101 188.333333,144.273412 C193.268165,146.043171 198.20429,148.698436 203.3229,150.468194 Z" id="Path" fill="#08135A"/>
                        <path d="M179.613037,75.3352933 C176.922189,79.2342649 175.48724,83.1332365 173.692918,86.1461352 C166.33912,99.6155723 168.670596,103.160115 177.818715,103.514544 C184.275987,103.691758 184.635359,104.400742 184.993462,119.46511 C184.993462,119.46511 194.499683,121.414596 199.881378,117.870054 C199.881378,117.870054 192.706632,108.122499 194.859056,101.033414 C197.01148,93.9442039 206.517702,79.7659086 197.549903,73.9174512 C188.580835,68.0688683 183.917885,68.9550667 179.613037,75.3352933 Z" id="Path" fill="#F4A880"/>
                        <path d="M179.333333,103.691361 C182.743753,103.857245 184.179585,104.520898 184.717069,109 C185.615417,107.506927 186.152901,106.013971 186.333333,104.686782 C186.333333,101.866519 181.666243,103.359593 179.333333,103.691361 Z" id="Path" fill="#111F7A"/>
                        <path d="M195.282962,70.8230823 C186.604621,66.6856329 178.468997,61.8286936 176.661649,67.7649953 C174.853021,73.7012969 180.819061,76.3995115 187.147337,83.4151755 C193.475614,90.2508395 192.57194,87.9122423 190.220597,97.8059934 C187.870533,107.699872 183.531362,122.450562 198.357501,127.127119 C213.18236,131.984058 230.901279,115.434898 217.702009,105.541147 C204.504019,95.6473962 203.600345,96.906631 204.684498,88.0922423 C205.76993,79.4575986 202.153955,74.0610418 195.282962,70.8230823 Z" id="Path" fill="#2842B6"/>
                        <path d="M187.76243,83.2505292 C193.901931,90.0215865 193.025214,87.7050924 190.744012,97.5053335 C190.568917,98.2181495 190.393822,99.1090116 190.218727,100 C190.568917,99.8218276 190.744012,99.8218276 191.095444,99.6436551 C194.428458,98.2181495 197.760229,97.1489886 198.286756,92.6942992 C198.813283,87.52692 194.778648,83.7850465 191.095444,81.29038 C185.307375,77.0139892 182.149457,71.3119665 183.904132,65.4317713 C180.921308,64.5409092 178.466253,64.8972541 177.764631,67.7482654 C175.659766,73.6284606 181.62293,76.3011732 187.76243,83.2505292 Z" id="Path" fill="#6254E8"/>
                        <path d="M162.333333,60.0000635 C162.333333,71.8209254 158.018794,82.7463347 150.647168,91.1642231 C147.232445,95.1044681 143.09736,98.5074416 138.603366,101.194053 C135.007917,103.343266 131.052286,104.955208 126.917201,106.208968 C126.018911,106.388059 125.120112,106.74624 124.221186,106.925457 C120.985281,107.641819 117.569668,108 114.153927,108 L113.974218,108 C112.176494,108 110.558478,107.820909 108.940589,107.641819 C104.446213,107.104547 100.131674,106.029878 96.1766794,104.417936 C90.0644152,101.910415 84.491532,98.1492606 79.9971564,93.4925267 C78.1994316,91.7014947 76.7612518,89.9104627 75.3230719,87.9403402 C72.9860934,84.8955477 71.1883686,81.4925743 69.7501887,77.9105103 C67.592919,72.3581969 66.334448,66.4477025 66.334448,60.179154 C66.1547392,33.4925108 87.7274366,12 114.333763,12 C140.94009,12 162.333333,33.4925108 162.333333,60.0000635 Z" id="Path" fill="#FFFFFF"/>
                        <path d="M150.333333,91.0393864 C141.583576,101.324006 128.548068,108 114.083597,108 C100.69069,108 88.5477304,102.406644 79.9762296,93.3849542 C78.1905003,91.5806417 76.7619168,89.7763293 75.3333333,87.7915984 C76.0476251,82.1981148 78.5476461,75.8830852 83.3690521,69.7483461 C93.0119905,57.1180312 91.4048974,56.7571943 111.583576,56.3963574 C111.762212,56.3963574 112.119358,56.3963574 112.297867,56.3963574 L112.297867,56.5767758 C115.155034,60.1854007 119.083639,59.1027621 122.476588,56.9376128 C122.833734,56.7571943 123.012243,56.3963574 123.19088,56.0353926 C123.369389,56.0353926 123.726535,56.0353926 123.905171,56.0353926 C131.941269,55.8549741 140.51277,56.0353926 142.476124,64.8766642 C144.440743,71.5526586 149.440785,82.0176963 150.333333,91.0393864 Z" id="Path" fill="#08135A"/>
                        <path d="M143.425123,65.0357143 C142.321046,60.2142857 139.194998,58.0714708 135.333333,57 C135.516912,65.9286277 137.356606,72.8928712 137.907343,81.8214989 C138.275802,87.892829 137.171725,95.9286699 137.356606,102 C142.689506,99.1429556 147.470366,95.5714286 151.333333,91.1071147 C150.229257,82.0000562 145.079936,71.6428431 143.425123,65.0357143 Z" id="Path" fill="#111F7A"/>
                        <path d="M83.3333333,64 C86.63302,58.6531314 88.3696649,56.9283706 91.3218997,56.2385152 C94.2742574,55.5485375 96.7055602,56.2385152 94.4478604,59.8605007 C92.1902836,63.4824862 83.3333333,64 83.3333333,64 Z" id="Path" fill="#F4A880"/>
                        <path d="M124.106912,106.940176 C120.845203,107.646767 117.402352,108 113.959373,108 C107.435955,108 101.274949,106.763559 95.6576261,104.46742 C95.4763559,103.584212 95.1139438,102.347772 94.7515317,101.111456 C98.3756527,99.5217826 100.187713,95.2826114 98.919335,91.5734147 C97.6508285,88.3940676 94.9328019,87.5108599 91.671093,87.6874764 C91.671093,87.6874764 91.671093,87.6874764 91.4898228,87.5108599 C92.0335051,85.9211864 92.0335051,84.1548963 91.4898228,82.3886062 C91.4898228,82.2119897 91.3086809,81.8586316 91.1274107,81.6820151 C90.0401744,79.562492 90.0401744,77.0896108 91.3086809,75.3233208 C92.3959172,73.9102637 93.8455656,72.6739483 95.6576261,71.9673571 L99.462889,70.5543 C101.274949,69.8478341 103.26828,69.8478341 104.89907,70.3776835 C107.254813,70.907533 108.704462,72.8505647 109.429286,75.1467043 C109.429286,75.3233208 109.610428,75.6766789 109.610428,75.8532954 C110.335252,77.6195855 111.422488,78.8559009 113.053407,79.7391085 L113.053407,79.915725 C110.335252,81.8586316 108.704462,84.3315128 109.97284,87.5108599 C111.422488,91.2200566 115.590291,93.3397048 119.395554,92.2798807 C120.845203,95.1059949 121.932439,97.2255179 122.113709,97.9321091 L123.563358,101.817922 C124.469324,103.584212 124.469324,105.350502 124.106912,106.940176 Z" id="Path" fill="#FCA58C"/>
                        <polygon id="Path" fill="#111F7A" points="106.333333 84.8644474 100.597484 87 87.3333333 45.7119349 89.4842767 45"/>
                        <path d="M105.316226,99 C104.950512,99 104.584798,98.8128779 104.401876,98.4386337 C104.219084,97.8771348 104.401876,97.5028906 104.950512,97.3157685 L111.167649,95.0701708 C111.716155,94.8830487 112.081869,95.0701708 112.26479,95.6315371 C112.447583,96.1929034 112.26479,96.5672802 111.716155,96.7544023 L105.499018,99 L105.316226,99 Z" id="Path" fill="#FFFFFF"/>
                        <path d="M90.0611643,48.3038316 L88.525308,48.8797387 C87.5654658,49.2636767 86.4135736,48.6877696 86.0296096,47.7279246 L85.4535955,46.1920364 C85.0696314,45.2320552 85.6456455,44.0802411 86.6054877,43.6961671 L88.141344,43.12026 C89.1013221,42.736322 90.2532143,43.312229 90.6371784,44.2722102 L91.2130565,45.8080983 C91.5970206,46.9599124 91.0211424,47.9198936 90.0611643,48.3038316 Z" id="Path" fill="#2842B6"/>
                        <path d="M89.2404216,45.7317736 L88.7456887,45.8966883 C87.920978,46.2265177 86.9313953,45.7317736 86.6015344,44.9070831 L86.4366623,44.4123389 C86.1068014,43.5876485 86.6015344,42.5981601 87.426245,42.2683307 L87.920978,42.1032991 C88.7456887,41.7734697 89.7352714,42.2683307 90.0651323,43.0929043 L90.2300043,43.5876485 C90.5598653,44.5772537 90.0651323,45.4019441 89.2404216,45.7317736 Z" id="Path" fill="#2842B6"/>
                        <path d="M85.8160775,47.971014 C86.2996641,47.8396606 86.4754988,47.2983625 86.2088575,46.7620742 C85.9423813,46.2257859 85.3341419,45.8975858 84.8505553,46.0289391 C84.3671337,46.1604147 84.1911339,46.7017128 84.4577753,47.2380011 C84.7244166,47.7742894 85.3324909,48.1024895 85.8160775,47.971014 Z" id="Path" fill="#2842B6"/>
                        <path d="M86.8160863,50.9710602 C87.2996647,50.8395815 87.4754964,50.298393 87.2088596,49.7620921 C86.9422228,49.2257912 86.3341588,48.8975834 85.8505804,49.0289398 C85.367002,49.1604185 85.1911703,49.7017292 85.4578071,50.2379079 C85.7244439,50.7742088 86.3325078,51.1024166 86.8160863,50.9710602 Z" id="Path" fill="#2842B6"/>
                        <path d="M92.8159638,44.9710129 C93.299539,44.8396546 93.4755346,44.2983361 93.2088996,43.7620276 C92.9422646,43.2257191 92.3340397,42.8975066 91.8506296,43.0289871 C91.3670545,43.1603454 91.191224,43.7016639 91.4576938,44.2379724 C91.7243288,44.7742809 92.3325538,45.1024934 92.8159638,44.9710129 Z" id="Path" fill="#2842B6"/>
                        <path d="M93.8161114,47.9710602 C94.2995329,47.8395815 94.4755327,47.298393 94.2088914,46.7620921 C93.9422501,46.2257912 93.3341758,45.8975834 92.8505892,46.0289398 C92.3670025,46.1604185 92.1911679,46.701607 92.4578092,47.2379079 C92.7242854,47.7742088 93.3325248,48.1024166 93.8161114,47.9710602 Z" id="Path" fill="#2842B6"/>
                        <path d="M114.333333,108 C112.538478,108 110.923044,107.823544 109.307738,107.647088 L107.333333,104.117721 L113.076871,102 L114.333333,108 Z" id="Path" fill="#111F7A"/>
                        <path d="M86.2776644,81 C88.4706111,76.4480322 90.2980666,72.8065096 91.0290488,71.8960644 C93.0391853,68.9829237 95.597623,69.164987 98.5215519,65.3414011 C101.445481,61.5176862 100.166327,62.2460682 99.2525341,58.0582268 C98.1560608,52.9600693 97.2423977,55.1449571 90.8462386,58.0582268 C87.7396289,59.5148617 83.7192267,63.1563843 79.3333333,67.5262889 C80.9779786,72.2603199 83.1709253,76.9943509 86.2776644,81 Z" id="Path" fill="#F4A880"/>
                        <path d="M79.2332696,68 C75.9932696,71.1621538 72.5733333,74.8514161 69.3333333,78.540554 C71.6732696,84.3378774 75.2732696,89.6080921 79.5932696,94 C81.9333333,89.081108 84.9932696,82.5810146 87.3333333,78.0135699 C84.2732696,75.2027389 81.3932696,71.8649237 79.2332696,68 Z" id="Path" fill="#111F7A"/>
                        <path d="M113.530635,47.0483302 C114.446059,52.6916265 112.798115,55.9684125 111.333333,57.6068055 C111.333333,57.6068055 117.741817,60.3375035 124.333333,58.1528935 C124.333333,58.1528935 122.685519,53.4198729 123.051714,46.8663008 C123.600943,40.3125998 113.530635,47.0483302 113.530635,47.0483302 Z" id="Path" fill="#F4A880"/>
                        <path d="M113.333333,53.8979536 C116.910292,54.4305828 120.675442,52.8325695 123.311046,50.169172 C123.311046,49.1039137 123.311046,48.0385295 123.311046,46.7956023 C123.875752,40.4035491 113.521657,46.9731454 113.521657,46.9731454 C114.086363,49.991629 113.898172,52.1223973 113.333333,53.8979536 Z" id="Path" fill="#08135A"/>
                        <path d="M127.305092,35.7625231 C127.659924,43.1232659 124.649119,49.4067928 119.513211,49.9453371 C112.074908,50.6633963 108.709899,44.2003547 108.355694,36.8397391 C108.001489,29.4789962 111.897743,23.1954694 117.033777,23.0159546 C122.34685,22.656925 126.774725,28.4017802 127.305092,35.7625231 Z" id="Path" fill="#F4A880"/>
                        <path d="M118.114603,29.9233098 C121.729766,29.5688478 123.898864,29.5688478 125.164235,30.2777719 C126.610301,31.1640525 126.790739,32.9364883 127.333333,32.9364883 C126.790739,24.7832336 121.36825,22.8335668 117.210876,23.0107978 C112.511164,23.1880288 107.992146,25.4921576 108.353663,34 C111.065099,33.822769 109.619034,31.5185146 112.691859,30.2777719 C113.595713,29.9233098 115.945505,30.1005408 118.114603,29.9233098 Z" id="Path" fill="#08135A"/>
                        <path d="M113.215014,37.2238723 C113.727264,39.5951214 112.532095,42.1356083 110.483337,42.8131595 C108.43458,43.4905907 106.898072,42.3050861 105.702903,39.5951214 C104.849314,37.3932301 105.361443,33.8364765 108.43458,34.0058343 C110.483337,34.175192 112.702885,34.6833854 113.215014,37.2238723 Z" id="Path" fill="#F4A880"/>
                        <path d="M122.381671,38.3737743 C122.035227,41.1631876 123.594284,43.5808285 125.672945,43.9527327 C127.751361,44.3246369 129.484191,42.4649841 130.177078,39.675439 C130.695824,37.0719779 130.002937,33.3526723 126.885436,34.0964807 C124.806775,34.654337 122.728114,35.7701814 122.381671,38.3737743 Z" id="Path" fill="#F4A880"/>
                        <path d="M124.333333,56 L117.833399,65 L111.333333,56.3674452 C113.747685,56.3674452 116.347685,56.1837877 119.504762,56.1837877 C120.990476,56.1837877 122.661971,56.1837877 124.333333,56 Z" id="Path" fill="#F4A880"/>
                        <path d="M111.333333,31 C110.261829,35.0272136 110.261981,38.7189647 109.404838,37.8798925 C108.547695,37.0409392 108.333333,33.6847694 108.333333,33.6847694 L111.333333,31 Z" id="Path" fill="#08135A"/>
                        <path d="M126.333333,31 C126.603916,33.5160936 126.468673,37 127.009359,37 C127.550524,37 127.28042,34.2902341 127.145369,32.7419532 C127.28042,31.3870702 126.333333,31 126.333333,31 Z" id="Path" fill="#08135A"/>
                    </g>
                </g>
            </g>
        </g>
    </g>
</svg>