<svg width="110" height="97" viewBox="0 0 110 97" fill="none" xmlns="http://www.w3.org/2000/svg">
<path d="M39 96.2693L43 79.7693H66L70 96.2693H39Z" fill="#082487"/>
<rect y="0.769287" width="110" height="81" rx="4" fill="#082487"/>
<path d="M4 9.76929C4 7.56015 5.79086 5.76929 8 5.76929H102C104.209 5.76929 106 7.56015 106 9.76929V62.7693H4V9.76929Z" fill="white"/>
<path d="M28.0938 27.3318L26.0625 31.488L21.4688 32.1443C20.6562 32.2693 20.3438 33.2693 20.9375 33.863L24.2188 37.0818L23.4375 41.613C23.3125 42.4255 24.1875 43.0505 24.9062 42.6755L29 40.5193L33.0625 42.6755C33.7812 43.0505 34.6562 42.4255 34.5312 41.613L33.75 37.0818L37.0312 33.863C37.625 33.2693 37.3125 32.2693 36.5 32.1443L31.9375 31.488L29.875 27.3318C29.5312 26.613 28.4688 26.5818 28.0938 27.3318Z" fill="#F6732F"/>
<path d="M54.0938 27.3318L52.0625 31.488L47.4688 32.1443C46.6562 32.2693 46.3438 33.2693 46.9375 33.863L50.2188 37.0818L49.4375 41.613C49.3125 42.4255 50.1875 43.0505 50.9062 42.6755L55 40.5193L59.0625 42.6755C59.7812 43.0505 60.6562 42.4255 60.5312 41.613L59.75 37.0818L63.0312 33.863C63.625 33.2693 63.3125 32.2693 62.5 32.1443L57.9375 31.488L55.875 27.3318C55.5312 26.613 54.4688 26.5818 54.0938 27.3318Z" fill="#F6732F"/>
<path d="M80.0938 27.3318L78.0625 31.488L73.4688 32.1443C72.6562 32.2693 72.3438 33.2693 72.9375 33.863L76.2188 37.0818L75.4375 41.613C75.3125 42.4255 76.1875 43.0505 76.9062 42.6755L81 40.5193L85.0625 42.6755C85.7812 43.0505 86.6562 42.4255 86.5312 41.613L85.75 37.0818L89.0312 33.863C89.625 33.2693 89.3125 32.2693 88.5 32.1443L83.9375 31.488L81.875 27.3318C81.5312 26.613 80.4688 26.5818 80.0938 27.3318Z" fill="#F6732F"/>
<circle cx="54" cy="70.7693" r="4" fill="white"/>
</svg>
