<svg width="18" height="22" viewBox="0 0 18 22" fill="none" xmlns="http://www.w3.org/2000/svg">
<path d="M16.3125 9.92188C16.5469 9.6875 16.5469 9.3125 16.3125 9.125L15.375 8.1875C15.1875 7.95312 14.8125 7.95312 14.5781 8.1875L10.1719 12.7344V1.0625C10.1719 0.78125 9.9375 0.5 9.60938 0.5H8.29688C8.01562 0.5 7.73438 0.78125 7.73438 1.0625V12.7344L3.375 8.1875C3.14062 7.95312 2.76562 7.95312 2.57812 8.1875L1.64062 9.125C1.40625 9.3125 1.40625 9.6875 1.64062 9.92188L8.57812 16.8594C8.8125 17.0938 9.14062 17.0938 9.375 16.8594L16.3125 9.92188ZM17.4375 19.0625H0.5625C0.234375 19.0625 0 19.3438 0 19.625V20.9375C0 21.2656 0.234375 21.5 0.5625 21.5H17.4375C17.7188 21.5 18 21.2656 18 20.9375V19.625C18 19.3438 17.7188 19.0625 17.4375 19.0625Z" fill="#B5BEEC"/>
</svg>
