<svg width="100" height="99" viewBox="0 0 100 99" fill="none" xmlns="http://www.w3.org/2000/svg">
<g opacity="0.5">
<path d="M39.6269 57.767L39.5981 57.2177C39.5513 56.3249 39.8101 55.485 40.2199 54.6372C40.831 53.2968 41.1257 51.6975 40.8919 50.126C40.2769 45.6133 35.8692 42.4012 30.9547 42.5211C26.4933 42.6172 20.5938 42.7198 20.5938 42.7198C14.3923 42.8382 10.1071 46.2993 9.66161 50.7986C9.51789 52.39 9.82716 53.9576 10.5031 55.2994C10.9238 56.1037 11.1971 56.9845 11.1683 57.8813L11.1971 58.4306C11.2116 60.1514 10.3848 61.7097 9.00799 62.8836C6.03501 65.3808 4.18016 68.9899 4.24151 73.0495L4.28846 76.8344C4.37157 84.1983 10.8826 89.9857 18.8241 89.845L33.1145 89.5092C40.9769 89.3038 47.3218 83.2557 47.2387 75.8919L47.1918 72.107C47.134 68.116 45.1314 64.5713 42.1293 62.1808C40.5546 61.0238 39.6378 59.4191 39.6269 57.767Z" fill="#DCE0F6"/>
</g>
<path d="M31.5746 56.9925C31.5229 53.8781 28.7063 51.4136 25.2835 51.4878C21.8608 51.5621 19.128 54.1469 19.1798 57.2612C19.2315 60.3756 22.0481 62.8401 25.4709 62.7659C28.8936 62.6917 31.6264 60.1068 31.5746 56.9925Z" fill="#2842B6"/>
<path d="M28.9173 52.7506L21.6588 52.9244L22.5192 10.1162L26.6787 10.036L28.9173 52.7506Z" fill="#6254E8"/>
<path d="M27.1124 0.992312L21.896 1.12797C20.99 1.17545 20.3429 1.82912 20.3861 2.65319L21.0158 11.7788C21.0302 12.0535 21.1165 12.2555 21.2783 12.4536L22.0944 13.5815C22.418 13.9777 22.8854 14.2287 23.4139 14.201L26.0598 14.1312C26.5883 14.1035 27.0305 13.8737 27.3109 13.4459L28.0837 12.3036C28.2239 12.0896 28.2886 11.8797 28.3497 11.601L28.7051 2.49266C28.7374 1.66463 27.9465 1.01746 27.1124 0.992312Z" fill="#6254E8"/>
<path d="M64.5739 40.5918L73.5544 62.0963C63.108 66.2665 52.4135 71.3501 41.5007 77.1798L32.5203 55.6753C41.093 50.9311 52.2956 45.8881 64.5739 40.5918Z" fill="white"/>
<path d="M45.1026 72.3764L45.0031 72.4532C44.6346 72.5935 44.3255 72.3991 44.2854 72.1413C44.2156 72.0509 39.2786 58.251 38.1507 56.3792C37.9412 56.1079 38.1001 55.6964 38.4686 55.5562C38.7672 55.3255 39.1758 55.443 39.2858 55.7912C40.384 57.8304 45.3105 71.2052 45.4606 71.8111C45.4309 71.9784 45.3017 72.2226 45.1026 72.3764Z" fill="#395DFF"/>
<path d="M47.3018 71.1111L47.2023 71.188C46.8338 71.3282 46.5247 71.1338 46.4846 70.876C46.4148 70.7856 41.4778 56.9858 40.3499 55.1139C40.1404 54.8426 40.2994 54.4311 40.6678 54.2909C40.9665 54.0602 41.3751 54.1778 41.485 54.5259C42.5832 56.5651 47.5097 69.9399 47.6599 70.5458C47.6301 70.7131 47.5009 70.9573 47.3018 71.1111Z" fill="#395DFF"/>
<path d="M49.505 69.8436L49.4054 69.9205C49.0369 70.0607 48.7279 69.8663 48.6877 69.6086C48.6179 69.5182 43.6809 55.7183 42.553 53.8464C42.3435 53.5751 42.5025 53.1637 42.8709 53.0234C43.1696 52.7928 43.5782 52.9103 43.6881 53.2585C44.7863 55.2977 49.7129 68.6725 49.863 69.2784C49.8333 69.4457 49.704 69.6899 49.505 69.8436Z" fill="#395DFF"/>
<path d="M84.2205 39.693L81.1299 37.7489C78.488 36.1802 74.8924 37.0804 72.863 39.8027L62.4487 54.9201C61.7711 54.8659 60.9941 54.8886 60.2868 55.0017C58.8427 55.3953 57.5783 56.2274 56.6631 57.5117L51.6996 64.6657C50.3269 66.5921 50.3197 69.0519 51.4772 70.7565L41.6497 84.9875C39.7897 87.7234 40.3814 91.1644 42.9935 92.9005L46.0842 94.8445C48.7261 96.4132 52.3217 95.513 54.3511 92.7907L85.4648 47.6828C87.4243 44.87 86.7629 41.3386 84.2205 39.693ZM52.6967 65.3393L57.6602 58.1853C57.9885 57.7874 58.3168 57.3894 58.715 57.0819C59.2127 56.6975 59.8798 56.3266 60.4875 56.2904C60.856 56.1502 61.2943 56.1004 61.6331 56.1275L52.2632 69.7164C51.6539 68.3102 51.682 66.7005 52.6967 65.3393Z" fill="#08135A"/>
</svg>
