<svg width="77" height="91" viewBox="0 0 77 91" fill="none" xmlns="http://www.w3.org/2000/svg">
<path fill-rule="evenodd" clip-rule="evenodd" d="M60.1624 20.2121L60.4189 18.4146L29.4111 13.0469L29.168 14.8453L28.9972 16.2938L28.4972 19.9031L28.0571 23.1347L25.161 43.726C22.5617 41.2961 18.7755 40.7334 15.7207 42.3231C11.7327 44.2284 9.8713 48.6269 11.6277 52.1661C13.3842 55.7052 18.0131 57.0132 22.001 55.1079C24.5205 53.9847 26.2856 51.6649 26.7199 48.906C26.8128 48.7663 26.8855 48.6135 26.9358 48.4522L30.3241 23.7151L56.6329 28.2522L53.7952 48.7002C51.1938 46.2704 47.4074 45.7053 44.3484 47.2901C40.3605 49.1955 38.4853 53.6064 40.2486 57.1393C42.0119 60.6722 46.6339 61.9865 50.6155 60.074C53.1356 58.9539 54.9031 56.6368 55.3407 53.8793C55.441 53.7457 55.5163 53.5944 55.5631 53.4326L58.9776 28.5165L59.4241 25.2919L59.9177 21.6755L60.1624 20.2121Z" fill="white"/>
<path d="M57.8724 72.898C59.3684 72.898 60.4574 72.645 61.1394 72.139C61.8214 71.633 62.1624 70.918 62.1624 69.994C62.1624 69.444 62.0414 68.971 61.7994 68.575C61.5794 68.179 61.2494 67.827 60.8094 67.519C60.3914 67.189 59.8744 66.892 59.2584 66.628C58.6424 66.342 57.9384 66.067 57.1464 65.803C56.3544 65.517 55.5844 65.209 54.8364 64.879C54.1104 64.527 53.4614 64.098 52.8894 63.592C52.3394 63.086 51.8884 62.481 51.5364 61.777C51.2064 61.073 51.0414 60.226 51.0414 59.236C51.0414 57.168 51.7564 55.551 53.1864 54.385C54.6164 53.197 56.5634 52.603 59.0274 52.603C60.4574 52.603 61.7224 52.768 62.8224 53.098C63.9444 53.406 64.8244 53.747 65.4624 54.121L64.1754 57.487C63.4274 57.069 62.6024 56.75 61.7004 56.53C60.8204 56.31 59.9074 56.2 58.9614 56.2C57.8394 56.2 56.9594 56.431 56.3214 56.893C55.7054 57.355 55.3974 58.004 55.3974 58.84C55.3974 59.346 55.4964 59.786 55.6944 60.16C55.9144 60.512 56.2114 60.831 56.5854 61.117C56.9814 61.403 57.4324 61.667 57.9384 61.909C58.4664 62.151 59.0384 62.382 59.6544 62.602C60.7324 62.998 61.6894 63.405 62.5254 63.823C63.3834 64.219 64.0984 64.703 64.6704 65.275C65.2644 65.825 65.7154 66.485 66.0234 67.255C66.3314 68.003 66.4854 68.916 66.4854 69.994C66.4854 72.062 65.7484 73.668 64.2744 74.812C62.8224 75.934 60.6884 76.495 57.8724 76.495C56.9264 76.495 56.0574 76.429 55.2654 76.297C54.4954 76.187 53.8024 76.044 53.1864 75.868C52.5924 75.692 52.0754 75.516 51.6354 75.34C51.1954 75.142 50.8434 74.966 50.5794 74.812L51.8004 71.413C52.3944 71.743 53.1974 72.073 54.2094 72.403C55.2214 72.733 56.4424 72.898 57.8724 72.898Z" fill="#FBB997"/>
<line x1="58.5" y1="54.2566" x2="58.5" y2="48.9966" stroke="#FBB997" stroke-width="3"/>
<line x1="58.5" y1="80.26" x2="58.5" y2="75" stroke="#FBB997" stroke-width="3"/>
</svg>
