<svg width="372" height="298" viewBox="0 0 372 298" fill="none" xmlns="http://www.w3.org/2000/svg">
<rect width="372" height="298" rx="4" fill="#34A466"/>
<mask id="mask0" mask-type="alpha" maskUnits="userSpaceOnUse" x="0" y="0" width="372" height="298">
<rect width="372" height="298" rx="4" fill="white"/>
</mask>
<g mask="url(#mask0)">
<path fill-rule="evenodd" clip-rule="evenodd" d="M498.915 206.44C475.647 149.642 446.56 -30.3078 349.251 -13.9538C251.942 2.40014 241.876 125.112 183.607 155.735C125.338 186.358 71.7254 141.73 12.4766 186.358C-46.7723 230.986 -30.4901 317 -30.4901 317L547 295.941C547 295.941 522.184 263.238 498.915 206.44Z" fill="#248D53"/>
<mask id="mask1" mask-type="alpha" maskUnits="userSpaceOnUse" x="-33" y="-15" width="580" height="332">
<path fill-rule="evenodd" clip-rule="evenodd" d="M498.915 206.44C475.647 149.642 446.56 -30.3078 349.251 -13.9538C251.942 2.40014 241.876 125.112 183.607 155.735C125.338 186.358 71.7254 141.73 12.4766 186.358C-46.7723 230.986 -30.4901 317 -30.4901 317L547 295.941C547 295.941 522.184 263.238 498.915 206.44Z" fill="white"/>
</mask>
<g mask="url(#mask1)">
<path opacity="0.246303" fill-rule="evenodd" clip-rule="evenodd" d="M370.949 9C370.949 9 478.827 44.3974 527.772 22.854C576.717 1.3106 648.636 169.591 550.746 119.255C452.857 68.9191 328.996 -18.708 349.973 43.0578C370.949 104.824 430.129 88.6605 422.909 114.06C415.689 139.459 316.51 101.13 295.534 68.9191C274.558 36.708 173.144 28.0493 242.594 119.255C312.044 210.46 224.114 242.786 274.558 298.78C325.001 354.773 244.092 146.683 334.989 175.397C425.887 204.111 466.241 485.809 410.354 354.773C354.468 223.737 300.907 159.636 312.954 229.208C321.277 277.275 368.306 390.447 408.035 432.706C425.81 451.613 442.124 456.325 452.857 434.664C487.58 364.586 398.533 203.533 446.863 174.382C495.194 145.231 568.7 228.355 601.689 152.735C634.678 77.1155 641.644 227.778 550.746 215.944C459.849 204.111 477.828 371.513 539.759 326.488C601.689 281.462 588.555 228.792 639.129 229C689.704 229.208 228.11 407.88 220.119 309.17C212.128 210.46 138.573 189.102 130.72 235.282C122.866 281.462 148.45 326.488 148.45 326.488C148.45 326.488 148.699 180.273 184.409 281.462C220.119 382.652 105.248 298.78 105.248 298.78C105.248 298.78 121.23 206.763 98.7557 199.953C76.2811 193.143 237.1 9 237.1 9L370.949 9Z" stroke="white"/>
</g>
</g>
</svg>
