<svg width="422" height="328" viewBox="0 0 422 328" fill="none" xmlns="http://www.w3.org/2000/svg">
<g filter="url(#filter0_d)">
<rect x="25" y="20" width="372" height="278" rx="4" fill="#6254E8"/>
</g>
<mask id="mask0" mask-type="alpha" maskUnits="userSpaceOnUse" x="25" y="20" width="372" height="278">
<rect x="25" y="20" width="372" height="278" rx="4" fill="white"/>
</mask>
<g mask="url(#mask0)">
<path fill-rule="evenodd" clip-rule="evenodd" d="M506.576 316.128C460.4 248.381 402.676 33.7413 209.565 53.2478C16.454 72.7544 -3.52124 219.122 -119.157 255.648C-234.792 292.174 -341.187 238.943 -458.767 292.174C-576.347 345.405 -544.034 448 -544.034 448L602 422.882C602 422.882 552.752 383.875 506.576 316.128Z" fill="#3E32B6"/>
<mask id="mask1" mask-type="alpha" maskUnits="userSpaceOnUse" x="-549" y="52" width="1151" height="396">
<path fill-rule="evenodd" clip-rule="evenodd" d="M506.576 316.128C460.4 248.381 402.676 33.7413 209.565 53.2478C16.454 72.7544 -3.52124 219.122 -119.157 255.648C-234.792 292.174 -341.187 238.943 -458.767 292.174C-576.347 345.405 -544.034 448 -544.034 448L602 422.882C602 422.882 552.752 383.875 506.576 316.128Z" fill="white"/>
</mask>
<g mask="url(#mask1)">
<path opacity="0.246303" fill-rule="evenodd" clip-rule="evenodd" d="M35.0643 52C35.0643 52 249.267 97.4535 346.452 69.7898C443.636 42.1261 586.438 258.213 392.069 193.577C197.7 128.942 -48.2368 16.4204 -6.58624 95.7333C35.0643 175.046 152.571 154.291 138.236 186.906C123.9 219.521 -73.0288 170.303 -114.679 128.942C-156.33 87.5796 -357.697 76.461 -219.797 193.577C-81.8978 310.693 -256.49 352.203 -156.33 424.103C-56.1702 496.004 -216.822 228.797 -36.3366 265.668C144.149 302.54 224.275 664.266 113.307 496.004C2.33886 327.742 -104.011 245.43 -80.0905 334.767C-63.564 396.489 29.8158 541.812 108.703 596.077C143.996 620.355 176.388 626.406 197.7 598.591C266.647 508.605 89.8355 301.799 185.8 264.366C281.764 226.933 427.718 333.672 493.22 236.569C558.723 139.467 572.555 332.931 392.069 317.735C211.583 302.54 247.284 517.5 370.252 459.683C493.22 401.866 467.142 334.233 567.562 334.5C667.982 334.767 -248.556 564.198 -264.423 437.446C-280.29 310.693 -426.34 283.267 -441.934 342.567C-457.528 401.866 -406.729 459.683 -406.729 459.683C-406.729 459.683 -406.233 271.93 -335.328 401.866C-264.423 531.803 -492.509 424.103 -492.509 424.103C-492.509 424.103 -460.776 305.946 -505.401 297.201C-550.027 288.456 -230.706 52 -230.706 52L35.0643 52Z" stroke="white"/>
</g>
</g>
<defs>
<filter id="filter0_d" x="0" y="0" width="422" height="328" filterUnits="userSpaceOnUse" color-interpolation-filters="sRGB">
<feFlood flood-opacity="0" result="BackgroundImageFix"/>
<feColorMatrix in="SourceAlpha" type="matrix" values="0 0 0 0 0 0 0 0 0 0 0 0 0 0 0 0 0 0 127 0"/>
<feOffset dy="5"/>
<feGaussianBlur stdDeviation="12.5"/>
<feColorMatrix type="matrix" values="0 0 0 0 0.384314 0 0 0 0 0.329412 0 0 0 0 0.909804 0 0 0 0.203944 0"/>
<feBlend mode="normal" in2="BackgroundImageFix" result="effect1_dropShadow"/>
<feBlend mode="normal" in="SourceGraphic" in2="effect1_dropShadow" result="shape"/>
</filter>
</defs>
</svg>
