<svg width="422" height="279" viewBox="0 0 422 279" fill="none" xmlns="http://www.w3.org/2000/svg">
<g filter="url(#filter0_d)">
<rect x="25" y="20" width="372" height="229" rx="4" fill="#F6732F"/>
<mask id="mask0" mask-type="alpha" maskUnits="userSpaceOnUse" x="25" y="20" width="372" height="229">
<rect x="25" y="20" width="372" height="229" rx="4" fill="white"/>
</mask>
<g mask="url(#mask0)">
<path fill-rule="evenodd" clip-rule="evenodd" d="M523.915 183.086C500.647 137.408 471.56 -7.31078 374.251 5.84135C276.942 18.9935 266.876 117.681 208.607 142.308C150.338 166.935 96.7254 131.045 37.4766 166.935C-21.7723 202.826 -5.49005 272 -5.49005 272L572 255.064C572 255.064 547.184 228.764 523.915 183.086Z" fill="#EC5D13"/>
<mask id="mask1" mask-type="alpha" maskUnits="userSpaceOnUse" x="-8" y="5" width="580" height="267">
<path fill-rule="evenodd" clip-rule="evenodd" d="M523.915 183.086C500.647 137.408 471.56 -7.31078 374.251 5.84135C276.942 18.9935 266.876 117.681 208.607 142.308C150.338 166.935 96.7254 131.045 37.4766 166.935C-21.7723 202.826 -5.49005 272 -5.49005 272L572 255.064C572 255.064 547.184 228.764 523.915 183.086Z" fill="white"/>
</mask>
<g mask="url(#mask1)">
<path opacity="0.246303" fill-rule="evenodd" clip-rule="evenodd" d="M396 29C396 29 504 59.6604 553 41C602 22.3396 674 168.1 576 124.5C478 80.9004 354 5 375 58.5C396 112 455.246 98 448.019 120C440.791 142 341.5 108.801 320.5 80.9004C299.5 53 197.972 45.5 267.5 124.5C337.028 203.5 249 231.5 299.5 280C350 328.5 269 148.257 360 173.129C451 198 491.399 442 435.45 328.5C379.5 215 325.879 159.477 337.94 219.739C346.272 261.373 393.354 359.4 433.128 396.004C450.923 412.38 467.255 416.462 478 397.7C512.763 337 423.615 197.5 472 172.25C520.385 147 593.974 219 627 153.5C660.026 88 667 218.5 576 208.25C485 198 503 343 565 304C627 265 613.851 219.379 664.483 219.559C715.114 219.739 253 374.5 245 289C237 203.5 163.362 185 155.5 225C147.638 265 173.25 304 173.25 304C173.25 304 173.5 177.352 209.25 265C245 352.648 130 280 130 280C130 280 146 200.298 123.5 194.399C101 188.5 262 29 262 29L396 29Z" stroke="white"/>
</g>
</g>
</g>
<defs>
<filter id="filter0_d" x="0" y="0" width="422" height="279" filterUnits="userSpaceOnUse" color-interpolation-filters="sRGB">
<feFlood flood-opacity="0" result="BackgroundImageFix"/>
<feColorMatrix in="SourceAlpha" type="matrix" values="0 0 0 0 0 0 0 0 0 0 0 0 0 0 0 0 0 0 127 0"/>
<feOffset dy="5"/>
<feGaussianBlur stdDeviation="12.5"/>
<feColorMatrix type="matrix" values="0 0 0 0 0.384314 0 0 0 0 0.329412 0 0 0 0 0.909804 0 0 0 0.2 0"/>
<feBlend mode="normal" in2="BackgroundImageFix" result="effect1_dropShadow"/>
<feBlend mode="normal" in="SourceGraphic" in2="effect1_dropShadow" result="shape"/>
</filter>
</defs>
</svg>
