<?xml version="1.0" encoding="UTF-8"?>
<svg width="140px" height="140px" viewBox="0 0 140 140" version="1.1" xmlns="http://www.w3.org/2000/svg" xmlns:xlink="http://www.w3.org/1999/xlink">
    <title>Group</title>
    <g id="Page-1" stroke="none" stroke-width="1" fill="none" fill-rule="evenodd">
        <g id="Group">
            <rect id="Rectangle" fill="#FCA58C" x="0" y="0" width="140" height="140" rx="25"></rect>
            <g id="iconfinder_money-2_322464" transform="translate(46.000000, 55.000000)" fill="#FFFFFF" fill-rule="nonzero">
                <path d="M0,0 L0,30 L48,30 L48,0 L0,0 Z M45,27 L3,27 L3,3 L45,3 L45,27 Z M9,25.5 L20.439,25.5 C18.1035,23.469 16.5,19.5525 16.5,15 C16.5,10.4475 18.1035,6.531 20.439,4.5 L9,4.5 C9,6.987 6.984,9 4.5,9 L4.5,21 C6.984,21 9,23.013 9,25.5 Z M11.25,12.75 C12.492,12.75 13.5,13.758 13.5,15 C13.5,16.242 12.492,17.25 11.25,17.25 C10.008,17.25 9,16.242 9,15 C9,13.758 10.008,12.75 11.25,12.75 Z M27.5595,25.5 L39,25.5 C39,23.013 41.016,21 43.5,21 L43.5,9 C41.016,9 39,6.987 39,4.5 L27.5595,4.5 C29.898,6.531 31.5,10.4475 31.5,15 C31.5,19.5525 29.898,23.469 27.5595,25.5 Z M36.75,12.75 C37.992,12.75 39,13.758 39,15 C39,16.242 37.992,17.25 36.75,17.25 C35.508,17.25 34.5,16.242 34.5,15 C34.5,13.758 35.508,12.75 36.75,12.75 Z M20.25,13.5 C20.25,15.1545 21.594,15.75 22.5,15.75 L23.25,15.75 L23.25,18.75 L21,18.75 C20.5875,18.75 20.25,19.089 20.25,19.5 C20.25,19.911 20.5875,20.25 21,20.25 L23.25,20.25 L23.25,21 C23.25,21.411 23.5875,21.75 24,21.75 C24.4125,21.75 24.75,21.411 24.75,21 L24.75,20.25 L25.5,20.25 C26.406,20.25 27.75,19.6545 27.75,18 L27.75,16.5 C27.75,14.8455 26.406,14.25 25.5,14.25 L24.75,14.25 L24.75,11.25 L27,11.25 C27.4125,11.25 27.75,10.911 27.75,10.5 C27.75,10.089 27.4125,9.75 27,9.75 L24.75,9.75 L24.75,9 C24.75,8.589 24.4125,8.25 24,8.25 C23.5875,8.25 23.25,8.589 23.25,9 L23.25,9.75 L22.5,9.75 C21.594,9.75 20.25,10.3455 20.25,12 L20.25,13.5 Z M24.75,15.75 L25.5,15.75 C25.8375,15.759 26.25,15.8985 26.25,16.5 L26.25,18 C26.25,18.6015 25.8375,18.741 25.5,18.75 L24.75,18.75 L24.75,15.75 Z M21.75,12 C21.75,11.3985 22.1625,11.259 22.5,11.25 L23.25,11.25 L23.25,14.25 L22.5,14.25 C22.1625,14.241 21.75,14.1015 21.75,13.5 L21.75,12 Z" id="Shape"></path>
            </g>
        </g>
    </g>
</svg>