<svg width="17" height="17" viewBox="0 0 17 17" fill="none" xmlns="http://www.w3.org/2000/svg">
<path d="M16.0801 15.2766L12.2988 11.4954C12.2051 11.4329 12.1113 11.3704 12.0176 11.3704H11.6113C12.5801 10.2454 13.2051 8.74536 13.2051 7.12036C13.2051 3.55786 10.2676 0.620361 6.70508 0.620361C3.11133 0.620361 0.205078 3.55786 0.205078 7.12036C0.205078 10.7141 3.11133 13.6204 6.70508 13.6204C8.33008 13.6204 9.79883 13.0266 10.9551 12.0579V12.4641C10.9551 12.5579 10.9863 12.6516 11.0488 12.7454L14.8301 16.5266C14.9863 16.6829 15.2363 16.6829 15.3613 16.5266L16.0801 15.8079C16.2363 15.6829 16.2363 15.4329 16.0801 15.2766ZM6.70508 12.1204C3.92383 12.1204 1.70508 9.90161 1.70508 7.12036C1.70508 4.37036 3.92383 2.12036 6.70508 2.12036C9.45508 2.12036 11.7051 4.37036 11.7051 7.12036C11.7051 9.90161 9.45508 12.1204 6.70508 12.1204Z" fill="white"/>
</svg>
