<svg width="18" height="24" viewBox="0 0 18 24" fill="none" xmlns="http://www.w3.org/2000/svg">
<path d="M17.2969 4.59375L13.4062 0.65625C12.9844 0.234375 12.375 0 11.8125 0H2.25C0.984375 0 0 1.03125 0 2.25V21.75C0 23.0156 0.984375 24 2.25 24H15.75C16.9688 24 18 23.0156 18 21.75V6.1875C18 5.625 17.7188 5.01562 17.2969 4.59375ZM15.5625 6H12V2.4375L15.5625 6ZM2.25 21.75V2.25H9.75V7.125C9.75 7.78125 10.2188 8.25 10.875 8.25H15.75V21.75H2.25ZM13.9688 15.0469C13.4062 14.4844 11.7656 14.625 10.9219 14.7188C10.125 14.25 9.60938 13.5469 9.23438 12.5625C9.375 11.8125 9.70312 10.6406 9.46875 9.9375C9.28125 8.71875 7.6875 8.8125 7.45312 9.65625C7.26562 10.4062 7.45312 11.4844 7.78125 12.7969C7.3125 13.9219 6.60938 15.4219 6.14062 16.3125C5.20312 16.7812 3.9375 17.5312 3.75 18.4688C3.60938 19.2188 4.96875 21.0469 7.3125 17.0156C8.34375 16.6406 9.51562 16.2188 10.5 16.0312C11.3906 16.5469 12.4219 16.8281 13.125 16.8281C14.3438 16.8281 14.4375 15.5156 13.9688 15.0469ZM4.6875 18.7031C4.92188 18.0469 5.8125 17.2969 6.09375 17.0625C5.20312 18.4688 4.6875 18.7031 4.6875 18.7031ZM8.48438 9.75C8.85938 9.75 8.8125 11.25 8.57812 11.6719C8.39062 11.0156 8.39062 9.75 8.48438 9.75ZM7.35938 16.1719C7.82812 15.375 8.20312 14.4375 8.53125 13.5938C8.90625 14.2969 9.375 14.8594 9.9375 15.2344C8.95312 15.4688 8.10938 15.8438 7.35938 16.1719ZM13.5 15.9375C13.5 15.9375 13.2656 16.2188 11.7656 15.5625C13.4062 15.4219 13.6875 15.7969 13.5 15.9375Z" fill="#F6732F"/>
</svg>
