<svg width="90" height="69" viewBox="0 0 90 69" fill="none" xmlns="http://www.w3.org/2000/svg">
    <defs>
        <linearGradient id="gradient" x1="0%" y1="0%" x2="100%" y2="0%">
            <stop offset="0%" stop-color="#F6732F"/>
            <stop offset="100%" stop-color="#54C052" />
          </linearGradient>
    </defs>
<path fill-rule="evenodd" clip-rule="evenodd" d="M11.6699 63.4227C9.00199 58.1705 7.49362 52.2066 7.49327 45.8835C7.49257 24.8275 24.1565 7.76564 44.8077 7.68205C65.5698 7.59776 82.4266 24.7329 82.4266 45.8821C82.4266 52.2027 80.9204 58.1637 78.2542 63.4141C76.9607 65.9618 78.7611 68.9999 81.5748 68.9999C82.9757 68.9999 84.2608 68.2036 84.9051 66.9353C88.165 60.5197 89.9831 53.2203 89.9183 45.4809C89.709 20.547 69.723 0.209424 45.2675 0.0426147C20.2959 -0.127751 0.000244141 20.4606 0.000244141 45.8821C0.000244141 53.4707 1.81036 60.6271 5.01234 66.9306C5.65769 68.2007 6.94245 68.9999 8.34548 68.9999C11.1547 68.9999 12.9623 65.9661 11.6699 63.4227Z" fill="url(#gradient)"/>
</svg>
