<svg width="298" height="258" viewBox="0 0 298 258" fill="none" xmlns="http://www.w3.org/2000/svg">
<path d="M197.57 164.898C169.989 230.026 132.014 233.857 83.6435 176.39C11.0879 90.1902 117.954 101.608 90.7384 163.838C72.595 205.325 47.8228 210.78 16.4219 180.201" stroke="#F6732F" stroke-linecap="round" stroke-linejoin="round" stroke-dasharray="5 5"/>
<path fill-rule="evenodd" clip-rule="evenodd" d="M196.359 170.992L249.898 92.5844V55.8871L206.109 120.375L196.359 170.992Z" fill="#B14F1C"/>
<path fill-rule="evenodd" clip-rule="evenodd" d="M122.068 89.2823L296.736 0L272.851 149.385L206.109 120.375L249.898 55.8871L174.386 111.208L122.068 89.2823Z" fill="#F2F4FD"/>
<path fill-rule="evenodd" clip-rule="evenodd" d="M174.386 111.208L196.359 170.992L206.109 120.375L249.898 55.8871L174.386 111.208Z" fill="#D35E21"/>
<path fill-rule="evenodd" clip-rule="evenodd" d="M260.3 142.946L272.851 149.385L297.067 0L260.3 142.946Z" fill="#DCE0F6"/>
</svg>
