<svg xmlns="http://www.w3.org/2000/svg" width="90" height="96" viewBox="0 0 90 96" fill="none">
<mask id="mask0" mask-type="alpha" maskUnits="userSpaceOnUse" x="0" y="0" width="90" height="69">
<path fill-rule="evenodd" clip-rule="evenodd" d="M0.000244141 0.041626H89.9198V68.9999H0.000244141V0.041626Z" fill="white"/>
</mask>
<g mask="url(#mask0)">
<path fill-rule="evenodd" clip-rule="evenodd" d="M11.6699 63.4227C9.00199 58.1705 7.49362 52.2066 7.49327 45.8835C7.49257 24.8275 24.1565 7.76564 44.8077 7.68205C65.5698 7.59776 82.4266 24.7329 82.4266 45.8821C82.4266 52.2027 80.9204 58.1637 78.2542 63.4141C76.9607 65.9618 78.7611 68.9999 81.5748 68.9999C82.9757 68.9999 84.2608 68.2036 84.9051 66.9353C88.165 60.5197 89.9831 53.2203 89.9183 45.4809C89.709 20.547 69.723 0.209424 45.2675 0.0426147C20.2959 -0.127751 0.000244141 20.4606 0.000244141 45.8821C0.000244141 53.4707 1.81036 60.6271 5.01234 66.9306C5.65769 68.2007 6.94245 68.9999 8.34548 68.9999C11.1547 68.9999 12.9623 65.9661 11.6699 63.4227Z" fill="white"/>
</g>
<mask id="mask1" mask-type="alpha" maskUnits="userSpaceOnUse" x="0" y="0" width="65" height="69">
<path fill-rule="evenodd" clip-rule="evenodd" d="M0 0.041626H64.861V68.9998H0V0.041626Z" fill="white"/>
</mask>
<g mask="url(#mask1)">
<path fill-rule="evenodd" clip-rule="evenodd" d="M64.861 7.34162C64.861 5.82895 63.9854 4.45855 62.6311 3.85214C57.248 1.44247 51.3225 0.0852341 45.1062 0.0425537C20.2233 -0.127812 0 20.4605 0 45.882C0 53.4336 1.78628 60.5573 4.94765 66.8381C5.58826 68.11 6.8462 68.9735 8.24422 68.9992C11.0844 69.0514 12.927 65.9877 11.6284 63.4226C8.96965 58.1704 7.46701 52.2069 7.46666 45.8838C7.46561 24.8029 24.5627 7.48175 45.1642 7.68341C50.319 7.73392 55.2236 8.85321 59.6773 10.8357C62.1257 11.9255 64.861 10.0735 64.861 7.34162Z" fill="url(#paint0_linear)"/>
</g>





<defs>
<linearGradient id="paint0_linear" x1="34.1347" y1="-21.7756" x2="-22.8207" y2="31.5912" gradientUnits="userSpaceOnUse">
<stop stop-color="#54C052"/>
<stop offset="1" stop-color="#F6732F"/>
</linearGradient>
</defs>
</svg>