<svg xmlns="http://www.w3.org/2000/svg" xmlns:xlink="http://www.w3.org/1999/xlink" width="264px" height="264px" viewBox="0 0 264 264" version="1.1">
    <title>FB270662-DA9A-4CC4-B998-9728B2CB6D81</title>
    <g id="Front" stroke="none" stroke-width="1" fill="none" fill-rule="evenodd">
        <g id="How-it-works" transform="translate(-80.000000, -2103.000000)" fill-rule="nonzero">
            <g id="get_ready.d54b6cff" transform="translate(80.000000, 2103.000000)">
                <path d="M263.890786,132.401 C263.890786,136.497143 263.712857,140.771214 263.355738,144.866095 C263.17781,146.112857 263.17781,147.359619 262.999881,148.78431 C262.999881,149.496024 262.821952,150.209 262.642762,151.098643 C262.464833,152.167476 262.286905,153.235048 262.108976,154.303881 C261.929786,155.194786 261.751857,156.084429 261.573929,156.975333 C261.573929,157.509119 261.396,158.042905 261.21681,158.577952 C261.038881,159.467595 260.860952,160.3585 260.683024,161.248143 C260.683024,161.427333 260.683024,161.78319 260.503833,161.961119 C260.325905,163.029952 259.970048,164.275452 259.612929,165.344286 C259.612929,165.522214 259.435,165.878071 259.435,166.056 C259.257071,166.768976 259.077881,167.658619 258.899952,168.371595 C258.722024,169.261238 258.364905,170.152143 258.186976,171.043048 C258.186976,171.220976 258.186976,171.220976 258.009048,171.398905 C257.651929,172.466476 257.296071,173.53531 257.118143,174.426214 C257.118143,174.604143 257.118143,174.604143 256.938952,174.604143 C256.225976,176.740548 255.513,178.876952 254.622095,181.014619 C254.087048,182.261381 253.553262,183.506881 253.018214,184.753643 C252.483167,185.822476 252.12731,186.890048 251.592262,187.958881 C251.592262,188.13681 251.414333,188.314738 251.414333,188.314738 C250.344238,190.452405 249.275405,192.766738 248.20531,194.725214 C248.027381,195.082333 247.849452,195.260262 247.670262,195.616119 C247.136476,196.684952 246.4235,197.930452 245.710524,198.999286 C244.997548,200.246048 244.105381,201.670738 243.392405,202.916238 C242.858619,203.985071 242.145643,204.875976 241.432667,205.765619 C240.897619,206.656524 240.362571,207.368238 239.827524,208.259143 C239.827524,208.259143 239.827524,208.437071 239.649595,208.437071 C238.936619,209.505905 238.223643,210.573476 237.510667,211.464381 C236.79769,212.531952 235.906786,213.600786 235.19381,214.49169 C235.19381,214.49169 235.19381,214.49169 235.19381,214.669619 C234.302905,215.73719 233.589929,216.806024 232.697762,217.696929 C231.806857,218.586571 230.915952,219.655405 230.025048,220.724238 C229.132881,221.79181 228.241976,222.682714 227.351071,223.572357 C226.460167,224.463262 225.568,225.532095 224.499167,226.421738 C223.608262,227.312643 222.716095,228.202286 221.647262,229.09319 C221.647262,229.09319 221.647262,229.09319 221.469333,229.271119 C220.399238,230.160762 219.508333,231.051667 218.438238,231.942571 C216.121381,233.901048 213.982452,235.681595 211.665595,237.462143 C210.5955,238.353048 209.526667,239.064762 208.278643,239.955667 C207.030619,240.84531 205.604667,241.736214 204.357905,242.625857 C203.28781,243.338833 202.396905,243.872619 201.32681,244.584333 C200.970952,244.941452 200.435905,245.119381 200.080048,245.29731 C198.119048,246.544071 195.980119,247.611643 194.019119,248.680476 C192.950286,249.214262 191.88019,249.74931 190.989286,250.283095 C187.780262,251.885714 184.750429,253.310405 181.364738,254.557167 C180.651762,254.913024 179.759595,255.268881 179.046619,255.44681 C178.511571,255.624738 177.798595,255.981857 177.26481,256.159786 C176.373905,256.515643 175.659667,256.693571 174.768762,257.049429 C173.520738,257.405286 172.451905,257.940333 171.203881,258.29619 C171.025952,258.29619 170.848024,258.474119 170.668833,258.474119 C170.668833,258.474119 170.668833,258.474119 170.490905,258.474119 C170.312976,258.474119 169.955857,258.652048 169.777929,258.652048 C169.422071,258.652048 169.242881,258.829976 168.887024,258.829976 C167.996119,259.007905 167.105214,259.365024 166.213048,259.542952 C163.718262,260.254667 161.044286,260.789714 158.548238,261.3235 C156.40931,261.857286 154.271643,262.213143 151.953524,262.570262 C147.854857,263.104048 143.754929,263.637833 139.655,263.815762 C137.158952,263.994952 134.664167,263.994952 131.99019,263.994952 C131.099286,263.994952 130.02919,263.994952 129.138286,263.994952 C126.286381,263.994952 123.256548,263.815762 120.582824,263.459905 C119.335179,263.281976 117.909226,263.281976 116.661455,263.104048 C113.453062,262.74819 110.244669,262.213143 107.214583,261.679357 C106.679788,261.501429 105.966812,261.501429 105.432143,261.3235 C103.471395,260.967643 101.688955,260.432595 99.7283333,260.076738 C99.1935381,259.89881 98.4805619,259.720881 97.9458929,259.542952 C95.8069643,259.007905 93.6680357,258.29619 91.5291071,257.584476 C90.816131,257.405286 90.1031548,257.049429 89.2118714,256.8715 C88.1424071,256.515643 86.8947619,255.981857 85.8252976,255.624738 C85.1123214,255.268881 84.3993452,255.090952 83.686369,254.735095 C82.7950857,254.379238 82.0821095,254.022119 81.1909524,253.666262 C80.299669,253.310405 79.2302048,252.776619 78.3390476,252.4195 C77.8042524,252.241571 77.0912762,251.885714 76.5566071,251.529857 C76.0218119,251.351929 75.3088357,250.99481 74.7741667,250.638952 C73.8828833,250.283095 72.9917262,249.74931 72.1004429,249.39219 C71.5657738,249.214262 71.2092857,249.036333 70.8527976,248.680476 C70.3180024,248.502548 69.9615143,248.14669 69.6050262,247.968762 C68.89205,247.611643 68.1790738,247.255786 67.6444048,246.899929 C66.7531214,246.366143 65.8619643,245.831095 64.970681,245.29731 C64.2577048,244.941452 63.5447286,244.406405 62.8317524,244.050548 C62.1187762,243.69469 61.4058,243.160905 60.6928238,242.803786 C60.1581548,242.447929 59.6233595,242.092071 59.0886905,241.736214 C57.6627381,240.667381 56.0584786,239.776476 54.6325262,238.708905 C53.741369,237.995929 52.6719048,237.284214 51.7806214,236.571238 C50.8894643,235.859524 49.82,235.14781 48.9287167,234.256905 C46.7897881,232.476357 44.8291667,230.873738 42.868419,228.915262 C42.33375,228.380214 41.7989548,228.024357 41.4424667,227.490571 C40.7294905,226.777595 40.0165143,226.065881 39.3035381,225.352905 C38.412381,224.64119 37.6994048,223.750286 36.9864286,222.860643 C36.6299405,222.504786 36.4516333,222.326857 36.0951452,221.969738 C35.7386571,221.613881 35.382169,221.258024 35.2039881,220.902167 C34.8475,220.545048 34.6691929,220.367119 34.4910119,220.011262 C33.7780357,219.299548 33.0650595,218.408643 32.3520833,217.519 C31.9955952,216.983952 31.6391071,216.628095 31.1043119,216.09431 C30.926131,215.916381 30.926131,215.73719 30.7478238,215.73719 C30.5696429,215.381333 30.2131548,215.203405 30.0348476,214.847548 C29.3218714,213.956643 28.6088952,213.244929 28.0742262,212.354024 C27.36125,211.464381 26.8264548,210.751405 26.2917857,209.861762 C26.1134786,209.683833 25.9352976,209.326714 25.7569905,209.148786 C25.2223214,208.615 24.8658333,207.903286 24.5093452,207.368238 C24.5093452,207.368238 24.3310381,207.19031 24.3310381,207.012381 C23.796369,206.300667 23.439881,205.58769 22.9050857,205.053905 C22.3704167,204.340929 22.0139286,203.629214 21.4791333,202.916238 C21.1226452,202.382452 20.9444643,202.026595 20.5879762,201.49281 C20.5879762,201.49281 20.409669,201.313619 20.409669,201.13569 C19.875,200.246048 19.3402048,199.355143 18.8055357,198.4655 C13.1017262,188.849786 8.82385643,178.521095 5.61546357,167.658619 C2.40707071,156.262357 0.624636548,144.154381 0.624636548,131.689286 C0.624636548,100.34925 11.4975171,71.6801619 29.8566667,49.0654405 C30.3913357,48.3530952 31.1043119,47.6408762 31.6391071,46.928531 C34.6691929,43.1891286 38.0558929,39.8058357 41.4424667,36.6005976 C45.898631,32.3269048 50.7111571,28.2313929 55.7019905,24.669919 C77.2695833,9.17798119 103.827883,0.096464 132.525238,0.096464 C154.092452,0.096464 174.412905,5.26046095 192.23731,14.3419857 C193.306143,14.87615 194.554167,15.5884952 195.623,16.1226595 C213.447405,25.7383738 228.777024,39.4497262 240.362571,56.010081 C240.897619,56.9003548 241.610595,57.7907548 242.145643,58.5029738 C246.24431,64.5573405 249.80919,70.9678167 252.840286,77.5563476 C257.474,87.8844071 260.860952,99.1027405 262.821952,110.677183 C263.355738,118.156114 263.890786,125.100755 263.890786,132.401 Z" id="Path" fill="#F9E8DF"/>
                <path d="M177.798595,50.6680595 C177.798595,50.6680595 139.119952,50.8461143 107.036276,51.024169 C106.501481,51.024169 105.788631,51.024169 105.253836,51.024169 C84.5775262,51.024169 67.1096095,51.024169 65.6836571,50.6680595 L29.3218714,49.7776595 C29.8566667,49.0654405 30.5696429,48.3530952 31.1043119,47.6408762 C34.1345238,43.9014738 37.5210976,40.5180548 40.9077976,37.3128167 C48.5722286,33.5734143 56.9497619,29.1216667 64.4360119,24.4918643 C82.9732667,12.9174214 91.528981,28.9436119 105.432017,23.7796452 C105.966812,23.6015905 106.679788,23.245481 107.214457,23.0674262 C108.996898,22.1770262 110.957645,20.9305167 113.096574,19.1498429 C114.166038,18.259569 115.057195,17.5472238 116.12666,16.8350048 C117.017943,16.1226595 118.087407,15.5884952 118.978564,15.054331 C127.712333,10.4244781 136.625167,11.1367602 143.754929,15.054331 C144.823762,15.5884952 145.714667,16.1226595 146.784762,16.8350048 C152.488571,20.7524619 156.944357,26.450719 158.905357,32.6831405 C164.252048,48.709331 177.798595,50.6680595 177.798595,50.6680595 Z" id="Path" fill="#FFFFFF"/>
                <path d="M262.286905,111.211348 C258.186976,111.211348 254.087048,111.211348 249.988381,111.211348 C247.136476,111.211348 244.284571,111.211348 241.610595,111.211348 L239.827524,111.211348 C235.728857,111.211348 231.628929,111.211348 227.886119,111.033293 C224.321238,111.033293 220.934286,111.033293 218.082381,110.855238 C213.626595,110.855238 209.882524,110.677183 207.387738,110.677183 C206.674762,110.677183 205.961786,110.677183 205.604667,110.677183 C204.89169,110.677183 204.357905,110.677183 204.178714,110.499129 L192.950286,110.142893 L191.167214,110.142893 L184.215381,109.964838 L179.046619,109.786783 L175.125881,109.608729 L165.500071,109.430674 L153.023619,109.074564 L152.488571,109.074564 C152.488571,109.074564 152.6665,109.074564 153.023619,108.89651 C154.449571,108.362219 158.37031,106.7596 163.718262,104.444762 C166.390976,103.198252 169.422071,101.951743 172.629833,100.349124 C173.877857,99.8149595 175.125881,99.2807952 176.372643,98.56845 C177.085619,98.2123405 177.977786,97.856231 178.86869,97.3219405 C181.542667,96.0755571 184.394571,94.6509929 187.246476,93.0483738 C188.672429,92.3360286 189.91919,91.6238095 191.345143,90.9114643 C192.593167,90.1992452 193.663262,89.665081 194.910024,88.9527357 C195.80219,88.4185714 196.693095,87.884281 197.761929,87.3501167 C199.545,86.2816619 201.506,85.2133333 203.109881,84.1448786 C219.86419,73.6388905 228.419905,85.7474976 240.184643,84.3229333 C240.71969,84.3229333 241.432667,84.1448786 241.966452,83.9668238 C244.997548,83.2546048 248.20531,81.6519857 251.77019,78.6248024 C252.12731,78.4466214 252.305238,78.0905119 252.661095,77.9124571 C256.938952,88.5966262 260.325905,99.6369048 262.286905,111.211348 Z" id="Path" fill="#FFFFFF"/>
                <path d="M263.355738,144.866095 C261.21681,167.302762 253.553262,187.958881 241.610595,205.765619 C241.075548,206.656524 240.5405,207.368238 240.006714,208.259143 L239.827524,208.437071 C239.114548,209.505905 238.401571,210.573476 237.688595,211.464381 C236.975619,212.533214 236.084714,213.600786 235.371738,214.49169 C235.371738,214.49169 235.371738,214.49169 235.19381,214.669619 C234.302905,215.738452 233.589929,216.806024 232.697762,217.696929 C231.806857,218.586571 230.915952,219.655405 230.025048,220.724238 C229.132881,221.79181 228.241976,222.682714 227.351071,223.572357 C226.460167,224.463262 225.390071,225.532095 224.499167,226.421738 C223.608262,227.312643 222.716095,228.202286 221.647262,229.09319 C221.647262,229.09319 221.647262,229.09319 221.469333,229.271119 C220.399238,230.162024 219.508333,231.051667 218.438238,231.942571 C217.369405,232.832214 216.121381,233.901048 215.052548,234.79069 C213.982452,235.681595 212.734429,236.5725 211.487667,237.462143 C210.417571,238.353048 209.348738,239.064762 208.278643,239.955667 C208.100714,240.133595 207.922786,240.133595 207.743595,240.311524 C206.674762,241.023238 205.426738,241.914143 204.357905,242.625857 C193.306143,226.777595 176.729762,197.04081 180.294643,165.344286 C185.285476,118.512224 231.984786,85.3915143 231.984786,85.3915143 C231.984786,85.3915143 235.19381,88.9528619 239.827524,95.3633381 C240.362571,96.0755571 241.075548,96.9659571 241.610595,97.8563571 C249.096214,108.5404 258.722024,125.456738 263.355738,144.866095 Z" id="Path" fill="#FCA58C"/>
                <path d="M225.925119,131.511357 C225.390071,131.511357 225.034214,131.1555 225.034214,130.620452 C225.034214,130.264595 225.034214,121.361352 228.599095,100.705486 C228.599095,100.171195 229.132881,99.8150857 229.667929,99.9931405 C230.202976,99.9931405 230.558833,100.527431 230.380905,101.061595 C226.816024,121.717588 226.816024,130.620452 226.816024,130.799643 C226.816024,131.1555 226.460167,131.511357 225.925119,131.511357 Z" id="Path" fill="#FFFFFF"/>
                <path d="M226.460167,123.498136 C226.103048,123.498136 225.925119,123.320081 225.74719,122.963971 C225.74719,122.963971 220.934286,114.060476 215.230476,109.430674 C214.873357,109.074564 214.873357,108.5404 215.052548,108.18429 C215.408405,107.828055 215.943452,107.828055 216.29931,108.00611 C222.18231,112.992021 226.993952,121.717462 227.173143,122.073571 C227.351071,122.429681 227.173143,122.963971 226.816024,123.320081 C226.816024,123.498136 226.638095,123.498136 226.460167,123.498136 Z" id="Path" fill="#FFFFFF"/>
                <path d="M201.328071,244.406405 C200.970952,244.763524 200.435905,244.941452 200.080048,245.119381 C198.119048,246.366143 195.980119,247.433714 194.019119,248.502548 C192.950286,249.036333 191.88019,249.571381 190.989286,250.105167 C187.781524,251.707786 184.750429,253.132476 181.364738,254.379238 C180.651762,254.735095 179.759595,255.090952 179.046619,255.268881 C178.512833,255.44681 177.799857,255.802667 177.26481,255.981857 C176.373905,256.337714 175.659667,256.515643 174.768762,256.8715 C173.520738,257.227357 172.451905,257.762405 171.203881,258.118262 C171.025952,258.118262 170.848024,258.29619 170.670095,258.29619 C170.670095,258.29619 170.670095,258.29619 170.490905,258.29619 C170.312976,258.29619 169.957119,258.474119 169.777929,258.474119 C169.422071,258.474119 169.244143,258.652048 168.887024,258.829976 C167.996119,259.007905 167.105214,259.365024 166.213048,259.542952 C163.718262,260.254667 161.044286,260.789714 158.5495,261.3235 C156.410571,261.857286 154.271643,262.213143 151.953524,262.570262 C147.854857,263.104048 143.754929,263.637833 139.655,263.815762 C137.160214,263.994952 134.664167,263.994952 131.99019,263.994952 C131.099286,263.994952 130.030452,263.994952 129.138286,263.994952 C117.731045,229.449048 133.238214,190.630333 133.238214,190.630333 C133.238214,190.630333 181.185548,203.629214 199.545,240.133595 C200.080048,241.736214 200.793024,242.981714 201.328071,244.406405 Z" id="Path" fill="#2842B6"/>
                <path d="M170.490905,258.29619 C170.490905,258.474119 170.490905,258.474119 170.490905,258.29619 C170.490905,258.474119 170.490905,258.474119 170.490905,258.29619 C170.135048,258.474119 169.957119,258.474119 169.6,258.652048 C169.244143,258.652048 169.064952,258.829976 168.709095,259.007905 C159.796262,239.776476 147.854857,215.381333 136.090119,197.930452 C135.734262,197.574595 135.91219,197.04081 136.268048,196.684952 C136.625167,196.505762 137.160214,196.505762 137.516071,196.862881 C149.458738,214.49169 161.579333,239.064762 170.490905,258.29619 Z" id="Path" fill="#FFFFFF"/>
                <path d="M153.736595,241.736214 L153.557405,241.736214 C142.684833,238.886833 132.703167,240.489452 132.525238,240.489452 C131.99019,240.667381 131.634333,240.311524 131.455143,239.776476 C131.455143,239.24269 131.634333,238.886833 132.168119,238.708905 C132.525238,238.708905 142.506905,236.928357 153.914524,239.954405 C154.449571,240.133595 154.6275,240.489452 154.6275,241.023238 C154.6275,241.379095 154.270381,241.736214 153.736595,241.736214 Z" id="Path" fill="#FFFFFF"/>
                <path d="M65.6836571,69.7214333 C67.4660976,94.2948833 68.7137429,94.4729381 60.8710048,95.5413929 C53.0282667,96.6097214 54.2760381,102.842143 56.0584786,111.745638 C56.0584786,111.745638 39.125231,112.101748 38.4122548,108.362345 C38.4122548,108.362345 42.1554429,104.266707 41.7989548,87.3501167 C41.4424667,70.4336524 40.7294905,64.0231762 51.0676452,61.8863929 C61.583981,59.5714286 65.327169,64.7353952 65.6836571,69.7214333 Z" id="Path" fill="#F4A880"/>
                <path d="M68.357381,90.0211905 C69.0703571,96.965831 65.8619643,101.061469 56.9497619,98.0342857 C48.0375595,95.0071024 54.2760381,86.2816619 48.3940476,89.8431357 C42.511931,93.2264286 41.0859786,90.9114643 38.0558929,84.3229333 C35.025681,77.7344024 37.3429167,78.0905119 37.3429167,73.6388905 C37.3429167,69.1871429 38.0558929,65.80385 41.4424667,61.8862667 C41.6207738,61.7082119 41.7989548,61.3521024 42.1554429,61.3521024 L42.33375,61.1740476 C42.511931,60.9959929 42.6902381,60.9959929 42.6902381,60.8178119 C43.5813952,60.2836476 44.4726786,59.9275381 45.3638357,59.7494833 C45.5421429,59.7494833 45.7203238,59.7494833 45.898631,59.7494833 C48.3940476,59.2151929 51.4241333,59.7494833 54.4543452,59.3933738 C54.8108333,59.3933738 54.9890143,59.3933738 55.1673214,59.215319 C59.4451786,58.5029738 61.9405952,57.6127 65.5054762,58.324919 C67.6444048,58.6810286 68.89205,59.5714286 69.6050262,60.9959929 C71.5657738,65.0915048 66.5749405,72.7484905 58.1974071,73.4607095 C58.1974071,73.4607095 56.0584786,79.3370214 61.0493119,84.5009881 C65.6836571,89.3088452 67.6444048,83.0764238 68.357381,90.0211905 Z" id="Path" fill="#111F7A"/>
                <path d="M69.6051524,60.4617024 C68.0008929,62.5986119 65.6837833,64.02305 62.4753905,64.7353952 C57.4845571,65.625669 53.2065738,63.310831 48.5722286,62.0643214 C46.255119,61.5301571 44.1161905,61.1740476 42.1554429,61.1740476 L42.33375,60.9959929 C42.511931,60.8179381 42.6902381,60.8179381 42.6902381,60.6397571 C43.5815214,60.1055929 44.4726786,59.7494833 45.3639619,59.5714286 C45.5421429,59.5714286 45.7203238,59.5714286 45.898631,59.5714286 C48.3940476,59.0371381 51.4242595,59.5714286 54.4543452,59.215319 C54.8108333,59.215319 54.9891405,59.215319 55.1673214,59.0371381 C59.4451786,58.324919 61.9405952,57.434519 65.5054762,58.1468643 C67.6444048,58.1468643 68.8921762,59.215319 69.6051524,60.4617024 Z" id="Path" fill="#2842B6"/>
                <path d="M54.6326524,75.9537286 C47.6810714,75.7756738 48.9288429,81.8299143 51.0677714,84.3229333 C52.3154167,85.7474976 54.2761643,86.2816619 55.8802976,86.2816619 C54.6326524,82.898369 53.9196762,79.3370214 54.6326524,75.9537286 Z" id="Path" fill="#F4A880"/>
                <path d="M56.0586048,222.147667 C49.285331,222.504786 42.5120571,222.326857 35.9169643,221.258024 C35.3822952,221.258024 34.8475,221.080095 34.312831,220.902167 C40.3731286,227.490571 47.1464024,233.54519 54.4543452,238.886833 C60.871131,243.516762 67.4662238,247.611643 74.5959857,250.99481 C73.3482143,241.736214 72.100569,231.407524 70.8527976,220.902167 C66.0402714,221.435952 61.0494381,221.969738 56.0586048,222.147667 Z" id="Path" fill="#111F7A"/>
                <path d="M68.357381,198.4655 C65.6837833,203.807143 67.1096095,213.244929 63.9012167,216.983952 C56.771581,225.352905 44.1161905,224.997048 36.6299405,223.394429 C29.6784857,216.09431 23.439881,207.903286 18.2708667,199.177214 C18.6273548,190.630333 19.1620238,181.726333 19.875,172.466476 C24.5093452,107.29389 36.0952714,96.7877762 50.3547952,105.513217 C59.6234857,111.211348 63.9013429,115.128931 63.5448548,141.660857 C63.3665476,151.276571 65.5054762,173.713238 68.357381,198.4655 Z" id="Path" fill="#6254E8"/>
                <path d="M49.4635119,111.923693 C39.8383333,109.430674 35.3822952,122.607736 32.5303905,150.02981 C29.6784857,177.453524 28.4307143,185.1095 54.0978571,224.463262 C79.765,263.815762 62.4753905,211.64231 62.4753905,211.64231 C62.4753905,211.64231 53.0283929,178.165238 50.5329762,171.93269 C48.0375595,165.700143 67.2879167,116.553369 49.4635119,111.923693 Z" id="Path" fill="#F4A880"/>
                <path d="M31.9955952,158.042905 C38.9471762,157.687048 45.898631,156.975333 52.6719048,156.619476 C56.2367857,139.702381 61.5841071,115.128931 49.285331,111.923693 C39.6601524,109.430674 35.2039881,122.607736 32.3520833,150.02981 C31.9955952,152.87919 31.8174143,155.550643 31.6391071,158.042905 C31.8174143,158.042905 31.8174143,158.042905 31.9955952,158.042905 Z" id="Path" fill="#2842B6"/>
                <path d="M171.561,89.665081 C166.748095,99.1027405 160.509238,99.2807952 164.787095,109.074564 C169.064952,118.868333 189.563333,120.470952 202.754024,114.59464 C215.943452,108.718455 201.148881,94.8290476 198.296976,89.8431357 C195.445071,84.8572238 195.80219,80.0493667 195.80219,80.0493667 L171.561,89.665081 Z" id="Path" fill="#08135A"/>
                <path d="M149.993786,141.127071 C149.636667,138.455619 149.458738,134.18281 149.814595,127.415214 C150.88469,104.800871 150.706762,103.020198 148.567833,94.8290476 C146.428905,86.6378976 144.645833,92.1579738 142.684833,94.1168286 C140.725095,96.0755571 139.299143,100.171069 139.119952,106.937781 C138.942024,112.813967 135.91219,131.867214 136.447238,147.003762 C141.616,146.112857 146.784762,145.221952 149.993786,141.127071 Z" id="Path" fill="#F4A880"/>
                <path d="M186.355571,110.321074 C186.355571,110.321074 186.176381,111.567583 185.642595,114.238531 C185.285476,115.306986 184.929619,116.553495 184.394571,118.156114 C182.255643,124.388536 177.620667,134.538667 167.996119,148.78431 C166.392238,151.098643 164.787095,153.592167 162.827357,156.084429 C153.736595,168.727452 147.675667,171.576833 144.645833,169.440429 C140.545905,166.591048 138.051119,161.605262 136.981024,153.948024 C136.447238,150.564857 136.268048,146.824571 136.268048,142.907619 C141.080952,142.016714 145.893857,140.414095 149.636667,138.27769 C150.171714,147.893405 152.6665,144.154381 154.805429,137.565976 C161.579333,117.265714 167.461071,111.211348 173.877857,109.78691 C177.799857,109.074564 181.898524,109.964964 186.355571,110.321074 Z" id="Path" fill="#3059EF"/>
                <path d="M146.606833,108.362345 C151.419738,103.910598 151.062619,96.7877762 153.379476,96.965831 C155.696333,97.1438857 153.557405,108.006236 152.131452,109.964964 C150.88469,111.923693 146.784762,117.265714 146.784762,117.265714 L146.606833,108.362345 Z" id="Path" fill="#F4A880"/>
                <path d="M218.438238,231.942571 C213.982452,235.859524 209.348738,239.420619 204.357905,242.625857 C202.931952,243.516762 201.506,244.406405 200.080048,245.29731 C192.058119,250.105167 183.502405,254.022119 174.590833,257.227357 C171.738929,258.118262 169.064952,259.007905 166.035119,259.89881 C163.539071,260.610524 160.866357,261.145571 158.37031,261.679357 C159.083286,243.338833 160.866357,210.395548 165.85719,193.122595 C172.807762,168.727452 170.135048,157.687048 167.996119,148.962238 C167.996119,148.78431 167.996119,148.78431 167.996119,148.606381 C165.678,139.88031 165.85719,134.18281 175.659667,112.457857 L177.085619,114.594767 L185.641333,114.594767 L188.672429,114.594767 L195.980119,114.594767 C195.980119,114.594767 196.515167,114.950876 197.406071,115.663095 C201.148881,118.512224 210.952619,126.7035 209.169548,134.716595 C208.635762,136.853 208.278643,139.168595 207.743595,141.660857 C206.317643,150.564857 205.961786,161.78319 210.417571,177.274333 C213.804524,187.780952 216.4785,212.176095 218.438238,231.942571 Z" id="Path" fill="#395DFF"/>
                <path d="M218.4395,231.942571 C213.982452,235.859524 209.348738,239.420619 204.357905,242.625857 C202.931952,243.516762 201.506,244.406405 200.080048,245.29731 C195.980119,230.339952 190.989286,214.669619 180.116714,203.451286 C190.098381,200.423976 199.902119,196.507024 210.239643,194.904405 C211.487667,194.725214 212.73569,194.547286 214.161643,194.369357 C215.765524,205.58769 217.191476,219.655405 218.4395,231.942571 Z" id="Path" fill="#3059EF"/>
                <path d="M235.015881,159.824714 L226.460167,194.904405 C211.130548,190.096548 194.732095,186.178333 177.442738,182.973095 L185.998452,147.893405 C199.722929,150.209 216.656429,154.659738 235.015881,159.824714 Z" id="Path" fill="#FFFFFF"/>
                <path d="M185.641333,180.479571 L185.463405,180.479571 C184.928357,180.301643 184.750429,179.767857 184.928357,179.412 C184.928357,179.234071 191.345143,157.509119 191.702262,154.125952 C191.702262,153.592167 192.23731,153.235048 192.771095,153.414238 C193.306143,153.414238 193.663262,153.948024 193.484071,154.48181 C192.950286,158.042905 186.889357,179.234071 186.5335,180.123714 C186.35431,180.301643 185.998452,180.479571 185.641333,180.479571 Z" id="Path" fill="#395DFF"/>
                <path d="M189.206214,181.014619 L189.028286,181.014619 C188.493238,180.83669 188.31531,180.301643 188.493238,179.945786 C188.493238,179.767857 194.910024,158.044167 195.267143,154.659738 C195.267143,154.125952 195.80219,153.770095 196.335976,153.948024 C196.871024,153.948024 197.228143,154.48181 197.048952,155.016857 C196.515167,158.577952 190.454238,179.767857 190.098381,180.658762 C189.91919,180.83669 189.563333,181.014619 189.206214,181.014619 Z" id="Path" fill="#395DFF"/>
                <path d="M192.771095,181.548405 L192.593167,181.548405 C192.058119,181.370476 191.88019,180.83669 192.059381,180.479571 C192.059381,180.301643 198.474905,158.577952 198.832024,155.194786 C198.832024,154.659738 199.367071,154.303881 199.902119,154.48181 C200.435905,154.48181 200.793024,155.016857 200.613833,155.550643 C200.080048,159.111738 194.019119,180.301643 193.663262,181.192548 C193.484071,181.370476 193.128214,181.548405 192.771095,181.548405 Z" id="Path" fill="#395DFF"/>
                <path d="M257.831119,176.562619 L256.048048,171.220976 C254.444167,166.768976 249.631262,164.454643 244.997548,165.878071 L220.22131,174.604143 C219.508333,173.891167 218.617429,173.179452 217.726524,172.645667 C215.765524,171.754762 213.626595,171.576833 211.487667,172.288548 L199.722929,176.38469 C196.515167,177.453524 194.376238,180.480833 194.19831,183.686071 L170.848024,191.877095 C166.392238,193.479714 164.074119,198.287571 165.500071,202.9175 L167.283143,208.259143 C168.887024,212.711143 173.699929,215.025476 178.333643,213.600786 L252.305238,187.603024 C256.940214,186.000405 259.257071,181.014619 257.831119,176.562619 Z M200.257976,178.165238 L212.022714,174.070357 C212.73569,173.891167 213.448667,173.713238 214.161643,173.713238 C215.052548,173.713238 216.121381,173.891167 216.834357,174.426214 C217.369405,174.604143 217.904452,174.96 218.26031,175.315857 L195.980119,183.151024 C196.515167,180.83669 197.941119,178.878214 200.257976,178.165238 Z" id="Shape" fill="#08135A"/>
                <path d="M227.173143,139.168595 C217.369405,120.114843 210.239643,114.594767 201.506,112.101748 C200.793024,111.923693 199.900857,111.745638 199.009952,111.567583 C196.335976,113.704367 195.980119,113.882421 192.593167,114.772821 C192.950286,115.306986 197.761929,128.661976 201.148881,132.58019 C202.931952,134.716595 205.426738,137.743905 207.922786,141.305 C214.695429,150.386929 222.360238,162.316976 221.647262,166.23519 C221.112214,168.727452 220.399238,174.426214 218.795357,180.658762 C222.003119,183.68481 227.173143,184.397786 232.341905,183.864 C233.767857,179.589929 235.015881,175.493786 235.728857,171.93269 C238.402833,160.892286 235.015881,154.303881 227.173143,139.168595 Z" id="Path" fill="#3059EF"/>
                <path d="M219.151214,179.412 C217.547333,186.000405 215.052548,193.300524 211.130548,198.4655 C204.357905,199.533071 201.683929,204.875976 201.506,205.943548 C201.32681,206.656524 202.218976,206.656524 203.465738,206.300667 C205.426738,206.834452 208.278643,207.546167 208.81369,207.368238 C212.734429,206.656524 216.656429,206.121476 220.043381,203.985071 C221.82519,202.73831 223.429071,201.313619 225.034214,199.89019 C228.419905,194.0135 230.915952,187.958881 232.876952,182.261381 C227.886119,182.08219 223.073214,181.192548 219.151214,179.412 Z" id="Path" fill="#F4A880"/>
                <path d="M170.670095,73.4608357 C165.322143,77.2002381 165.85719,81.8300405 169.422071,86.1037333 C172.986952,90.555481 175.660929,73.1047262 175.660929,73.1047262 L170.670095,73.4608357 Z" id="Path" fill="#08135A"/>
                <path d="M175.30381,97.8561048 C180.651762,104.444762 178.155714,113.526186 178.155714,113.526186 C178.155714,113.526186 185.463405,116.731424 193.128214,114.59464 C193.128214,114.59464 185.642595,100.883288 186.889357,96.2534857 L175.30381,97.8561048 Z" id="Path" fill="#F4A880"/>
                <path d="M184.750429,96.6098476 L175.30381,97.8563571 C177.620667,100.527305 178.333643,103.732543 178.690762,106.403617 C181.720595,104.088779 183.681595,100.527305 184.750429,96.6098476 Z" id="Path" fill="#000000" opacity="0.20359003"/>
                <path d="M201.506,112.101748 C201.506,112.279802 201.328071,112.457857 201.148881,112.635912 C200.257976,113.526312 199.009952,114.416586 197.584,115.306986 C195.624262,116.375314 193.485333,117.443769 190.989286,117.977933 C188.850357,118.512224 186.711429,118.512224 184.5725,118.155988 C182.077714,117.621824 179.403738,116.553369 177.26481,114.416586 C176.194714,113.348257 175.125881,111.923693 174.055786,110.143019 C177.977786,109.252619 185.820524,109.252619 185.820524,109.252619 C191.88019,110.321074 196.871024,110.855238 201.506,112.101748 Z" id="Path" fill="#F4A880"/>
                <path d="M172.451905,74.5292905 C168.709095,87.5282976 166.748095,101.061595 175.660929,101.417705 C184.5725,101.773814 190.633429,97.3220667 190.989286,90.7335357 C191.524333,84.3230595 176.551833,59.9276643 172.451905,74.5292905 Z" id="Path" fill="#F4A880"/>
                <path d="M185.820524,70.0775429 C173.877857,65.6259214 167.283143,66.8723048 169.064952,71.5021071 C170.848024,76.1319095 168.529905,75.0634548 174.94669,75.4196905 C181.542667,75.9538548 183.502405,73.6388905 185.998452,79.8713119 C188.4945,86.1037333 189.920452,88.4186976 195.624262,85.569569 C201.328071,82.7204405 195.624262,73.8170714 185.820524,70.0775429 Z" id="Path" fill="#08135A"/>
                <path d="M187.068548,85.9256786 C191.702262,84.8572238 194.911286,84.5011143 194.554167,89.665081 C194.19831,95.0072286 186.889357,96.2536119 186.889357,96.2536119 L187.068548,85.9256786 Z" id="Path" fill="#F4A880"/>
                <path d="M183.324476,69.8994881 C184.216643,69.8994881 185.285476,70.0775429 186.176381,70.2555976 C185.998452,70.2555976 185.820524,70.0775429 185.642595,70.0775429 C173.877857,65.6257952 167.283143,66.8723048 168.709095,71.3240524 C172.451905,72.392381 181.542667,69.8994881 183.324476,69.8994881 Z" id="Path" fill="#111F7A"/>
                <path d="M78.6955357,145.579071 C85.4688095,153.057119 94.7375,161.605262 88.4988952,166.056 C82.2604167,170.508 79.943181,169.618357 80.4779762,176.38469 C81.0126452,183.151024 82.7950857,185.287429 82.7950857,185.287429 C82.7950857,185.287429 71.2092857,184.397786 68.89205,180.83669 C68.89205,180.83669 72.456931,174.96 69.7833333,171.398905 C67.1096095,167.83781 54.9890143,163.38581 61.227619,153.235048 C67.4660976,143.085548 75.4871429,142.016714 78.6955357,145.579071 Z" id="Path" fill="#F4A880"/>
                <path d="M77.9825595,151.811619 C75.1306548,144.33231 83.329881,140.236167 78.5173548,138.099762 C73.7047024,135.963357 71.3875929,142.551762 65.6837833,143.085548 C59.9799738,143.619333 60.871131,149.318095 58.0192262,152.345405 C54.9891405,155.372714 54.8108333,161.605262 59.2669976,165.166357 C63.7230357,168.727452 60.1581548,167.83781 66.3967595,171.93269 C72.6352381,176.028833 81.5474405,169.440429 77.6260714,164.097524 C73.7047024,158.93381 79.9433071,157.153262 77.9825595,151.811619 Z" id="Path" fill="#111F7A"/>
                <path d="M78.1608667,138.099762 C73.7047024,136.497143 71.2092857,142.72969 65.8619643,143.263476 C63.7230357,143.441405 62.6535714,144.33231 61.7624143,145.579071 C69.4268452,144.866095 78.5173548,144.154381 78.1608667,138.099762 Z" id="Path" fill="#2842B6"/>
                <path d="M80.1214881,156.619476 C78.8738429,155.194786 76.5566071,155.016857 75.1306548,156.440286 C73.1700333,158.400024 73.1700333,161.070214 77.8043786,163.563738 C79.765,164.632571 81.0127714,164.275452 81.7257476,163.563738 C83.1517,162.316976 83.1517,160.180571 81.9039286,158.93381 L80.1214881,156.619476 Z" id="Path" fill="#F4A880"/>
                <path d="M66.7531214,178.343167 L68.5355619,175.315857 C68.5355619,175.315857 80.8344643,174.96 82.6169048,176.918476 C84.3993452,178.876952 86.0034786,183.328952 86.0034786,183.328952 L66.7531214,178.343167 Z" id="Path" fill="#FEFEFE"/>
                <path d="M62.1187762,178.876952 C52.6719048,183.68481 47.3245833,202.73831 48.2157405,215.381333 C49.1070238,228.202286 56.7714548,239.420619 56.7714548,239.420619 L62.1187762,178.876952 Z" id="Path" fill="#082487"/>
                <path d="M99.5500262,260.076738 C98.83705,259.89881 98.302381,259.720881 97.5894048,259.542952 C95.4504762,259.007905 93.3115476,258.29619 91.172619,257.584476 C90.4596429,257.405286 89.7466667,257.049429 88.8555095,256.8715 C76.3784262,252.597429 64.7925,246.544071 54.2761643,238.886833 C53.5631881,220.18919 53.0283929,195.971976 55.3456286,189.383571 C58.9105095,179.056143 61.4059262,175.493786 76.9130952,177.98731 C88.4990214,179.767857 92.5985714,184.219857 92.0639024,203.451286 C91.7074143,218.052786 96.8764286,246.722 99.5500262,260.076738 Z" id="Path" fill="#08135A"/>
                <path d="M116.126786,189.205643 C117.731045,189.5615 119.156998,189.5615 120.761131,189.739429 C120.761131,183.506881 120.226462,178.343167 120.226462,174.782071 C120.226462,168.549524 117.909226,169.08331 115.770298,165.878071 C113.631369,162.672833 111.670748,164.988429 110.066488,180.123714 C109.888307,182.43931 109.71,184.753643 109.531819,187.247167 C111.670748,187.958881 113.809676,188.849786 116.126786,189.205643 Z" id="Path" fill="#F4A880"/>
                <path d="M109.353512,188.849786 C108.462355,202.204524 107.749379,215.381333 101.689081,204.340929 C94.202831,190.98619 94.7375,180.123714 77.0912762,177.98731 L79.765,194.547286 C79.765,194.547286 83.1517,210.573476 97.0547357,223.750286 C103.293214,229.626976 109.71,233.188071 113.631369,227.134714 C117.018069,221.79181 118.97869,211.998167 119.869974,205.053905 C120.58295,200.068119 120.761131,195.260262 120.761131,190.98619 C116.839762,191.342048 112.740212,190.452405 109.353512,188.849786 Z" id="Path" fill="#082487"/>
                <path d="M120.582824,192.410881 C120.582824,190.273214 120.582824,188.314738 120.582824,186.356262 C120.404643,186.356262 120.048155,186.356262 119.869848,186.178333 C116.483274,185.644548 113.096574,184.931571 109.71,184.219857 C109.531693,186.000405 109.531693,187.958881 109.353512,189.739429 C112.918393,190.98619 116.839762,191.875833 120.582824,192.410881 Z" id="Path" fill="#FEFEFE"/>
                <path d="M111.49244,184.575714 C108.284048,176.918476 107.036402,167.124833 109.71,168.015738 C112.383724,168.905381 110.066488,174.604143 113.274881,176.918476 C116.483274,179.234071 111.49244,184.575714 111.49244,184.575714 Z" id="Path" fill="#F4A880"/>
            </g>
        </g>
    </g>
</svg>