<svg width="80" height="65" viewBox="0 0 80 65" fill="none" xmlns="http://www.w3.org/2000/svg">
<path d="M20 40.6666C26.625 40.6666 32 35.2916 32 28.6666C32 22.0416 26.625 16.6666 20 16.6666C13.375 16.6666 8 22.0416 8 28.6666C8 35.2916 13.375 40.6666 20 40.6666ZM20 22.6666C23.25 22.6666 26 25.4166 26 28.6666C26 32.0416 23.25 34.6666 20 34.6666C16.625 34.6666 14 32.0416 14 28.6666C14 25.4166 16.625 22.6666 20 22.6666ZM52.125 32.7916L61.125 23.7916L64.125 26.9166C65.5 28.2916 68 27.2916 68 25.2916V14.1666C68 13.4166 67.25 12.6666 66.5 12.6666H55.375C53.375 12.6666 52.375 15.1666 53.75 16.5416L56.875 19.5416L50 26.4166L43.125 19.5416C41.875 18.4166 40 18.4166 38.875 19.5416L35 23.4166C35.625 25.0416 36 26.9166 36 28.6666C36 29.5416 35.875 30.4166 35.75 31.1666L41 25.9166L47.875 32.7916C49 34.0416 50.875 34.0416 52.125 32.7916ZM74 0.666626H26C22.625 0.666626 20 3.54163 20 6.91663V12.6666C20.75 12.6666 21.375 12.7916 21.875 12.9166C22.625 13.0416 23.25 13.1666 23.875 13.2916C24.375 13.4166 24.875 13.5416 25.375 13.7916C25.625 13.7916 25.75 13.7916 26 13.9166V6.66663H74V46.6666H44V52.6666H74C77.25 52.6666 80 49.9166 80 46.5416V6.91663C80 3.54163 77.25 0.666626 74 0.666626ZM28.25 43.4166C27 43.4166 25.75 43.6666 24.625 44.0416C23.125 44.4166 21.625 44.6666 20 44.6666C18.375 44.6666 16.75 44.4166 15.25 44.0416C14.125 43.6666 12.875 43.4166 11.625 43.4166C7.875 43.4166 4.125 45.1666 2 48.4166C0.75 50.2916 0 52.5416 0 55.0416V59.6666C0 62.5416 2.125 64.6666 5 64.6666H35C37.75 64.6666 40 62.5416 40 59.6666V55.0416C40 52.5416 39.25 50.2916 37.875 48.4166C35.75 45.1666 32.125 43.4166 28.25 43.4166ZM34 58.6666H6V55.0416C6 53.9166 6.25 52.6666 7 51.6666C7.875 50.2916 9.625 49.5416 11.625 49.5416C12.25 49.5416 12.875 49.5416 13.5 49.7916C15.625 50.4166 17.75 50.7916 20 50.7916C22.125 50.7916 24.25 50.4166 26.375 49.7916C27 49.5416 27.625 49.5416 28.25 49.5416C30.25 49.5416 32 50.2916 32.875 51.6666C33.625 52.6666 34 53.9166 34 55.0416V58.6666Z" fill="#F2F4FD" fill-opacity="0.75"/>
</svg>
