<svg xmlns="http://www.w3.org/2000/svg" width="90" height="69" viewBox="0 0 90 69" fill="none">
<path fill-rule="evenodd" clip-rule="evenodd" d="M44.1929 35.0507C48.0328 34.5731 51.507 37.5211 51.9527 41.6353C52.3981 45.7492 49.6467 49.4716 45.8072 49.9492C41.9673 50.4271 38.4931 47.4788 38.0473 43.365C37.6016 39.2507 40.353 35.5283 44.1929 35.0507Z" fill="white"/>
<path fill-rule="evenodd" clip-rule="evenodd" d="M59.43 18.1658C59.9501 18.4813 60.1473 19.153 59.883 19.7103L48.326 44.0779C47.4752 45.8722 45.3108 46.5393 43.6354 45.5239C41.9596 44.5081 41.4879 42.2415 42.6129 40.6127L57.8917 18.5023C58.2408 17.9971 58.9096 17.8504 59.43 18.1658Z" fill="#54C052"/>
<path fill-rule="evenodd" clip-rule="evenodd" d="M45.3271 41.0101C46.1498 40.9147 46.8945 41.5042 46.9899 42.3272C47.0853 43.1499 46.4958 43.8944 45.6729 43.9898C44.8502 44.0854 44.1057 43.4957 44.0101 42.673C43.9147 41.85 44.5042 41.1057 45.3271 41.0101Z" fill="white"/>
<defs>
<linearGradient id="paint0_linear" x1="34.1347" y1="-21.7756" x2="-22.8207" y2="31.5912" gradientUnits="userSpaceOnUse">
<stop stop-color="#54C052"/>
<stop offset="1" stop-color="#F6732F"/>
</linearGradient>
</defs>
</svg>