<?xml version="1.0" encoding="UTF-8"?>
<svg width="91px" height="91px" viewBox="0 0 91 91" version="1.1" xmlns="http://www.w3.org/2000/svg" xmlns:xlink="http://www.w3.org/1999/xlink">
    <title>DD6586D4-0058-461F-B3B0-FE984FF6287D</title>
    <defs>
        <path d="M42.5833333,0 L42.5833333,25.8541667 L42.5804809,26.2062639 C42.392459,37.8029484 32.9331592,47.1458333 21.2916667,47.1458333 L21.2916667,47.1458333 L20.9395694,47.1429809 C9.34288493,46.954959 0,37.4956592 0,25.8541667 L0,25.8541667 L0,0 L42.5833333,0 Z" id="path-1"></path>
        <path d="M14.9703229,0.703385417 L15.1610243,0.704547072 C16.9626526,0.726187066 19.3806871,1.04892924 23.0413854,1.56873958 L23.0413854,1.56873958 L23.1343107,1.58343701 C23.2399967,1.60029687 23.3744479,1.62196875 23.4520104,1.633375 L23.4520104,1.633375 L23.4368021,1.72766667 L23.5422875,1.88676376 C24.9028974,3.84450018 27.1831605,3.63145753 29.2555104,2.84015625 L29.2555104,2.84015625 L29.3445944,2.80769998 C29.5130744,2.73065625 29.6264851,2.58465625 29.7398958,2.43865625 L29.7398958,2.43865625 L29.8329281,2.45324674 C29.9387923,2.46992839 30.0735286,2.4913151 30.1505208,2.50329167 L30.1505208,2.50329167 L30.3712335,2.53382982 C34.9361961,3.16926014 39.6978659,4.09049851 40.0944896,8.77140625 L40.0944896,8.77140625 L40.1512155,9.1079155 C40.405393,10.5476178 40.8524268,12.2993833 41.287386,14.1757228 C38.2987049,22.3228233 30.4740017,28.1354167 21.2916667,28.1354167 L21.2916667,28.1354167 L20.9395694,28.1325642 C18.7617489,28.0972543 16.6634146,27.7349682 14.6915186,27.0926581 C13.2492051,26.5731176 11.8687365,25.9507485 10.5599908,25.2368839 C5.69671059,22.3934493 2.06243817,17.6761256 0.647498739,12.0753795 C1.72499154,9.99164163 3.39268096,7.87478554 5.73658333,5.91452083 C10.1667708,2.09951042 11.2077813,0.703385417 14.9703229,0.703385417 L14.9703229,0.703385417 Z" id="path-3"></path>
        <path d="M2.23258333,0.082125 L2.41900628,0.165497767 C4.39233216,1.0698071 5.87163794,2.46100789 6.08105208,5.00126042 L6.08105208,5.00126042 L6.11967552,5.33495434 C6.29716732,6.73993116 6.68979505,8.45162958 7.09626121,10.2957776 C5.75735176,13.992005 3.42453843,17.2109032 0.420916532,19.6307601 C0.903917502,17.456453 1.43421365,15.2156043 1.61208333,13.2958854 C2.044,8.57521875 1.59535417,4.76933333 2.23258333,0.082125 L2.23258333,0.082125 Z" id="path-5"></path>
        <path d="M6.9851875,0.47678125 L7.24279664,0.48330164 C7.92688374,0.517890689 8.58493519,0.688599537 9.14325,0.959645833 L9.14325,0.959645833 L9.30780468,1.0275471 C10.488522,1.55250634 11.0994053,2.66463225 11.3081563,3.88877083 L11.3081563,3.88877083 L11.308576,3.9559795 C11.31938,4.0586175 11.3636667,4.2038875 11.3515,4.27810417 L11.3515,4.27810417 L11.4074626,4.474811 C11.6843394,5.37760921 12.1829903,6.07020347 12.97575,6.64223958 L12.97575,6.64223958 L12.9605417,6.73577083 L12.8027698,6.81038486 C11.1903637,7.59299879 10.1428652,8.73778158 10.5804375,10.4770208 L10.5804375,10.4770208 L10.6253808,10.6453031 C11.207929,12.6484442 13.3329609,14.0572269 15.5163021,13.8441458 L15.5163021,13.8441458 L15.5915326,14.0537662 C16.1368826,15.5735849 16.5394262,16.7050648 16.5808854,17.0781979 L16.5808854,17.0781979 L17.0766771,19.262875 L17.1427966,19.4648178 C17.2668282,19.88358 17.3055864,20.2877877 17.2823415,20.6740771 C15.6432375,21.0773159 13.9299848,21.2916667 12.1666667,21.2916667 L12.1666667,21.2916667 L11.8145694,21.2888142 C9.62416844,21.2533003 7.51417465,20.8870217 5.53235851,20.2377489 C3.95785147,19.6670124 2.46270742,18.9712554 1.05545833,18.1617917 L1.05545833,18.1617917 L1.04134458,17.9715627 C1.00110042,17.507263 0.91202474,16.9064388 0.82353125,16.3056146 L0.82353125,16.3056146 L0.994317962,16.2616343 C3.07965011,15.6798738 4.37841913,13.6556826 3.98230208,11.634375 L3.98230208,11.634375 L3.93370636,11.4583629 C3.43177563,9.79149 2.00324167,9.12140069 0.203791667,8.9288125 L0.203791667,8.9288125 L0.11634375,8.8193125 L0.212756069,8.63414222 C0.5776107,7.88365354 0.692564103,7.01753446 0.544458333,6.10994792 L0.544458333,6.10994792 L0.545102575,6.05526481 C0.535122106,5.95188686 0.472598958,5.79526215 0.398458333,5.70464583 L0.398458333,5.70464583 L0.342733889,5.53792384 C-0.0193089273,4.3677375 0.207420928,3.13976042 1.03416667,2.35729167 L1.03416667,2.35729167 L1.20686743,2.20958116 C1.91106657,1.62838055 2.77540385,1.16694712 3.77775,0.9718125 L3.77775,0.9718125 L6.05063542,0.56575 C6.360125,0.505677083 6.67417708,0.47678125 6.9851875,0.47678125 L6.9851875,0.47678125 Z" id="path-7"></path>
        <polygon id="path-9" points="1.61588542 0.264625 7.94635417 22.7182083 4.4849375 23.3196979 0.32621875 0.4425625"></polygon>
        <path d="M4.93130208,0.162729167 L5.01100397,0.167515932 C5.2136983,0.193042567 5.33761806,0.320642361 5.38222917,0.54978125 L5.38222917,0.54978125 L5.3936377,0.627533426 C5.41578177,0.8762828 5.27915814,1.02082481 4.98605208,1.06230208 L4.98605208,1.06230208 L1.32008333,1.63033333 L1.2181875,1.61360417 L1.14207454,1.59721065 C0.967000488,1.548743 0.812885417,1.42939323 0.749010417,1.25240625 L0.749010417,1.25240625 L0.737962379,1.17465465 C0.716846677,0.925910985 0.852841856,0.781431818 1.14594792,0.740645833 L1.14594792,0.740645833 L4.81191667,0.171854167 C4.85373958,0.16653125 4.89404167,0.162729167 4.93130208,0.162729167 L4.93130208,0.162729167 Z" id="path-11"></path>
        <path d="M2.02270833,0.533052083 L2.12542112,0.538267755 C2.56812495,0.583072757 2.97317485,0.911359375 3.08120833,1.32160417 L3.08120833,1.32160417 L3.27055208,2.11776042 L3.28661217,2.22688838 C3.33855294,2.76194621 2.9712806,3.13576823 2.46298958,3.23557292 L2.46298958,3.23557292 L1.596875,3.385375 L1.49511785,3.39948893 C0.985699015,3.44268844 0.475402995,3.08192122 0.352072917,2.61355208 L0.352072917,2.61355208 L0.163489583,1.81739583 L0.145682554,1.72919106 C0.0791385885,1.25900004 0.46076777,0.799824142 0.971052083,0.70034375 L0.971052083,0.70034375 L1.83564583,0.550541667 C1.898,0.538375 1.96035417,0.533052083 2.02270833,0.533052083 L2.02270833,0.533052083 Z" id="path-13"></path>
        <path d="M1.67139583,0.09353125 L1.77397892,0.0987471984 C2.21625765,0.143555804 2.62256845,0.471892857 2.72989583,0.88284375 L2.72989583,0.88284375 L2.7876875,1.17940625 L2.80374759,1.28853421 C2.85568835,1.82359204 2.48841602,2.19741406 1.980125,2.29721875 L1.980125,2.29721875 L1.65770833,2.34132292 L1.55581733,2.35556216 C1.04577193,2.39930469 0.535475911,2.03786914 0.412145833,1.5695 L0.412145833,1.5695 L0.354354167,1.2729375 L0.33666616,1.18473288 C0.27067939,0.714544334 0.651677083,0.255410539 1.16267708,0.156645833 L1.16267708,0.156645833 L1.48509375,0.111020833 C1.5466875,0.0996145833 1.60904167,0.09353125 1.67139583,0.09353125 L1.67139583,0.09353125 Z" id="path-15"></path>
        <path d="M0.893489583,0.2874375 L0.955896979,0.293600677 C1.14238917,0.330180521 1.31841042,0.525980208 1.37863542,0.783989583 L1.37863542,0.783989583 L1.39316674,0.867329765 C1.42598864,1.14173106 1.30501326,1.37676894 1.10108333,1.41133333 L1.10108333,1.41133333 L1.03985408,1.41524911 C0.835358557,1.40790203 0.631491477,1.20076705 0.566510417,0.920104167 L0.566510417,0.920104167 L0.551961378,0.836557742 C0.519025224,0.561476584 0.639372159,0.325873106 0.843302083,0.292 C0.859270833,0.288958333 0.876760417,0.2874375 0.893489583,0.2874375 L0.893489583,0.2874375 Z" id="path-17"></path>
        <path d="M0.44940625,0.156645833 L0.511833417,0.162788479 C0.698435104,0.199251979 0.874935417,0.394504167 0.933791667,0.653197917 L0.933791667,0.653197917 L0.948512671,0.736555237 C0.981911587,1.01106508 0.860999053,1.24666856 0.657760417,1.28054167 L0.657760417,1.28054167 L0.596342631,1.2846117 C0.391281508,1.27761312 0.187477273,1.06928409 0.1231875,0.7893125 L0.1231875,0.7893125 L0.108449928,0.705765504 C0.0749481749,0.430678633 0.195357955,0.195012311 0.399979167,0.160447917 C0.415947917,0.158166667 0.432677083,0.156645833 0.44940625,0.156645833 L0.44940625,0.156645833 Z" id="path-19"></path>
        <path d="M0.96953125,0.244854167 L1.03175234,0.251016583 C1.21779969,0.287589583 1.3943,0.483320833 1.45315625,0.740645833 L1.45315625,0.740645833 L1.46787668,0.824003154 C1.50126989,1.098513 1.38029451,1.33411648 1.17636458,1.36798958 L1.17636458,1.36798958 L1.11513533,1.37207618 C0.910639807,1.36518044 0.706772727,1.15735417 0.641791667,0.876 L0.641791667,0.876 L0.627242628,0.792471286 C0.594306474,0.51750439 0.714653409,0.282529356 0.918583333,0.24865625 C0.9353125,0.245614583 0.952041667,0.244854167 0.96953125,0.244854167 L0.96953125,0.244854167 Z" id="path-21"></path>
        <path d="M0.5246875,0.113302083 L0.587094896,0.11946526 C0.773587083,0.156045104 0.949608333,0.351844792 1.00983333,0.609854167 L1.00983333,0.609854167 L1.02436466,0.693382881 C1.05718655,0.968349776 0.936211174,1.20332481 0.73228125,1.23719792 L0.73228125,1.23719792 L0.671051997,1.24128451 C0.466556474,1.23438877 0.262689394,1.0265625 0.197708333,0.745208333 L0.197708333,0.745208333 L0.183347827,0.661851013 C0.150977273,0.387341167 0.271261364,0.151737689 0.4745,0.117864583 C0.491229167,0.114822917 0.507197917,0.113302083 0.5246875,0.113302083 L0.5246875,0.113302083 Z" id="path-23"></path>
        <path d="M4.06214583,0.131552083 L4.25102267,3.01515408 C3.28016786,2.96701716 2.32642585,2.85385233 1.39406205,2.679925 L0.601489583,0.73228125 L4.06214583,0.131552083 Z" id="path-25"></path>
        <path d="M11.4556771,0.243333333 L11.5336431,0.245848139 C12.08889,0.282989997 12.284928,0.737207428 12.3773021,1.98316667 L12.3773021,1.98316667 L12.3913296,2.14589368 C12.5870682,4.20241514 13.2782628,3.99597057 11.3750729,5.65597917 L11.3750729,5.65597917 L11.1433479,5.8507219 C9.30941625,7.33473948 7.94650625,7.08954708 6.63615625,8.35317708 L6.63615625,8.35317708 L6.58494762,8.39764442 C6.06335296,8.86891786 4.77678542,10.5324045 3.22872917,12.601625 L3.22872917,12.601625 L2.98422588,12.1872253 C1.71137165,9.96162673 0.932494485,7.49448775 0.425072917,5.07045833 L0.425072917,5.07045833 L0.737081885,4.86608246 C3.43132023,3.10764246 5.86486844,1.69043441 7.65815625,1.2364375 C9.64740625,0.75509375 10.7887917,0.243333333 11.4556771,0.243333333 L11.4556771,0.243333333 Z" id="path-27"></path>
        <path d="M3.83402083,0.183260417 L4.00908524,0.602623896 C4.91030151,2.68675407 6.19430664,4.5796569 7.60796875,6.23997917 L7.60796875,6.23997917 L7.27928756,6.66659408 C5.82750214,8.56139948 4.04256704,11.0205619 2.52575402,13.110313 C0.914389014,10.11199 0,6.68361401 0,3.04166667 L0,3.04166667 L0,2.8606875 C1.29498958,1.91016667 2.58997917,1.00070833 3.83402083,0.183260417 L3.83402083,0.183260417 Z" id="path-29"></path>
        <path d="M6.059,0.226604167 L6.16908912,0.228137678 C7.1494666,0.255951012 7.83951563,0.667754464 7.52128125,1.92309375 L7.52128125,1.92309375 L7.47181734,2.1542149 C6.80770115,5.37211797 7.32205208,7.82925 7.32205208,7.82925 L7.32205208,7.82925 L7.0904013,7.85840002 C3.31737246,8.28659196 0.082125,6.39510417 0.082125,6.39510417 L0.082125,6.39510417 L0.169422767,6.32818282 C1.1066688,5.589788 2.22408049,4.05935764 2.17098958,1.17180208 C2.17098958,1.17180208 4.45452083,0.226604167 6.059,0.226604167 L6.059,0.226604167 Z" id="path-31"></path>
        <path d="M5.210375,0.117104167 L5.32046132,0.118640484 C6.30078922,0.146503388 6.99015737,0.558987723 6.67265625,1.81359375 L6.67265625,1.81359375 L6.6122305,2.19549325 C6.5336825,2.69172292 6.46262917,3.14006458 6.3920625,3.58840625 L6.3920625,3.58840625 L6.20566063,3.71613037 C4.57209439,4.79921906 2.47760648,5.25698573 0.6433125,4.68948958 L0.6433125,4.68948958 L0.72184452,4.53081989 C1.13064749,3.67177844 1.37608578,2.60245895 1.323125,1.06230208 C1.323125,1.06230208 3.60665625,0.117104167 5.210375,0.117104167 L5.210375,0.117104167 Z" id="path-33"></path>
        <path d="M6.44225,0.352072917 L6.61661073,0.355649691 C6.73298264,0.3604375 6.84957986,0.370069444 6.96617708,0.384770833 L6.96617708,0.384770833 L7.13777846,0.404667456 C10.1506026,0.811839713 12.1588654,4.1537338 11.8663021,7.96004167 L11.8663021,7.96004167 L11.8415958,8.17775352 C11.3791649,11.9347967 9.14558864,14.8131175 6.18294792,14.6258542 L6.18294792,14.6258542 L5.95965154,14.6069023 C1.76680484,14.1904458 0.405380747,10.5784709 0.799958333,6.78215625 C1.17788542,3.14584375 3.65836458,0.352072917 6.44225,0.352072917 L6.44225,0.352072917 Z" id="path-35"></path>
        <path d="M5.20429167,0.22584375 L5.54222647,0.233307099 C5.76809838,0.243164352 5.99487153,0.262597222 6.22096875,0.290479167 L6.22096875,0.290479167 L6.3510147,0.30701858 C8.7006513,0.627118013 11.5036386,2.16559754 11.1370625,6.43236458 L11.1370625,6.43236458 L11.0934844,6.41845761 C10.8324358,6.28952982 10.8381427,5.40333073 10.12875,4.83625 L10.12875,4.83625 L10.0394909,4.77431338 C9.36080679,4.33200175 8.14783152,4.14813904 6.15633333,4.01576042 L6.15633333,4.01576042 L5.9359357,3.99579627 C4.75824546,3.87941429 3.55955515,3.61519975 3.04927083,3.71539583 L3.04927083,3.71539583 L2.86675889,3.75776251 C1.24218177,4.18350417 1.77599246,5.43181358 0.27603125,5.28717708 C0.717833333,1.341375 2.87741667,0.22584375 5.20429167,0.22584375 L5.20429167,0.22584375 Z" id="path-37"></path>
        <path d="M2.20064583,0.689697917 L2.34743441,0.695302469 C2.4473588,0.702793981 2.55145139,0.717833333 2.6599375,0.740645833 L2.6599375,0.740645833 L2.79051301,0.772338359 C3.96713546,1.06520796 5.1686064,1.57262314 5.25219792,2.97094792 L5.25219792,2.97094792 L5.25889644,3.11099204 C5.28728649,4.41494752 4.36746624,5.62034447 3.12227083,5.79361458 L3.12227083,5.79361458 L2.980742,5.80945113 C1.77088212,5.91194647 0.994287037,5.11276003 0.530770833,3.5633125 C0.238770833,2.38390625 0.726197917,0.690458333 2.20064583,0.689697917 L2.20064583,0.689697917 Z" id="path-39"></path>
        <path d="M3.93895833,0.655479167 L4.08466669,0.659778024 C5.7393287,0.759452651 5.81915191,2.57025058 5.329,3.76938542 L5.329,3.76938542 L5.25924736,3.91034797 C4.61324811,5.15909634 3.48083445,5.86362723 2.32155208,5.49553125 L2.32155208,5.49553125 L2.19897051,5.45251478 C1.07107264,5.01921204 0.404043463,3.70545797 0.815927083,2.38390625 L0.815927083,2.38390625 L0.869765849,2.23520515 C1.33430982,1.07987562 2.59919542,0.739520417 3.82413542,0.657760417 C3.86291667,0.657 3.90169792,0.655479167 3.93895833,0.655479167 L3.93895833,0.655479167 Z" id="path-41"></path>
        <path d="M0.34675,0.730760417 L0.71336967,0.786673037 C1.94610735,0.967790461 3.28990814,1.10177462 4.87503125,1.35202083 L4.87503125,1.35202083 L5.23273967,1.40844907 C5.95977338,1.52205931 6.75336905,1.63630804 7.55702083,1.68128125 L7.55702083,1.68128125 L3.24165625,5.69095833 L0.34675,0.730760417 Z" id="path-43"></path>
        <path d="M2.31622917,0.653197917 L2.24879104,0.823489648 C1.43073554,2.91996788 1.11427056,4.85568065 0.786270833,4.33665625 L0.786270833,4.33665625 L0.74687477,4.26339942 C0.465228461,3.65130829 0.6433125,1.92005208 0.6433125,1.92005208 L0.6433125,1.92005208 L2.31622917,0.653197917 Z" id="path-45"></path>
        <path d="M0.666885417,0.155125 C0.744839965,0.191630262 1.34370098,0.493018382 1.14975,1.09347917 L1.14975,1.09347917 L1.14771424,1.19616667 C1.13287565,1.97079157 1.11440716,3.19398143 0.721635417,3.13215625 C0.311770833,3.06752083 0.6798125,1.40220833 0.666885417,0.155125 L0.666885417,0.155125 Z" id="path-47"></path>
    </defs>
    <g id="Front" stroke="none" stroke-width="1" fill="none" fill-rule="evenodd">
        <g id="Teacher" transform="translate(-1278.000000, -140.000000)">
            <g id="Group-120" transform="translate(1323.500000, 185.500000) rotate(-345.000000) translate(-1323.500000, -185.500000) translate(1287.000000, 149.000000)">
                <g id="Group-41">
                    <path d="M36.5001521,73.0003042 C56.6580375,73.0003042 73.0001521,56.6581896 73.0001521,36.5003042 C73.0001521,16.3416583 56.6580375,0.000304166667 36.5001521,0.000304166667 C16.3415062,0.000304166667 0.000152083333,16.3416583 0.000152083333,36.5003042 C0.000152083333,56.6581896 16.3415062,73.0003042 36.5001521,73.0003042" id="Fill-1" fill="#FCA58C"></path>
                    <path d="M36.5001521,58.5523875 C24.3403292,58.5523875 14.4480687,48.6593667 14.4480687,36.5003042 C14.4480687,24.3404812 24.3403292,14.4482208 36.5001521,14.4482208 C48.659975,14.4482208 58.5522354,24.3404812 58.5522354,36.5003042 C58.5522354,48.6593667 48.659975,58.5523875 36.5001521,58.5523875" id="Fill-3" fill="#FFFFFF"></path>
                    <path d="M36.5001521,13.687424 C23.9213396,13.687424 13.6876521,23.9211115 13.6876521,36.499924 C13.6876521,49.0787365 23.9213396,59.312424 36.5001521,59.312424 C49.0789646,59.312424 59.3126521,49.0787365 59.3126521,36.499924 C59.3126521,23.9211115 49.0789646,13.687424 36.5001521,13.687424 M36.5001521,15.2082573 C48.2592354,15.2082573 57.7918187,24.7408406 57.7918187,36.499924 C57.7918187,48.2590073 48.2592354,57.7915906 36.5001521,57.7915906 C24.7410687,57.7915906 15.2084854,48.2590073 15.2084854,36.499924 C15.2084854,24.7408406 24.7410687,15.2082573 36.5001521,15.2082573" id="Fill-5" fill="#E5917F"></path>
                    <polygon id="Fill-7" fill="#FFFFFF" points="3.4008875 33.771625 3.75980417 31.8850313 7.05697083 32.5116146 7.59306458 29.69275 4.29665833 29.0654062 4.655575 27.1780521 12.8102833 28.7293021 12.4506063 30.6166563 9.21275208 30.0007187 8.67589792 32.8195833 11.9145125 33.4362813 11.5555958 35.3236354"></polygon>
                    <path d="M14.0857302,18.3026208 C12.897199,17.47985 11.4075427,17.4874542 10.5110115,18.7839646 C9.60763646,20.0896 10.1254802,21.485725 11.3216156,22.2986104 C12.5040635,23.1312667 13.9929594,23.1236625 14.8963344,21.8172667 C15.793626,20.5207562 15.2750219,19.1253917 14.0857302,18.3026208 M10.1825115,23.9456729 C8.24268854,22.6042979 7.51344896,20.0964437 9.09739688,17.8060687 C10.6813448,15.5156937 13.2857719,15.3134229 15.2255948,16.6555583 C17.1646573,17.9969333 17.8938969,20.5047875 16.309949,22.7951625 C14.726001,25.0855375 12.121574,25.2878083 10.1825115,23.9456729" id="Fill-9" fill="#FFFFFF"></path>
                    <polygon id="Fill-11" fill="#FFFFFF" points="16.3862948 10.1174198 18.3253573 9.02013854 23.1448781 13.0617531 22.1631802 6.84914896 24.0604198 5.77544062 28.1461385 12.9955969 26.5469823 13.9004927 23.8976906 9.21708646 24.9485865 14.8053885 23.7106281 15.5049719 19.4036281 11.7196177 22.0704094 16.4334406 20.4720135 17.3383365"></polygon>
                    <polygon id="Fill-13" fill="#FFFFFF" points="30.1899865 4.1892875 35.2307885 3.61365208 35.4056844 5.14437083 32.2727677 5.50252708 32.4872052 7.37467292 35.6201219 7.01727708 35.7904552 8.51301667 32.658299 8.8704125 32.8651323 10.6847667 35.998049 10.3266104 36.1729448 11.8573292 31.1321427 12.433725"></polygon>
                    <polygon id="Fill-15" fill="#FFFFFF" points="41.484075 3.77417604 43.6238875 4.39999896 44.0862208 10.6764781 47.8578875 5.63871771 49.9528354 6.25161354 47.6213979 14.2192594 45.8572312 13.7029365 47.3689396 8.53590521 44.0930646 13.1866135 42.7273562 12.7873948 42.4391583 7.05613437 40.9168042 12.2581448 39.1533979 11.7418219"></polygon>
                    <path d="M51.8058188,13.6265146 L55.3782563,9.46323333 L56.8260896,10.7049937 L53.3304542,14.7785458 C52.7129958,15.4979 52.7974021,16.2727646 53.4536417,16.8362333 C54.1197667,17.4073062 54.8893083,17.3654833 55.5067667,16.6461292 L59.0016417,12.5725771 L60.4586,13.8227021 L56.8861625,17.9859833 C55.6284333,19.4520667 53.9205375,19.4224104 52.37385,18.0954833 C50.8271625,16.7677958 50.5480896,15.0918375 51.8058188,13.6265146" id="Fill-17" fill="#FFFFFF"></path>
                    <path d="M58.9071979,20.662574 L59.8356667,22.3430948 C59.0471146,22.7788135 58.8273542,23.482199 59.2341771,24.2190427 C59.5778854,24.841824 60.0630313,25.0342094 60.5709896,24.7528552 C61.0173542,24.5064802 61.1200104,24.152126 61.0181146,23.3552094 L60.8036771,21.7674594 C60.6280208,20.5918552 61.0272396,19.7211781 61.9709167,19.1995323 C63.2476563,18.494626 64.6536667,19.0307198 65.5251042,20.607824 C66.4071875,22.204699 66.0893333,23.7620323 64.6894063,24.535376 L63.7609375,22.8548552 C64.4354271,22.4830115 64.614125,21.9233448 64.2521667,21.2701469 C63.9487604,20.7203656 63.4909896,20.553074 63.0552708,20.794126 C62.6507292,21.0176885 62.5564375,21.4351573 62.661375,22.3111573 L62.8499583,23.7787615 C63.0111667,25.0030323 62.5891354,25.831126 61.6142813,26.3702615 C60.2554167,27.1215531 58.7885729,26.5504802 57.9004063,24.942199 C56.9141458,23.1582615 57.2783854,21.5629073 58.9071979,20.662574" id="Fill-19" fill="#FFFFFF"></path>
                    <polygon id="Fill-21" fill="#FFFFFF" points="68.5334646 28.6072552 69.3927354 33.6077552 67.8741833 33.8685781 67.3403708 30.7607552 65.4819125 31.0801302 66.015725 34.1879531 64.5321521 34.4426927 63.9983396 31.3348698 62.1984333 31.6443594 62.7330063 34.7521823 61.2136938 35.0130052 60.3551833 30.0125052"></polygon>
                    <path d="M9.26514479,49.5365073 C11.1509781,48.3289656 13.3310927,48.7395906 14.6222802,50.7562156 C15.773551,52.5553615 15.5644365,54.333976 14.2238219,55.4274552 L13.2573323,53.9187885 C13.8496969,53.317299 13.917374,52.4572677 13.3561865,51.5805073 C12.6147802,50.4223927 11.4163635,50.2490177 10.2141448,51.0185594 C9.01268646,51.788101 8.66745729,52.9492573 9.40886354,54.1073719 C9.97005104,54.9841323 10.7798948,55.282976 11.5737698,54.9970594 L12.539499,56.505726 C10.9852073,57.2653823 9.28263438,56.7110385 8.13136354,54.9126531 C6.83941563,52.8952677 7.37931146,50.744049 9.26514479,49.5365073" id="Fill-23" fill="#FFFDFD"></path>
                    <polygon id="Fill-25" fill="#FFFDFD" points="17.9869719 55.3762792 21.403524 58.2316438 20.536649 59.2696125 18.4128052 57.4948 17.352024 58.7639354 19.4758677 60.5387479 18.6280031 61.5523833 16.5049198 59.7775708 15.4775969 61.0071646 17.6006802 62.7819771 16.7338052 63.8199458 13.3164927 60.9645812"></polygon>
                    <path d="M23.4773323,63.836675 L24.5358323,64.2997687 C25.1563323,64.5719979 25.8171344,64.2815187 26.1091344,63.6138729 C26.4018948,62.9462271 26.166926,62.2633729 25.546426,61.9919042 L24.487926,61.52805 L23.4773323,63.836675 Z M25.4848323,65.8974042 L25.7304469,68.5292062 L23.9754052,67.760425 L23.7366344,65.4502792 L22.9260302,65.0951646 L22.115426,66.9460187 L20.5702594,66.2684875 L23.4940615,59.5927896 L26.336499,60.8375917 C27.7288219,61.4466854 28.2877281,62.8968 27.6740719,64.2982479 C27.2474781,65.2723417 26.4148219,65.8502583 25.4848323,65.8974042 L25.4848323,65.8974042 Z" id="Fill-27" fill="#FFFDFD"></path>
                    <polygon id="Fill-29" fill="#FFFDFD" points="31.8567438 63.9926365 29.8766188 63.7249698 30.0766083 62.239876 35.7082542 63.0002927 35.5082646 64.4853865 33.5174938 64.2169594 32.7433896 69.9520219 31.0826396 69.727699"></polygon>
                    <polygon id="Fill-31" fill="#FFFDFD" points="37.786701 62.8371073 39.4672219 62.697951 40.067951 69.9591698 38.3881906 70.098326"></polygon>
                    <polygon id="Fill-33" fill="#FFFDFD" points="42.1754458 62.3172865 46.4314979 61.0017656 46.8497271 62.3537865 44.2042375 63.1712344 44.7859563 65.0509844 47.4306854 64.2335365 47.8397896 65.555901 45.1950604 66.373349 45.9387479 68.7800677 44.3281854 69.2773802"></polygon>
                    <polygon id="Fill-35" fill="#FFFDFD" points="48.6472 59.8645625 50.1117625 59.029625 53.7176583 65.3570521 52.2530958 66.1912292"></polygon>
                    <polygon id="Fill-37" fill="#FFFDFD" points="52.4032021 57.5446833 55.7003688 54.5501625 56.6105875 55.5516312 54.5612646 57.4123708 55.6737542 58.6374021 57.7230771 56.7766625 58.6112438 57.7545583 56.5619208 59.6160583 57.6394313 60.8023083 59.6887542 58.9415687 60.5982125 59.9430375 57.3010458 62.9375583"></polygon>
                    <path d="M63.7226125,53.5064146 C64.4624979,52.2753 63.9028313,51.12555 62.9120083,50.5301437 C61.9219458,49.9354979 60.6436854,49.9811229 59.9038,51.2122375 L59.4376646,51.9886229 L63.2564771,54.2828 L63.7226125,53.5064146 Z M57.3556437,52.7049354 L58.7707792,50.349925 C59.9768,48.3416646 62.121175,48.0268521 63.8077792,49.0404875 C65.4943833,50.0533625 66.2281854,52.0851958 65.0168417,54.1018208 L63.6017062,56.4575917 L57.3556437,52.7049354 Z" id="Fill-39" fill="#FFFDFD"></path>
                </g>
                <g id="Group-114" transform="translate(15.208333, 10.645833)">
                    <g id="Group-44">
                        <mask id="mask-2" fill="white">
                            <use xlink:href="#path-1"></use>
                        </mask>
                        <g id="Clip-43"></g>
                    </g>
                    <g id="Group-47" transform="translate(0.000000, 19.010417)">
                        <mask id="mask-4" fill="white">
                            <use xlink:href="#path-3"></use>
                        </mask>
                        <g id="Clip-46"></g>
                        <polygon id="Fill-45" fill="#08135A" mask="url(#mask-4)" points="-4.16176042 32.6887917 46.2827604 32.6887917 46.2827604 -3.09869792 -4.16176042 -3.09869792"></polygon>
                    </g>
                    <g id="Group-50" transform="translate(34.218750, 22.812500)">
                        <mask id="mask-6" fill="white">
                            <use xlink:href="#path-5"></use>
                        </mask>
                        <g id="Clip-49"></g>
                        <polygon id="Fill-48" fill="#111F7A" mask="url(#mask-6)" points="-4.16936458 27.6054062 12.1415729 27.6054062 12.1415729 -3.71995833 -4.16936458 -3.71995833"></polygon>
                    </g>
                    <g id="Group-53" transform="translate(9.125000, 25.854167)">
                        <mask id="mask-8" fill="white">
                            <use xlink:href="#path-7"></use>
                        </mask>
                        <g id="Clip-52"></g>
                        <polygon id="Fill-51" fill="#FCA58C" mask="url(#mask-8)" points="-3.68573958 25.8465625 21.0909167 25.8465625 21.0909167 -3.32530208 -3.68573958 -3.32530208"></polygon>
                    </g>
                    <g id="Group-56" transform="translate(9.885417, 12.166667)">
                        <mask id="mask-10" fill="white">
                            <use xlink:href="#path-9"></use>
                        </mask>
                        <g id="Clip-55"></g>
                        <polygon id="Fill-54" fill="#111F7A" mask="url(#mask-10)" points="-3.47586458 27.1217812 11.7484375 27.1217812 11.7484375 -3.53745833 -3.47586458 -3.53745833"></polygon>
                    </g>
                    <g id="Group-59" transform="translate(14.447917, 40.302083)">
                        <mask id="mask-12" fill="white">
                            <use xlink:href="#path-11"></use>
                        </mask>
                        <g id="Clip-58"></g>
                        <polygon id="Fill-57" fill="#FFFFFF" mask="url(#mask-12)" points="-3.066 5.43241667 9.198 5.43241667 9.198 -3.63935417 -3.066 -3.63935417"></polygon>
                    </g>
                    <g id="Group-62" transform="translate(9.125000, 10.645833)">
                        <mask id="mask-14" fill="white">
                            <use xlink:href="#path-13"></use>
                        </mask>
                        <g id="Clip-61"></g>
                        <polygon id="Fill-60" fill="#2842B6" mask="url(#mask-14)" points="-3.66444792 7.20494792 7.09316667 7.20494792 7.09316667 -3.26979167 -3.66444792 -3.26979167"></polygon>
                    </g>
                    <g id="Group-65" transform="translate(9.125000, 10.645833)">
                        <mask id="mask-16" fill="white">
                            <use xlink:href="#path-15"></use>
                        </mask>
                        <g id="Clip-64"></g>
                        <polygon id="Fill-63" fill="#2842B6" mask="url(#mask-16)" points="-3.47282292 6.16089583 6.6110625 6.16089583 6.6110625 -3.70855208 -3.47282292 -3.70855208"></polygon>
                    </g>
                    <g id="Group-68" transform="translate(7.604167, 12.166667)">
                        <mask id="mask-18" fill="white">
                            <use xlink:href="#path-17"></use>
                        </mask>
                        <g id="Clip-67"></g>
                        <polygon id="Fill-66" fill="#2842B6" mask="url(#mask-18)" points="-3.25534375 5.21721875 5.20048958 5.21721875 5.20048958 -3.51464583 -3.25534375 -3.51464583"></polygon>
                    </g>
                    <g id="Group-71" transform="translate(8.364583, 13.687500)">
                        <mask id="mask-20" fill="white">
                            <use xlink:href="#path-19"></use>
                        </mask>
                        <g id="Clip-70"></g>
                        <polygon id="Fill-69" fill="#2842B6" mask="url(#mask-20)" points="-3.69942708 5.08642708 4.75640625 5.08642708 4.75640625 -3.6454375 -3.69942708 -3.6454375"></polygon>
                    </g>
                    <g id="Group-74" transform="translate(12.166667, 11.406250)">
                        <mask id="mask-22" fill="white">
                            <use xlink:href="#path-21"></use>
                        </mask>
                        <g id="Clip-73"></g>
                        <polygon id="Fill-72" fill="#2842B6" mask="url(#mask-22)" points="-3.1800625 5.173875 5.27577083 5.173875 5.27577083 -3.55798958 -3.1800625 -3.55798958"></polygon>
                    </g>
                    <g id="Group-77" transform="translate(12.927083, 12.927083)">
                        <mask id="mask-24" fill="white">
                            <use xlink:href="#path-23"></use>
                        </mask>
                        <g id="Clip-76"></g>
                        <polygon id="Fill-75" fill="#2842B6" mask="url(#mask-24)" points="-3.62414583 5.04384375 4.8316875 5.04384375 4.8316875 -3.68802083 -3.62414583 -3.68802083"></polygon>
                    </g>
                    <g id="Group-80" transform="translate(15.968750, 44.104167)">
                        <mask id="mask-26" fill="white">
                            <use xlink:href="#path-25"></use>
                        </mask>
                        <g id="Clip-79"></g>
                        <polygon id="Fill-78" fill="#111F7A" mask="url(#mask-26)" points="-3.20059375 7.22395833 8.07866667 7.22395833 8.07866667 -3.67053125 -3.20059375 -3.67053125"></polygon>
                    </g>
                    <g id="Group-83" transform="translate(3.041667, 18.250000)">
                        <mask id="mask-28" fill="white">
                            <use xlink:href="#path-27"></use>
                        </mask>
                        <g id="Clip-82"></g>
                        <polygon id="Fill-81" fill="#F4A880" mask="url(#mask-28)" points="-3.37701042 16.4037083 16.4774687 16.4037083 16.4774687 -3.55875 -3.37701042 -3.55875"></polygon>
                    </g>
                    <g id="Group-86" transform="translate(0.000000, 22.812500)">
                        <mask id="mask-30" fill="white">
                            <use xlink:href="#path-29"></use>
                        </mask>
                        <g id="Clip-85"></g>
                        <polygon id="Fill-84" fill="#111F7A" mask="url(#mask-30)" points="-6.49852083 17.8439375 11.4092917 17.8439375 11.4092917 -3.61882292 -6.49852083 -3.61882292"></polygon>
                    </g>
                    <g id="Group-89" transform="translate(22.812500, 14.447917)">
                        <mask id="mask-32" fill="white">
                            <use xlink:href="#path-31"></use>
                        </mask>
                        <g id="Clip-88"></g>
                        <polygon id="Fill-87" fill="#F4A880" mask="url(#mask-32)" points="-3.71995833 11.7241042 11.4016875 11.7241042 11.4016875 -3.57547917 -3.71995833 -3.57547917"></polygon>
                    </g>
                    <g id="Group-92" transform="translate(23.572917, 14.447917)">
                        <mask id="mask-34" fill="white">
                            <use xlink:href="#path-33"></use>
                        </mask>
                        <g id="Clip-91"></g>
                        <polygon id="Fill-90" fill="#CC8E6E" mask="url(#mask-34)" points="-3.15877083 8.73642708 10.5530625 8.73642708 10.5530625 -3.68497917 -3.15877083 -3.68497917"></polygon>
                    </g>
                    <g id="Group-95" transform="translate(22.052083, 3.041667)">
                        <mask id="mask-36" fill="white">
                            <use xlink:href="#path-35"></use>
                        </mask>
                        <g id="Clip-94"></g>
                        <polygon id="Fill-93" fill="#F4A880" mask="url(#mask-36)" points="-3.06676042 18.4370625 15.6972813 18.4370625 15.6972813 -3.45001042 -3.06676042 -3.45001042"></polygon>
                    </g>
                    <g id="Group-98" transform="translate(22.812500, 3.041667)">
                        <mask id="mask-38" fill="white">
                            <use xlink:href="#path-37"></use>
                        </mask>
                        <g id="Clip-97"></g>
                        <polygon id="Fill-96" fill="#08135A" mask="url(#mask-38)" points="-3.52529167 10.2344479 14.9726042 10.2344479 14.9726042 -3.57623958 -3.52529167 -3.57623958"></polygon>
                    </g>
                    <g id="Group-101" transform="translate(20.531250, 7.604167)">
                        <mask id="mask-40" fill="white">
                            <use xlink:href="#path-39"></use>
                        </mask>
                        <g id="Clip-100"></g>
                        <polygon id="Fill-99" fill="#F4A880" mask="url(#mask-40)" points="-3.35191667 9.62079167 9.06188542 9.62079167 9.06188542 -3.111625 -3.35191667 -3.111625"></polygon>
                    </g>
                    <g id="Group-104" transform="translate(29.656250, 9.125000)">
                        <mask id="mask-42" fill="white">
                            <use xlink:href="#path-41"></use>
                        </mask>
                        <g id="Clip-103"></g>
                        <polygon id="Fill-102" fill="#F4A880" mask="url(#mask-42)" points="-3.10858333 9.39570833 9.3941875 9.39570833 9.3941875 -3.14660417 -3.10858333 -3.14660417"></polygon>
                    </g>
                    <g id="Group-107" transform="translate(22.812500, 19.770833)">
                        <mask id="mask-44" fill="white">
                            <use xlink:href="#path-43"></use>
                        </mask>
                        <g id="Clip-106"></g>
                        <polygon id="Fill-105" fill="#F4A880" mask="url(#mask-44)" points="-3.45533333 9.49228125 11.3598646 9.49228125 11.3598646 -3.07132292 -3.45533333 -3.07132292"></polygon>
                    </g>
                    <g id="Group-110" transform="translate(22.812500, 6.083333)">
                        <mask id="mask-46" fill="white">
                            <use xlink:href="#path-45"></use>
                        </mask>
                        <g id="Clip-109"></g>
                        <polygon id="Fill-108" fill="#08135A" mask="url(#mask-46)" points="-3.21428125 8.22390625 6.1183125 8.22390625 6.1183125 -3.14964583 -3.21428125 -3.14964583"></polygon>
                    </g>
                    <g id="Group-113" transform="translate(32.697917, 8.364583)">
                        <mask id="mask-48" fill="white">
                            <use xlink:href="#path-47"></use>
                        </mask>
                        <g id="Clip-112"></g>
                        <polygon id="Fill-111" fill="#08135A" mask="url(#mask-48)" points="-3.27511458 6.93652083 4.98985417 6.93652083 4.98985417 -3.64695833 -3.27511458 -3.64695833"></polygon>
                    </g>
                </g>
                <g id="Group-119" transform="translate(4.562500, 41.062500)" fill="#FFFFFF">
                    <path d="M3.74360729,1.70599479 C3.74360729,2.54549479 3.06227396,3.22682812 2.22277396,3.22682812 C1.38327396,3.22682812 0.701940625,2.54549479 0.701940625,1.70599479 C0.701940625,0.866494792 1.38327396,0.185161458 2.22277396,0.185161458 C3.06227396,0.185161458 3.74360729,0.866494792 3.74360729,1.70599479" id="Fill-115"></path>
                    <path d="M63.0561073,1.70599479 C63.0561073,2.54549479 62.374774,3.22682812 61.535274,3.22682812 C60.695774,3.22682812 60.0144406,2.54549479 60.0144406,1.70599479 C60.0144406,0.866494792 60.695774,0.185161458 61.535274,0.185161458 C62.374774,0.185161458 63.0561073,0.866494792 63.0561073,1.70599479" id="Fill-117"></path>
                </g>
            </g>
        </g>
    </g>
</svg>