<svg width="1441" height="522" viewBox="0 0 1441 522" fill="none" xmlns="http://www.w3.org/2000/svg">
<path d="M0 362.126C0 362.126 139.556 210.909 363.313 193.157C587.071 175.405 771.067 339.772 771.067 339.772C771.067 339.772 926.215 450.884 1107.87 437.735C1289.53 424.585 1440 324.65 1440 324.65" stroke="black" stroke-opacity="0.23" stroke-dasharray="10 5"/>
<path fill-rule="evenodd" clip-rule="evenodd" d="M391.435 214.477L391.614 213.338L371.928 210.201L371.758 211.341L371.637 212.259L371.289 214.547L370.982 216.596L368.967 229.651C367.333 228.135 364.928 227.81 362.971 228.842C360.418 230.081 359.196 232.88 360.284 235.105C361.373 237.33 364.307 238.119 366.861 236.88C368.473 236.148 369.616 234.665 369.915 232.915C369.975 232.826 370.023 232.729 370.056 232.626L372.419 216.944L389.122 219.595L387.145 232.559C385.51 231.043 383.106 230.717 381.146 231.745C378.592 232.984 377.362 235.792 378.455 238.012C379.547 240.233 382.477 241.026 385.027 239.783C386.64 239.053 387.784 237.572 388.085 235.823C388.15 235.738 388.199 235.641 388.231 235.538L390.612 219.742L390.923 217.698L391.267 215.405L391.435 214.477Z" fill="#D8D8D8"/>
<path fill-rule="evenodd" clip-rule="evenodd" d="M360.224 157.397L360.349 156.621L346.951 154.553L346.831 155.329L346.746 155.954L346.501 157.512L346.285 158.908L344.868 167.798C343.76 166.772 342.123 166.559 340.787 167.268C339.043 168.119 338.202 170.028 338.935 171.539C339.669 173.049 341.665 173.576 343.409 172.724C344.51 172.221 345.293 171.208 345.503 170.016C345.544 169.955 345.577 169.889 345.6 169.819L347.263 159.14L358.631 160.887L357.241 169.715C356.132 168.689 354.495 168.475 353.157 169.182C351.413 170.034 350.566 171.948 351.303 173.456C352.039 174.963 354.032 175.493 355.773 174.638C356.875 174.136 357.659 173.124 357.87 171.933C357.915 171.875 357.948 171.809 357.97 171.739L359.645 160.983L359.864 159.59L360.107 158.029L360.224 157.397Z" fill="#D8D8D8"/>
<path fill-rule="evenodd" clip-rule="evenodd" d="M866.435 430.661L866.614 429.522L846.928 426.384L846.758 427.524L846.637 428.443L846.289 430.731L845.982 432.78L843.967 445.834C842.333 444.318 839.928 443.994 837.971 445.026C835.418 446.265 834.196 449.064 835.284 451.289C836.373 453.514 839.307 454.303 841.861 453.064C843.473 452.332 844.616 450.849 844.915 449.099C844.975 449.01 845.023 448.913 845.056 448.81L847.419 433.128L864.122 435.779L862.145 448.742C860.51 447.227 858.106 446.901 856.146 447.929C853.592 449.168 852.362 451.975 853.455 454.196C854.547 456.417 857.477 457.21 860.027 455.967C861.64 455.237 862.784 453.756 863.085 452.007C863.15 451.921 863.199 451.825 863.231 451.722L865.612 435.926L865.923 433.882L866.267 431.589L866.435 430.661Z" fill="#D8D8D8"/>
<path fill-rule="evenodd" clip-rule="evenodd" d="M806.519 389.636L806.003 389L795 397.903L795.521 398.535L795.947 399.035L796.989 400.307L797.924 401.443L803.852 408.714C802.276 408.856 800.963 409.971 800.578 411.495C800.019 413.432 800.915 415.408 802.605 415.891C804.295 416.375 806.105 415.2 806.664 413.263C807.044 412.063 806.804 410.755 806.024 409.765C806.006 409.691 805.977 409.62 805.939 409.553L798.79 400.849L808.12 393.29L814.018 400.498C812.442 400.64 811.128 401.755 810.74 403.279C810.181 405.216 811.077 407.2 812.767 407.679C814.457 408.158 816.267 406.988 816.822 405.051C817.203 403.852 816.965 402.544 816.186 401.553C816.172 401.478 816.144 401.407 816.105 401.341L808.905 392.574L807.974 391.438L806.929 390.166L806.519 389.636Z" fill="#D8D8D8"/>
<path fill-rule="evenodd" clip-rule="evenodd" d="M1080.52 401.636L1080 401L1069 409.903L1069.52 410.535L1069.95 411.035L1070.99 412.307L1071.92 413.443L1077.85 420.714C1076.28 420.856 1074.96 421.971 1074.58 423.495C1074.02 425.432 1074.92 427.408 1076.61 427.891C1078.3 428.375 1080.11 427.2 1080.66 425.263C1081.04 424.063 1080.8 422.755 1080.02 421.765C1080.01 421.691 1079.98 421.62 1079.94 421.553L1072.79 412.849L1082.12 405.29L1088.02 412.498C1086.44 412.64 1085.13 413.755 1084.74 415.279C1084.18 417.216 1085.08 419.2 1086.77 419.679C1088.46 420.158 1090.27 418.988 1090.82 417.051C1091.2 415.852 1090.96 414.544 1090.19 413.553C1090.17 413.478 1090.14 413.407 1090.1 413.341L1082.9 404.574L1081.97 403.438L1080.93 402.166L1080.52 401.636Z" fill="#D8D8D8"/>
</svg>
