<svg width="136" height="246" viewBox="0 0 136 246" fill="none" xmlns="http://www.w3.org/2000/svg">
<path d="M3 30.3017L33.4186 243.5" stroke="#08135A" stroke-width="5" stroke-linecap="round" stroke-linejoin="round"/>
<path d="M58.6836 41.9004L86.5 243.5" stroke="#08135A" stroke-width="5" stroke-linecap="round" stroke-linejoin="round"/>
<path fill-rule="evenodd" clip-rule="evenodd" d="M24.0459 180.739H78.0914L80.7239 194.622H25.9638L24.0459 180.739Z" fill="#08135A"/>
<path fill-rule="evenodd" clip-rule="evenodd" d="M27.7041 207.515H82.1379L84.3821 221.398H29.6047L27.7041 207.515Z" fill="#08135A"/>
<path fill-rule="evenodd" clip-rule="evenodd" d="M19.958 153.963H74.6473L76.636 167.846H22.3689L19.958 153.963Z" fill="#08135A"/>
<path fill-rule="evenodd" clip-rule="evenodd" d="M16.4238 127.187H70.1187L73.1018 141.071H18.0629L16.4238 127.187Z" fill="#08135A"/>
<path fill-rule="evenodd" clip-rule="evenodd" d="M12.5645 100.411H66.9823L69.2424 114.295H14.1838L12.5645 100.411Z" fill="#08135A"/>
<path fill-rule="evenodd" clip-rule="evenodd" d="M8.54541 73.6349H63.227L65.2234 87.5187H10.6775L8.54541 73.6349Z" fill="#08135A"/>
<path fill-rule="evenodd" clip-rule="evenodd" d="M5.07959 46.8589H59.7855L61.7576 60.7427H6.5119L5.07959 46.8589Z" fill="#08135A"/>
<path fill-rule="evenodd" clip-rule="evenodd" d="M64.4143 175.255V177.524C64.4143 177.524 56.4116 179.622 58.3934 180.524C60.3752 181.425 65.8431 180.825 67.5032 180.524C68.4968 180.11 67.5032 174 67.5032 174L64.4143 175.255Z" fill="white"/>
<path fill-rule="evenodd" clip-rule="evenodd" d="M36.0612 159.295L37.5395 162.193C37.5395 162.193 33 166.537 33 169.351C33 172.165 42 165.092 42 162.193C42 159.295 40.8336 158 40.8336 158L36.0612 159.295Z" fill="white"/>
<path fill-rule="evenodd" clip-rule="evenodd" d="M44 101.247L62.3589 177H69L66.4923 82L44 89.2673V101.247Z" fill="#2842B6"/>
<path fill-rule="evenodd" clip-rule="evenodd" d="M35.2097 80.3168C35.2097 80.3168 24.9436 102.582 20.5188 111.488C16.0939 120.394 24.5606 136.777 24.5606 136.777L34.4394 159H42.0007L33.2182 120.574L52.1618 98.2182C52.1618 98.2182 71.8867 96.7236 65.3906 77.0016C65.3391 76.9282 35.2097 80.3168 35.2097 80.3168Z" fill="#395DFF"/>
<path fill-rule="evenodd" clip-rule="evenodd" d="M40.0021 8C40.0021 8 35.4392 14.6174 34.3598 15.3004C33.2804 15.9835 35.4392 16.7192 35.4392 16.7192C35.4392 16.7192 33.7862 21.0426 36.3218 22.8519C38.8573 24.6612 40.0021 23.8064 40.0021 30.2013C40.0021 36.5962 60 28.3792 60 28.3792L47.225 8H40.0021Z" fill="#DCE0F6"/>
<path fill-rule="evenodd" clip-rule="evenodd" d="M39.9488 29.3424C39.968 29.3424 34.1693 57.1887 31.0042 72.3817C29.9691 77.3498 33.7645 82 38.8393 82H59.2251C64.8737 82 68.7433 76.3045 66.6625 71.0531L50 29C50 29 45.7087 32.8566 39.9488 29.3424Z" fill="#D20046"/>
<path fill-rule="evenodd" clip-rule="evenodd" d="M65.3993 6.69432C69.9993 10.1852 82.7815 1.518 91.8163 6.69432C94.4709 7.97153 99 11.7844 99 11.7844C99 11.7844 88.8264 4.54186 81.031 6.69432C73.2357 8.84679 65.7942 12.9895 61.8544 11.7844C57.9147 10.5793 60.7994 3.20345 65.3993 6.69432Z" fill="#6254E8"/>
<path fill-rule="evenodd" clip-rule="evenodd" d="M38.292 7.99485C39.8723 2.7834 49.4869 -3.93768 60.1738 2.90052C70.8608 9.73872 70.1702 13.6356 79.9645 10.6787C89.7589 7.72186 96.6569 10.7616 101.631 20.127C106.606 29.4923 112.201 29.4923 120.768 29.4923C129.335 29.4923 141.374 45.6032 133.374 60.9426C125.375 76.2819 91.6705 80.3071 87.6843 60.9426C83.698 41.578 67.4504 47.0414 57.2714 42.3346C47.0924 37.6278 42.6549 22.7474 42.6549 20.1611C42.5689 20.3729 45.7256 21.1173 46.5272 18.978C47.3288 16.8387 46.5272 15.6814 45.2365 16.6245C43.9458 17.5676 42.6264 18.4192 42.6264 18.4192C42.6264 18.4192 43.2214 16.3984 42.6264 14.9242C42.0314 13.4499 36.7118 13.2063 38.292 7.99485Z" fill="#6254E8"/>
<path fill-rule="evenodd" clip-rule="evenodd" d="M7 33.5795L5.30107 32.4647C5.30107 32.4647 3.78321 28.499 1.70698 30.9141C-0.369251 33.3292 3.65191 34.142 3.65191 34.142L5.68575 36L7 33.5795Z" fill="#DCE0F6"/>
<path fill-rule="evenodd" clip-rule="evenodd" d="M43.6522 36.0443C33.7921 32.4128 30.7957 49.14 7.54774 33.0068C7.59143 32.8564 5 36.0443 5 36.0443C5 36.0443 14.5642 52.6022 29 52.6022C43.4358 52.6022 43.6522 50.2719 45.6132 47.0264C47.5741 43.7808 47.5879 38.0787 43.6522 36.0443Z" fill="#F60C5A"/>
</svg>
