<svg width="120" height="96" viewBox="0 0 120 96" fill="none" xmlns="http://www.w3.org/2000/svg">
<path d="M16.125 47.8318C16.9688 49.1443 18.9375 49.1443 19.7812 47.8318C33.4688 28.1443 36 26.0818 36 18.7693C36 8.83179 27.9375 0.769287 18 0.769287C7.96875 0.769287 0 8.83179 0 18.7693C0 26.0818 2.4375 28.1443 16.125 47.8318Z" fill="#082487"/>
<circle cx="18" cy="16.7693" r="8" fill="white"/>
<circle cx="18" cy="16.7693" r="4" fill="#F6732F"/>
<path d="M100.125 94.8318C100.969 96.1443 102.938 96.1443 103.781 94.8318C117.469 75.1443 120 73.0818 120 65.7693C120 55.8318 111.938 47.7693 102 47.7693C91.9688 47.7693 84 55.8318 84 65.7693C84 73.0818 86.4375 75.1443 100.125 94.8318Z" fill="#082487"/>
<circle cx="102" cy="63.7693" r="8" fill="white"/>
<circle cx="102" cy="63.7693" r="4" fill="#F6732F"/>
<line x1="44" y1="53.7693" x2="44" y2="47.7693" stroke="#082487" stroke-width="2" stroke-linecap="round"/>
<line x1="52" y1="53.7693" x2="52" y2="47.7693" stroke="#082487" stroke-width="2" stroke-linecap="round"/>
<line x1="60" y1="53.7693" x2="60" y2="47.7693" stroke="#082487" stroke-width="2" stroke-linecap="round"/>
<line x1="68" y1="53.7693" x2="68" y2="47.7693" stroke="#082487" stroke-width="2" stroke-linecap="round"/>
</svg>
