<svg width="150" height="82" viewBox="0 0 150 82" fill="none" xmlns="http://www.w3.org/2000/svg">
<g clip-path="url(#clip0)">
<path fill-rule="evenodd" clip-rule="evenodd" d="M115.568 46.0227C115.283 43.5845 114.741 42.2629 113.864 41.8636C113.53 41.7119 112.991 41.6239 112.315 42.0663L112.183 42.1527L112.115 42.2928C111.059 44.4391 110.148 45.3644 109.972 45.5323C109.771 45.7274 109.466 45.9409 109.36 45.977C109.208 46.0055 108.727 45.9437 108.554 45.8582C108.486 45.8229 108.308 45.6754 108.248 45.6034C107.958 45.2668 107.486 44.327 107.284 43.9262C107.009 43.3766 106.638 42.5104 106.317 41.6661C106.057 40.981 105.825 40.4282 105.532 39.7282C105.307 39.1893 105.051 38.5784 104.71 37.7383C103.709 35.2865 103.006 33.9363 102.281 33.0771C101.587 32.2586 100.905 31.7027 100.133 31.3275C98.937 30.7476 97.7236 30.6859 96.5242 31.1444C95.4889 31.5443 94.8015 32.246 94.2658 32.8798L94.2344 32.9204C93.3347 34.2018 93.1094 34.578 92.6157 35.4026L92.6034 35.4233C91.9771 36.4646 91.7551 36.8919 91.3129 37.7434C91.2224 37.9177 91.1222 38.1107 91.0069 38.3311C90.2945 39.6931 90.2197 39.8548 89.5034 41.4025L89.4805 41.4523C88.5852 43.386 88.0461 44.2985 87.0926 45.4902C87.0401 45.5412 86.9897 45.5859 86.9394 45.6266C86.8955 45.662 86.8564 45.6964 86.818 45.7304C86.6999 45.8349 86.6143 45.9108 86.1936 46.0462C86.073 46.0579 85.7001 45.9718 85.3974 45.8424C85.3314 45.8059 85.1712 45.6702 85.1098 45.5966C84.8325 45.2747 84.3609 44.4028 84.1565 43.9405C83.8891 43.3464 83.4056 42.2668 83.1729 41.7117C83.0024 41.3008 82.767 40.7041 82.5177 40.0724C82.1723 39.197 81.8151 38.2918 81.5671 37.7188C80.818 36.0044 79.8655 33.9267 79.1427 33.0704C78.4494 32.2521 77.767 31.6961 76.9948 31.3208C75.7991 30.7409 74.5856 30.6789 73.3862 31.1376C72.3508 31.5375 71.6634 32.2393 71.1277 32.8731L71.0965 32.9136C70.1977 34.1936 69.9726 34.5695 69.4794 35.393L69.4648 35.4176C68.729 36.6474 67.3784 38.96 67.3628 38.9867L65.9874 41.3806L63.9343 44.5293L64.1603 53.1312L65.0006 52.6697C65.3988 52.4511 65.6952 52.1154 65.9566 51.8191C66.0439 51.7202 66.1265 51.6266 66.2092 51.5409L66.2307 51.5174C66.9686 50.6621 67.6688 49.3771 67.6982 49.3228L67.7069 49.3059C67.7303 49.2592 70.0462 44.6252 70.9083 43.1366C71.399 42.2894 72.5287 40.6313 73.1825 39.961C73.3718 39.7665 73.771 39.4709 74.0018 39.3817L74.0363 39.3669C74.2573 39.2793 75.1022 39.3907 75.3424 39.5697C75.7665 39.8887 76.4589 40.9804 76.7915 41.5051L76.8934 41.6653C77.2525 42.2239 77.91 43.441 78.2357 44.115C78.5547 44.7767 79.0238 45.9027 79.4378 46.896C79.7294 47.5959 80.0048 48.257 80.2164 48.7317C80.511 49.3897 81.1234 50.6796 81.4607 51.2909C81.895 52.0775 82.5671 53.1157 83.3072 53.5981C83.8399 53.9387 84.4155 54.1516 85.0144 54.2307C85.5371 54.303 86.0655 54.2708 86.58 54.1363C87.1189 54.0001 87.5965 53.7777 88.0374 53.4579C88.5173 53.1143 88.9613 52.676 89.4387 52.0738C89.8028 51.6041 90.1544 51.0604 90.5126 50.413C91.1522 49.2653 91.669 48.0653 92.0906 47.0405C92.2704 46.6731 92.4512 46.2967 92.63 45.9245C93.1516 44.8389 93.6443 43.8137 94.0416 43.1447C94.9764 41.5909 95.7825 40.4337 96.2496 39.9735C96.5398 39.6928 96.8836 39.4445 97.0016 39.4064C97.2995 39.348 98.1388 39.5071 98.5106 39.6929C99.1156 39.997 99.7995 41.1836 100.024 41.5729C100.291 42.0371 100.458 42.3217 100.572 42.5177C100.813 42.9285 100.813 42.9285 101.065 43.4552C101.142 43.6182 101.243 43.8295 101.382 44.117C101.824 45.0256 102.283 46.1436 102.688 47.1299C102.933 47.7257 103.164 48.2882 103.362 48.7317C103.656 49.3897 104.269 50.6796 104.606 51.2909C105.04 52.0775 105.712 53.1157 106.452 53.5981C106.985 53.9387 107.561 54.1516 108.16 54.2307C108.341 54.2557 108.523 54.2683 108.705 54.2683C109.048 54.2683 109.389 54.2241 109.725 54.1363C110.264 54.0002 110.742 53.7777 111.182 53.458C111.662 53.1144 112.106 52.6762 112.584 52.0738C112.948 51.6035 113.3 51.0598 113.658 50.4131C114.317 49.2305 115.082 47.5586 115.514 46.5055L115.549 46.4221L115.574 46.0751L115.568 46.0227Z" fill="#F78036"/>
<path fill-rule="evenodd" clip-rule="evenodd" d="M68.8426 46.8787C68.5203 45.1479 67.8803 43.998 66.9404 43.4609C66.001 42.9238 65.1457 43.2167 65.0511 43.2519C64.9358 43.2948 64.8373 43.374 64.7701 43.478C64.4992 43.8967 63.7286 45.0546 63.4188 45.3781C63.4158 45.3812 63.413 45.3844 63.41 45.3876C63.3217 45.4843 63.0501 45.6749 62.8207 45.802C62.6433 45.8988 62.354 45.8372 62.2445 45.777C62.183 45.7425 61.9952 45.5858 61.91 45.4928C61.6446 45.2001 61.2672 44.5244 60.9923 43.8495C60.7205 43.1828 60.5611 42.8247 60.433 42.5372C60.2894 42.2146 60.1945 42.0016 60.0266 41.5348C60.0252 41.5308 60.0237 41.5269 60.0222 41.523C59.8283 41.0189 59.6344 40.5401 59.4096 39.9857C59.1037 39.2309 58.757 38.3752 58.3174 37.2222C58.3156 37.2172 58.3137 37.2122 58.3117 37.2074C57.343 34.8623 56.6755 33.4183 55.9233 32.503C55.2408 31.6755 54.5692 31.1137 53.8095 30.7344C52.6328 30.1481 51.4387 30.0857 50.2583 30.5493C49.4158 30.8834 48.6676 31.4572 47.9703 32.3043C47.446 32.9437 47.0575 33.6626 46.6817 34.3577C46.5866 34.5335 46.4913 34.7097 46.3943 34.8838C44.7512 37.8136 44.1882 38.9912 43.4753 40.4821C43.3147 40.818 43.1454 41.172 42.9533 41.5683C42.7727 41.9415 42.6318 42.2417 42.5105 42.5003C42.1239 43.3234 41.9475 43.6992 41.3047 44.6909C41.3003 44.6978 41.2959 44.7048 41.2917 44.7119C41.2315 44.8143 41.036 45.0076 40.8703 45.1304C40.8199 45.1667 40.8002 45.1764 40.7187 45.134C40.2134 44.8736 39.9589 44.5383 39.8936 44.05C39.8351 43.5942 39.7667 43.0642 39.6924 42.5428C39.5523 41.5065 39.4678 40.4354 39.3861 39.3995L39.3594 39.0629C39.3219 38.5395 39.2752 37.8882 39.2454 37.2616L39.2442 37.2372C39.1958 36.2833 39.1454 35.2969 39.1244 34.3354C39.0856 32.3995 39.1344 30.4716 39.1815 29.0085C39.1817 29.0023 39.1817 28.9961 39.1817 28.9898C39.1817 28.9748 39.1831 28.9599 39.1841 28.9449C39.1863 28.9126 39.188 28.8803 39.1887 28.848C39.2239 28.3408 39.2601 27.8166 39.2818 27.2942C39.3019 26.7398 39.3412 26.1754 39.3791 25.6296C39.3946 25.4083 39.41 25.1873 39.4236 24.9752C39.4337 24.8491 39.4453 24.7214 39.4572 24.5929C39.4704 24.4471 39.4838 24.3003 39.4948 24.1593C39.5199 23.8745 39.5465 23.5916 39.5732 23.3085C39.6003 23.0228 39.6273 22.7368 39.6518 22.4562C39.6722 22.2523 39.6901 22.0485 39.7081 21.8447C39.734 21.5517 39.7608 21.2488 39.7949 20.9494C39.8569 20.3584 39.9267 19.7629 40.0082 19.1289L40.0398 18.8845C40.1353 18.1417 40.2341 17.3735 40.3366 16.6207C40.4631 15.7558 40.5937 14.8615 40.7365 13.9891C40.9343 12.752 41.1143 11.6369 41.3146 10.5199C41.523 9.37937 41.747 8.21813 41.9639 7.0952C42.0387 6.70785 42.1136 6.32051 42.1881 5.93166C42.2014 5.86164 42.2169 5.79174 42.2324 5.72172C42.269 5.55527 42.307 5.38317 42.3237 5.20565C42.4258 4.29138 42.4024 3.39418 42.2545 2.54059C42.1515 1.93616 41.9829 1.46045 41.7246 1.04369C41.459 0.614587 41.1291 0.312253 40.7425 0.14338C40.6384 0.0512155 40.5043 0 40.365 0H40.2432C39.9823 0 39.7542 0.177986 39.6891 0.432794L39.6699 0.508003C39.5619 0.930416 39.4538 1.35237 39.3465 1.76567C38.6625 4.35078 38.0217 7.02737 37.4415 9.72057C36.8862 12.2918 36.5022 14.2741 36.1968 16.1462L36.1727 16.2908C35.9762 17.4705 35.7731 18.6902 35.6002 19.9022C35.4081 21.2294 35.2337 22.5903 35.0817 23.9487C34.968 24.9878 34.8663 26.0556 34.7795 27.1187C34.711 27.8981 34.6531 28.7373 34.5917 29.8414C34.5738 30.1796 34.561 30.5229 34.5485 30.8548C34.5364 31.1839 34.5235 31.5241 34.5059 31.854C34.4863 32.2115 34.4643 32.6303 34.4268 33.4662C34.4263 33.4748 34.4263 33.4835 34.4263 33.4922V36.0709C34.4263 36.0805 34.4263 36.0904 34.4271 36.1L34.459 36.7422C34.475 37.0637 34.475 37.0637 34.4948 37.3938L34.506 37.5795C34.5556 38.4437 34.5916 39.3318 34.6265 40.1906L34.6275 40.2134C34.6533 40.7822 34.6937 41.4044 34.7506 42.1165C34.8339 43.1372 34.9386 44.1194 35.0616 45.0325C35.2185 46.2479 35.45 47.4353 35.7512 48.5669C36.0124 49.5134 36.2977 50.2664 36.6466 50.9316C36.9348 51.4942 37.2634 51.9599 37.648 52.3519C38.8944 53.6412 40.6154 53.9157 42.142 53.0662C42.588 52.8145 42.9983 52.4865 43.3943 52.0648C43.9846 51.4413 44.4877 50.7032 44.9316 49.8093C45.3205 49.0305 45.783 48.0269 46.2726 46.9642C46.8806 45.645 47.5093 44.2809 47.9696 43.4178C48.3859 42.6366 49.6527 40.2597 50.3741 39.2708C50.4508 39.1676 50.7085 38.9396 50.9877 38.7536C51.1658 38.6471 51.8727 38.7314 52.1153 38.8869C52.5657 39.1775 53.3164 40.1142 53.7922 40.8453C54.2724 41.5921 55.0872 43.4113 55.4666 44.383C55.6541 44.864 55.8554 45.531 56.0686 46.2371C56.353 47.1794 56.6754 48.2475 57.0479 49.1455C57.485 50.1972 57.9043 51.0143 58.3692 51.7197C58.9244 52.5511 59.4914 53.1448 60.1578 53.591C60.682 53.9352 61.2486 54.1505 61.8379 54.2303C62.0165 54.2557 62.1957 54.2683 62.3749 54.2683C62.7117 54.2683 63.048 54.2237 63.3789 54.1351C63.9091 53.9972 64.3788 53.7724 64.8129 53.4493C65.2852 53.1019 65.7221 52.6589 66.1921 52.0503C66.5508 51.5746 66.8968 51.025 67.2479 50.3729C67.8359 49.2976 68.131 48.7579 68.7725 47.3339C68.7943 47.2856 68.8089 47.2357 68.8167 47.1857C68.8517 47.0909 68.8625 46.9854 68.8426 46.8787Z" fill="#082487"/>
<mask id="mask0" mask-type="alpha" maskUnits="userSpaceOnUse" x="0" y="59" width="18" height="23">
<path d="M0 59.2947H17.1498V81.3119H0V59.2947Z" fill="white"/>
</mask>
<g mask="url(#mask0)">
<path fill-rule="evenodd" clip-rule="evenodd" d="M12.4888 59.2947H17.1498V81.3119H12.4888V71.9714H4.66098V81.3119H0V59.2947H4.66098V67.7141H12.4888V59.2947Z" fill="#082487"/>
</g>
<path fill-rule="evenodd" clip-rule="evenodd" d="M30.9564 72.7377C30.9564 71.304 30.6728 70.177 30.1063 69.356C29.5391 68.5354 28.7305 68.1249 27.6793 68.1249C26.6282 68.1249 25.8138 68.5354 25.237 69.356C24.6597 70.177 24.3712 71.304 24.3712 72.7377C24.3712 74.1714 24.6597 75.3091 25.237 76.1507C25.8138 76.9922 26.6282 77.4129 27.6793 77.4129C28.7305 77.4129 29.5391 76.9922 30.1063 76.1507C30.6728 75.3091 30.9564 74.1714 30.9564 72.7377ZM35.6557 72.7377C35.6557 74.0263 35.4701 75.2053 35.0992 76.2753C34.7282 77.3456 34.192 78.2598 33.4916 79.0181C32.7906 79.7768 31.9505 80.3636 30.9719 80.7791C29.9927 81.1946 28.8953 81.4024 27.6793 81.4024C26.4837 81.4024 25.3963 81.1946 24.4177 80.7791C23.4385 80.3636 22.5985 79.7768 21.8981 79.0181C21.1971 78.2598 20.6507 77.3456 20.2594 76.2753C19.8677 75.2053 19.6721 74.0263 19.6721 72.7377C19.6721 71.4496 19.873 70.2754 20.2749 69.2157C20.6768 68.1559 21.2334 67.2521 21.9444 66.504C22.6555 65.756 23.5003 65.1745 24.4796 64.7586C25.4581 64.3432 26.5249 64.1353 27.6793 64.1353C28.8541 64.1353 29.9308 64.3432 30.9101 64.7586C31.8887 65.1745 32.7288 65.756 33.4297 66.504C34.1302 67.2521 34.6764 68.1559 35.0682 69.2157C35.4596 70.2754 35.6557 71.4496 35.6557 72.7377Z" fill="#082487"/>
<path fill-rule="evenodd" clip-rule="evenodd" d="M46.9124 71.8541C46.9124 70.4236 46.7245 69.4102 46.3492 68.8143C45.9735 68.2182 45.3295 67.9201 44.4161 67.9201C44.1318 67.9201 43.8378 67.9351 43.5334 67.965C43.229 67.9947 42.9346 68.0297 42.6506 68.0692V80.1691H38.1147V65.0294C38.5 64.9302 38.9519 64.8258 39.4694 64.7164C39.9869 64.6075 40.5349 64.5079 41.1133 64.4184C41.6916 64.329 42.2852 64.2595 42.894 64.2098C43.5029 64.1605 44.1012 64.1353 44.6902 64.1353C45.8469 64.1353 46.7855 64.2796 47.506 64.5674C48.2261 64.8556 48.8197 65.1983 49.2868 65.5957C49.9362 65.1387 50.6819 64.7812 51.5244 64.5226C52.3663 64.2646 53.1426 64.1353 53.8532 64.1353C55.1317 64.1353 56.182 64.3095 57.004 64.6568C57.8258 65.0047 58.4802 65.4963 58.9674 66.132C59.4545 66.7682 59.7893 67.5229 59.972 68.397C60.1546 69.2716 60.2459 70.2448 60.2459 71.3176V80.1691H55.7101V71.8541C55.7101 70.4236 55.5223 69.4102 55.1468 68.8143C54.7712 68.2182 54.1273 67.9201 53.2139 67.9201C52.9703 67.9201 52.6303 67.9798 52.1941 68.099C51.7575 68.2182 51.3974 68.3672 51.1134 68.5461C51.2551 69.0034 51.3465 69.4848 51.3875 69.9916C51.4279 70.4982 51.4482 71.0396 51.4482 71.6157V80.1691H46.9124V71.8541Z" fill="#082487"/>
<path fill-rule="evenodd" clip-rule="evenodd" d="M73.1582 71.1169C73.1381 70.7225 73.0731 70.3377 72.9641 69.9637C72.8544 69.5897 72.6849 69.2575 72.4563 68.9664C72.2271 68.6756 71.9383 68.4365 71.5901 68.2495C71.2416 68.0625 70.8085 67.9689 70.291 67.9689C69.7931 67.9689 69.3651 68.0577 69.0068 68.2339C68.6482 68.4108 68.3496 68.6444 68.1107 68.9352C67.8718 69.2265 67.6876 69.5639 67.5582 69.9481C67.4285 70.3328 67.3342 70.7225 67.2745 71.1169H73.1582ZM62.7048 72.8936C62.7048 71.4393 62.9186 70.1664 63.3469 69.0755C63.775 67.9846 64.3372 67.0757 65.0344 66.3483C65.7312 65.6211 66.5324 65.0704 67.4388 64.6963C68.3445 64.3224 69.2754 64.1353 70.2312 64.1353C72.461 64.1353 74.2231 64.8473 75.5176 66.2704C76.8117 67.6938 77.4589 69.7874 77.4589 72.5508C77.4589 72.821 77.4487 73.1171 77.4292 73.4391C77.4091 73.7614 77.3889 74.0468 77.3695 74.2961H67.2745C67.3739 75.2521 67.8018 76.0104 68.5587 76.5714C69.3152 77.1325 70.3306 77.4131 71.6051 77.4131C72.4213 77.4131 73.2225 77.3351 74.0094 77.1793C74.7957 77.0233 75.4378 76.8315 75.9358 76.6027L76.5331 80.3739C76.2941 80.4986 75.9755 80.6234 75.5774 80.748C75.1788 80.8727 74.736 80.9817 74.2483 81.0753C73.7602 81.1688 73.2375 81.2466 72.6803 81.3091C72.1227 81.3714 71.5649 81.4024 71.0078 81.4024C69.5938 81.4024 68.3645 81.1843 67.3192 80.748C66.2738 80.3116 65.4078 79.7145 64.7209 78.9558C64.034 78.1975 63.5262 77.2989 63.1976 76.2598C62.8691 75.221 62.7048 74.099 62.7048 72.8936Z" fill="#082487"/>
<path fill-rule="evenodd" clip-rule="evenodd" d="M88.7156 71.8541C88.7156 70.4236 88.5277 69.4102 88.1524 68.8143C87.7767 68.2182 87.1327 67.9201 86.2193 67.9201C85.935 67.9201 85.641 67.9351 85.3367 67.965C85.0322 67.9947 84.7378 68.0297 84.4538 68.0692V80.1691H79.918V65.0294C80.3032 64.9302 80.7552 64.8258 81.2726 64.7164C81.7901 64.6075 82.3381 64.5079 82.9165 64.4184C83.4948 64.329 84.0884 64.2595 84.6973 64.2098C85.3061 64.1605 85.9045 64.1353 86.4934 64.1353C87.6501 64.1353 88.5887 64.2796 89.3093 64.5674C90.0293 64.8556 90.6229 65.1983 91.0901 65.5957C91.7394 65.1387 92.4851 64.7812 93.3276 64.5226C94.1695 64.2646 94.9459 64.1353 95.6564 64.1353C96.935 64.1353 97.9853 64.3095 98.8072 64.6568C99.629 65.0047 100.283 65.4963 100.771 66.132C101.258 66.7682 101.593 67.5229 101.775 68.397C101.958 69.2716 102.049 70.2448 102.049 71.3176V80.1691H97.5133V71.8541C97.5133 70.4236 97.3255 69.4102 96.9501 68.8143C96.5744 68.2182 95.9305 67.9201 95.0171 67.9201C94.7735 67.9201 94.4335 67.9798 93.9973 68.099C93.5607 68.2182 93.2006 68.3672 92.9166 68.5461C93.0583 69.0034 93.1497 69.4848 93.1907 69.9916C93.2311 70.4982 93.2516 71.0396 93.2516 71.6157V80.1691H88.7156V71.8541Z" fill="#082487"/>
<path fill-rule="evenodd" clip-rule="evenodd" d="M119.262 80.5084C118.507 80.7274 117.535 80.9308 116.343 81.1194C115.151 81.3081 113.9 81.4025 112.589 81.4025C111.259 81.4025 110.151 81.2238 109.268 80.8661C108.384 80.5084 107.684 80.0069 107.168 79.3611C106.651 78.7155 106.284 77.9454 106.066 77.0514C105.847 76.1573 105.738 75.1738 105.738 74.1008V65.3687H110.176V73.5644C110.176 74.995 110.365 76.0283 110.743 76.6639C111.12 77.3 111.825 77.6176 112.858 77.6176C113.175 77.6176 113.513 77.6027 113.87 77.5729C114.228 77.543 114.545 77.5086 114.824 77.4687V65.3687H119.262V80.5084Z" fill="#081082"/>
<mask id="mask1" mask-type="alpha" maskUnits="userSpaceOnUse" x="120" y="64" width="13" height="18">
<path d="M120.542 64.2448H132.721V81.4024H120.542V64.2448Z" fill="white"/>
</mask>
<g mask="url(#mask1)">
<path fill-rule="evenodd" clip-rule="evenodd" d="M126.015 77.655C126.837 77.655 127.418 77.5727 127.759 77.4073C128.1 77.2422 128.27 76.9224 128.27 76.4471C128.27 76.0754 128.05 75.7503 127.609 75.4715C127.168 75.1928 126.496 74.8783 125.594 74.5269C124.892 74.2589 124.256 73.9801 123.685 73.6907C123.113 73.4019 122.627 73.0559 122.226 72.6533C121.825 72.2507 121.514 71.7706 121.294 71.2131C121.073 70.6556 120.963 69.9849 120.963 69.2001C120.963 67.6723 121.514 66.4645 122.617 65.5765C123.719 64.6889 125.233 64.2448 127.158 64.2448C128.12 64.2448 129.042 64.3329 129.925 64.508C130.806 64.6836 131.508 64.8749 132.03 65.0809L131.248 68.6736C130.726 68.4876 130.16 68.3228 129.548 68.178C128.937 68.0339 128.25 67.9612 127.489 67.9612C126.085 67.9612 125.384 68.3638 125.384 69.169C125.384 69.3548 125.414 69.5205 125.474 69.6646C125.534 69.8094 125.654 69.9487 125.835 70.0828C126.015 70.2172 126.26 70.3624 126.571 70.5183C126.882 70.6745 127.278 70.8463 127.759 71.0332C128.741 71.4081 129.553 71.7778 130.195 72.1417C130.836 72.5061 131.342 72.8995 131.714 73.3215C132.084 73.744 132.345 74.213 132.496 74.7278C132.646 75.2427 132.721 75.8404 132.721 76.5198C132.721 78.1269 132.135 79.3425 130.962 80.1665C129.789 80.9902 128.13 81.4025 125.985 81.4025C124.581 81.4025 123.414 81.2786 122.482 81.0308C121.549 80.783 120.903 80.577 120.542 80.4113L121.294 76.664C122.055 76.9737 122.837 77.2166 123.639 77.3918C124.441 77.5674 125.233 77.655 126.015 77.655Z" fill="#082487"/>
</g>
<path fill-rule="evenodd" clip-rule="evenodd" d="M145.699 71.1169C145.679 70.7225 145.614 70.3377 145.505 69.9637C145.395 69.5897 145.226 69.2575 144.997 68.9664C144.768 68.6756 144.479 68.4365 144.131 68.2495C143.783 68.0625 143.35 67.9689 142.832 67.9689C142.334 67.9689 141.906 68.0577 141.548 68.2339C141.189 68.4108 140.891 68.6444 140.652 68.9352C140.413 69.2265 140.228 69.5639 140.099 69.9481C139.969 70.3328 139.875 70.7225 139.815 71.1169H145.699ZM135.246 72.8936C135.246 71.4393 135.46 70.1664 135.888 69.0755C136.316 67.9846 136.878 67.0757 137.575 66.3483C138.272 65.6211 139.073 65.0704 139.98 64.6963C140.886 64.3224 141.816 64.1353 142.772 64.1353C145.002 64.1353 146.764 64.8473 148.059 66.2704C149.353 67.6938 150 69.7874 150 72.5508C150 72.821 149.99 73.1171 149.97 73.4391C149.95 73.7614 149.93 74.0468 149.91 74.2961H139.815C139.915 75.2521 140.343 76.0104 141.1 76.5714C141.856 77.1325 142.872 77.4131 144.146 77.4131C144.962 77.4131 145.763 77.3351 146.55 77.1793C147.337 77.0233 147.979 76.8315 148.477 76.6027L149.074 80.3739C148.835 80.4986 148.516 80.6234 148.118 80.748C147.72 80.8727 147.277 80.9817 146.789 81.0753C146.301 81.1688 145.778 81.2466 145.221 81.3091C144.664 81.3714 144.106 81.4024 143.549 81.4024C142.135 81.4024 140.906 81.1843 139.86 80.748C138.815 80.3116 137.949 79.7145 137.262 78.9558C136.575 78.1975 136.067 77.2989 135.739 76.2598C135.41 75.221 135.246 74.099 135.246 72.8936Z" fill="#082487"/>
</g>
<defs>
<clipPath id="clip0">
<rect width="150" height="81.4024" fill="white"/>
</clipPath>
</defs>
</svg>
