<svg width="160" height="66" viewBox="0 0 160 66" fill="none" xmlns="http://www.w3.org/2000/svg">
<path d="M9.504 51.1415V53.2695H6.16V62.2295H3.664V53.2695H0.32V51.1415H9.504ZM10.9481 62.2295V50.1975L13.3321 49.8135V53.8455C13.4921 53.7922 13.6948 53.7442 13.9401 53.7015C14.1961 53.6482 14.4415 53.6215 14.6761 53.6215C15.3588 53.6215 15.9241 53.7175 16.3721 53.9095C16.8308 54.0908 17.1935 54.3522 17.4601 54.6935C17.7375 55.0348 17.9295 55.4402 18.0361 55.9095C18.1535 56.3788 18.2121 56.9015 18.2121 57.4775V62.2295H15.8281V57.7655C15.8281 56.9975 15.7268 56.4535 15.5241 56.1335C15.3321 55.8135 14.9695 55.6535 14.4361 55.6535C14.2228 55.6535 14.0201 55.6748 13.8281 55.7175C13.6468 55.7495 13.4815 55.7868 13.3321 55.8295V62.2295H10.9481ZM19.97 58.0855C19.97 57.3388 20.082 56.6882 20.306 56.1335C20.5407 55.5682 20.8447 55.0988 21.218 54.7255C21.5913 54.3522 22.018 54.0695 22.498 53.8775C22.9887 53.6855 23.49 53.5895 24.002 53.5895C25.1967 53.5895 26.1407 53.9575 26.834 54.6935C27.5273 55.4188 27.874 56.4908 27.874 57.9095C27.874 58.0482 27.8687 58.2028 27.858 58.3735C27.8473 58.5335 27.8367 58.6775 27.826 58.8055H22.418C22.4713 59.2962 22.7007 59.6855 23.106 59.9735C23.5113 60.2615 24.0553 60.4055 24.738 60.4055C25.1753 60.4055 25.602 60.3682 26.018 60.2935C26.4447 60.2082 26.7913 60.1068 27.058 59.9895L27.378 61.9255C27.25 61.9895 27.0793 62.0535 26.866 62.1175C26.6527 62.1815 26.4127 62.2348 26.146 62.2775C25.89 62.3308 25.6127 62.3735 25.314 62.4055C25.0153 62.4375 24.7167 62.4535 24.418 62.4535C23.6607 62.4535 22.9993 62.3415 22.434 62.1175C21.8793 61.8935 21.4153 61.5895 21.042 61.2055C20.6793 60.8108 20.4073 60.3468 20.226 59.8135C20.0553 59.2802 19.97 58.7042 19.97 58.0855ZM25.57 57.1735C25.5593 56.9708 25.522 56.7735 25.458 56.5815C25.4047 56.3895 25.314 56.2188 25.186 56.0695C25.0687 55.9202 24.914 55.7975 24.722 55.7015C24.5407 55.6055 24.3113 55.5575 24.034 55.5575C23.7673 55.5575 23.538 55.6055 23.346 55.7015C23.154 55.7868 22.994 55.9042 22.866 56.0535C22.738 56.2028 22.6367 56.3788 22.562 56.5815C22.498 56.7735 22.45 56.9708 22.418 57.1735H25.57ZM40.4055 51.1415H42.9015V62.2295H40.4055V57.5255H36.2135V62.2295H33.7175V51.1415H36.2135V55.3815H40.4055V51.1415ZM53.1795 58.0055C53.1795 58.6668 53.0835 59.2748 52.8915 59.8295C52.6995 60.3735 52.4222 60.8428 52.0595 61.2375C51.6968 61.6215 51.2595 61.9202 50.7475 62.1335C50.2462 62.3468 49.6808 62.4535 49.0515 62.4535C48.4328 62.4535 47.8675 62.3468 47.3555 62.1335C46.8542 61.9202 46.4222 61.6215 46.0595 61.2375C45.6968 60.8428 45.4142 60.3735 45.2115 59.8295C45.0088 59.2748 44.9075 58.6668 44.9075 58.0055C44.9075 57.3442 45.0088 56.7415 45.2115 56.1975C45.4248 55.6535 45.7128 55.1895 46.0755 54.8055C46.4488 54.4215 46.8862 54.1228 47.3875 53.9095C47.8995 53.6962 48.4542 53.5895 49.0515 53.5895C49.6595 53.5895 50.2142 53.6962 50.7155 53.9095C51.2275 54.1228 51.6648 54.4215 52.0275 54.8055C52.3902 55.1895 52.6728 55.6535 52.8755 56.1975C53.0782 56.7415 53.1795 57.3442 53.1795 58.0055ZM50.7475 58.0055C50.7475 57.2695 50.5982 56.6935 50.2995 56.2775C50.0115 55.8508 49.5955 55.6375 49.0515 55.6375C48.5075 55.6375 48.0862 55.8508 47.7875 56.2775C47.4888 56.6935 47.3395 57.2695 47.3395 58.0055C47.3395 58.7415 47.4888 59.3282 47.7875 59.7655C48.0862 60.1922 48.5075 60.4055 49.0515 60.4055C49.5955 60.4055 50.0115 60.1922 50.2995 59.7655C50.5982 59.3282 50.7475 58.7415 50.7475 58.0055ZM59.6503 57.7655C59.6503 56.9975 59.5489 56.4535 59.3463 56.1335C59.1543 55.8135 58.8183 55.6535 58.3383 55.6535C58.1889 55.6535 58.0343 55.6642 57.8743 55.6855C57.7143 55.6962 57.5596 55.7122 57.4103 55.7335V62.2295H55.0263V54.1015C55.2289 54.0482 55.4636 53.9948 55.7303 53.9415C56.0076 53.8775 56.2956 53.8242 56.5943 53.7815C56.9036 53.7282 57.2183 53.6908 57.5383 53.6695C57.8583 53.6375 58.1729 53.6215 58.4823 53.6215C59.0903 53.6215 59.5809 53.7015 59.9543 53.8615C60.3383 54.0108 60.6529 54.1922 60.8983 54.4055C61.2396 54.1602 61.6289 53.9682 62.0663 53.8295C62.5143 53.6908 62.9249 53.6215 63.2983 53.6215C63.9703 53.6215 64.5196 53.7175 64.9463 53.9095C65.3836 54.0908 65.7303 54.3522 65.9863 54.6935C66.2423 55.0348 66.4183 55.4402 66.5143 55.9095C66.6103 56.3788 66.6583 56.9015 66.6583 57.4775V62.2295H64.2743V57.7655C64.2743 56.9975 64.1729 56.4535 63.9703 56.1335C63.7783 55.8135 63.4423 55.6535 62.9623 55.6535C62.8343 55.6535 62.6529 55.6855 62.4183 55.7495C62.1943 55.8135 62.0076 55.8935 61.8583 55.9895C61.9329 56.2348 61.9809 56.4962 62.0023 56.7735C62.0236 57.0402 62.0343 57.3282 62.0343 57.6375V62.2295H59.6503V57.7655ZM68.4231 58.0855C68.4231 57.3388 68.5351 56.6882 68.7591 56.1335C68.9938 55.5682 69.2978 55.0988 69.6711 54.7255C70.0445 54.3522 70.4711 54.0695 70.9511 53.8775C71.4418 53.6855 71.9431 53.5895 72.4551 53.5895C73.6498 53.5895 74.5938 53.9575 75.2871 54.6935C75.9805 55.4188 76.3271 56.4908 76.3271 57.9095C76.3271 58.0482 76.3218 58.2028 76.3111 58.3735C76.3005 58.5335 76.2898 58.6775 76.2791 58.8055H70.8711C70.9245 59.2962 71.1538 59.6855 71.5591 59.9735C71.9645 60.2615 72.5085 60.4055 73.1911 60.4055C73.6285 60.4055 74.0551 60.3682 74.4711 60.2935C74.8978 60.2082 75.2445 60.1068 75.5111 59.9895L75.8311 61.9255C75.7031 61.9895 75.5325 62.0535 75.3191 62.1175C75.1058 62.1815 74.8658 62.2348 74.5991 62.2775C74.3431 62.3308 74.0658 62.3735 73.7671 62.4055C73.4685 62.4375 73.1698 62.4535 72.8711 62.4535C72.1138 62.4535 71.4525 62.3415 70.8871 62.1175C70.3325 61.8935 69.8685 61.5895 69.4951 61.2055C69.1325 60.8108 68.8605 60.3468 68.6791 59.8135C68.5085 59.2802 68.4231 58.7042 68.4231 58.0855ZM74.0231 57.1735C74.0125 56.9708 73.9751 56.7735 73.9111 56.5815C73.8578 56.3895 73.7671 56.2188 73.6391 56.0695C73.5218 55.9202 73.3671 55.7975 73.1751 55.7015C72.9938 55.6055 72.7645 55.5575 72.4871 55.5575C72.2205 55.5575 71.9911 55.6055 71.7991 55.7015C71.6071 55.7868 71.4471 55.9042 71.3191 56.0535C71.1911 56.2028 71.0898 56.3788 71.0151 56.5815C70.9511 56.7735 70.9031 56.9708 70.8711 57.1735H74.0231ZM82.7909 57.7655C82.7909 56.9975 82.6895 56.4535 82.4869 56.1335C82.2949 55.8135 81.9589 55.6535 81.4789 55.6535C81.3295 55.6535 81.1749 55.6642 81.0149 55.6855C80.8549 55.6962 80.7002 55.7122 80.5509 55.7335V62.2295H78.1669V54.1015C78.3695 54.0482 78.6042 53.9948 78.8709 53.9415C79.1482 53.8775 79.4362 53.8242 79.7349 53.7815C80.0442 53.7282 80.3589 53.6908 80.6789 53.6695C80.9989 53.6375 81.3135 53.6215 81.6229 53.6215C82.2309 53.6215 82.7215 53.7015 83.0949 53.8615C83.4789 54.0108 83.7935 54.1922 84.0389 54.4055C84.3802 54.1602 84.7695 53.9682 85.2069 53.8295C85.6549 53.6908 86.0655 53.6215 86.4389 53.6215C87.1109 53.6215 87.6602 53.7175 88.0869 53.9095C88.5242 54.0908 88.8709 54.3522 89.1269 54.6935C89.3829 55.0348 89.5589 55.4402 89.6549 55.9095C89.7509 56.3788 89.7989 56.9015 89.7989 57.4775V62.2295H87.4149V57.7655C87.4149 56.9975 87.3135 56.4535 87.1109 56.1335C86.9189 55.8135 86.5829 55.6535 86.1029 55.6535C85.9749 55.6535 85.7935 55.6855 85.5589 55.7495C85.3349 55.8135 85.1482 55.8935 84.9989 55.9895C85.0735 56.2348 85.1215 56.4962 85.1429 56.7735C85.1642 57.0402 85.1749 57.3282 85.1749 57.6375V62.2295H82.7909V57.7655ZM99.1478 61.9415C98.7424 62.0588 98.2198 62.1655 97.5798 62.2615C96.9398 62.3682 96.2678 62.4215 95.5638 62.4215C94.8491 62.4215 94.2518 62.3255 93.7718 62.1335C93.3024 61.9415 92.9291 61.6748 92.6518 61.3335C92.3744 60.9815 92.1771 60.5655 92.0598 60.0855C91.9424 59.6055 91.8838 59.0775 91.8838 58.5015V53.8135H94.2678V58.2135C94.2678 58.9815 94.3691 59.5362 94.5718 59.8775C94.7744 60.2188 95.1531 60.3895 95.7078 60.3895C95.8784 60.3895 96.0598 60.3842 96.2518 60.3735C96.4438 60.3522 96.6144 60.3308 96.7638 60.3095V53.8135H99.1478V61.9415ZM103.802 60.5175C104.239 60.5175 104.548 60.4748 104.73 60.3895C104.911 60.3042 105.002 60.1388 105.002 59.8935C105.002 59.7015 104.884 59.5362 104.65 59.3975C104.415 59.2482 104.058 59.0828 103.578 58.9015C103.204 58.7628 102.863 58.6188 102.554 58.4695C102.255 58.3202 101.999 58.1442 101.786 57.9415C101.572 57.7282 101.407 57.4775 101.29 57.1895C101.172 56.9015 101.114 56.5548 101.114 56.1495C101.114 55.3602 101.407 54.7362 101.994 54.2775C102.58 53.8188 103.386 53.5895 104.41 53.5895C104.922 53.5895 105.412 53.6375 105.882 53.7335C106.351 53.8188 106.724 53.9148 107.002 54.0215L106.586 55.8775C106.308 55.7815 106.004 55.6962 105.674 55.6215C105.354 55.5468 104.991 55.5095 104.586 55.5095C103.839 55.5095 103.466 55.7175 103.466 56.1335C103.466 56.2295 103.482 56.3148 103.514 56.3895C103.546 56.4642 103.61 56.5388 103.706 56.6135C103.802 56.6775 103.93 56.7522 104.09 56.8375C104.26 56.9122 104.474 56.9975 104.73 57.0935C105.252 57.2855 105.684 57.4775 106.026 57.6695C106.367 57.8508 106.634 58.0535 106.826 58.2775C107.028 58.4908 107.167 58.7308 107.242 58.9975C107.327 59.2642 107.37 59.5735 107.37 59.9255C107.37 60.7575 107.055 61.3868 106.426 61.8135C105.807 62.2402 104.927 62.4535 103.786 62.4535C103.039 62.4535 102.415 62.3895 101.914 62.2615C101.423 62.1335 101.082 62.0268 100.89 61.9415L101.29 60.0055C101.695 60.1655 102.111 60.2935 102.538 60.3895C102.964 60.4748 103.386 60.5175 103.802 60.5175ZM108.751 58.0855C108.751 57.3388 108.863 56.6882 109.087 56.1335C109.322 55.5682 109.626 55.0988 109.999 54.7255C110.373 54.3522 110.799 54.0695 111.279 53.8775C111.77 53.6855 112.271 53.5895 112.783 53.5895C113.978 53.5895 114.922 53.9575 115.615 54.6935C116.309 55.4188 116.655 56.4908 116.655 57.9095C116.655 58.0482 116.65 58.2028 116.639 58.3735C116.629 58.5335 116.618 58.6775 116.607 58.8055H111.199C111.253 59.2962 111.482 59.6855 111.887 59.9735C112.293 60.2615 112.837 60.4055 113.519 60.4055C113.957 60.4055 114.383 60.3682 114.799 60.2935C115.226 60.2082 115.573 60.1068 115.839 59.9895L116.159 61.9255C116.031 61.9895 115.861 62.0535 115.647 62.1175C115.434 62.1815 115.194 62.2348 114.927 62.2775C114.671 62.3308 114.394 62.3735 114.095 62.4055C113.797 62.4375 113.498 62.4535 113.199 62.4535C112.442 62.4535 111.781 62.3415 111.215 62.1175C110.661 61.8935 110.197 61.5895 109.823 61.2055C109.461 60.8108 109.189 60.3468 109.007 59.8135C108.837 59.2802 108.751 58.7042 108.751 58.0855ZM114.351 57.1735C114.341 56.9708 114.303 56.7735 114.239 56.5815C114.186 56.3895 114.095 56.2188 113.967 56.0695C113.85 55.9202 113.695 55.7975 113.503 55.7015C113.322 55.6055 113.093 55.5575 112.815 55.5575C112.549 55.5575 112.319 55.6055 112.127 55.7015C111.935 55.7868 111.775 55.9042 111.647 56.0535C111.519 56.2028 111.418 56.3788 111.343 56.5815C111.279 56.7735 111.231 56.9708 111.199 57.1735H114.351ZM122.259 51.7175L124.643 51.3335V53.8135H127.507V55.7975H124.643V58.7575C124.643 59.2588 124.728 59.6588 124.899 59.9575C125.08 60.2562 125.437 60.4055 125.971 60.4055C126.227 60.4055 126.488 60.3842 126.755 60.3415C127.032 60.2882 127.283 60.2188 127.507 60.1335L127.843 61.9895C127.555 62.1068 127.235 62.2082 126.883 62.2935C126.531 62.3788 126.099 62.4215 125.587 62.4215C124.936 62.4215 124.397 62.3362 123.971 62.1655C123.544 61.9842 123.203 61.7388 122.947 61.4295C122.691 61.1095 122.509 60.7255 122.403 60.2775C122.307 59.8295 122.259 59.3335 122.259 58.7895V51.7175ZM128.736 58.0855C128.736 57.3388 128.848 56.6882 129.072 56.1335C129.306 55.5682 129.61 55.0988 129.984 54.7255C130.357 54.3522 130.784 54.0695 131.264 53.8775C131.754 53.6855 132.256 53.5895 132.768 53.5895C133.962 53.5895 134.906 53.9575 135.6 54.6935C136.293 55.4188 136.64 56.4908 136.64 57.9095C136.64 58.0482 136.634 58.2028 136.624 58.3735C136.613 58.5335 136.602 58.6775 136.592 58.8055H131.184C131.237 59.2962 131.466 59.6855 131.872 59.9735C132.277 60.2615 132.821 60.4055 133.504 60.4055C133.941 60.4055 134.368 60.3682 134.784 60.2935C135.21 60.2082 135.557 60.1068 135.824 59.9895L136.144 61.9255C136.016 61.9895 135.845 62.0535 135.632 62.1175C135.418 62.1815 135.178 62.2348 134.912 62.2775C134.656 62.3308 134.378 62.3735 134.08 62.4055C133.781 62.4375 133.482 62.4535 133.184 62.4535C132.426 62.4535 131.765 62.3415 131.2 62.1175C130.645 61.8935 130.181 61.5895 129.808 61.2055C129.445 60.8108 129.173 60.3468 128.992 59.8135C128.821 59.2802 128.736 58.7042 128.736 58.0855ZM134.336 57.1735C134.325 56.9708 134.288 56.7735 134.224 56.5815C134.17 56.3895 134.08 56.2188 133.952 56.0695C133.834 55.9202 133.68 55.7975 133.488 55.7015C133.306 55.6055 133.077 55.5575 132.8 55.5575C132.533 55.5575 132.304 55.6055 132.112 55.7015C131.92 55.7868 131.76 55.9042 131.632 56.0535C131.504 56.2028 131.402 56.3788 131.328 56.5815C131.264 56.7735 131.216 56.9708 131.184 57.1735H134.336ZM141.695 60.5655C141.93 60.5655 142.154 60.5602 142.367 60.5495C142.581 60.5388 142.751 60.5228 142.879 60.5015V58.6935C142.783 58.6722 142.639 58.6508 142.447 58.6295C142.255 58.6082 142.079 58.5975 141.919 58.5975C141.695 58.5975 141.482 58.6135 141.279 58.6455C141.087 58.6668 140.917 58.7148 140.767 58.7895C140.618 58.8642 140.501 58.9655 140.415 59.0935C140.33 59.2215 140.287 59.3815 140.287 59.5735C140.287 59.9468 140.41 60.2082 140.655 60.3575C140.911 60.4962 141.258 60.5655 141.695 60.5655ZM141.503 53.5895C142.207 53.5895 142.794 53.6695 143.263 53.8295C143.733 53.9895 144.106 54.2188 144.383 54.5175C144.671 54.8162 144.874 55.1788 144.991 55.6055C145.109 56.0322 145.167 56.5068 145.167 57.0295V61.9895C144.826 62.0642 144.351 62.1495 143.743 62.2455C143.135 62.3522 142.399 62.4055 141.535 62.4055C140.991 62.4055 140.495 62.3575 140.047 62.2615C139.61 62.1655 139.231 62.0108 138.911 61.7975C138.591 61.5735 138.346 61.2855 138.175 60.9335C138.005 60.5815 137.919 60.1495 137.919 59.6375C137.919 59.1468 138.015 58.7308 138.207 58.3895C138.41 58.0482 138.677 57.7762 139.007 57.5735C139.338 57.3708 139.717 57.2268 140.143 57.1415C140.57 57.0455 141.013 56.9975 141.471 56.9975C141.781 56.9975 142.053 57.0135 142.287 57.0455C142.533 57.0668 142.73 57.0988 142.879 57.1415V56.9175C142.879 56.5122 142.757 56.1868 142.511 55.9415C142.266 55.6962 141.839 55.5735 141.231 55.5735C140.826 55.5735 140.426 55.6055 140.031 55.6695C139.637 55.7228 139.295 55.8028 139.007 55.9095L138.703 53.9895C138.842 53.9468 139.013 53.9042 139.215 53.8615C139.429 53.8082 139.658 53.7655 139.903 53.7335C140.149 53.6908 140.405 53.6588 140.671 53.6375C140.949 53.6055 141.226 53.5895 141.503 53.5895ZM151.947 57.7655C151.947 56.9975 151.846 56.4535 151.643 56.1335C151.451 55.8135 151.115 55.6535 150.635 55.6535C150.486 55.6535 150.331 55.6642 150.171 55.6855C150.011 55.6962 149.856 55.7122 149.707 55.7335V62.2295H147.323V54.1015C147.526 54.0482 147.76 53.9948 148.027 53.9415C148.304 53.8775 148.592 53.8242 148.891 53.7815C149.2 53.7282 149.515 53.6908 149.835 53.6695C150.155 53.6375 150.47 53.6215 150.779 53.6215C151.387 53.6215 151.878 53.7015 152.251 53.8615C152.635 54.0108 152.95 54.1922 153.195 54.4055C153.536 54.1602 153.926 53.9682 154.363 53.8295C154.811 53.6908 155.222 53.6215 155.595 53.6215C156.267 53.6215 156.816 53.7175 157.243 53.9095C157.68 54.0908 158.027 54.3522 158.283 54.6935C158.539 55.0348 158.715 55.4402 158.811 55.9095C158.907 56.3788 158.955 56.9015 158.955 57.4775V62.2295H156.571V57.7655C156.571 56.9975 156.47 56.4535 156.267 56.1335C156.075 55.8135 155.739 55.6535 155.259 55.6535C155.131 55.6535 154.95 55.6855 154.715 55.7495C154.491 55.8135 154.304 55.8935 154.155 55.9895C154.23 56.2348 154.278 56.4962 154.299 56.7735C154.32 57.0402 154.331 57.3282 154.331 57.6375V62.2295H151.947V57.7655Z" fill="#082487"/>
<path fill-rule="evenodd" clip-rule="evenodd" d="M108.729 31.5728C108.53 29.9001 108.152 28.9934 107.538 28.7195C107.305 28.6154 106.928 28.555 106.456 28.8586L106.363 28.9178L106.315 29.014C105.577 30.4864 104.94 31.1212 104.817 31.2363C104.677 31.3702 104.464 31.5167 104.39 31.5414C104.283 31.561 103.947 31.5185 103.826 31.4599C103.779 31.4357 103.654 31.3345 103.612 31.2851C103.409 31.0542 103.079 30.4095 102.938 30.1345C102.746 29.7574 102.487 29.1633 102.262 28.584C102.08 28.114 101.918 27.7348 101.713 27.2546C101.556 26.8848 101.377 26.4658 101.139 25.8894C100.439 24.2074 99.947 23.2811 99.44 22.6917C98.9551 22.1302 98.4779 21.7488 97.9384 21.4914C97.1024 21.0936 96.254 21.0512 95.4155 21.3658C94.6917 21.6402 94.2111 22.1216 93.8366 22.5564L93.8146 22.5842C93.1856 23.4633 93.0281 23.7214 92.683 24.2871L92.6744 24.3013C92.2365 25.0156 92.0813 25.3088 91.7721 25.893C91.7089 26.0125 91.6388 26.1449 91.5582 26.2961C91.0601 27.2305 91.0078 27.3414 90.507 28.4032L90.491 28.4373C89.8651 29.7639 89.4882 30.3899 88.8216 31.2074C88.7848 31.2424 88.7496 31.2731 88.7144 31.3011C88.6838 31.3253 88.6565 31.3489 88.6296 31.3722C88.547 31.4439 88.4872 31.496 88.1931 31.5889C88.1088 31.5969 87.848 31.5379 87.6364 31.4491C87.5902 31.4241 87.4782 31.331 87.4353 31.2805C87.2415 31.0596 86.9117 30.4615 86.7688 30.1443C86.5819 29.7368 86.2439 28.9961 86.0812 28.6153C85.9619 28.3334 85.7974 27.9241 85.6231 27.4907C85.3816 26.8902 85.1319 26.2691 84.9585 25.876C84.4348 24.6999 83.7689 23.2746 83.2635 22.6871C82.7788 22.1257 82.3018 21.7443 81.7619 21.4868C80.9259 21.089 80.0775 21.0465 79.239 21.3612C78.5151 21.6355 78.0345 22.1169 77.66 22.5517L77.6381 22.5795C77.0098 23.4577 76.8524 23.7155 76.5076 24.2805L76.4974 24.2973C75.983 25.141 75.0387 26.7276 75.0278 26.7459L74.0662 28.3881L72.6309 30.5483L72.7888 36.4494L73.3764 36.1328C73.6547 35.9828 73.8619 35.7525 74.0447 35.5493C74.1058 35.4814 74.1635 35.4172 74.2213 35.3584L74.2363 35.3423C74.7522 34.7556 75.2417 33.874 75.2623 33.8367L75.2684 33.8251C75.2847 33.7931 76.9039 30.614 77.5066 29.5928C77.8497 29.0116 78.6395 27.8741 79.0965 27.4143C79.2289 27.2808 79.508 27.078 79.6694 27.0168L79.6935 27.0067C79.848 26.9466 80.4387 27.023 80.6066 27.1458C80.9031 27.3646 81.3872 28.1136 81.6198 28.4736L81.691 28.5835C81.942 28.9667 82.4017 29.8017 82.6294 30.264C82.8525 30.718 83.1804 31.4904 83.4698 32.1719C83.6737 32.652 83.8663 33.1055 84.0142 33.4312C84.2201 33.8826 84.6483 34.7675 84.8841 35.1869C85.1877 35.7265 85.6576 36.4388 86.1751 36.7697C86.5475 37.0034 86.95 37.1494 87.3686 37.2037C87.7341 37.2533 88.1035 37.2312 88.4632 37.139C88.84 37.0455 89.1738 36.8929 89.4821 36.6735C89.8176 36.4378 90.128 36.1371 90.4618 35.724C90.7164 35.4018 90.9621 35.0288 91.2126 34.5847C91.6598 33.7973 92.021 32.974 92.3158 32.271C92.4415 32.0189 92.5679 31.7608 92.693 31.5054C93.0576 30.7607 93.402 30.0573 93.6798 29.5984C94.3334 28.5324 94.8969 27.7385 95.2235 27.4228C95.4264 27.2303 95.6667 27.06 95.7493 27.0338C95.9575 26.9937 96.5444 27.1029 96.8043 27.2303C97.2273 27.4389 97.7054 28.253 97.8623 28.5201C98.0487 28.8385 98.1654 29.0338 98.2457 29.1683C98.4141 29.4501 98.4141 29.4501 98.5899 29.8114C98.6443 29.9232 98.7148 30.0682 98.8116 30.2654C99.1209 30.8887 99.442 31.6557 99.7251 32.3323C99.8962 32.741 100.058 33.127 100.196 33.4312C100.402 33.8826 100.83 34.7675 101.066 35.1869C101.369 35.7265 101.839 36.4388 102.357 36.7697C102.729 37.0034 103.132 37.1494 103.55 37.2037C103.677 37.2208 103.804 37.2295 103.932 37.2295C104.171 37.2295 104.41 37.1992 104.645 37.139C105.021 37.0456 105.355 36.8929 105.664 36.6736C105.999 36.4379 106.309 36.1373 106.643 35.724C106.898 35.4013 107.144 35.0284 107.394 34.5847C107.855 33.7734 108.39 32.6264 108.692 31.904L108.716 31.8468L108.734 31.6087L108.729 31.5728Z" fill="#F78036"/>
<path fill-rule="evenodd" clip-rule="evenodd" d="M76.0616 32.1602C75.8363 30.9728 75.3888 30.1839 74.7317 29.8154C74.0749 29.447 73.4769 29.6479 73.4109 29.6721C73.3302 29.7015 73.2613 29.7559 73.2144 29.8272C73.025 30.1144 72.4862 30.9088 72.2696 31.1307C72.2676 31.1329 72.2656 31.135 72.2635 31.1372C72.2017 31.2035 72.0119 31.3343 71.8514 31.4215C71.7274 31.4879 71.5252 31.4457 71.4486 31.4044C71.4056 31.3807 71.2744 31.2732 71.2148 31.2094C71.0292 31.0086 70.7654 30.5451 70.5732 30.082C70.3832 29.6246 70.2717 29.379 70.1822 29.1817C70.0818 28.9605 70.0155 28.8143 69.898 28.4941C69.897 28.4914 69.896 28.4887 69.895 28.486C69.7594 28.1402 69.6238 27.8117 69.4667 27.4314C69.2528 26.9135 69.0104 26.3265 68.7031 25.5355C68.7018 25.5321 68.7005 25.5287 68.6991 25.5254C68.0218 23.9166 67.5552 22.9259 67.0293 22.298C66.5521 21.7304 66.0826 21.3449 65.5515 21.0847C64.7288 20.6825 63.894 20.6397 63.0687 20.9577C62.4797 21.1869 61.9566 21.5806 61.469 22.1617C61.1025 22.6003 60.8309 23.0935 60.5682 23.5704C60.5017 23.691 60.435 23.8119 60.3673 23.9313C59.2185 25.9412 58.8249 26.7491 58.3265 27.7719C58.2142 28.0023 58.0958 28.2452 57.9615 28.5171C57.8353 28.7731 57.7367 28.9791 57.6519 29.1564C57.3817 29.7211 57.2584 29.9789 56.809 30.6592C56.8058 30.664 56.8028 30.6688 56.7998 30.6736C56.7578 30.7439 56.6211 30.8765 56.5053 30.9607C56.47 30.9857 56.4562 30.9923 56.3993 30.9633C56.0459 30.7846 55.868 30.5546 55.8224 30.2196C55.7815 29.9069 55.7337 29.5433 55.6818 29.1856C55.5837 28.4747 55.5247 27.7398 55.4676 27.0292L55.4489 26.7983C55.4227 26.4392 55.39 25.9924 55.3692 25.5626L55.3684 25.5458C55.3345 24.8914 55.2993 24.2147 55.2846 23.5551C55.2575 22.227 55.2916 20.9044 55.3245 19.9007C55.3247 19.8964 55.3247 19.8922 55.3247 19.8879C55.3247 19.8776 55.3256 19.8673 55.3264 19.857C55.3279 19.8349 55.3291 19.8127 55.3296 19.7905C55.3542 19.4426 55.3795 19.083 55.3947 18.7246C55.4087 18.3443 55.4362 17.9571 55.4627 17.5826C55.4735 17.4309 55.4843 17.2792 55.4938 17.1337C55.5009 17.0472 55.5089 16.9596 55.5173 16.8715C55.5265 16.7714 55.5359 16.6707 55.5436 16.574C55.5611 16.3786 55.5797 16.1845 55.5984 15.9903C55.6173 15.7943 55.6362 15.5981 55.6534 15.4056C55.6676 15.2658 55.6802 15.1259 55.6927 14.9861C55.7108 14.7851 55.7295 14.5773 55.7534 14.3719C55.7967 13.9665 55.8455 13.5579 55.9025 13.123L55.9246 12.9553C55.9914 12.4458 56.0604 11.9187 56.1321 11.4023C56.2205 10.809 56.3119 10.1954 56.4117 9.59694C56.55 8.74823 56.6758 7.98324 56.8159 7.21699C56.9615 6.43452 57.1182 5.63788 57.2698 4.86751C57.3221 4.60178 57.3745 4.33605 57.4265 4.06929C57.4358 4.02126 57.4467 3.9733 57.4575 3.92527C57.4831 3.81108 57.5097 3.69301 57.5214 3.57122C57.5927 2.94401 57.5764 2.32851 57.4729 1.74292C57.4009 1.32826 57.2831 1.00191 57.1025 0.716002C56.9168 0.421624 56.6862 0.214215 56.4159 0.0983632C56.3431 0.0351354 56.2493 0 56.152 0H56.0668C55.8844 0 55.725 0.122103 55.6794 0.29691L55.666 0.348505C55.5905 0.638292 55.5149 0.927763 55.4399 1.2113C54.9617 2.98476 54.5137 4.82098 54.108 6.6686C53.7198 8.43257 53.4513 9.79248 53.2379 11.0767L53.221 11.176C53.0836 11.9853 52.9416 12.822 52.8207 13.6535C52.6865 14.564 52.5645 15.4976 52.4582 16.4295C52.3788 17.1423 52.3076 17.8749 52.247 18.6043C52.1991 19.1389 52.1586 19.7147 52.1157 20.472C52.1031 20.7041 52.0942 20.9396 52.0854 21.1673C52.077 21.3931 52.068 21.6264 52.0557 21.8528C52.042 22.098 52.0266 22.3853 52.0004 22.9588C52 22.9647 52 22.9707 52 22.9766V24.7457C52 24.7523 52 24.759 52.0006 24.7657L52.0229 25.2062C52.0341 25.4268 52.0341 25.4268 52.0479 25.6532L52.0558 25.7807C52.0904 26.3735 52.1156 26.9828 52.14 27.5719L52.1407 27.5876C52.1587 27.9778 52.187 28.4046 52.2267 28.8931C52.285 29.5934 52.3582 30.2672 52.4442 30.8936C52.5539 31.7274 52.7157 32.542 52.9263 33.3183C53.1089 33.9677 53.3084 34.4842 53.5523 34.9405C53.7538 35.3265 53.9835 35.646 54.2524 35.9149C55.1238 36.7995 56.327 36.9877 57.3943 36.405C57.7062 36.2323 57.993 36.0073 58.2698 35.7179C58.6826 35.2902 59.0343 34.7839 59.3446 34.1706C59.6165 33.6363 59.9399 32.9479 60.2821 32.2188C60.7072 31.3138 61.1468 30.378 61.4686 29.7858C61.7596 29.25 62.6453 27.6193 63.1497 26.9409C63.2033 26.8701 63.3834 26.7137 63.5787 26.5861C63.7032 26.513 64.1974 26.5709 64.367 26.6776C64.6819 26.8769 65.2067 27.5195 65.5394 28.0211C65.8751 28.5334 66.4447 29.7814 66.71 30.448C66.8411 30.778 66.9818 31.2356 67.1309 31.72C67.3297 32.3665 67.5551 33.0992 67.8155 33.7152C68.1211 34.4368 68.4143 34.9973 68.7393 35.4813C69.1275 36.0516 69.5239 36.4589 69.9898 36.765C70.3563 37.0011 70.7524 37.1488 71.1644 37.2036C71.2892 37.221 71.4145 37.2296 71.5398 37.2296C71.7753 37.2296 72.0104 37.199 72.2417 37.1382C72.6124 37.0437 72.9408 36.8894 73.2443 36.6678C73.5745 36.4294 73.8799 36.1256 74.2085 35.7081C74.4593 35.3817 74.7012 35.0046 74.9467 34.5573C75.3577 33.8196 75.5641 33.4493 76.0126 32.4724C76.0278 32.4393 76.038 32.4051 76.0435 32.3708C76.068 32.3057 76.0755 32.2334 76.0616 32.1602Z" fill="#082487"/>
</svg>
