<svg xmlns="http://www.w3.org/2000/svg" width="160" height="66" viewBox="0 0 160 66" fill="none">

<path fill-rule="evenodd" clip-rule="evenodd" d="M108.729 31.5728C108.53 29.9001 108.152 28.9934 107.538 28.7195C107.305 28.6154 106.928 28.555 106.456 28.8586L106.363 28.9178L106.315 29.014C105.577 30.4864 104.94 31.1212 104.817 31.2363C104.677 31.3702 104.464 31.5167 104.39 31.5414C104.283 31.561 103.947 31.5185 103.826 31.4599C103.779 31.4357 103.654 31.3345 103.612 31.2851C103.409 31.0542 103.079 30.4095 102.938 30.1345C102.746 29.7574 102.487 29.1633 102.262 28.584C102.08 28.114 101.918 27.7348 101.713 27.2546C101.556 26.8848 101.377 26.4658 101.139 25.8894C100.439 24.2074 99.947 23.2811 99.44 22.6917C98.9551 22.1302 98.4779 21.7488 97.9384 21.4914C97.1024 21.0936 96.254 21.0512 95.4155 21.3658C94.6917 21.6402 94.2111 22.1216 93.8366 22.5564L93.8146 22.5842C93.1856 23.4633 93.0281 23.7214 92.683 24.2871L92.6744 24.3013C92.2365 25.0156 92.0813 25.3088 91.7721 25.893C91.7089 26.0125 91.6388 26.1449 91.5582 26.2961C91.0601 27.2305 91.0078 27.3414 90.507 28.4032L90.491 28.4373C89.8651 29.7639 89.4882 30.3899 88.8216 31.2074C88.7848 31.2424 88.7496 31.2731 88.7144 31.3011C88.6838 31.3253 88.6565 31.3489 88.6296 31.3722C88.547 31.4439 88.4872 31.496 88.1931 31.5889C88.1088 31.5969 87.848 31.5379 87.6364 31.4491C87.5902 31.4241 87.4782 31.331 87.4353 31.2805C87.2415 31.0596 86.9117 30.4615 86.7688 30.1443C86.5819 29.7368 86.2439 28.9961 86.0812 28.6153C85.9619 28.3334 85.7974 27.9241 85.6231 27.4907C85.3816 26.8902 85.1319 26.2691 84.9585 25.876C84.4348 24.6999 83.7689 23.2746 83.2635 22.6871C82.7788 22.1257 82.3018 21.7443 81.7619 21.4868C80.9259 21.089 80.0775 21.0465 79.239 21.3612C78.5151 21.6355 78.0345 22.1169 77.66 22.5517L77.6381 22.5795C77.0098 23.4577 76.8524 23.7155 76.5076 24.2805L76.4974 24.2973C75.983 25.141 75.0387 26.7276 75.0278 26.7459L74.0662 28.3881L72.6309 30.5483L72.7888 36.4494L73.3764 36.1328C73.6547 35.9828 73.8619 35.7525 74.0447 35.5493C74.1058 35.4814 74.1635 35.4172 74.2213 35.3584L74.2363 35.3423C74.7522 34.7556 75.2417 33.874 75.2623 33.8367L75.2684 33.8251C75.2847 33.7931 76.9039 30.614 77.5066 29.5928C77.8497 29.0116 78.6395 27.8741 79.0965 27.4143C79.2289 27.2808 79.508 27.078 79.6694 27.0168L79.6935 27.0067C79.848 26.9466 80.4387 27.023 80.6066 27.1458C80.9031 27.3646 81.3872 28.1136 81.6198 28.4736L81.691 28.5835C81.942 28.9667 82.4017 29.8017 82.6294 30.264C82.8525 30.718 83.1804 31.4904 83.4698 32.1719C83.6737 32.652 83.8663 33.1055 84.0142 33.4312C84.2201 33.8826 84.6483 34.7675 84.8841 35.1869C85.1877 35.7265 85.6576 36.4388 86.1751 36.7697C86.5475 37.0034 86.95 37.1494 87.3686 37.2037C87.7341 37.2533 88.1035 37.2312 88.4632 37.139C88.84 37.0455 89.1738 36.8929 89.4821 36.6735C89.8176 36.4378 90.128 36.1371 90.4618 35.724C90.7164 35.4018 90.9621 35.0288 91.2126 34.5847C91.6598 33.7973 92.021 32.974 92.3158 32.271C92.4415 32.0189 92.5679 31.7608 92.693 31.5054C93.0576 30.7607 93.402 30.0573 93.6798 29.5984C94.3334 28.5324 94.8969 27.7385 95.2235 27.4228C95.4264 27.2303 95.6667 27.06 95.7493 27.0338C95.9575 26.9937 96.5444 27.1029 96.8043 27.2303C97.2273 27.4389 97.7054 28.253 97.8623 28.5201C98.0487 28.8385 98.1654 29.0338 98.2457 29.1683C98.4141 29.4501 98.4141 29.4501 98.5899 29.8114C98.6443 29.9232 98.7148 30.0682 98.8116 30.2654C99.1209 30.8887 99.442 31.6557 99.7251 32.3323C99.8962 32.741 100.058 33.127 100.196 33.4312C100.402 33.8826 100.83 34.7675 101.066 35.1869C101.369 35.7265 101.839 36.4388 102.357 36.7697C102.729 37.0034 103.132 37.1494 103.55 37.2037C103.677 37.2208 103.804 37.2295 103.932 37.2295C104.171 37.2295 104.41 37.1992 104.645 37.139C105.021 37.0456 105.355 36.8929 105.664 36.6736C105.999 36.4379 106.309 36.1373 106.643 35.724C106.898 35.4013 107.144 35.0284 107.394 34.5847C107.855 33.7734 108.39 32.6264 108.692 31.904L108.716 31.8468L108.734 31.6087L108.729 31.5728Z" fill="#ffffff"/>
<path fill-rule="evenodd" clip-rule="evenodd" d="M76.0616 32.1602C75.8363 30.9728 75.3888 30.1839 74.7317 29.8154C74.0749 29.447 73.4769 29.6479 73.4109 29.6721C73.3302 29.7015 73.2613 29.7559 73.2144 29.8272C73.025 30.1144 72.4862 30.9088 72.2696 31.1307C72.2676 31.1329 72.2656 31.135 72.2635 31.1372C72.2017 31.2035 72.0119 31.3343 71.8514 31.4215C71.7274 31.4879 71.5252 31.4457 71.4486 31.4044C71.4056 31.3807 71.2744 31.2732 71.2148 31.2094C71.0292 31.0086 70.7654 30.5451 70.5732 30.082C70.3832 29.6246 70.2717 29.379 70.1822 29.1817C70.0818 28.9605 70.0155 28.8143 69.898 28.4941C69.897 28.4914 69.896 28.4887 69.895 28.486C69.7594 28.1402 69.6238 27.8117 69.4667 27.4314C69.2528 26.9135 69.0104 26.3265 68.7031 25.5355C68.7018 25.5321 68.7005 25.5287 68.6991 25.5254C68.0218 23.9166 67.5552 22.9259 67.0293 22.298C66.5521 21.7304 66.0826 21.3449 65.5515 21.0847C64.7288 20.6825 63.894 20.6397 63.0687 20.9577C62.4797 21.1869 61.9566 21.5806 61.469 22.1617C61.1025 22.6003 60.8309 23.0935 60.5682 23.5704C60.5017 23.691 60.435 23.8119 60.3673 23.9313C59.2185 25.9412 58.8249 26.7491 58.3265 27.7719C58.2142 28.0023 58.0958 28.2452 57.9615 28.5171C57.8353 28.7731 57.7367 28.9791 57.6519 29.1564C57.3817 29.7211 57.2584 29.9789 56.809 30.6592C56.8058 30.664 56.8028 30.6688 56.7998 30.6736C56.7578 30.7439 56.6211 30.8765 56.5053 30.9607C56.47 30.9857 56.4562 30.9923 56.3993 30.9633C56.0459 30.7846 55.868 30.5546 55.8224 30.2196C55.7815 29.9069 55.7337 29.5433 55.6818 29.1856C55.5837 28.4747 55.5247 27.7398 55.4676 27.0292L55.4489 26.7983C55.4227 26.4392 55.39 25.9924 55.3692 25.5626L55.3684 25.5458C55.3345 24.8914 55.2993 24.2147 55.2846 23.5551C55.2575 22.227 55.2916 20.9044 55.3245 19.9007C55.3247 19.8964 55.3247 19.8922 55.3247 19.8879C55.3247 19.8776 55.3256 19.8673 55.3264 19.857C55.3279 19.8349 55.3291 19.8127 55.3296 19.7905C55.3542 19.4426 55.3795 19.083 55.3947 18.7246C55.4087 18.3443 55.4362 17.9571 55.4627 17.5826C55.4735 17.4309 55.4843 17.2792 55.4938 17.1337C55.5009 17.0472 55.5089 16.9596 55.5173 16.8715C55.5265 16.7714 55.5359 16.6707 55.5436 16.574C55.5611 16.3786 55.5797 16.1845 55.5984 15.9903C55.6173 15.7943 55.6362 15.5981 55.6534 15.4056C55.6676 15.2658 55.6802 15.1259 55.6927 14.9861C55.7108 14.7851 55.7295 14.5773 55.7534 14.3719C55.7967 13.9665 55.8455 13.5579 55.9025 13.123L55.9246 12.9553C55.9914 12.4458 56.0604 11.9187 56.1321 11.4023C56.2205 10.809 56.3119 10.1954 56.4117 9.59694C56.55 8.74823 56.6758 7.98324 56.8159 7.21699C56.9615 6.43452 57.1182 5.63788 57.2698 4.86751C57.3221 4.60178 57.3745 4.33605 57.4265 4.06929C57.4358 4.02126 57.4467 3.9733 57.4575 3.92527C57.4831 3.81108 57.5097 3.69301 57.5214 3.57122C57.5927 2.94401 57.5764 2.32851 57.4729 1.74292C57.4009 1.32826 57.2831 1.00191 57.1025 0.716002C56.9168 0.421624 56.6862 0.214215 56.4159 0.0983632C56.3431 0.0351354 56.2493 0 56.152 0H56.0668C55.8844 0 55.725 0.122103 55.6794 0.29691L55.666 0.348505C55.5905 0.638292 55.5149 0.927763 55.4399 1.2113C54.9617 2.98476 54.5137 4.82098 54.108 6.6686C53.7198 8.43257 53.4513 9.79248 53.2379 11.0767L53.221 11.176C53.0836 11.9853 52.9416 12.822 52.8207 13.6535C52.6865 14.564 52.5645 15.4976 52.4582 16.4295C52.3788 17.1423 52.3076 17.8749 52.247 18.6043C52.1991 19.1389 52.1586 19.7147 52.1157 20.472C52.1031 20.7041 52.0942 20.9396 52.0854 21.1673C52.077 21.3931 52.068 21.6264 52.0557 21.8528C52.042 22.098 52.0266 22.3853 52.0004 22.9588C52 22.9647 52 22.9707 52 22.9766V24.7457C52 24.7523 52 24.759 52.0006 24.7657L52.0229 25.2062C52.0341 25.4268 52.0341 25.4268 52.0479 25.6532L52.0558 25.7807C52.0904 26.3735 52.1156 26.9828 52.14 27.5719L52.1407 27.5876C52.1587 27.9778 52.187 28.4046 52.2267 28.8931C52.285 29.5934 52.3582 30.2672 52.4442 30.8936C52.5539 31.7274 52.7157 32.542 52.9263 33.3183C53.1089 33.9677 53.3084 34.4842 53.5523 34.9405C53.7538 35.3265 53.9835 35.646 54.2524 35.9149C55.1238 36.7995 56.327 36.9877 57.3943 36.405C57.7062 36.2323 57.993 36.0073 58.2698 35.7179C58.6826 35.2902 59.0343 34.7839 59.3446 34.1706C59.6165 33.6363 59.9399 32.9479 60.2821 32.2188C60.7072 31.3138 61.1468 30.378 61.4686 29.7858C61.7596 29.25 62.6453 27.6193 63.1497 26.9409C63.2033 26.8701 63.3834 26.7137 63.5787 26.5861C63.7032 26.513 64.1974 26.5709 64.367 26.6776C64.6819 26.8769 65.2067 27.5195 65.5394 28.0211C65.8751 28.5334 66.4447 29.7814 66.71 30.448C66.8411 30.778 66.9818 31.2356 67.1309 31.72C67.3297 32.3665 67.5551 33.0992 67.8155 33.7152C68.1211 34.4368 68.4143 34.9973 68.7393 35.4813C69.1275 36.0516 69.5239 36.4589 69.9898 36.765C70.3563 37.0011 70.7524 37.1488 71.1644 37.2036C71.2892 37.221 71.4145 37.2296 71.5398 37.2296C71.7753 37.2296 72.0104 37.199 72.2417 37.1382C72.6124 37.0437 72.9408 36.8894 73.2443 36.6678C73.5745 36.4294 73.8799 36.1256 74.2085 35.7081C74.4593 35.3817 74.7012 35.0046 74.9467 34.5573C75.3577 33.8196 75.5641 33.4493 76.0126 32.4724C76.0278 32.4393 76.038 32.4051 76.0435 32.3708C76.068 32.3057 76.0755 32.2334 76.0616 32.1602Z" fill="#082487"/>
</svg>