<svg width="66" height="44" viewBox="0 0 66 44" fill="none" xmlns="http://www.w3.org/2000/svg">
<path fill-rule="evenodd" clip-rule="evenodd" d="M65.995 37.3146C65.7635 35.3377 65.3231 34.2662 64.6094 33.9424C64.3382 33.8194 63.8994 33.7481 63.3499 34.1068L63.2426 34.1768L63.1866 34.2904C62.3281 36.0306 61.5872 36.7808 61.444 36.9169C61.2806 37.0751 61.0325 37.2483 60.9466 37.2775C60.8228 37.3006 60.4318 37.2505 60.2905 37.1812C60.2357 37.1526 60.0903 37.033 60.0416 36.9746C59.8059 36.7017 59.4218 35.9397 59.2581 35.6148C59.0341 35.1691 58.7327 34.4669 58.4714 33.7823C58.2594 33.2268 58.0712 32.7786 57.833 32.2111C57.6495 31.7741 57.4416 31.2788 57.1646 30.5977C56.3504 28.6098 55.7781 27.515 55.1883 26.8184C54.6242 26.1548 54.0691 25.7041 53.4414 25.3999C52.4689 24.9297 51.4819 24.8797 50.5065 25.2514C49.6644 25.5757 49.1053 26.1446 48.6696 26.6585L48.6441 26.6914C47.9123 27.7303 47.729 28.0354 47.3275 28.704L47.3175 28.7207C46.8081 29.565 46.6276 29.9115 46.2679 30.6019C46.1943 30.7431 46.1128 30.8996 46.0191 31.0783C45.4396 32.1826 45.3788 32.3137 44.7962 33.5686L44.7776 33.6089C44.0494 35.1768 43.6109 35.9166 42.8354 36.8828C42.7927 36.9241 42.7517 36.9604 42.7108 36.9934C42.6751 37.0221 42.6433 37.05 42.612 37.0775C42.516 37.1623 42.4464 37.2238 42.1042 37.3336C42.0062 37.3431 41.7029 37.2733 41.4567 37.1684C41.4029 37.1388 41.2726 37.0288 41.2227 36.9691C40.9972 36.7081 40.6136 36.0011 40.4473 35.6263C40.2299 35.1447 39.8367 34.2693 39.6474 33.8193C39.5087 33.4861 39.3172 33.0023 39.1145 32.4901C38.8336 31.7804 38.543 31.0464 38.3413 30.5819C37.732 29.1918 36.9574 27.5073 36.3695 26.813C35.8056 26.1495 35.2506 25.6987 34.6225 25.3944C33.65 24.9242 32.6631 24.874 31.6875 25.2459C30.8454 25.5701 30.2864 26.1392 29.8506 26.653L29.8252 26.6859C29.0942 27.7237 28.9111 28.0284 28.51 28.6962L28.4981 28.7161C27.8997 29.7132 26.8012 31.5882 26.7885 31.6099L25.6699 33.5508L24 36.1038L24.1838 43.0781L24.8673 42.7039C25.1911 42.5266 25.4322 42.2544 25.6448 42.0142C25.7158 41.934 25.783 41.8582 25.8502 41.7887L25.8677 41.7696C26.4679 41.0762 27.0373 40.0343 27.0613 39.9902L27.0684 39.9765C27.0874 39.9387 28.971 36.1815 29.6722 34.9745C30.0713 34.2876 30.9901 32.9433 31.5218 32.3998C31.6758 32.2421 32.0005 32.0024 32.1882 31.9301L32.2163 31.9182C32.396 31.8471 33.0832 31.9374 33.2786 32.0826C33.6235 32.3412 34.1866 33.2263 34.4572 33.6517L34.5401 33.7816C34.8321 34.2345 35.3668 35.2214 35.6318 35.7678C35.8913 36.3043 36.2728 37.2173 36.6095 38.0227C36.8467 38.5901 37.0707 39.1261 37.2428 39.511C37.4823 40.0444 37.9805 41.0903 38.2548 41.586C38.608 42.2237 39.1547 43.0655 39.7566 43.4566C40.1899 43.7327 40.6581 43.9054 41.1451 43.9695C41.5703 44.0282 42 44.002 42.4185 43.893C42.8568 43.7825 43.2452 43.6022 43.6039 43.3429C43.9942 43.0644 44.3553 42.709 44.7436 42.2207C45.0397 41.8399 45.3256 41.3991 45.617 40.8742C46.1372 39.9436 46.5575 38.9706 46.9004 38.1398C47.0466 37.8419 47.1937 37.5367 47.3392 37.2349C47.7634 36.3548 48.1641 35.5236 48.4872 34.9811C49.2476 33.7213 49.9032 32.7831 50.2831 32.4099C50.5191 32.1824 50.7987 31.9811 50.8947 31.9502C51.137 31.9028 51.8197 32.0318 52.122 32.1824C52.6141 32.429 53.1703 33.3911 53.3529 33.7067C53.5697 34.0831 53.7055 34.3138 53.799 34.4728C53.9949 34.8059 53.9949 34.8059 54.1993 35.2328C54.2626 35.3651 54.3446 35.5363 54.4572 35.7695C54.8171 36.5061 55.1906 37.4126 55.52 38.2122C55.719 38.6953 55.9068 39.1514 56.0676 39.511C56.3072 40.0444 56.8053 41.0903 57.0796 41.586C57.4328 42.2237 57.9795 43.0655 58.5814 43.4566C59.0147 43.7327 59.483 43.9054 59.97 43.9695C60.1175 43.9898 60.2657 43.9999 60.4137 43.9999C60.6921 43.9999 60.9701 43.9641 61.2431 43.893C61.6814 43.7826 62.0698 43.6022 62.4285 43.343C62.8187 43.0644 63.1799 42.7092 63.5683 42.2207C63.8648 41.8394 64.1507 41.3986 64.4417 40.8743C64.9777 39.9154 65.6003 38.5598 65.9519 37.706L65.9798 37.6384L66 37.3571L65.995 37.3146Z" fill="#F78036"/>
<path fill-rule="evenodd" clip-rule="evenodd" d="M27.9919 38.0086C27.7298 36.6053 27.2093 35.673 26.4448 35.2375C25.6808 34.8021 24.9851 35.0395 24.9082 35.068C24.8144 35.1028 24.7343 35.1671 24.6796 35.2513C24.4593 35.5908 23.8326 36.5296 23.5806 36.792C23.5782 36.7945 23.5759 36.797 23.5734 36.7996C23.5016 36.878 23.2807 37.0326 23.0941 37.1357C22.9498 37.2141 22.7145 37.1642 22.6255 37.1154C22.5755 37.0874 22.4227 36.9603 22.3534 36.8849C22.1376 36.6477 21.8306 36.0998 21.607 35.5526C21.386 35.012 21.2563 34.7217 21.1522 34.4886C21.0354 34.2271 20.9582 34.0543 20.8216 33.6758C20.8204 33.6726 20.8192 33.6695 20.818 33.6663C20.6604 33.2576 20.5026 32.8694 20.3198 32.4199C20.071 31.8079 19.789 31.1141 19.4315 30.1792C19.43 30.1752 19.4284 30.1712 19.4268 30.1673C18.6389 28.2659 18.096 27.0951 17.4842 26.353C16.9291 25.6821 16.3829 25.2265 15.7651 24.919C14.808 24.4437 13.8368 24.3931 12.8767 24.7689C12.1915 25.0399 11.583 25.5051 11.0158 26.1919C10.5894 26.7103 10.2734 27.2932 9.96774 27.8567C9.8904 27.9993 9.81287 28.1422 9.73403 28.2833C8.39765 30.6587 7.93972 31.6135 7.35986 32.8223C7.22927 33.0947 7.09152 33.3817 6.93534 33.703C6.78847 34.0056 6.6738 34.249 6.57514 34.4586C6.26073 35.126 6.1173 35.4307 5.59449 36.2348C5.59086 36.2404 5.58733 36.2461 5.58388 36.2518C5.53493 36.3348 5.37595 36.4916 5.24118 36.5911C5.20013 36.6205 5.18412 36.6284 5.11785 36.5941C4.70683 36.3829 4.49983 36.111 4.44678 35.7151C4.39922 35.3456 4.34356 34.9159 4.28315 34.4931C4.16914 33.6529 4.10045 32.7845 4.03399 31.9446L4.0123 31.6717C3.98177 31.2473 3.9438 30.7192 3.9196 30.2112L3.91858 30.1914C3.8792 29.418 3.83825 28.6182 3.82113 27.8387C3.78957 26.2691 3.82932 24.706 3.86757 23.5197C3.86776 23.5147 3.86776 23.5096 3.86776 23.5046C3.86776 23.4924 3.86887 23.4803 3.86971 23.4681C3.87148 23.4419 3.87288 23.4157 3.87343 23.3895C3.9021 22.9783 3.93151 22.5533 3.9492 22.1298C3.96549 21.6803 3.9975 21.2227 4.02831 20.7801C4.04088 20.6007 4.05344 20.4215 4.06452 20.2495C4.07271 20.1473 4.08211 20.0438 4.09179 19.9396C4.10259 19.8214 4.11348 19.7023 4.12241 19.5881C4.14279 19.3571 4.16448 19.1277 4.18617 18.8982C4.20823 18.6666 4.23019 18.4347 4.25011 18.2072C4.26668 18.0419 4.28129 17.8766 4.2959 17.7114C4.31694 17.4738 4.33872 17.2282 4.36646 16.9855C4.4169 16.5063 4.47368 16.0235 4.53995 15.5094L4.56564 15.3113C4.64336 14.7091 4.72368 14.0862 4.80708 13.4759C4.90992 12.7746 5.01622 12.0495 5.13228 11.3422C5.29321 10.3391 5.43962 9.43503 5.6025 8.52943C5.77199 7.60466 5.95423 6.66315 6.13061 5.75269C6.19148 5.43864 6.25235 5.12458 6.31294 4.80931C6.32374 4.75254 6.3364 4.69586 6.34897 4.6391C6.37875 4.50414 6.40965 4.3646 6.42324 4.22067C6.50626 3.47939 6.48728 2.75196 6.36693 2.05988C6.28316 1.56981 6.14606 1.18411 5.93599 0.84621C5.71996 0.498298 5.45162 0.253171 5.13721 0.116251C5.05252 0.0415249 4.94343 0 4.83016 0H4.73113C4.51891 0 4.33341 0.144308 4.28045 0.350904L4.26482 0.411882C4.17695 0.754369 4.08909 1.09648 4.00179 1.43158C3.44547 3.52756 2.92425 5.6977 2.45236 7.88131C2.00075 9.96606 1.68839 11.5733 1.44007 13.0911L1.42043 13.2084C1.26062 14.1648 1.09541 15.1538 0.954769 16.1364C0.798589 17.2125 0.656741 18.3159 0.533044 19.4173C0.44062 20.2597 0.357876 21.1255 0.287324 21.9875C0.231572 22.6194 0.184476 23.2999 0.134587 24.195C0.119974 24.4692 0.10955 24.7475 0.0994047 25.0167C0.0895387 25.2835 0.0791143 25.5593 0.0647806 25.8268C0.0488647 26.1166 0.0309011 26.4562 0.000465378 27.134C0.000186151 27.1409 0 27.148 0 27.155V29.2458C0 29.2536 0.000186151 29.2616 0.000651529 29.2694L0.0266196 29.7901C0.0396502 30.0507 0.0396502 30.0507 0.0557523 30.3184L0.0648737 30.469C0.105175 31.1697 0.134494 31.8897 0.162882 32.586L0.163627 32.6045C0.184662 33.0657 0.217518 33.5701 0.263776 34.1475C0.331535 34.9751 0.416699 35.7714 0.516756 36.5118C0.644362 37.4972 0.832654 38.4599 1.07763 39.3774C1.29003 40.1448 1.52207 40.7554 1.80585 41.2946C2.04031 41.7508 2.30753 42.1284 2.62036 42.4462C3.63404 43.4916 5.03381 43.7141 6.27544 43.0254C6.63824 42.8213 6.97192 42.5553 7.29396 42.2134C7.77414 41.7079 8.1833 41.1094 8.54434 40.3847C8.86061 39.7532 9.23682 38.9396 9.635 38.0779C10.1295 37.0084 10.6409 35.9024 11.0152 35.2025C11.3538 34.5692 12.3842 32.642 12.9709 31.8402C13.0333 31.7565 13.2429 31.5717 13.47 31.4209C13.6148 31.3345 14.1897 31.4029 14.3871 31.529C14.7534 31.7646 15.364 32.5241 15.751 33.1168C16.1415 33.7223 16.8042 35.1973 17.1128 35.9851C17.2653 36.3751 17.4291 36.9159 17.6025 37.4884C17.8337 38.2524 18.0959 39.1184 18.3989 39.8465C18.7545 40.6992 19.0955 41.3617 19.4736 41.9337C19.9252 42.6077 20.3863 43.0891 20.9283 43.4508C21.3547 43.7299 21.8155 43.9045 22.2948 43.9692C22.4401 43.9898 22.5858 44 22.7316 44C23.0055 44 23.279 43.9638 23.5481 43.892C23.9793 43.7802 24.3614 43.5979 24.7145 43.336C25.0986 43.0543 25.4539 42.6951 25.8362 42.2017C26.128 41.816 26.4094 41.3704 26.6949 40.8417C27.1731 39.9698 27.4132 39.5322 27.935 38.3777C27.9526 38.3385 27.9646 38.2981 27.9709 38.2575C27.9994 38.1806 28.0081 38.0951 27.9919 38.0086Z" fill="#08135A"/>
</svg>
