<svg width="43" height="43" viewBox="0 0 43 43" fill="none" xmlns="http://www.w3.org/2000/svg">
<path d="M31.4128 42.6113C32.494 42.028 33.1479 40.879 33.1043 39.6422L32.712 28.397L41.6972 21.6999C42.6825 20.9675 43.1664 19.7307 42.9485 18.5202C42.7305 17.3053 41.8455 16.3229 40.6683 15.9808L29.9174 12.8801L26.3599 2.20944C25.9719 1.03844 24.9561 0.196366 23.7398 0.0297061C22.5234 -0.136954 21.3201 0.406884 20.6357 1.42877L14.3796 10.7573L3.19265 10.8626C1.96759 10.8758 0.851512 11.5863 0.319633 12.6959C-0.212246 13.8055 -0.0727371 15.1256 0.681485 16.0992L7.56976 24.9673L4.21282 35.6993C4.05151 36.2125 4.02535 36.7432 4.1169 37.2475C4.23461 37.9098 4.55723 38.5282 5.05859 39.0106C5.9436 39.8615 7.23406 40.1378 8.38502 39.7123L18.8962 35.8616L28.0079 42.3921C29.0193 43.1157 30.3316 43.199 31.4128 42.6113Z" fill="#08135A"/>
</svg>
