<svg width="76" height="147" viewBox="0 0 76 147" fill="none" xmlns="http://www.w3.org/2000/svg">
<path opacity="0.25" d="M37.5919 127.779C58.3534 127.779 75.1838 125.751 75.1838 123.248C75.1838 120.745 58.3534 118.716 37.5919 118.716C16.8305 118.716 0 120.745 0 123.248C0 125.751 16.8305 127.779 37.5919 127.779Z" fill="#DE8C79"/>
<path d="M57.2117 90.7317C56.5758 91.0985 55.8251 91.2131 54.7755 91.0068C54.1627 90.8845 51.5273 90.8005 52.2015 89.5854C52.9216 88.2863 55.1433 90.0974 55.1892 87.7131C54.0248 86.926 54.2316 87.8048 53.9558 88.5385C53.4196 90.0057 51.9104 87.6673 52.8067 86.4293C53.1897 85.902 53.9941 85.818 54.3006 85.2677C54.7066 84.5341 54.224 83.3496 54.0478 82.5931C53.7796 81.4621 51.083 75.1117 49.8419 73.186C48.0953 70.4731 45.2837 68.4175 44.5023 65.1391C43.9814 62.9459 44.9849 60.8367 47.1989 60.7985C49.3133 60.7679 51.3971 64.6959 51.9563 66.2013C53.1438 69.3803 54.3465 72.5517 55.488 75.746C56.0013 77.1979 57.5871 83.1892 58.2153 84.6029C58.8052 85.9173 60.0769 87.5909 59.058 88.8976C58.4068 89.723 57.8705 90.3572 57.2117 90.7317Z" fill="#DE8C79"/>
<path d="M59.1277 58.9416C59.7712 57.9328 60.2615 56.8859 60.5066 55.9612C62.3452 57.1992 61.8932 59.7898 61.9622 61.7385C65.6011 60.256 68.1368 56.1599 68.1522 52.2778C68.1675 48.0213 65.2717 44.2921 66.0991 39.921C66.5664 37.4297 68.1522 35.481 68.857 33.1044C71.1552 25.4091 65.9152 12.1734 60.3228 7.09153C50.5015 -1.82652 39.0638 -1.03176 26.5766 2.42236C16.6328 5.18107 2.75892 16.4146 8.15984 28.718C11.094 35.4123 10.8258 37.6131 7.78446 44.1622C5.68538 48.6938 7.07966 54.6621 10.4581 58.2385C11.2319 56.7407 12.9709 55.5944 14.4647 54.8532C14.3422 58.2691 15.9739 61.2647 19.0689 62.6249C19.4826 60.8597 21.2446 58.5824 22.7538 57.7188C23.2594 60.9972 26.4387 63.6336 29.3422 64.8411C29.8248 62.9688 31.7553 61.0278 33.2339 59.8891C36.2293 62.388 36.3595 66.0561 39.9831 62.6402C41.1093 61.578 41.4387 60.1108 42.9402 60.7068C44.0127 61.1271 44.8478 63.9164 44.8478 64.9404C46.3417 64.3443 47.6746 63.0452 48.7318 61.8531C49.3294 61.1806 50.9075 57.8182 51.7962 57.7876C53.8263 57.7189 53.88 62.1053 53.6578 63.328C55.7109 63.0299 57.7717 61.066 59.1277 58.9416Z" fill="#2D2C2C"/>
<path d="M6.90228 35.6415C9.15458 32.3631 12.8395 33.9832 14.6398 36.6961C15.9881 38.7288 16.555 43.0923 13.6592 44.1316C11.8512 44.7812 9.17756 43.612 7.92118 42.2976C6.24345 40.5399 5.40841 37.8118 6.90228 35.6415Z" fill="#C77D6C"/>
<path d="M69.0251 37.1394C66.9337 33.7541 63.1722 35.1984 61.2493 37.8195C59.8091 39.7835 59.0277 44.1164 61.8699 45.2933C63.6472 46.0345 66.3745 44.9952 67.6921 43.742C69.4465 42.0684 70.4117 39.3785 69.0251 37.1394Z" fill="#C77D6C"/>
<path d="M63.3872 12.8305C60.499 6.89282 52.5011 5.86117 46.6175 5.17341C37.0874 4.05769 28.1625 3.20945 19.2069 7.82513C8.47402 13.3578 13.3387 30.0629 13.1089 39.5923C12.8943 48.4187 19.7585 51.3837 25.4812 52.6981C31.2038 54.0125 34.9807 54.9754 34.6359 57.0311C34.2912 59.0867 32.6211 64.8028 37.187 64.9098C37.233 64.9098 37.2789 64.9098 37.3249 64.9098C37.3708 64.9098 37.4168 64.9175 37.4628 64.9175C42.0363 65.0244 40.8336 59.1631 40.2207 57.0616C39.6308 55.0671 43.8673 54.3182 49.6512 53.2789C54.9832 52.3237 61.1502 49.4351 62.5062 43.6272C63.2416 41.3347 63.3795 35.6491 63.3795 35.6491C63.8085 29.016 66.1987 19.8152 63.686 13.4954C63.5864 13.2738 63.4944 13.0522 63.3872 12.8305Z" fill="#DE8C79"/>
<path d="M39.4079 40.7157C39.0478 40.8991 38.6571 41.0366 38.2434 41.0443C37.7915 41.0519 37.4007 40.8685 36.9947 40.6928C36.4891 40.4712 35.8149 40.1502 36.244 39.4777C36.4968 39.0803 36.9947 39.1873 37.3778 39.2943C37.7991 39.4166 38.3277 39.5694 38.7644 39.4777C39.2011 39.386 39.6224 39.0956 40.0667 39.0803C40.6413 39.0574 40.7102 39.8292 40.4038 40.1731C40.151 40.4635 39.7603 40.5246 39.4309 40.6928C39.4232 40.7004 39.4156 40.708 39.4079 40.7157Z" fill="#BA7565"/>
<path opacity="0.5" d="M24.6827 37.1011C23.932 36.6273 23.051 36.2376 22.0627 36.0083C18.7915 35.2289 15.7195 36.3675 15.1986 38.5454C14.6776 40.7234 16.907 43.1229 20.1705 43.9024C21.1511 44.1393 22.1164 44.1928 23.005 44.1087C25.8702 44.315 28.2144 43.398 28.6051 41.7474C29.0035 40.0814 27.3257 38.2092 24.6827 37.1011Z" fill="#FBACAC"/>
<path opacity="0.5" d="M61.8618 39.6688C61.4481 37.468 58.4298 36.1841 55.1279 36.8031C54.132 36.9865 53.228 37.3304 52.4619 37.7737C49.7653 38.7518 48.0033 40.5476 48.3174 42.2136C48.6315 43.8795 50.9298 44.9111 53.7949 44.8424C54.6759 44.9723 55.6412 44.9646 56.6295 44.7736C59.9389 44.1546 62.2832 41.8697 61.8618 39.6688Z" fill="#FBACAC"/>
<path d="M24.0169 38.2781C26.2156 38.0564 25.756 34.0903 23.6645 34.0063C20.853 33.8916 21.8413 38.4997 24.0169 38.2781Z" fill="black"/>
<path d="M52.1016 38.9581C54.3003 38.7365 53.8407 34.7704 51.7492 34.6863C48.9454 34.5717 49.926 39.1797 52.1016 38.9581Z" fill="black"/>
<path d="M31.4322 42.9624C33.0716 44.4908 35.0634 46.3325 37.446 46.4548C39.7825 46.577 42.6017 45.4155 44.2871 43.8489C44.5706 43.5814 44.3561 42.3816 43.9577 42.7714C42.0425 44.6666 39.7519 45.6829 37.0553 45.148C34.9332 44.7277 33.447 43.3292 31.5011 42.5421C31.3479 42.4733 31.3556 42.8936 31.4322 42.9624Z" fill="#DE8C79"/>
<path d="M27.0649 25.3556C26.3295 24.1481 24.9888 23.5444 23.6252 24.0335C22.3458 24.4997 21.3576 26.051 21.8249 27.4036C21.8862 27.5793 22.0624 27.9309 22.3152 27.7857C22.6982 27.5564 22.6753 27.075 22.9128 26.7311C23.1809 26.349 23.6405 26.0815 24.0772 25.9669C25.0042 25.7147 25.9465 25.921 26.7968 26.2955C27.2182 26.4789 27.1799 25.5313 27.0649 25.3556Z" fill="#6E2D07"/>
<path d="M49.8405 26.8457C50.7062 26.5247 51.6485 26.3642 52.5601 26.6546C52.9585 26.7769 53.3568 27.0061 53.6097 27.35C53.8625 27.6939 53.8242 28.2136 54.1612 28.4887C54.3681 28.6644 54.5596 28.588 54.6745 28.3435C55.2797 27.0749 54.3298 25.3937 53.1577 24.8129C51.863 24.1787 50.3768 24.6372 49.5954 25.8293C49.4575 26.028 49.3655 27.0214 49.8405 26.8457Z" fill="#6E2D07"/>
<path d="M19.5803 23.4756C18.4771 20.3578 18.5921 15.6504 19.6952 12.586C19.6339 15.2377 20.423 19.2268 22.2846 21.3359C24.0083 23.147 25.5175 22.0008 27.8847 21.6187C34.4118 20.3043 41.7892 20.1896 48.2626 21.2289C48.5767 20.5029 48.7453 19.4713 48.9138 18.7453C49.4731 19.9375 49.4424 21.2595 49.8638 22.1536C50.921 21.1449 51.1048 19.5324 51.2887 18.2104C52.1314 19.9986 51.5185 21.015 53.2575 22.0848C54.422 22.7038 56.0461 22.5968 57.3638 23.2158C58.2984 21.3283 59.2254 19.4331 59.5778 17.2322C60.3898 20.1973 61.9526 22.8872 62.6191 25.8446C63.278 29.1 60.8035 33.8991 63.4005 36.1688C66.327 31.2321 66.687 22.4134 65.6375 16.789C62.4353 -0.420462 39.9889 -0.527447 26.5824 2.42995C19.6493 3.95832 13.9725 8.02379 12.2565 15.2071C11.4904 18.4244 11.5824 21.8403 11.6513 25.1186C11.7203 28.2824 10.7397 32.0727 12.7391 34.8544C14.9531 32.1874 15.8571 29.0007 15.6809 25.6001C15.4971 22.0466 14.0262 18.4014 15.6579 14.955C15.4205 15.4517 16.2248 19.2115 16.4317 19.7923C16.968 21.2977 18.2856 22.528 19.5803 23.4756Z" fill="#2D2C2C"/>
<path d="M63.2417 32.7682C64.0921 31.8741 65.0114 31.6831 66.1912 31.4156C67.1794 31.194 67.731 31.0947 68.229 30.1165C68.8725 28.8709 68.8801 27.1362 68.0375 25.9746C67.7846 25.6307 67.2407 24.9812 66.7045 25.0882C64.728 25.5008 62.8587 26.2115 61.2269 27.4189C60.0855 28.2595 60.1851 30.5368 60.6294 31.6984C61.0278 32.73 62.2152 33.8534 63.2417 32.7682Z" fill="#20D4CE"/>
<path d="M16.1109 27.0979C14.6707 25.9975 12.901 25.2333 11.139 24.8436C10.2733 24.6526 9.84432 24.9659 9.34636 25.6766C8.5956 26.7388 8.64922 28.2824 9.1242 29.444C9.3387 29.9713 9.69876 30.6132 10.258 30.8501C10.4878 30.9418 10.8862 30.98 11.1467 31.0411C11.7289 31.1863 12.3418 31.3086 12.9087 31.4997C13.4909 31.6907 13.8816 32.0652 14.3029 32.516C15.2912 33.5859 16.5552 32.3632 16.8693 31.3545C17.2371 30.1394 17.2677 27.9768 16.1109 27.0979Z" fill="#20D4CE"/>
<path d="M26.7054 58.7352C27.5175 60.0649 28.1533 62.3193 28.1227 63.8706C28.1074 64.6195 24.6064 66.5681 23.9782 66.9044C22.3311 67.8061 20.5614 68.4939 19.0216 69.579C19.0752 69.5408 22.7141 77.5342 22.7448 78.4054C22.7984 79.8344 21.5803 80.7591 20.2473 80.1248C18.9067 79.4752 18.2631 77.5036 17.6656 76.258C16.7923 74.4622 15.9189 72.6205 15.4056 70.6795C14.5859 67.5539 17.2059 65.8574 19.4582 64.3291C20.2167 63.8094 26.7667 58.8346 26.7054 58.7352Z" fill="#DE8C79"/>
<path d="M19.2746 81.7679C19.152 81.3323 19.129 80.8738 19.1673 80.484C19.2822 79.2766 20.0253 78.1227 20.868 77.2744C22.1321 76.0059 24.2618 75.8454 25.6254 77.0987C26.2766 77.7024 26.8512 78.436 27.1959 79.2766C27.4564 79.9491 27.4487 81.4087 26.3456 80.9273C26.6214 81.3705 27.1653 82.0048 26.9048 82.5626C26.5371 83.258 25.794 82.8683 25.2424 82.7613C25.4186 83.1205 25.2194 83.77 24.913 84.0069C24.5606 84.3202 23.9554 84.0528 23.603 83.877C23.626 84.4272 23.2429 84.817 22.676 84.7023C22.0631 84.5801 22.0708 84.0681 21.9023 83.5866C21.6801 82.9294 20.937 83.2657 20.4237 83.1281C19.8032 82.9371 19.4431 82.3869 19.2746 81.7679Z" fill="#DE8C79"/>
<path d="M23.7175 68.257C37.6756 58.2921 30.8497 57.4438 27.1649 58.5748C25.9008 58.9645 19.2435 61.685 19.3891 61.815C21.5035 63.7713 22.0014 66.2854 23.7175 68.257Z" fill="#7E72F2"/>
<path d="M46.0952 70.6106C38.1968 54.387 45.873 57.673 48.3781 60.5922C49.2361 61.5932 53.4036 67.4469 53.2121 67.4851C50.3699 68.0124 48.6003 69.8694 46.0952 70.6106Z" fill="#7E72F2"/>
<path d="M35.5699 93.628C34.8115 91.4348 32.5822 89.1804 30.2916 90.7393C27.3345 92.7492 27.8631 100.376 27.9933 103.562C28.1006 106.061 28.5679 108.621 28.905 111.105C29.1731 113.061 28.6062 116.37 29.7783 118.059C30.7129 119.412 33.3713 119.862 34.6583 118.739C36.2134 117.379 35.7998 115.254 35.6542 113.474C35.3784 110.089 35.1026 106.65 35.3478 103.012C35.5623 99.8866 36.6731 96.7917 35.5699 93.628Z" fill="#DE8C79"/>
<path d="M39.7832 103.463C39.7602 101.323 39.3618 99.26 39.132 97.105C38.9175 95.1028 39.4078 93.4064 40.8863 91.9086C42.0278 90.7546 44.2341 89.7383 45.797 90.831C47.6049 92.092 47.5743 94.9347 47.5513 96.8834C47.5207 99.3135 47.6892 101.598 47.559 104.029C47.3981 107.062 46.8618 109.943 46.678 112.985C46.5937 114.406 47.084 116.668 46.2413 117.914C45.2607 119.366 42.3955 119.954 41.0855 118.777C39.9287 117.738 40.2888 116.164 40.2275 114.735C40.0666 111.021 39.8215 107.146 39.7832 103.463Z" fill="#DE8C79"/>
<path d="M41.3535 82.5243C36.9561 82.3027 32.4898 81.3551 28.0925 82.0047C27.7478 83.0287 23.7258 96.1727 23.6875 96.1497C31.3484 99.8255 40.235 99.0766 48.1717 97.5176C49.4817 97.2578 50.6998 96.8757 51.9332 96.379C51.4735 91.641 48.7079 87.3157 47.6431 82.7153C45.544 82.6924 43.4449 82.6313 41.3535 82.5243Z" fill="#FFAE62"/>
<path d="M28.3767 63.7024C28.5988 61.2264 30.3838 56.3203 33.7316 56.6107C33.5248 58.2843 33.5477 57.4819 33.632 58.9415C33.8006 61.8454 35.6162 61.3487 38.466 61.2952C42.5952 61.2188 41.2546 59.7668 41.0018 57.0387C45.0927 56.8247 45.7362 63.8094 46.5483 66.5528C48.203 72.1313 50.8996 84.2895 51.4972 87.1552C49.582 88.462 42.9323 88.6913 40.6953 88.7142C36.3593 88.76 25.7337 87.3921 24.2168 87.6061C25.4119 82.5243 27.9553 68.3716 28.3767 63.7024Z" fill="#6256ED"/>
<path d="M33.5008 56.4579C33.5008 56.4579 30.4901 62.281 37.3389 62.2657C44.1877 62.2581 41.2383 56.5038 41.2383 56.5038C41.2383 56.5038 38.4497 54.6162 33.5008 56.4579Z" fill="#28C76F"/>
<path d="M29.4326 114.788C29.4862 114.834 29.5399 114.872 29.5782 114.903C30.0914 115.285 30.4668 115.407 31.118 115.476C32.2135 115.598 33.355 115.369 34.3509 114.918C34.8565 114.689 36.5342 113.336 36.2508 114.811C36.1665 115.262 35.8524 115.644 35.7299 116.087C35.5996 116.569 35.7452 116.783 35.2625 117.104C34.5501 117.578 33.7074 118.067 32.8647 118.235C31.8228 118.441 29.9306 118.372 29.1262 117.539C28.6359 117.027 28.8887 116.309 28.7814 115.728C28.7125 115.338 27.9158 114.872 28.3141 114.444C28.6052 114.139 29.1185 114.536 29.4326 114.788Z" fill="white"/>
<path d="M35.8528 115.774C35.6996 116.813 34.4509 117.241 33.5699 117.455C32.0684 117.83 28.9964 117.807 28.7819 115.728C28.2226 116.301 27.8472 117.081 27.4412 117.761C27.0122 118.495 26.5832 119.228 26.2155 119.992C25.8018 120.856 25.3728 121.643 25.4877 122.621C25.5413 123.072 25.4417 123.691 25.7175 124.088C25.9243 124.394 26.5525 124.646 26.9049 124.753C28.6976 125.288 30.5592 125.342 32.4131 125.105C33.0413 125.028 33.7384 125.089 34.2747 124.677C34.7037 124.348 35.0485 123.958 35.2553 123.477C35.9601 121.857 36.9943 119.427 36.4887 117.646C36.3508 117.172 36.3661 116.049 35.8528 115.774Z" fill="#283A41"/>
<path d="M25.525 123.431C25.525 123.431 26.0459 124.478 29.4091 124.547C32.7798 124.616 34.0669 124.348 34.6414 123.775C35.4382 122.973 36.4647 119.343 36.6103 118.12C36.6103 118.12 36.7175 119.343 36.6026 119.939C36.48 120.535 35.7523 124.814 34.5572 125.281C33.3544 125.747 31.3319 125.984 29.4857 125.846C27.6394 125.708 25.8697 125.105 25.6246 124.577C25.3718 124.05 25.3948 123.576 25.525 123.431Z" fill="white"/>
<path d="M28.1761 120.971C29.1873 120.703 30.1296 120.787 31.1485 120.986C32.0985 121.169 32.9488 121.689 33.8758 121.834C34.6955 121.964 34.4044 119.801 34.2588 119.457C33.3395 117.295 30.1449 117.532 28.2527 117.99C28.3063 118.693 28.36 119.396 28.4136 120.099C29.7313 119.48 33.2093 118.762 34.1976 120.237C34.55 120.757 34.9024 120.038 34.979 119.733C35.1245 119.19 35.1015 118.342 34.7338 117.868C33.3319 116.042 29.8232 117.211 28.1378 118.028C27.6552 118.265 27.7701 120.275 28.2987 120.138C29.8845 119.733 32.6807 119.618 33.4544 121.429C33.5847 120.634 33.7073 119.84 33.8375 119.052C31.7844 118.961 29.9534 118.548 28.0842 119.671C27.8084 119.84 27.8237 121.062 28.1761 120.971Z" fill="white"/>
<path d="M46.2635 114.895C46.2099 114.941 46.1563 114.979 46.118 115.01C45.597 115.392 45.2216 115.499 44.5705 115.568C43.475 115.675 42.3335 115.43 41.3452 114.972C40.8396 114.735 39.1849 113.359 39.453 114.834C39.5373 115.293 39.8437 115.675 39.951 116.118C40.0735 116.599 39.928 116.813 40.403 117.142C41.1078 117.631 41.9428 118.128 42.7855 118.304C43.8274 118.518 45.7196 118.479 46.5317 117.654C47.0296 117.15 46.7845 116.431 46.8994 115.843C46.976 115.453 47.7804 114.995 47.382 114.567C47.0986 114.253 46.5776 114.651 46.2635 114.895Z" fill="white"/>
<path d="M39.8286 115.805C39.9742 116.852 41.2152 117.287 42.0962 117.516C43.5978 117.914 46.6621 117.921 46.9073 115.85C47.4588 116.431 47.8266 117.211 48.2173 117.898C48.6386 118.632 49.0523 119.381 49.4124 120.145C49.8184 121.016 50.2321 121.803 50.1095 122.782C50.0482 123.232 50.1402 123.851 49.8644 124.249C49.6499 124.554 49.0217 124.799 48.6693 124.898C46.869 125.41 45.0074 125.441 43.1534 125.189C42.5252 125.105 41.8281 125.158 41.2918 124.738C40.8628 124.402 40.5258 124.012 40.3266 123.53C39.6448 121.903 38.6412 119.465 39.1621 117.692C39.3153 117.188 39.3153 116.064 39.8286 115.805Z" fill="#283A41"/>
<path d="M50.0635 123.584C50.0635 123.584 49.5349 124.623 46.1642 124.654C42.7934 124.684 41.514 124.402 40.9471 123.813C40.1657 123.003 39.1774 119.358 39.0549 118.135C39.0549 118.135 38.9323 119.358 39.0472 119.954C39.1621 120.55 39.8363 124.837 41.0314 125.319C42.2265 125.8 44.2489 126.06 46.0952 125.945C47.9415 125.831 49.7188 125.242 49.9716 124.723C50.2091 124.203 50.1861 123.729 50.0635 123.584Z" fill="white"/>
<path d="M47.5281 119.794C45.6665 118.64 43.8126 119.037 41.7518 119.106C41.905 119.893 42.0659 120.68 42.2191 121.467C43.0082 119.679 45.8427 119.84 47.3902 120.26C47.9111 120.405 47.9418 118.38 47.4668 118.143C45.7738 117.295 42.2957 116.11 40.8631 117.921C40.4954 118.388 40.5337 119.259 40.6869 119.794C40.7789 120.122 41.1313 120.787 41.4913 120.268C42.4872 118.816 45.9729 119.595 47.2676 120.222C47.2906 119.519 47.3213 118.816 47.3442 118.105C45.429 117.616 42.2804 117.348 41.3228 119.519C41.1542 119.893 40.9857 121.995 41.7901 121.88C42.7171 121.742 43.5674 121.238 44.5174 121.062C45.5286 120.879 46.4709 120.802 47.4668 121.085C47.8269 121.192 47.7886 119.962 47.5281 119.794Z" fill="white"/>
<path d="M34.1222 55.7243C34.1222 55.7243 31.5865 61.3258 37.3474 61.3181C43.1084 61.3105 40.6263 55.7625 40.6263 55.7625C40.6263 55.7625 38.2821 54.1806 34.1222 55.7243Z" fill="#DE8C79"/>
<path d="M47.0296 144.958C46.8994 144.958 46.7691 144.966 46.6389 144.974L46.5853 144.492C46.7308 144.378 46.8151 144.194 46.7921 144.003C46.7538 143.705 46.4857 143.491 46.1792 143.522C45.8805 143.56 45.666 143.827 45.6966 144.133C45.7196 144.324 45.8422 144.485 46.003 144.561L46.0567 145.035C45.5127 145.126 44.9841 145.287 44.4785 145.532L44.7313 146.051C45.4438 145.707 46.2175 145.539 47.0296 145.539C47.4126 145.539 47.788 145.577 48.1634 145.661L48.286 145.096C47.8723 145.004 47.4509 144.958 47.0296 144.958Z" fill="#1D262D"/>
</svg>
