<svg width="173" height="124" viewBox="0 0 173 124" fill="transparent" xmlns="http://www.w3.org/2000/svg">
<g filter="url(#filter0_d)">
<rect width="110.099" height="64.5643" rx="20" transform="matrix(0.872985 -0.487747 0.421397 0.906876 0 54.0173)" fill="#20D4CE"/>
<path d="M6.88141 68.8268C5.48502 65.8217 6.69812 62.0753 9.59094 60.4591L95.2301 12.6114C98.1229 10.9952 101.6 12.1211 102.996 15.1262L107.27 24.3229L11.1548 78.0235L6.88141 68.8268Z" fill="black"/>
</g>
<g filter="url(#filter1_d)">
<rect x="61.1274" y="49.6025" width="107.872" height="65.7143" rx="20" fill="#7E72F2"/>
<rect x="128.248" y="69.3168" width="29.9645" height="19.7143" rx="9.85714" fill="#FFAE62"/>
<line x1="117.461" y1="101.303" x2="135.44" y2="101.303" stroke="#F4A880" stroke-width="7"/>
<line x1="140.833" y1="101.303" x2="158.812" y2="101.303" stroke="#F4A880" stroke-width="7"/>
<line x1="71.3154" y1="101.303" x2="89.2942" y2="101.303" stroke="#F4A880" stroke-width="7"/>
<line x1="94.6875" y1="101.303" x2="112.666" y2="101.303" stroke="#F4A880" stroke-width="7"/>
</g>
<defs>
<filter id="filter0_d" x="2.30176" y="7.61084" width="118.524" height="105.664" filterUnits="userSpaceOnUse" color-interpolation-filters="sRGB">
<feFlood flood-opacity="0" result="BackgroundImageFix"/>
<feColorMatrix in="SourceAlpha" type="matrix" values="0 0 0 0 0 0 0 0 0 0 0 0 0 0 0 0 0 0 127 0"/>
<feOffset dy="4"/>
<feGaussianBlur stdDeviation="2"/>
<feColorMatrix type="matrix" values="0 0 0 0 0 0 0 0 0 0 0 0 0 0 0 0 0 0 0.25 0"/>
<feBlend mode="normal" in2="BackgroundImageFix" result="effect1_dropShadow"/>
<feBlend mode="normal" in="SourceGraphic" in2="effect1_dropShadow" result="shape"/>
</filter>
<filter id="filter1_d" x="57.1274" y="49.6025" width="115.872" height="73.7143" filterUnits="userSpaceOnUse" color-interpolation-filters="sRGB">
<feFlood flood-opacity="0" result="BackgroundImageFix"/>
<feColorMatrix in="SourceAlpha" type="matrix" values="0 0 0 0 0 0 0 0 0 0 0 0 0 0 0 0 0 0 127 0"/>
<feOffset dy="4"/>
<feGaussianBlur stdDeviation="2"/>
<feColorMatrix type="matrix" values="0 0 0 0 0 0 0 0 0 0 0 0 0 0 0 0 0 0 0.25 0"/>
<feBlend mode="normal" in2="BackgroundImageFix" result="effect1_dropShadow"/>
<feBlend mode="normal" in="SourceGraphic" in2="effect1_dropShadow" result="shape"/>
</filter>
</defs>
</svg>
