<svg width="71" height="68" viewBox="0 0 71 68" fill="none" xmlns="http://www.w3.org/2000/svg">
<g opacity="0.302572">
<path fill-rule="evenodd" clip-rule="evenodd" d="M35.2953 68C54.5933 68 70.2375 52.7777 70.2375 34C70.2375 15.2223 54.5933 0 35.2953 0C15.9972 0 0.352966 15.2223 0.352966 34C0.352966 52.7777 15.9972 68 35.2953 68Z" fill="#B5BEEC"/>
<path fill-rule="evenodd" clip-rule="evenodd" d="M3.17657 20.2627C6.1378 13.7917 11.0956 8.38915 17.2816 4.80811L29.4906 4.80811C30.942 4.80811 32.1187 5.96131 32.1187 7.38386C32.1187 8.80641 30.942 9.95962 29.4906 9.95962H18.1021C19.5535 9.95962 20.7302 11.1128 20.7302 12.5354C20.7302 13.9579 19.5535 15.1111 18.1021 15.1111C19.5535 15.1111 20.7302 16.2643 20.7302 17.6869C20.7302 19.1094 19.5535 20.2627 18.1021 20.2627H3.17657Z" fill="#6254E8"/>
<path fill-rule="evenodd" clip-rule="evenodd" d="M70.5614 32.6263H60.4108C59.1988 32.6263 58.2164 33.7795 58.2164 35.202C58.2164 36.6246 59.1988 37.7778 60.4108 37.7778C59.1988 37.7778 58.2164 38.931 58.2164 40.3536C58.2164 41.7761 59.1988 42.9293 60.4108 42.9293H50.9018C49.6899 42.9293 48.7074 44.0825 48.7074 45.5051C48.7074 46.9276 49.6899 48.0808 50.9018 48.0808H68.0923C69.6979 43.8319 70.5905 39.1249 70.5905 34.1717C70.5905 33.6538 70.5807 33.1386 70.5614 32.6263Z" fill="#6254E8"/>
<path fill-rule="evenodd" clip-rule="evenodd" d="M58.943 59.0707C56.6827 61.0913 54.1489 62.8279 51.4016 64.2222H48.1838C46.7186 64.2222 45.5309 63.069 45.5309 61.6464C45.5309 60.2239 46.7186 59.0707 48.1838 59.0707H58.943Z" fill="#6254E8"/>
<path fill-rule="evenodd" clip-rule="evenodd" d="M0.565924 40.1818H8.01281C9.43536 40.1818 10.5886 39.0286 10.5886 37.606C10.5886 36.1835 9.43536 35.0303 8.01281 35.0303H0C0.0557637 36.784 0.247715 38.5044 0.565924 40.1818Z" fill="#6254E8"/>
<rect x="12.7063" y="9.95959" width="13.7651" height="5.15152" rx="2.57576" fill="#B5BEEC"/>
<rect x="66.708" y="42.9293" width="13.7651" height="5.15152" rx="2.57576" transform="rotate(-180 66.708 42.9293)" fill="#B5BEEC"/>
<rect x="45.5309" y="9.95959" width="7.76495" height="5.15152" rx="2.57576" fill="#6254E8"/>
<rect x="41.6484" y="42.9293" width="5.29429" height="5.15152" rx="2.57576" fill="#6254E8"/>
</g>
<path d="M11.07 58.5543C11.0033 58.3943 10.9133 58.1909 10.8 57.9443C10.6933 57.6976 10.5767 57.4309 10.45 57.1443C10.3233 56.8576 10.1867 56.5643 10.04 56.2643C9.89999 55.9576 9.76666 55.6709 9.63999 55.4043C9.51333 55.1309 9.39333 54.8876 9.27999 54.6743C9.17333 54.4609 9.08666 54.2976 9.01999 54.1843C8.94666 54.9709 8.88666 55.8243 8.83999 56.7443C8.79333 57.6576 8.75333 58.5809 8.71999 59.5143H7.76999C7.79666 58.9143 7.82666 58.3109 7.85999 57.7043C7.89333 57.0909 7.92999 56.4909 7.96999 55.9043C8.01666 55.3109 8.06333 54.7343 8.10999 54.1743C8.16333 53.6143 8.21999 53.0843 8.27999 52.5843H9.12999C9.30999 52.8776 9.50333 53.2243 9.70999 53.6243C9.91666 54.0243 10.1233 54.4443 10.33 54.8843C10.5367 55.3176 10.7367 55.7543 10.93 56.1943C11.1233 56.6276 11.3 57.0243 11.46 57.3843C11.62 57.0243 11.7967 56.6276 11.99 56.1943C12.1833 55.7543 12.3833 55.3176 12.59 54.8843C12.7967 54.4443 13.0033 54.0243 13.21 53.6243C13.4167 53.2243 13.61 52.8776 13.79 52.5843H14.64C14.8667 54.8176 15.0367 57.1276 15.15 59.5143H14.2C14.1667 58.5809 14.1267 57.6576 14.08 56.7443C14.0333 55.8243 13.9733 54.9709 13.9 54.1843C13.8333 54.2976 13.7433 54.4609 13.63 54.6743C13.5233 54.8876 13.4067 55.1309 13.28 55.4043C13.1533 55.6709 13.0167 55.9576 12.87 56.2643C12.73 56.5643 12.5967 56.8576 12.47 57.1443C12.3433 57.4309 12.2233 57.6976 12.11 57.9443C12.0033 58.1909 11.9167 58.3943 11.85 58.5543H11.07ZM16.3909 56.0443C16.3909 55.4509 16.4776 54.9276 16.6509 54.4743C16.8309 54.0209 17.0709 53.6443 17.3709 53.3443C17.6776 53.0376 18.0309 52.8076 18.4309 52.6543C18.8376 52.5009 19.2676 52.4243 19.7209 52.4243C20.1676 52.4243 20.5876 52.5009 20.9809 52.6543C21.3809 52.8076 21.7309 53.0376 22.0309 53.3443C22.3309 53.6443 22.5676 54.0209 22.7409 54.4743C22.9209 54.9276 23.0109 55.4509 23.0109 56.0443C23.0109 56.6376 22.9209 57.1609 22.7409 57.6143C22.5676 58.0676 22.3309 58.4476 22.0309 58.7543C21.7309 59.0543 21.3809 59.2809 20.9809 59.4343C20.5876 59.5876 20.1676 59.6643 19.7209 59.6643C19.2676 59.6643 18.8376 59.5876 18.4309 59.4343C18.0309 59.2809 17.6776 59.0543 17.3709 58.7543C17.0709 58.4476 16.8309 58.0676 16.6509 57.6143C16.4776 57.1609 16.3909 56.6376 16.3909 56.0443ZM17.4109 56.0443C17.4109 56.4643 17.4643 56.8476 17.5709 57.1943C17.6776 57.5343 17.8276 57.8243 18.0209 58.0643C18.2209 58.3043 18.4609 58.4909 18.7409 58.6243C19.0276 58.7509 19.3476 58.8143 19.7009 58.8143C20.0543 58.8143 20.3709 58.7509 20.6509 58.6243C20.9309 58.4909 21.1676 58.3043 21.3609 58.0643C21.5609 57.8243 21.7143 57.5343 21.8209 57.1943C21.9276 56.8476 21.9809 56.4643 21.9809 56.0443C21.9809 55.6243 21.9276 55.2443 21.8209 54.9043C21.7143 54.5576 21.5609 54.2643 21.3609 54.0243C21.1676 53.7843 20.9309 53.6009 20.6509 53.4743C20.3709 53.3409 20.0543 53.2743 19.7009 53.2743C19.3476 53.2743 19.0276 53.3409 18.7409 53.4743C18.4609 53.6009 18.2209 53.7843 18.0209 54.0243C17.8276 54.2643 17.6776 54.5576 17.5709 54.9043C17.4643 55.2443 17.4109 55.6243 17.4109 56.0443ZM30.1441 56.0443C30.1441 56.6443 30.0508 57.1676 29.8641 57.6143C29.6775 58.0543 29.4141 58.4209 29.0741 58.7143C28.7341 59.0009 28.3275 59.2176 27.8541 59.3643C27.3808 59.5043 26.8608 59.5743 26.2941 59.5743C26.0141 59.5743 25.7041 59.5609 25.3641 59.5343C25.0308 59.5143 24.7275 59.4709 24.4541 59.4043V52.6843C24.7275 52.6176 25.0308 52.5743 25.3641 52.5543C25.7041 52.5276 26.0141 52.5143 26.2941 52.5143C26.8608 52.5143 27.3808 52.5876 27.8541 52.7343C28.3275 52.8743 28.7341 53.0909 29.0741 53.3843C29.4141 53.6709 29.6775 54.0376 29.8641 54.4843C30.0508 54.9243 30.1441 55.4443 30.1441 56.0443ZM26.3741 58.7243C27.2941 58.7243 27.9808 58.4909 28.4341 58.0243C28.8875 57.5509 29.1141 56.8909 29.1141 56.0443C29.1141 55.1976 28.8875 54.5409 28.4341 54.0743C27.9808 53.6009 27.2941 53.3643 26.3741 53.3643C26.1008 53.3643 25.8875 53.3676 25.7341 53.3743C25.5875 53.3809 25.4841 53.3876 25.4241 53.3943V58.6943C25.4841 58.7009 25.5875 58.7076 25.7341 58.7143C25.8875 58.7209 26.1008 58.7243 26.3741 58.7243ZM31.583 59.5143V52.5843H35.813V53.4143H32.553V55.4743H35.453V56.2843H32.553V58.6843H36.063V59.5143H31.583ZM40.6859 56.6143C40.7926 56.7476 40.9259 56.9243 41.0859 57.1443C41.2526 57.3576 41.4226 57.5976 41.5959 57.8643C41.7693 58.1243 41.9393 58.3976 42.1059 58.6843C42.2793 58.9709 42.4259 59.2476 42.5459 59.5143H41.4859C41.3526 59.2609 41.2059 59.0043 41.0459 58.7443C40.8926 58.4843 40.7359 58.2376 40.5759 58.0043C40.4159 57.7643 40.2559 57.5409 40.0959 57.3343C39.9426 57.1276 39.8026 56.9476 39.6759 56.7943C39.5893 56.8009 39.4993 56.8043 39.4059 56.8043C39.3193 56.8043 39.2293 56.8043 39.1359 56.8043H38.2659V59.5143H37.2959V52.6843C37.5693 52.6176 37.8726 52.5743 38.2059 52.5543C38.5459 52.5276 38.8559 52.5143 39.1359 52.5143C40.1093 52.5143 40.8493 52.6976 41.3559 53.0643C41.8693 53.4309 42.1259 53.9776 42.1259 54.7043C42.1259 55.1643 42.0026 55.5576 41.7559 55.8843C41.5159 56.2109 41.1593 56.4543 40.6859 56.6143ZM39.2159 53.3643C38.8026 53.3643 38.4859 53.3743 38.2659 53.3943V56.0043H38.9559C39.2893 56.0043 39.5893 55.9876 39.8559 55.9543C40.1226 55.9209 40.3459 55.8576 40.5259 55.7643C40.7126 55.6709 40.8559 55.5409 40.9559 55.3743C41.0559 55.2009 41.1059 54.9743 41.1059 54.6943C41.1059 54.4343 41.0559 54.2176 40.9559 54.0443C40.8559 53.8709 40.7193 53.7343 40.5459 53.6343C40.3793 53.5343 40.1793 53.4643 39.9459 53.4243C39.7193 53.3843 39.4759 53.3643 39.2159 53.3643ZM48.4982 59.5143C48.3849 59.2143 48.2782 58.9209 48.1782 58.6343C48.0782 58.3409 47.9749 58.0443 47.8682 57.7443H44.7282L44.0982 59.5143H43.0882C43.3549 58.7809 43.6049 58.1043 43.8382 57.4843C44.0715 56.8576 44.2982 56.2643 44.5182 55.7043C44.7449 55.1443 44.9682 54.6109 45.1882 54.1043C45.4082 53.5909 45.6382 53.0843 45.8782 52.5843H46.7682C47.0082 53.0843 47.2382 53.5909 47.4582 54.1043C47.6782 54.6109 47.8982 55.1443 48.1182 55.7043C48.3449 56.2643 48.5749 56.8576 48.8082 57.4843C49.0415 58.1043 49.2915 58.7809 49.5582 59.5143H48.4982ZM47.5882 56.9443C47.3749 56.3643 47.1615 55.8043 46.9482 55.2643C46.7415 54.7176 46.5249 54.1943 46.2982 53.6943C46.0649 54.1943 45.8415 54.7176 45.6282 55.2643C45.4215 55.8043 45.2149 56.3643 45.0082 56.9443H47.5882ZM54.4845 52.5843V53.4243H52.3045V59.5143H51.3345V53.4243H49.1545V52.5843H54.4845ZM54.9554 56.0443C54.9554 55.4509 55.042 54.9276 55.2154 54.4743C55.3954 54.0209 55.6354 53.6443 55.9354 53.3443C56.242 53.0376 56.5954 52.8076 56.9954 52.6543C57.402 52.5009 57.832 52.4243 58.2854 52.4243C58.732 52.4243 59.152 52.5009 59.5454 52.6543C59.9454 52.8076 60.2954 53.0376 60.5954 53.3443C60.8954 53.6443 61.132 54.0209 61.3054 54.4743C61.4854 54.9276 61.5754 55.4509 61.5754 56.0443C61.5754 56.6376 61.4854 57.1609 61.3054 57.6143C61.132 58.0676 60.8954 58.4476 60.5954 58.7543C60.2954 59.0543 59.9454 59.2809 59.5454 59.4343C59.152 59.5876 58.732 59.6643 58.2854 59.6643C57.832 59.6643 57.402 59.5876 56.9954 59.4343C56.5954 59.2809 56.242 59.0543 55.9354 58.7543C55.6354 58.4476 55.3954 58.0676 55.2154 57.6143C55.042 57.1609 54.9554 56.6376 54.9554 56.0443ZM55.9754 56.0443C55.9754 56.4643 56.0287 56.8476 56.1354 57.1943C56.242 57.5343 56.392 57.8243 56.5854 58.0643C56.7854 58.3043 57.0254 58.4909 57.3054 58.6243C57.592 58.7509 57.912 58.8143 58.2654 58.8143C58.6187 58.8143 58.9354 58.7509 59.2154 58.6243C59.4954 58.4909 59.732 58.3043 59.9254 58.0643C60.1254 57.8243 60.2787 57.5343 60.3854 57.1943C60.492 56.8476 60.5454 56.4643 60.5454 56.0443C60.5454 55.6243 60.492 55.2443 60.3854 54.9043C60.2787 54.5576 60.1254 54.2643 59.9254 54.0243C59.732 53.7843 59.4954 53.6009 59.2154 53.4743C58.9354 53.3409 58.6187 53.2743 58.2654 53.2743C57.912 53.2743 57.592 53.3409 57.3054 53.4743C57.0254 53.6009 56.7854 53.7843 56.5854 54.0243C56.392 54.2643 56.242 54.5576 56.1354 54.9043C56.0287 55.2443 55.9754 55.6243 55.9754 56.0443Z" fill="#F2F4FD"/>
<path d="M43.2263 36.0248C43.2263 36.0248 36.5768 51.2287 24.915 37.8134C13.2531 24.3981 30.4297 26.175 26.0554 35.8599C21.6811 45.5448 14.1105 38.4065 14.1105 38.4065" stroke="#F6732F" stroke-linecap="round" stroke-linejoin="round" stroke-dasharray="5"/>
<path fill-rule="evenodd" clip-rule="evenodd" d="M43.3353 37.2219L51.8763 24.9054V19.1409L44.8906 29.271L43.3353 37.2219Z" fill="#B14F1C"/>
<path fill-rule="evenodd" clip-rule="evenodd" d="M31.4837 24.3867L59.3481 10.3619L55.5379 33.8278L44.8906 29.2709L51.8763 19.1408L39.8299 27.8308L31.4837 24.3867Z" fill="#F2F4FD"/>
<path fill-rule="evenodd" clip-rule="evenodd" d="M39.8299 27.8309L43.3353 37.2219L44.8906 29.271L51.8763 19.1409L39.8299 27.8309Z" fill="#D35E21"/>
<path fill-rule="evenodd" clip-rule="evenodd" d="M53.5357 32.8164L55.5379 33.8278L59.4011 10.3619L53.5357 32.8164Z" fill="#DCE0F6"/>
</svg>
