<svg width="182" height="181" viewBox="0 0 182 181" fill="none" xmlns="http://www.w3.org/2000/svg">
<g opacity="0.302572">
<path fill-rule="evenodd" clip-rule="evenodd" d="M91 181C140.755 181 181.09 140.482 181.09 90.5C181.09 40.5182 140.755 0 91 0C41.2447 0 0.910004 40.5182 0.910004 90.5C0.910004 140.482 41.2447 181 91 181Z" fill="#6254E8"/>
<path fill-rule="evenodd" clip-rule="evenodd" d="M29.2295 157.232C24.8148 153.087 20.8117 148.493 17.29 143.52L39.6874 143.52C43.4002 143.52 46.41 146.59 46.41 150.376C46.41 154.163 43.4002 157.232 39.6874 157.232H29.2295Z" fill="#08135A"/>
<path fill-rule="evenodd" clip-rule="evenodd" d="M8.19 53.9343C15.8248 36.7101 28.6072 22.3299 44.5562 12.798L76.0341 12.798C79.7763 12.798 82.81 15.8675 82.81 19.654C82.81 23.4405 79.7763 26.5101 76.0341 26.5101H46.6717C50.4139 26.5101 53.4476 29.5797 53.4476 33.3662C53.4476 37.1527 50.4139 40.2222 46.6717 40.2222C50.4139 40.2222 53.4476 43.2918 53.4476 47.0783C53.4476 50.8648 50.4139 53.9343 46.6717 53.9343H8.19Z" fill="#08135A"/>
<path fill-rule="evenodd" clip-rule="evenodd" d="M181.925 86.8434L155.754 86.8434C152.63 86.8434 150.096 89.9129 150.096 93.6994C150.096 97.4859 152.63 100.556 155.754 100.556C152.63 100.556 150.096 103.625 150.096 107.412C150.096 111.198 152.63 114.268 155.754 114.268H131.238C128.113 114.268 125.58 117.337 125.58 121.124C125.58 124.91 128.113 127.98 131.238 127.98H175.559C179.699 116.67 182 104.141 182 90.957C182 89.5784 181.975 88.207 181.925 86.8434Z" fill="#08135A"/>
<path fill-rule="evenodd" clip-rule="evenodd" d="M151.97 157.232C146.142 162.611 139.609 167.233 132.526 170.944H124.23C120.452 170.944 117.39 167.875 117.39 164.088C117.39 160.302 120.452 157.232 124.23 157.232H151.97Z" fill="#08135A"/>
<path fill-rule="evenodd" clip-rule="evenodd" d="M1.45909 106.955H20.4439C24.2304 106.955 27.3 103.885 27.3 100.098C27.3 96.312 24.2304 93.2424 20.4439 93.2424H0C0.143771 97.9104 0.638669 102.49 1.45909 106.955Z" fill="#08135A"/>
<rect x="32.76" y="26.5101" width="35.49" height="13.7121" rx="6.85606" fill="#6254E8"/>
<rect x="171.99" y="114.268" width="35.49" height="13.7121" rx="6.85606" transform="rotate(-180 171.99 114.268)" fill="#6254E8"/>
<rect x="117.39" y="26.5101" width="20.02" height="13.7121" rx="6.85606" fill="#08135A"/>
<rect x="107.38" y="114.268" width="13.65" height="13.7121" rx="6.825" fill="#08135A"/>
</g>
<path d="M48.9775 138.8C49.3508 138.8 49.6508 138.92 49.8775 139.16C50.1042 139.387 50.2175 139.693 50.2175 140.08V151.92C50.2175 152.293 50.1108 152.587 49.8975 152.8C49.6842 153.013 49.4042 153.12 49.0575 153.12C48.7108 153.12 48.4375 153.013 48.2375 152.8C48.0375 152.587 47.9375 152.293 47.9375 151.92V143.68L44.5375 150.12C44.3775 150.413 44.2042 150.633 44.0175 150.78C43.8308 150.913 43.6108 150.98 43.3575 150.98C43.1042 150.98 42.8842 150.913 42.6975 150.78C42.5108 150.647 42.3375 150.427 42.1775 150.12L38.7575 143.78V151.92C38.7575 152.28 38.6508 152.573 38.4375 152.8C38.2375 153.013 37.9642 153.12 37.6175 153.12C37.2708 153.12 36.9975 153.013 36.7975 152.8C36.5975 152.587 36.4975 152.293 36.4975 151.92V140.08C36.4975 139.693 36.6042 139.387 36.8175 139.16C37.0442 138.92 37.3442 138.8 37.7175 138.8C38.2375 138.8 38.6442 139.087 38.9375 139.66L43.3775 148.12L47.7975 139.66C48.0908 139.087 48.4842 138.8 48.9775 138.8ZM59.5539 153.18C58.1806 153.18 56.9872 152.887 55.9739 152.3C54.9739 151.713 54.2006 150.873 53.6539 149.78C53.1072 148.687 52.8339 147.407 52.8339 145.94C52.8339 144.473 53.1006 143.2 53.6339 142.12C54.1806 141.027 54.9606 140.187 55.9739 139.6C56.9872 139.013 58.1806 138.72 59.5539 138.72C60.9272 138.72 62.1139 139.013 63.1139 139.6C64.1272 140.187 64.9006 141.027 65.4339 142.12C65.9806 143.2 66.2539 144.473 66.2539 145.94C66.2539 147.407 65.9806 148.687 65.4339 149.78C64.8872 150.873 64.1072 151.713 63.0939 152.3C62.0939 152.887 60.9139 153.18 59.5539 153.18ZM59.5539 151.12C60.8472 151.12 61.8539 150.673 62.5739 149.78C63.3072 148.887 63.6739 147.607 63.6739 145.94C63.6739 144.273 63.3072 143 62.5739 142.12C61.8539 141.227 60.8472 140.78 59.5539 140.78C58.2472 140.78 57.2272 141.227 56.4939 142.12C55.7739 143 55.4139 144.273 55.4139 145.94C55.4139 147.607 55.7739 148.887 56.4939 149.78C57.2272 150.673 58.2472 151.12 59.5539 151.12ZM70.0998 153C69.7132 153 69.4065 152.893 69.1798 152.68C68.9665 152.467 68.8598 152.167 68.8598 151.78V140.12C68.8598 139.733 68.9665 139.433 69.1798 139.22C69.4065 139.007 69.7132 138.9 70.0998 138.9H74.0598C76.3665 138.9 78.1532 139.52 79.4198 140.76C80.6998 141.987 81.3398 143.713 81.3398 145.94C81.3398 148.18 80.6998 149.92 79.4198 151.16C78.1532 152.387 76.3665 153 74.0598 153H70.0998ZM73.8998 150.9C77.1398 150.9 78.7598 149.247 78.7598 145.94C78.7598 142.647 77.1398 141 73.8998 141H71.4398V150.9H73.8998ZM85.178 153C84.7913 153 84.4846 152.893 84.258 152.68C84.0446 152.467 83.938 152.167 83.938 151.78V140.12C83.938 139.733 84.0446 139.433 84.258 139.22C84.4846 139.007 84.7913 138.9 85.178 138.9H92.398C92.7846 138.9 93.0846 138.987 93.298 139.16C93.5113 139.333 93.618 139.58 93.618 139.9C93.618 140.233 93.5113 140.493 93.298 140.68C93.0846 140.853 92.7846 140.94 92.398 140.94H86.458V144.82H91.998C92.3846 144.82 92.6846 144.907 92.898 145.08C93.1113 145.253 93.218 145.507 93.218 145.84C93.218 146.16 93.1113 146.407 92.898 146.58C92.6846 146.753 92.3846 146.84 91.998 146.84H86.458V150.96H92.398C92.7846 150.96 93.0846 151.053 93.298 151.24C93.5113 151.413 93.618 151.667 93.618 152C93.618 152.32 93.5113 152.567 93.298 152.74C93.0846 152.913 92.7846 153 92.398 153H85.178ZM106.995 151.38C107.155 151.62 107.235 151.853 107.235 152.08C107.235 152.387 107.109 152.64 106.855 152.84C106.615 153.04 106.329 153.14 105.995 153.14C105.782 153.14 105.575 153.093 105.375 153C105.189 152.893 105.029 152.74 104.895 152.54L102.235 148.5C101.969 148.073 101.682 147.773 101.375 147.6C101.082 147.427 100.695 147.34 100.215 147.34H98.2553V151.82C98.2553 152.22 98.142 152.54 97.9153 152.78C97.6886 153.007 97.382 153.12 96.9953 153.12C96.6086 153.12 96.2953 153.007 96.0553 152.78C95.8286 152.54 95.7153 152.22 95.7153 151.82V140.12C95.7153 139.733 95.822 139.433 96.0353 139.22C96.262 139.007 96.5686 138.9 96.9553 138.9H101.955C103.555 138.9 104.769 139.26 105.595 139.98C106.435 140.687 106.855 141.713 106.855 143.06C106.855 144.153 106.542 145.053 105.915 145.76C105.302 146.453 104.429 146.9 103.295 147.1C103.682 147.193 104.022 147.36 104.315 147.6C104.609 147.84 104.895 148.173 105.175 148.6L106.995 151.38ZM101.595 145.36C102.569 145.36 103.282 145.18 103.735 144.82C104.189 144.447 104.415 143.88 104.415 143.12C104.415 142.347 104.189 141.787 103.735 141.44C103.282 141.08 102.569 140.9 101.595 140.9H98.2353V145.36H101.595ZM122.245 151.46C122.325 151.633 122.365 151.807 122.365 151.98C122.365 152.287 122.239 152.547 121.985 152.76C121.745 152.973 121.465 153.08 121.145 153.08C120.932 153.08 120.732 153.027 120.545 152.92C120.359 152.8 120.212 152.62 120.105 152.38L118.905 149.7H111.865L110.665 152.38C110.559 152.62 110.412 152.8 110.225 152.92C110.039 153.027 109.832 153.08 109.605 153.08C109.299 153.08 109.019 152.973 108.765 152.76C108.512 152.547 108.385 152.287 108.385 151.98C108.385 151.807 108.425 151.633 108.505 151.46L114.025 139.6C114.145 139.333 114.325 139.133 114.565 139C114.819 138.853 115.085 138.78 115.365 138.78C115.645 138.78 115.905 138.853 116.145 139C116.399 139.133 116.585 139.333 116.705 139.6L122.245 151.46ZM118.025 147.7L115.385 141.76L112.745 147.7H118.025ZM127.191 153.1C126.791 153.1 126.471 152.987 126.231 152.76C126.004 152.52 125.891 152.207 125.891 151.82V141.02H122.251C121.451 141.02 121.051 140.667 121.051 139.96C121.051 139.253 121.451 138.9 122.251 138.9H132.111C132.911 138.9 133.311 139.253 133.311 139.96C133.311 140.667 132.911 141.02 132.111 141.02H128.471V151.82C128.471 152.207 128.351 152.52 128.111 152.76C127.884 152.987 127.577 153.1 127.191 153.1ZM140.277 153.18C138.903 153.18 137.71 152.887 136.697 152.3C135.697 151.713 134.923 150.873 134.377 149.78C133.83 148.687 133.557 147.407 133.557 145.94C133.557 144.473 133.823 143.2 134.357 142.12C134.903 141.027 135.683 140.187 136.697 139.6C137.71 139.013 138.903 138.72 140.277 138.72C141.65 138.72 142.837 139.013 143.837 139.6C144.85 140.187 145.623 141.027 146.157 142.12C146.703 143.2 146.977 144.473 146.977 145.94C146.977 147.407 146.703 148.687 146.157 149.78C145.61 150.873 144.83 151.713 143.817 152.3C142.817 152.887 141.637 153.18 140.277 153.18ZM140.277 151.12C141.57 151.12 142.577 150.673 143.297 149.78C144.03 148.887 144.397 147.607 144.397 145.94C144.397 144.273 144.03 143 143.297 142.12C142.577 141.227 141.57 140.78 140.277 140.78C138.97 140.78 137.95 141.227 137.217 142.12C136.497 143 136.137 144.273 136.137 145.94C136.137 147.607 136.497 148.887 137.217 149.78C137.95 150.673 138.97 151.12 140.277 151.12Z" fill="#F2F4FD"/>
<path d="M111.285 95.3878C111.285 95.3878 94.1355 135.904 64.0591 100.154C33.9828 64.4045 78.2816 69.1397 67.0002 94.9485C55.7187 120.757 36.1939 101.735 36.1939 101.735" stroke="#F6732F" stroke-linecap="round" stroke-linejoin="round" stroke-dasharray="5"/>
<path fill-rule="evenodd" clip-rule="evenodd" d="M111.566 98.5778L133.593 65.7562V50.3945L115.577 77.3897L111.566 98.5778Z" fill="#B14F1C"/>
<path fill-rule="evenodd" clip-rule="evenodd" d="M81 64.374L152.863 27L143.037 89.5331L115.577 77.3897L133.593 50.3946L102.525 73.5521L81 64.374Z" fill="#F2F4FD"/>
<path fill-rule="evenodd" clip-rule="evenodd" d="M102.525 73.552L111.566 98.5778L115.577 77.3897L133.593 50.3945L102.525 73.552Z" fill="#D35E21"/>
<path fill-rule="evenodd" clip-rule="evenodd" d="M137.873 86.8378L143.037 89.5331L153 27L137.873 86.8378Z" fill="#DCE0F6"/>
</svg>
