<svg width="82" height="78" viewBox="0 0 82 78" fill="none" xmlns="http://www.w3.org/2000/svg">
<path fill-rule="evenodd" clip-rule="evenodd" d="M71.4353 41.6612L71.6135 40.5215L51.9278 37.3844L51.758 38.5245L51.6372 39.4425L51.2888 41.7308L50.9817 43.7795L48.9665 56.8344C47.3329 55.3184 44.9284 54.9941 42.9713 56.0256C40.4177 57.2648 39.1965 60.0638 40.2845 62.2887C41.3725 64.5137 44.307 65.3027 46.8605 64.0636C48.4731 63.3317 49.6157 61.8489 49.9151 60.0993C49.9754 60.0101 50.023 59.9129 50.0563 59.8103L52.4194 44.1278L69.1221 46.7787L67.1452 59.7424C65.5103 58.2266 63.1057 57.9006 61.146 58.9292C58.5924 60.1683 57.3623 62.9753 58.4547 65.1963C59.5472 67.4172 62.4772 68.2102 65.0268 66.9666C66.6398 66.2367 67.7838 64.7556 68.0854 63.0069C68.1503 62.9215 68.1994 62.8252 68.2306 62.7223L70.6119 46.9263L70.923 44.882L71.2673 42.5893L71.4353 41.6612Z" fill="#D8D8D8"/>
<path fill-rule="evenodd" clip-rule="evenodd" d="M11.5191 0.635931L11.0026 0L0 8.90302L0.520683 9.53471L0.947473 10.035L1.98884 11.3068L2.92351 12.443L8.85162 19.7138C7.27637 19.8557 5.96348 20.9711 5.57814 22.495C5.01905 24.4324 5.91531 26.4081 7.60539 26.8914C9.29548 27.3747 11.1051 26.2003 11.6642 24.2629C12.044 23.0634 11.8045 21.7551 11.024 20.7652C11.0056 20.691 10.9769 20.6196 10.9386 20.5533L3.78989 11.8495L13.1195 4.29041L19.0177 11.4976C17.4419 11.6402 16.1282 12.7549 15.74 14.2788C15.1809 16.2162 16.0772 18.2003 17.7673 18.6794C19.4573 19.1585 21.2669 17.9883 21.8218 16.0509C22.2027 14.8521 21.9649 13.5439 21.1858 12.5533C21.1716 12.4784 21.1442 12.4066 21.1047 12.3413L13.9048 3.57393L12.9744 2.43773L11.9288 1.16587L11.5191 0.635931Z" fill="#D8D8D8"/>
</svg>
