<svg width="29" height="26" viewBox="0 0 29 26" fill="none" xmlns="http://www.w3.org/2000/svg">
<path fill-rule="evenodd" clip-rule="evenodd" d="M28.3224 4.29933L28.4828 3.36782L11.3198 0.885412L11.1668 1.81727L11.0574 2.56753L10.7435 4.4378L10.4667 6.1123L8.65193 16.7827C7.23311 15.5512 5.13648 15.296 3.42435 16.1464C1.19091 17.1688 0.113205 19.4598 1.05293 21.2726C1.99265 23.0853 4.54966 23.7178 6.7831 22.6954C8.19331 22.0912 9.19667 20.8755 9.46547 19.4454C9.51849 19.3723 9.56039 19.2927 9.58995 19.2088L11.7196 6.39093L26.2819 8.48828L24.5009 19.084C23.0809 17.8526 20.9842 17.5962 19.2699 18.4442C17.0364 19.4665 15.9509 21.7641 16.8945 23.5736C17.8382 25.383 20.3913 26.0188 22.6212 24.9928C24.0318 24.3901 25.0364 23.1758 25.3071 21.7464C25.3641 21.6764 25.4074 21.5975 25.4351 21.5134L27.5811 8.60278L27.8614 6.93191L28.1718 5.05801L28.3224 4.29933Z" fill="#334A9C"/>
</svg>
