<svg width="70" height="70" viewBox="0 0 70 70" fill="none" xmlns="http://www.w3.org/2000/svg">
<g opacity="0.75">
<path fill-rule="evenodd" clip-rule="evenodd" d="M34.9997 69.9998C54.1362 69.9998 69.6495 54.3298 69.6495 34.9999C69.6495 15.67 54.1362 0 34.9997 0C15.8631 0 0.349854 15.67 0.349854 34.9999C0.349854 54.3298 15.8631 69.9998 34.9997 69.9998Z" fill="#6254E8"/>
<path fill-rule="evenodd" clip-rule="evenodd" d="M11.2422 60.8078C9.54427 59.2047 8.00464 57.4278 6.65015 55.5048L15.2645 55.5048C16.6925 55.5048 17.8501 56.6919 17.8501 58.1563C17.8501 59.6207 16.6925 60.8078 15.2645 60.8078H11.2422Z" fill="#08135A"/>
<path fill-rule="evenodd" clip-rule="evenodd" d="M3.1499 20.8586C6.08634 14.1973 11.0026 8.63588 17.1368 4.94952L29.2436 4.94952C30.683 4.94952 31.8497 6.13664 31.8497 7.60103C31.8497 9.06542 30.683 10.2525 29.2436 10.2525H17.9505C19.3898 10.2525 20.5566 11.4397 20.5566 12.904C20.5566 14.3684 19.3898 15.5555 17.9505 15.5555C19.3898 15.5555 20.5566 16.7427 20.5566 18.2071C20.5566 19.6714 19.3898 20.8586 17.9505 20.8586H3.1499Z" fill="#08135A"/>
<path fill-rule="evenodd" clip-rule="evenodd" d="M69.9711 33.5858H59.9053C58.7035 33.5858 57.7293 34.7729 57.7293 36.2373C57.7293 37.7016 58.7035 38.8888 59.9053 38.8888C58.7035 38.8888 57.7293 40.0759 57.7293 41.5403C57.7293 43.0047 58.7035 44.1918 59.9053 44.1918H50.4759C49.2742 44.1918 48.2999 45.3789 48.2999 46.8433C48.2999 48.3077 49.2742 49.4948 50.4759 49.4948H67.5227C69.1148 45.1209 69.9999 40.2755 69.9999 35.1766C69.9999 34.6435 69.9902 34.1131 69.9711 33.5858Z" fill="#08135A"/>
<path fill-rule="evenodd" clip-rule="evenodd" d="M58.4498 60.8079C56.2084 62.8879 53.6958 64.6756 50.9715 66.1109H47.7806C46.3277 66.1109 45.1499 64.9238 45.1499 63.4594C45.1499 61.995 46.3277 60.8079 47.7806 60.8079H58.4498Z" fill="#08135A"/>
<path fill-rule="evenodd" clip-rule="evenodd" d="M0.561193 41.3636H7.84837C9.31275 41.3636 10.4999 40.1764 10.4999 38.7121C10.4999 37.2477 9.31275 36.0605 7.84837 36.0605H0C0.0552988 37.8658 0.245645 39.6368 0.561193 41.3636Z" fill="#08135A"/>
<rect x="12.6001" y="10.2526" width="13.6499" height="5.30301" rx="2.65151" fill="#6254E8"/>
<rect x="66.1497" y="44.1918" width="13.6499" height="5.30301" rx="2.65151" transform="rotate(-180 66.1497 44.1918)" fill="#6254E8"/>
<rect x="45.1499" y="10.2526" width="7.69996" height="5.30301" rx="2.65151" fill="#08135A"/>
<rect x="41.2998" y="44.1918" width="5.24997" height="5.30301" rx="2.62499" fill="#08135A"/>
<path opacity="0.75" d="M28.2074 35.3672C28.5121 35.6719 29.0707 35.6719 29.3754 35.3672L32.016 32.7266L36.2816 37.043C36.5863 37.3477 37.1449 37.3477 37.4496 37.043L43.0355 31.457L44.559 32.9297C45.3207 33.7422 46.641 33.1836 46.641 32.0664V26.9375C46.641 26.5312 46.2347 26.125 45.8285 26.125H40.6996C39.5824 26.125 39.0238 27.4453 39.8363 28.207L41.309 29.7305L36.891 34.1992L32.5746 29.8828C32.2699 29.5781 31.7113 29.5781 31.4066 29.8828L27.6488 33.6406C27.3441 33.9453 27.3441 34.5039 27.6488 34.8086L28.2074 35.3672ZM47.4535 41.5625H24.7035V25.3125C24.7035 24.9062 24.2972 24.5 23.891 24.5H23.0785C22.6215 24.5 22.266 24.9062 22.266 25.3125V42.375C22.266 43.2891 22.9769 44 23.891 44H47.4535C47.8597 44 48.266 43.6445 48.266 43.1875V42.375C48.266 41.9688 47.8597 41.5625 47.4535 41.5625Z" fill="white"/>
</g>
</svg>
