<svg width="477" height="371" viewBox="0 0 477 371" fill="none" xmlns="http://www.w3.org/2000/svg">
<g opacity="0.5">
<path fill-rule="evenodd" clip-rule="evenodd" d="M455.759 173.837C428.302 119.404 382.688 32.2955 296.686 6.74846C206.991 -19.8956 133.929 38.9773 65.1711 68.3247C-3.58664 97.6722 48.741 115.071 25.5895 173.837C-44.3244 216.606 49.4879 274.662 65.1711 286.22C80.8542 297.778 207.814 357.598 225.738 363.125C243.661 368.651 279.509 373.175 307.888 368.651C336.267 364.127 369.128 356.173 391.532 345.278C413.937 334.383 447.544 299.543 455.759 286.22C463.974 272.898 483.215 228.269 455.759 173.837Z" fill="#F3F5FF"/>
<g filter="url(#filter0_d)">
<rect x="112.592" y="221.628" width="339.15" height="63.333" rx="4" fill="white"/>
<rect x="181.204" y="237.461" width="98.0204" height="9.89578" rx="4.94789" fill="#08135A" fill-opacity="0.5"/>
<rect x="181.204" y="259.232" width="169.575" height="9.89578" rx="4.94789" fill="#464D72" fill-opacity="0.5"/>
<rect x="112.592" y="146.232" width="339.15" height="63.333" rx="4" fill="white"/>
<rect x="181.204" y="162.065" width="98.0204" height="9.89578" rx="4.94789" fill="#08135A" fill-opacity="0.5"/>
<rect x="181.204" y="183.836" width="169.575" height="9.89578" rx="4.94789" fill="#464D72" fill-opacity="0.5"/>
<rect x="112.593" y="70.8353" width="339.15" height="63.333" rx="4" fill="white"/>
<rect x="181.205" y="86.6686" width="98.0204" height="9.89578" rx="4.94789" fill="#08135A" fill-opacity="0.5"/>
<rect x="181.205" y="108.439" width="169.575" height="9.89578" rx="4.94789" fill="#464D72" fill-opacity="0.5"/>
</g>
<path d="M170 178.5C170 190.852 159.555 201 146.5 201C133.445 201 123 190.852 123 178.5C123 166.148 133.445 156 146.5 156C159.555 156 170 166.148 170 178.5Z" fill="white" stroke="#F3F5FF" stroke-width="4"/>
<path d="M145.872 186.898C147.368 186.898 148.457 186.645 149.139 186.139C149.821 185.633 150.162 184.918 150.162 183.994C150.162 183.444 150.041 182.971 149.799 182.575C149.579 182.179 149.249 181.827 148.809 181.519C148.391 181.189 147.874 180.892 147.258 180.628C146.642 180.342 145.938 180.067 145.146 179.803C144.354 179.517 143.584 179.209 142.836 178.879C142.11 178.527 141.461 178.098 140.889 177.592C140.339 177.086 139.888 176.481 139.536 175.777C139.206 175.073 139.041 174.226 139.041 173.236C139.041 171.168 139.756 169.551 141.186 168.385C142.616 167.197 144.563 166.603 147.027 166.603C148.457 166.603 149.722 166.768 150.822 167.098C151.944 167.406 152.824 167.747 153.462 168.121L152.175 171.487C151.427 171.069 150.602 170.75 149.7 170.53C148.82 170.31 147.907 170.2 146.961 170.2C145.839 170.2 144.959 170.431 144.321 170.893C143.705 171.355 143.397 172.004 143.397 172.84C143.397 173.346 143.496 173.786 143.694 174.16C143.914 174.512 144.211 174.831 144.585 175.117C144.981 175.403 145.432 175.667 145.938 175.909C146.466 176.151 147.038 176.382 147.654 176.602C148.732 176.998 149.689 177.405 150.525 177.823C151.383 178.219 152.098 178.703 152.67 179.275C153.264 179.825 153.715 180.485 154.023 181.255C154.331 182.003 154.485 182.916 154.485 183.994C154.485 186.062 153.748 187.668 152.274 188.812C150.822 189.934 148.688 190.495 145.872 190.495C144.926 190.495 144.057 190.429 143.265 190.297C142.495 190.187 141.802 190.044 141.186 189.868C140.592 189.692 140.075 189.516 139.635 189.34C139.195 189.142 138.843 188.966 138.579 188.812L139.8 185.413C140.394 185.743 141.197 186.073 142.209 186.403C143.221 186.733 144.442 186.898 145.872 186.898Z" fill="#C1C4D5"/>
<line x1="146.5" y1="168.257" x2="146.5" y2="162.997" stroke="#C1C4D5" stroke-width="3"/>
<line x1="146.5" y1="194.26" x2="146.5" y2="189" stroke="#C1C4D5" stroke-width="3"/>
<path d="M171 101.5C171 113.852 160.555 124 147.5 124C134.445 124 124 113.852 124 101.5C124 89.1482 134.445 79 147.5 79C160.555 79 171 89.1482 171 101.5Z" fill="white" stroke="#F3F5FF" stroke-width="4"/>
<path d="M146.872 109.898C148.368 109.898 149.457 109.645 150.139 109.139C150.821 108.633 151.162 107.918 151.162 106.994C151.162 106.444 151.041 105.971 150.799 105.575C150.579 105.179 150.249 104.827 149.809 104.519C149.391 104.189 148.874 103.892 148.258 103.628C147.642 103.342 146.938 103.067 146.146 102.803C145.354 102.517 144.584 102.209 143.836 101.879C143.11 101.527 142.461 101.098 141.889 100.592C141.339 100.086 140.888 99.481 140.536 98.777C140.206 98.073 140.041 97.226 140.041 96.236C140.041 94.168 140.756 92.551 142.186 91.385C143.616 90.197 145.563 89.603 148.027 89.603C149.457 89.603 150.722 89.768 151.822 90.098C152.944 90.406 153.824 90.747 154.462 91.121L153.175 94.487C152.427 94.069 151.602 93.75 150.7 93.53C149.82 93.31 148.907 93.2 147.961 93.2C146.839 93.2 145.959 93.431 145.321 93.893C144.705 94.355 144.397 95.004 144.397 95.84C144.397 96.346 144.496 96.786 144.694 97.16C144.914 97.512 145.211 97.831 145.585 98.117C145.981 98.403 146.432 98.667 146.938 98.909C147.466 99.151 148.038 99.382 148.654 99.602C149.732 99.998 150.689 100.405 151.525 100.823C152.383 101.219 153.098 101.703 153.67 102.275C154.264 102.825 154.715 103.485 155.023 104.255C155.331 105.003 155.485 105.916 155.485 106.994C155.485 109.062 154.748 110.668 153.274 111.812C151.822 112.934 149.688 113.495 146.872 113.495C145.926 113.495 145.057 113.429 144.265 113.297C143.495 113.187 142.802 113.044 142.186 112.868C141.592 112.692 141.075 112.516 140.635 112.34C140.195 112.142 139.843 111.966 139.579 111.812L140.8 108.413C141.394 108.743 142.197 109.073 143.209 109.403C144.221 109.733 145.442 109.898 146.872 109.898Z" fill="#C1C4D5"/>
<line x1="147.5" y1="91.2566" x2="147.5" y2="85.9966" stroke="#C1C4D5" stroke-width="3"/>
<line x1="147.5" y1="117.26" x2="147.5" y2="112" stroke="#C1C4D5" stroke-width="3"/>
<path d="M170 253.5C170 265.852 159.555 276 146.5 276C133.445 276 123 265.852 123 253.5C123 241.148 133.445 231 146.5 231C159.555 231 170 241.148 170 253.5Z" fill="white" stroke="#F3F5FF" stroke-width="4"/>
<path d="M145.872 261.898C147.368 261.898 148.457 261.645 149.139 261.139C149.821 260.633 150.162 259.918 150.162 258.994C150.162 258.444 150.041 257.971 149.799 257.575C149.579 257.179 149.249 256.827 148.809 256.519C148.391 256.189 147.874 255.892 147.258 255.628C146.642 255.342 145.938 255.067 145.146 254.803C144.354 254.517 143.584 254.209 142.836 253.879C142.11 253.527 141.461 253.098 140.889 252.592C140.339 252.086 139.888 251.481 139.536 250.777C139.206 250.073 139.041 249.226 139.041 248.236C139.041 246.168 139.756 244.551 141.186 243.385C142.616 242.197 144.563 241.603 147.027 241.603C148.457 241.603 149.722 241.768 150.822 242.098C151.944 242.406 152.824 242.747 153.462 243.121L152.175 246.487C151.427 246.069 150.602 245.75 149.7 245.53C148.82 245.31 147.907 245.2 146.961 245.2C145.839 245.2 144.959 245.431 144.321 245.893C143.705 246.355 143.397 247.004 143.397 247.84C143.397 248.346 143.496 248.786 143.694 249.16C143.914 249.512 144.211 249.831 144.585 250.117C144.981 250.403 145.432 250.667 145.938 250.909C146.466 251.151 147.038 251.382 147.654 251.602C148.732 251.998 149.689 252.405 150.525 252.823C151.383 253.219 152.098 253.703 152.67 254.275C153.264 254.825 153.715 255.485 154.023 256.255C154.331 257.003 154.485 257.916 154.485 258.994C154.485 261.062 153.748 262.668 152.274 263.812C150.822 264.934 148.688 265.495 145.872 265.495C144.926 265.495 144.057 265.429 143.265 265.297C142.495 265.187 141.802 265.044 141.186 264.868C140.592 264.692 140.075 264.516 139.635 264.34C139.195 264.142 138.843 263.966 138.579 263.812L139.8 260.413C140.394 260.743 141.197 261.073 142.209 261.403C143.221 261.733 144.442 261.898 145.872 261.898Z" fill="#C1C4D5"/>
<line x1="146.5" y1="243.257" x2="146.5" y2="237.997" stroke="#C1C4D5" stroke-width="3"/>
<line x1="146.5" y1="269.26" x2="146.5" y2="264" stroke="#C1C4D5" stroke-width="3"/>
</g>
<defs>
<filter id="filter0_d" x="87.5918" y="50.8353" width="389.151" height="264.126" filterUnits="userSpaceOnUse" color-interpolation-filters="sRGB">
<feFlood flood-opacity="0" result="BackgroundImageFix"/>
<feColorMatrix in="SourceAlpha" type="matrix" values="0 0 0 0 0 0 0 0 0 0 0 0 0 0 0 0 0 0 127 0"/>
<feOffset dy="5"/>
<feGaussianBlur stdDeviation="12.5"/>
<feColorMatrix type="matrix" values="0 0 0 0 0 0 0 0 0 0 0 0 0 0 0 0 0 0 0.2 0"/>
<feBlend mode="normal" in2="BackgroundImageFix" result="effect1_dropShadow"/>
<feBlend mode="normal" in="SourceGraphic" in2="effect1_dropShadow" result="shape"/>
</filter>
</defs>
</svg>
