<svg width="64" height="64" viewBox="0 0 64 64" fill="none" xmlns="http://www.w3.org/2000/svg">
<path d="M40 0C26.75 0 16 4.5 16 10V16.625C6.625 18 0 21.75 0 26V54C0 59.625 10.75 64 24 64C37.25 64 48 59.625 48 54V47.5C57.25 46.125 64 42.375 64 38V10C64 4.5 53.25 0 40 0ZM42 53.625C40.75 55 34.375 58 24 58C13.5 58 7.25 55 6 53.625V48.625C10.375 50.75 16.75 52 24 52C31.125 52 37.5 50.75 42 48.625V53.625ZM42 41.625C40.75 43 34.375 46 24 46C13.5 46 7.25 43 6 41.625V36C10.375 38.5 16.75 40 24 40C31.125 40 37.5 38.5 42 36V41.625ZM24 34C14 34 6 31.375 6 28C6 24.75 14 22 24 22C33.875 22 42 24.75 42 28C42 31.375 33.875 34 24 34ZM58 37.625C57 38.625 53.625 40.375 48 41.375V35.375C51.875 34.875 55.25 33.875 58 32.625V37.625ZM58 25.625C57 26.625 53.625 28.375 48 29.375V26C48 25.125 47.625 24.25 47.125 23.5C51.375 22.75 55.125 21.625 58 20V25.625ZM40 18C39.375 18 38.75 18 38.125 18C34.875 17 31 16.375 26.75 16.125C23.875 15 22 13.625 22 12C22 8.75 30 6 40 6C49.875 6 58 8.75 58 12C58 15.375 49.875 18 40 18Z" fill="white" fill-opacity="0.5"/>
</svg>
