<svg width="80" height="56" viewBox="0 0 80 56" fill="none" xmlns="http://www.w3.org/2000/svg">
<path d="M12 24C16.375 24 20 20.5 20 16C20 11.625 16.375 8 12 8C7.5 8 4 11.625 4 16C4 20.5 7.5 24 12 24ZM68 24C72.375 24 76 20.5 76 16C76 11.625 72.375 8 68 8C63.5 8 60 11.625 60 16C60 20.5 63.5 24 68 24ZM72 28H64C61.75 28 59.75 29 58.25 30.375C63.375 33.125 66.875 38.125 67.75 44H76C78.125 44 80 42.25 80 40V36C80 31.625 76.375 28 72 28ZM40 28C47.625 28 54 21.75 54 14C54 6.375 47.625 0 40 0C32.25 0 26 6.375 26 14C26 21.75 32.25 28 40 28ZM49.5 32H48.5C45.875 33.25 43 34 40 34C36.875 34 34 33.25 31.375 32H30.375C22.375 32 16 38.5 16 46.5V50C16 53.375 18.625 56 22 56H58C61.25 56 64 53.375 64 50V46.5C64 38.5 57.5 32 49.5 32ZM21.625 30.375C20.125 29 18.125 28 16 28H8C3.5 28 0 31.625 0 36V40C0 42.25 1.75 44 4 44H12.125C13 38.125 16.5 33.125 21.625 30.375Z" fill="white" fill-opacity="0.5"/>
</svg>
