<svg width="134" height="134" viewBox="0 0 134 134" fill="none" xmlns="http://www.w3.org/2000/svg">
<path fill-rule="evenodd" clip-rule="evenodd" d="M67 132C102.899 132 132 102.899 132 67C132 31.1015 102.899 2 67 2C31.1015 2 2 31.1015 2 67C2 102.899 31.1015 132 67 132Z" stroke="#395DFF" stroke-width="2.717" stroke-dasharray="2.72"/>
<path fill-rule="evenodd" clip-rule="evenodd" d="M67.1805 125.211C99.5889 125.211 125.861 98.9389 125.861 66.5305C125.861 34.1222 99.5889 7.84998 67.1805 7.84998C34.7722 7.84998 8.5 34.1222 8.5 66.5305C8.5 98.9389 34.7722 125.211 67.1805 125.211Z" fill="#2842B6"/>
<mask id="mask0" mask-type="alpha" maskUnits="userSpaceOnUse" x="8" y="7" width="118" height="119">
<path fill-rule="evenodd" clip-rule="evenodd" d="M67.1805 125.211C99.5889 125.211 125.861 98.9389 125.861 66.5305C125.861 34.1222 99.5889 7.84998 67.1805 7.84998C34.7722 7.84998 8.5 34.1222 8.5 66.5305C8.5 98.9389 34.7722 125.211 67.1805 125.211Z" fill="white"/>
</mask>
<g mask="url(#mask0)">
<path fill-rule="evenodd" clip-rule="evenodd" d="M38.6863 82.5215C70.9516 98.2584 109.865 84.8594 125.602 52.594C141.339 20.3286 127.94 -18.5849 95.6745 -34.3217C63.4091 -50.0586 24.4956 -36.6596 8.75878 -4.39424C-6.97809 27.8711 6.4209 66.7846 38.6863 82.5215Z" fill="#395DFF"/>
</g>
<rect x="34.4999" y="51.4" width="65" height="31.2" rx="1" fill="#B5BEEC"/>
<rect x="35.8002" y="55.3002" width="7.8" height="26" rx="2" fill="#F2F4FD"/>
<rect x="35.8002" y="55.3002" width="7.8" height="26" rx="2" stroke="#B5BEEC"/>
<rect x="44.25" y="55.3002" width="7.8" height="26" rx="2" fill="#F2F4FD"/>
<rect x="44.25" y="55.3002" width="7.8" height="26" rx="2" stroke="#B5BEEC"/>
<rect x="52.7001" y="55.3002" width="7.8" height="26" rx="2" fill="#F2F4FD"/>
<rect x="52.7001" y="55.3002" width="7.8" height="26" rx="2" stroke="#B5BEEC"/>
<rect x="61.15" y="55.3002" width="7.8" height="26" rx="2" fill="#F2F4FD"/>
<rect x="61.15" y="55.3002" width="7.8" height="26" rx="2" stroke="#B5BEEC"/>
<rect x="69.6001" y="55.3002" width="9.1" height="26" rx="2" fill="#F2F4FD"/>
<rect x="69.6001" y="55.3002" width="9.1" height="26" rx="2" stroke="#B5BEEC"/>
<rect x="79.3501" y="55.3002" width="9.1" height="26" rx="2" fill="#F2F4FD"/>
<rect x="79.3501" y="55.3002" width="9.1" height="26" rx="2" stroke="#B5BEEC"/>
<rect x="89.1001" y="55.3002" width="9.1" height="26" rx="2" fill="#F2F4FD"/>
<rect x="89.1001" y="55.3002" width="9.1" height="26" rx="2" stroke="#B5BEEC"/>
<path d="M85.8501 55.3002H92.3501V69.5502C92.3501 70.6547 91.4547 71.5502 90.3501 71.5502H87.8501C86.7455 71.5502 85.8501 70.6547 85.8501 69.5502V55.3002Z" fill="#F6732F"/>
<path d="M76.1001 55.3002H82.6001V69.5502C82.6001 70.6547 81.7047 71.5502 80.6001 71.5502H78.1001C76.9955 71.5502 76.1001 70.6547 76.1001 69.5502V55.3002Z" fill="#F6732F"/>
<path d="M67 55.3002H73.5V69.5502C73.5 70.6547 72.6046 71.5502 71.5 71.5502H69C67.8954 71.5502 67 70.6547 67 69.5502V55.3002Z" fill="#F6732F"/>
<path d="M49.45 55.3002H55.95V69.5502C55.95 70.6547 55.0545 71.5502 53.95 71.5502H51.45C50.3454 71.5502 49.45 70.6547 49.45 69.5502V55.3002Z" fill="#F6732F"/>
<path d="M40.3501 55.3002H46.8501V69.5502C46.8501 70.6547 45.9547 71.5502 44.8501 71.5502H42.3501C41.2455 71.5502 40.3501 70.6547 40.3501 69.5502V55.3002Z" fill="#F6732F"/>
</svg>
