<svg width="16" height="17" viewBox="0 0 16 17" fill="none" xmlns="http://www.w3.org/2000/svg">
<path d="M12.5 8.28607C12.0625 8.28607 11.75 8.62982 11.75 9.03607C11.75 9.47357 12.0625 9.78607 12.5 9.78607C12.9062 9.78607 13.25 9.47357 13.25 9.03607C13.25 8.62982 12.9062 8.28607 12.5 8.28607ZM13.5 5.53607V3.16107C13.5 2.78607 13.3125 2.37982 13.0312 2.09857L11.4375 0.504822C11.1562 0.223572 10.75 0.0360718 10.375 0.0360718H3.4375C2.90625 0.0360718 2.5 0.504822 2.5 1.03607V5.53607C1.09375 5.53607 0 6.66107 0 8.03607V12.0361C0 12.3173 0.21875 12.5361 0.5 12.5361H2.5V15.5361C2.5 15.8173 2.71875 16.0361 3 16.0361H13C13.25 16.0361 13.5 15.8173 13.5 15.5361V12.5361H15.5C15.75 12.5361 16 12.3173 16 12.0361V8.03607C16 6.66107 14.875 5.53607 13.5 5.53607ZM4 1.53607H10V3.03607C10 3.31732 10.2188 3.53607 10.5 3.53607H12V5.53607H4V1.53607ZM12 14.5361H4V12.5361H12V14.5361ZM14.5 11.0361H1.5V8.03607C1.5 7.50482 1.9375 7.03607 2.5 7.03607H13.5C14.0312 7.03607 14.5 7.50482 14.5 8.03607V11.0361Z" fill="white"/>
</svg>
