<svg width="21" height="20" viewBox="0 0 21 20" fill="none" xmlns="http://www.w3.org/2000/svg">
<path d="M9.31003 0.670837C9.77007 -0.229249 11.0917 -0.217958 11.5479 0.670837L14.0937 5.65722L19.7896 6.4594C20.8111 6.60251 21.2205 7.81897 20.4797 8.5157L16.3588 12.3948L17.3335 17.8746C17.5089 18.8651 16.429 19.6032 15.5245 19.1438L10.429 16.5564L5.33338 19.1438C4.42889 19.607 3.34898 18.8651 3.52442 17.8746L4.49909 12.3948L0.378189 8.5157C-0.362558 7.81897 0.0468022 6.60251 1.06826 6.4594L6.7642 5.65722L9.31003 0.670837Z" fill="#FFBC04"/>
<path d="M11.5339 0.494385C11.5449 0.513362 11.5554 0.532774 11.5655 0.552621L13.6642 4.69724L13.662 4.69692L11.5339 0.494385V0.494385Z" fill="#EB6621"/>
<path d="M7.71118 11.2495H13.1469C13.1469 12.4102 12.206 13.3511 11.0453 13.3511H9.81275C8.65209 13.3511 7.71118 12.4102 7.71118 11.2495Z" fill="#08135A"/>
<path fill-rule="evenodd" clip-rule="evenodd" d="M12.7768 12.4935C12.3859 13.0143 11.7632 13.3512 11.0619 13.3512H9.79614C9.09483 13.3512 8.4722 13.0143 8.0813 12.4935C8.5731 12.0432 9.44075 11.7441 10.429 11.7441C11.4173 11.7441 12.285 12.0432 12.7768 12.4935Z" fill="#DCE0F6"/>
<path fill-rule="evenodd" clip-rule="evenodd" d="M7.71118 9.60117C7.71118 9.00946 8.19225 8.52979 8.78568 8.52979C9.37911 8.52979 9.86018 9.00946 9.86018 9.60117C9.86018 9.72487 9.66492 9.77433 9.5953 9.67208C9.39833 9.38282 9.10865 9.06548 8.78568 9.06548C8.46271 9.06548 8.17303 9.38282 7.97606 9.67208C7.90644 9.77433 7.71118 9.72487 7.71118 9.60117Z" fill="#08135A"/>
<path fill-rule="evenodd" clip-rule="evenodd" d="M10.998 9.60117C10.998 9.00946 11.4791 8.52979 12.0725 8.52979C12.666 8.52979 13.147 9.00946 13.147 9.60117C13.147 9.72487 12.9518 9.77433 12.8822 9.67208C12.6852 9.38282 12.3955 9.06548 12.0725 9.06548C11.7496 9.06548 11.4599 9.38282 11.2629 9.67208C11.1933 9.77433 10.998 9.72487 10.998 9.60117Z" fill="#08135A"/>
<path d="M4.97514 6.22387C5.73546 3.51569 7.81997 1.67209 10.176 1.67209C12.5321 1.67209 14.6166 3.51569 15.377 6.22387C15.4187 6.37266 15.5736 6.45952 15.7228 6.41786C15.872 6.37621 15.9591 6.22182 15.9173 6.07302C15.0933 3.13813 12.8031 1.11255 10.176 1.11255C7.54902 1.11255 5.25874 3.13813 4.43478 6.07302C4.393 6.22182 4.4801 6.37621 4.62932 6.41786C4.77854 6.45952 4.93336 6.37266 4.97514 6.22387Z" fill="#4B43C4"/>
<path fill-rule="evenodd" clip-rule="evenodd" d="M15.4372 7.33642C15.406 7.22591 15.3726 7.11684 15.3371 7.00928H14.8894V7.54085H16.5406V7.00928H15.9283C15.9461 7.06767 15.9634 7.12644 15.9801 7.18558C16.0221 7.33437 15.9346 7.48876 15.7846 7.53042C15.6347 7.57207 15.4791 7.48522 15.4372 7.33642Z" fill="#08135A" fill-opacity="0.247869"/>
<path fill-rule="evenodd" clip-rule="evenodd" d="M7.97339 3.78394C8.33748 4.14123 8.33748 4.71921 7.97339 5.0765L5.99764 7.01535C5.63428 7.37192 5.04383 7.37192 4.68047 7.01535L7.97339 3.78394Z" fill="#6254E8"/>
<path fill-rule="evenodd" clip-rule="evenodd" d="M12.5757 3.80762C12.2116 4.16491 12.2116 4.74289 12.5757 5.10018L13.5636 6.06961L14.5514 7.03903C14.9148 7.3956 15.5052 7.3956 15.8686 7.03903L12.5757 3.80762Z" fill="#6254E8"/>
<path fill-rule="evenodd" clip-rule="evenodd" d="M4.81222 3.78399C5.68428 2.92822 7.10137 2.92822 7.97342 3.78399L4.6805 7.0154C3.80668 6.1579 3.80668 4.77075 4.6805 3.91325L4.81222 3.78399Z" fill="#B5BEEC"/>
<path fill-rule="evenodd" clip-rule="evenodd" d="M7.93702 3.83785C7.93988 3.84062 7.94274 3.84339 7.94558 3.84617C8.30673 4.19844 8.30673 4.76754 7.94558 5.11981L5.987 7.03028C5.73567 7.27543 5.37411 7.34953 5.05615 7.25215C5.13006 7.21232 5.19951 7.16186 5.26212 7.10079C5.26212 7.10079 7.57317 4.99905 7.65932 4.38599C7.74547 3.77294 6.31243 3.32153 5.79776 3.28915C6.5352 3.09497 7.35631 3.27759 7.93702 3.83785Z" fill="#08135A" fill-opacity="0.25"/>
<path fill-rule="evenodd" clip-rule="evenodd" d="M15.7369 3.80742C14.8648 2.95166 13.4477 2.95166 12.5756 3.80743L15.8686 7.03884C16.7424 6.18134 16.7424 4.79419 15.8686 3.93668L15.7369 3.80742Z" fill="#B5BEEC"/>
<path fill-rule="evenodd" clip-rule="evenodd" d="M13.6548 3.2712C14.1418 3.32415 14.6147 3.53158 14.9905 3.89347L15.1227 4.02084C15.9951 4.86105 15.9952 6.23705 15.1229 7.07736L15.1232 7.07759C15.0569 7.14144 14.9833 7.19375 14.9052 7.23452C15.2396 7.35947 15.6321 7.29137 15.9033 7.03022L15.903 7.02998C16.7753 6.18968 16.7752 4.81367 15.9028 3.97346L15.7705 3.8461C15.194 3.29088 14.389 3.09924 13.6548 3.2712Z" fill="#08135A" fill-opacity="0.25"/>
</svg>
