<svg width="16" height="16" viewBox="0 0 16 16" fill="none" xmlns="http://www.w3.org/2000/svg">
<path d="M15.0938 0.90625L13.4688 2.53125C12.0625 1.125 10.125 0.25 8 0.25C3.84375 0.25 0.4375 3.53125 0.25 7.625C0.21875 7.84375 0.40625 8 0.625 8H1.5C1.6875 8 1.84375 7.875 1.875 7.65625C2.0625 4.4375 4.71875 1.875 8 1.875C9.6875 1.875 11.2188 2.5625 12.3125 3.6875L10.625 5.375C10.375 5.625 10.5625 6 10.875 6H15.375C15.5625 6 15.75 5.84375 15.75 5.625V1.15625C15.75 0.84375 15.3438 0.65625 15.0938 0.90625ZM15.3438 8H14.4688C14.2812 8 14.125 8.15625 14.0938 8.375C13.9062 11.5938 11.25 14.125 8 14.125C6.28125 14.125 4.75 13.4688 3.65625 12.3438L5.34375 10.6562C5.59375 10.4062 5.40625 10 5.09375 10H0.625C0.40625 10 0.25 10.1875 0.25 10.375V14.875C0.25 15.1875 0.625 15.375 0.875 15.125L2.5 13.5C3.90625 14.9062 5.84375 15.75 8 15.75C12.125 15.75 15.5312 12.5 15.7188 8.40625C15.75 8.1875 15.5625 8 15.3438 8Z" fill="white"/>
</svg>
