<svg width="69" height="59" viewBox="0 0 69 59" fill="none" xmlns="http://www.w3.org/2000/svg">
<path d="M0 59.0002H32.2225V24.528H17.001C17.001 24.528 17.001 16.352 19.1755 11.9325C21.3499 7.5131 23.9199 5.08229 23.9199 5.08229L20.1639 -6.10352e-05C20.1639 -6.10352e-05 9.48907 7.07103 5.14029 14.5842C0.791237 22.0972 0.0576946 29.3074 0.0464861 35.1552L0.000591211 58.9993L0 59.0002Z" fill="#F6732F"/>
<path d="M36.3794 59.0002H68.6019V24.528H53.3804C53.3804 24.528 53.3804 16.352 55.5548 11.9325C57.7293 7.5131 60.2993 5.08229 60.2993 5.08229L56.5433 -6.10352e-05C56.5433 -6.10352e-05 45.8684 7.07103 41.5197 14.5842C37.1706 22.0972 36.4371 29.3074 36.4259 35.1552L36.38 58.9993L36.3794 59.0002Z" fill="#F6732F"/>
</svg>
