<svg xmlns="http://www.w3.org/2000/svg" xmlns:xlink="http://www.w3.org/1999/xlink" width="265px" height="290px" viewBox="0 0 265 290" version="1.1">
    <title>FD80CBFE-35EE-41C0-8F02-1117C851626A</title>
    <g id="Front" stroke="none" stroke-width="1" fill="none" fill-rule="evenodd">
        <g id="Home" transform="translate(-162.000000, -2473.000000)" fill-rule="nonzero">
            <g id="Group-24" transform="translate(162.000000, 2381.000000)">
                <g id="search.4f2c29a2" transform="translate(0.000000, 92.000000)">
                    <path d="M265,130.911838 C265,134.450361 264.821263,137.987613 264.641258,141.526136 C262.672615,165.409259 254.256759,187.521848 241.006129,206.097186 C240.648654,206.627583 240.111175,207.336051 239.753701,207.866448 C238.5,209.635709 237.067574,211.404971 235.635142,213.174232 C235.635142,213.174232 235.635142,213.351031 235.456405,213.351031 C235.456405,213.52783 235.2764,213.52783 235.2764,213.704629 C235.2764,213.704629 235.2764,213.704629 235.2764,213.881428 C229.546672,220.780404 223.100727,227.148982 215.938567,232.810364 C205.375331,241.301802 193.378395,248.202049 180.486506,253.154964 C178.875337,253.86216 177.2629,254.393829 175.472994,254.924226 C172.60813,255.808221 169.743266,256.693487 166.878401,257.577482 C165.624706,257.93108 164.551016,258.107879 163.297321,258.461477 C159.716241,259.346744 156.313898,260.053939 152.55408,260.584336 C151.659127,260.762407 150.942911,260.762407 150.04669,260.939206 C146.824352,261.469603 143.422009,261.646402 140.019666,261.823201 C138.945975,261.823201 137.871018,262 136.797327,262 C135.364895,262 133.932463,262 132.321294,262 C127.127777,262 121.935781,261.646402 116.743151,261.116005 C110.297207,260.407537 104.03038,259.169945 97.7634259,257.577482 C95.6147778,257.047085 93.4661297,256.338617 91.3174815,255.631422 C90.6012655,255.454623 89.7060588,255.101025 88.9898427,254.924226 C88.4526173,254.747427 87.9155187,254.570628 87.37842,254.393829 C85.5878799,253.86216 83.797213,253.154964 82.1857903,252.447768 C71.0844415,248.023979 60.6993088,242.01027 51.2093828,234.933224 C49.0607347,233.163962 46.9120865,231.5715 44.7634384,229.626711 C34.3783057,220.603605 25.2466144,209.812508 18.084454,197.959346 C12.1756716,188.230316 7.69932125,177.792817 4.47634903,166.82365 C1.79053885,155.325358 0,143.295397 0,130.911838 C0,118.881877 1.61148484,107.206023 4.65540305,96.0608203 C9.8479694,77.6624081 18.9796606,60.8562042 30.9763428,46.7036382 C38.1385033,38.3889993 46.1959972,30.958864 55.1486978,24.5901585 C76.9932873,9.02229771 103.672272,0 132.500031,0 C205.732805,0 265,58.5564186 265,130.911838 Z" id="Path" fill="#F9E8DF"/>
                    <path d="M218.880743,175.606291 L218.880743,174.178444 C218.880743,171.858984 219.596206,169.716582 220.670035,167.575444 C222.279512,164.184783 223.173525,160.079566 222.816426,155.975614 C221.921147,144.196196 211.904655,135.273736 200.278687,134.915826 C189.725281,134.559181 175.774372,134.024213 175.774372,134.024213 C161.106734,133.489244 150.554594,141.876736 148.943851,153.476567 C148.408203,157.581783 148.943851,161.685736 150.374778,165.25472 C151.270058,167.397122 151.805706,169.716582 151.627156,172.037307 L151.627156,173.463889 C151.448607,177.925751 149.302216,181.852645 145.903447,184.708338 C138.570261,190.775105 133.740564,199.877152 133.383466,210.405782 L133.025101,220.222385 C132.309637,239.316828 146.977276,255.200198 165.757881,255.914754 L199.563223,256.985955 C218.165279,257.520923 233.90548,242.708754 234.620944,223.613046 L234.979309,213.797708 C235.336407,203.446136 231.043625,193.987444 224.247353,187.384444 C220.670035,184.172105 218.702193,179.888566 218.880743,175.606291 Z" id="Path" fill="#FCA58C"/>
                    <path d="M191,148 C198.598369,148.534624 216.09063,172.07705 213.793856,187.057904 C211.497082,202.038759 200.188347,200.255414 195.593548,195.975892 C191,191.695106 191.53041,187.772001 191.706796,171.541162 C191.706796,155.489795 191,148 191,148 Z" id="Path" fill="#E2876C"/>
                    <path d="M199.991882,171.97932 C200.257271,163.976226 193.983068,157.273776 185.98008,157.008134 C177.97584,156.742492 171.272257,163.016406 171.00812,171.0195 C170.74273,179.023848 177.015681,185.726298 185.019922,185.99194 C193.02291,186.256329 199.726493,179.983667 199.991882,171.97932 Z" id="Path" fill="#2842B6"/>
                    <polygon id="Path" fill="#6254E8" points="194 161 177 160.461963 184.260103 49 194 49.3589458"/>
                    <path d="M182.362524,30.1916389 L175.818921,30.0044326 C172.183586,29.8172262 172.002141,35.6211547 175.637476,35.8083611 L182.181079,35.9955674 C185.816414,36.1827738 185.997859,30.3788453 182.362524,30.1916389 Z" id="Path" fill="#2842B6"/>
                    <path d="M182.362524,39.1916389 L175.818921,39.0044326 C172.183586,38.8172262 172.002141,44.6211547 175.637476,44.8083611 L182.181079,44.9955674 C185.816414,45.1827738 185.997859,39.3788453 182.362524,39.1916389 Z" id="Path" fill="#2842B6"/>
                    <path d="M182.362524,47.1917806 L175.818921,47.0044358 C172.183586,46.8170911 172.002141,52.6253104 175.637476,52.8126552 L182.181079,53 C185.816414,53 185.997859,47.1917806 182.362524,47.1917806 Z" id="Path" fill="#2842B6"/>
                    <path d="M203.362524,31.1916433 L196.818921,31.0044328 C193.183586,30.8172222 193.002141,36.6211462 196.637476,36.8083567 L203.181079,36.9955672 C206.816414,37.1827778 206.997859,31.3788538 203.362524,31.1916433 Z" id="Path" fill="#2842B6"/>
                    <path d="M202.47022,39.191785 L195.851347,39.004436 C192.174195,38.8170871 191.990663,44.6253021 195.667814,44.8126511 L202.286687,45 C205.779005,45 205.963839,39.3791339 202.47022,39.191785 Z" id="Path" fill="#2842B6"/>
                    <path d="M202.362524,48.191785 L195.818921,48.004436 C192.183586,47.8170871 192.002141,53.6253021 195.637476,53.8126511 L202.181079,54 C205.816414,54 205.997859,48.191785 202.362524,48.191785 Z" id="Path" fill="#2842B6"/>
                    <path d="M196.353511,26.3541392 L183.815348,26 C181.634965,26 180,27.593752 180,29.7187127 L180.36404,53.2708529 C180.36404,53.9791314 180.545417,54.5103402 180.908171,55.0416745 L182.7258,58.0521088 C183.452594,59.1145265 184.542142,59.8229304 185.814353,59.8229304 L192.174123,60 C193.446335,60 194.535883,59.4687912 195.262677,58.406248 L197.261682,55.5728833 C197.624436,55.0416745 197.8071,54.5104657 197.988476,53.8020618 L199.987482,30.4269912 C200.168859,28.3020304 198.35123,26.5312088 196.353511,26.3541392 Z" id="Path" fill="#6254E8"/>
                    <path d="M176.883259,209 C176.353554,209 176,208.640422 176,208.10296 L183.23598,41.8964049 C183.23598,41.358562 183.764436,41 184.11799,41 C184.647696,41 185,41.358562 185,41.8964049 L177.765269,208.10296 C177.765269,208.640422 177.411716,209 176.883259,209 Z" id="Path" fill="#8983F2"/>
                    <path d="M180.931182,209 C180.931182,209 180.744155,209 180.931182,209 C180.372736,209 180,208.640926 180,208.104219 L186.14027,33.8951464 C186.14027,33.3580586 186.511689,33 187.070135,33 C187.628581,33 188,33.3580586 188,33.8951464 L181.861047,208.104219 C181.861047,208.640926 181.302601,209 180.931182,209 Z" id="Path" fill="#8983F2"/>
                    <path d="M184.929865,209 C184.372736,209 184,208.642195 184,208.104219 L190.138953,33.895274 C190.138953,33.3580588 190.697399,33 191.070135,33 C191.627264,33 192,33.3580588 192,33.895274 L185.861047,208.104219 C185.861047,208.642195 185.488311,209 184.929865,209 Z" id="Path" fill="#8983F2"/>
                    <path d="M189.908818,210 C189.363012,210 189,209.641691 189,209.102958 L193.182364,42.896534 C193.182364,42.3585628 193.545377,42 194.091182,42 C194.636988,42 195,42.3585628 195,42.896534 L190.817636,209.102958 C190.817636,209.641691 190.454623,210 189.908818,210 Z" id="Path" fill="#8983F2"/>
                    <path d="M184.365481,49 L183.762027,49 C181.551734,49 181.349633,51.842117 183.56135,52 L184.164804,52 C186.577197,52 186.577197,49 184.365481,49 Z" id="Path" fill="#FFFFFF"/>
                    <path d="M193.807322,49 L193.346358,49 C191.656881,49 191.503589,51.8364277 193.193066,51.9939946 L193.65403,51.9939946 C195.34242,52.1515615 195.4968,49.1575669 193.807322,49 Z" id="Path" fill="#FFFFFF"/>
                    <path d="M185.320694,32 L184.728792,32 C182.559418,32 182.362583,34.842117 184.531957,35 L185.123859,35 C187.490068,35 187.686903,32 185.320694,32 Z" id="Path" fill="#FFFFFF"/>
                    <path d="M184.80765,41 L184.346602,41 C182.656819,41 182.503499,43.842117 184.193282,44 L184.653242,44 C186.343026,44 186.496346,41.157883 184.80765,41 Z" id="Path" fill="#FFFFFF"/>
                    <path d="M193.807322,32 L193.346358,32 C191.656881,32 191.503589,34.83642 193.193066,34.9939865 L193.65403,34.9939865 C195.34242,35.1516646 195.4968,32.1575665 193.807322,32 Z" id="Path" fill="#FFFFFF"/>
                    <path d="M194.320191,41 L193.729509,41 C191.559486,41 191.362592,43.842117 193.531219,44 L194.123297,44 C196.490215,44 196.687109,41 194.320191,41 Z" id="Path" fill="#FFFFFF"/>
                    <path d="M182.745383,268.996582 C182.02979,273.268912 181.135616,277.362126 180.420024,281.100888 C178.810257,281.812312 177.199224,282.345881 175.410876,282.88071 C172.548506,283.769991 169.686136,284.660533 166.823766,285.549813 C165.571162,285.906787 164.498407,286.084643 163.245803,286.440355 C159.66784,287.329636 156.268459,288.042321 152.511915,288.57589 C148.396941,289.110719 144.281968,289.644288 140.168261,289.822144 C137.663053,290 135.159113,290 132.475324,290 C127.287595,290 122.098979,289.644288 116.91087,289.110719 C110.470537,288.398034 104.209166,287.15178 97.9476681,285.549813 C95.8008906,285.016245 93.654113,284.304821 91.5073354,283.592135 C90.7917429,283.414279 89.8973155,283.058566 89.181723,282.88071 C86.855984,281.990168 84.5303716,281.278744 82.383594,280.210346 C74.8698724,271.844802 65.9249658,258.851216 68.4295397,245.857629 C72.5441334,223.963669 97.5898719,239.09279 97.5898719,239.09279 C140.346842,244.076545 186.860356,245.857629 182.745383,268.996582 Z" id="Path" fill="#111F7A"/>
                    <path d="M165.662369,273.844826 C164.947668,278.332657 164.054608,282.639855 163.339907,286.410244 C159.766402,287.307047 156.371255,288.025761 152.619391,288.563843 C148.509544,289.101925 144.400961,289.641279 140.291114,289.820639 C137.789028,290 135.288207,290 132.607762,290 C127.426495,290 122.244596,289.641279 117.063077,289.101925 C110.630767,288.384483 104.37707,287.127686 98.1234988,285.512169 C95.9793957,284.974087 93.8352925,284.255373 91.6911893,283.53793 C90.9764883,283.35857 90.0830487,282.999849 89.3683477,282.820488 C72.9302234,277.075861 58.1002397,268.280832 45.2356207,257.151571 C41.4833769,234.534327 83.6507392,228.072258 93.1205914,252.8431 C135.824549,257.689652 169.772216,250.510141 165.662369,273.844826 Z" id="Path" fill="#08135A"/>
                    <path d="M174.614226,220 C175.506082,216.592039 176.75241,213.364514 178,209.957823 C177.822133,209.957823 177.644267,210.136989 177.465138,210.136989 C177.109405,209.061994 176.396677,207.627398 175.506082,206.013635 C168.9124,193.999365 124.367267,200.634851 117.239985,199.200254 C112.607252,198.123989 106.192698,183.779293 100.669118,168 C97.2835955,169.434597 94.2545638,171.406691 91.0472869,173.380055 C87.8400101,175.352149 83.7417599,177.145077 80,179.296337 C87.483646,197.047724 94.967292,218.026635 110.112703,219.282066 C122.585446,220.358332 149.135139,218.386238 164.280298,216.951641 C167.13121,217.668304 169.625128,219.461232 172.655169,219.819564 C173.367897,220 174.080626,220 174.614226,220 Z" id="Path" fill="#895E47"/>
                    <path d="M79.0650435,187 C85.8210957,183.084019 94.5327844,174.719837 102,172.762477 C98.6220368,163.507897 95.2439478,153.364182 92.7548759,145 C92.7548759,145 66.9752658,152.473785 75.8648082,170.805117 C77.6427167,174.364182 77.4648629,182.906192 79.0650435,187 Z" id="Path" fill="#F39C83"/>
                    <path d="M89.3431225,176.054612 C83.0784101,192.870646 83.4363901,226.146464 84.5103299,247.25652 C79.3196841,253.51816 63.5685665,259.601041 52.1132083,263 C49.9653286,261.211141 47.8174489,259.601041 45.6695693,257.633423 C35.2881509,248.509102 26.1595989,237.595922 19,225.610187 C36.5410173,153.155697 54.9770478,137.769736 69.4751722,132.939436 C73.0549717,131.686855 76.4558445,131.686855 79.677664,132.939436 C87.3741695,135.802118 92.0279088,139.558594 93.9968618,145.105198 C96.3236681,152.260634 94.5337684,161.921232 89.3431225,176.054612 Z" id="Path" fill="#FCA58C"/>
                    <path d="M121.540544,95.1366737 C120.472786,106.135548 119.760947,129.936754 112.99848,131.197923 C106.236013,132.46037 102.67682,127.952362 96.9821106,132.640537 C91.2874014,137.328711 86.6604502,144 86.6604502,144 L71,132.640537 C71,132.640537 81.8556024,127.592028 83.9911183,115.872231 C86.1266342,104.152178 81.3216604,85.219696 101.787084,87.3833607 C122.252383,89.5471532 122.964221,81.6135455 121.540544,95.1366737 Z" id="Path" fill="#895E47"/>
                    <path d="M95.7191616,133 C95.9035524,132.827713 96.0880738,132.827713 96.2724645,132.655425 C101.068323,129.207234 104.388532,131.275904 109,131.621701 C103.281796,129.551808 98.1170254,126.792766 93.8746007,123 C92.0300398,125.241569 93.3211671,129.207234 95.7191616,133 Z" id="Path" fill="#895E47"/>
                    <path d="M103.964361,80.8730817 C94.3706572,82.1225414 87.9748544,72.8410213 84.4216307,82.3010176 C80.8684069,91.7610139 70.2087355,87.6558088 67.5438806,95.6878692 C64.8788999,103.71993 72.8737163,103.362851 72.8737163,110.50253 C72.8737163,117.642083 75.1832488,122.639796 84.0663083,122.996875 C92.9493677,123.353827 103.609039,93.0104736 112.136776,96.2232978 C120.664513,99.4361219 129.548202,98.9006934 127.770961,88.5481897 C125.994349,78.1958126 113.73579,79.4452723 103.964361,80.8730817 Z" id="Path" fill="#08135A"/>
                    <path d="M99.243192,84.750232 C106.200025,88.4096052 112.799975,82.833488 119.756808,83.1819644 C121.897353,83.3562027 123.859455,83.7048026 126,84.4017555 C122.075668,78.6514001 112.264902,79.8711911 103.881039,80.916744 C99.5999495,81.4394587 96.0323751,80.0454294 93,79 C94.7837872,81.0909822 96.5675744,83.1819644 99.243192,84.750232 Z" id="Path" fill="#2842B6"/>
                    <path d="M102,106.104987 C89.3152502,98.0885849 88.2433049,107.530013 89.3152502,112.696237 C90.3871956,117.862335 100.213424,120 100.213424,120 L102,106.104987 Z" id="Path" fill="#895E47"/>
                    <path d="M89.9805872,139.119199 C87.5268309,136.761984 84.196671,134.765935 79.9902316,132.952397 C76.835402,131.682534 73.5053662,131.682534 70,132.952397 C75.6085859,136.217023 76.3096591,145.286001 81.7429147,148.731853 C89.279514,153.447567 90.1557935,143.834913 89.9805872,139.119199 Z" id="Path" fill="#895E47"/>
                    <path d="M166.564197,222.118327 C167.816427,215.302444 157.970956,214.048057 157.970956,214.048057 C160.119266,212.792399 166.38422,215.302444 166.564197,212.792399 C166.921615,210.460281 160.83537,206.51538 141.857996,213.688389 C122.702548,220.86267 101.577498,223.91158 96.7437373,219.607012 C94.2373755,217.276165 90.4778961,197.36865 85.1071208,178 C75.6186877,179.973721 65.9512922,184.815884 57,190.016443 C60.9385686,203.824866 67.5625881,221.579462 75.4397253,236.465617 C77.7669979,240.948112 81.1685523,246.508338 87.6134826,246.866734 C106.769185,248.30159 137.740085,237.720004 142.752809,235.747553 C149.377716,233.416707 147.586823,233.416707 153.136941,228.574544 C158.865768,223.732382 160.297975,231.623454 162.624994,231.263787 C164.952013,230.905391 165.668117,228.035679 165.668117,228.035679 C167.996403,226.600823 166.564197,222.118327 166.564197,222.118327 Z" id="Path" fill="#895E47"/>
                    <path d="M85,179.785282 C80.3098397,162.669178 75.4392248,139.788551 66.7804674,141.049979 C49.2826256,143.752858 50.0041887,160.687663 50.0041887,169.696407 C50.0041887,173.839459 51.0865334,184.829719 54.5138943,196 C63.5334333,190.775541 75.4392248,183.56829 85,179.785282 Z" id="Path" fill="#F39C83"/>
                    <path d="M265,168 C263.039555,192.333333 254.664142,214.863062 241.478449,233.789414 C241.121431,234.329729 240.586535,235.051426 240.230778,235.591741 C238.983108,237.394068 237.557559,239.196395 236.132011,241 L170.378899,241 C168.062698,241 166.458009,238.65608 167.170784,236.493543 L167.527802,235.591741 L188.554012,170.342642 C189.088908,168.900525 190.336579,168 191.762127,168 L265,168 Z" id="Path" fill="#08135A"/>
                    <path d="M240,236 C238.752964,237.817909 237.328139,239.635817 235.903315,241.455014 C235.725527,241.636676 235.725527,241.818338 235.546479,242 L135.808782,242 C129.397073,242 129.397073,236 135.808782,236 L240,236 Z" id="Path" fill="#08135A"/>
                    <path d="M232.295545,201.666097 C233.708218,198.874428 232.929484,195.642609 230.556777,194.446179 C228.185287,193.24975 225.116587,194.542234 223.703914,197.333903 C222.292458,200.124356 223.069975,203.357391 225.442682,204.553821 C227.814172,205.75025 230.882872,204.457766 232.295545,201.666097 Z" id="Path" fill="#FFFFFF"/>
                    <path d="M150,247 L150,288.933468 C146.837367,289.467364 143.499378,289.644909 140.161389,289.822455 C139.108007,289.822455 138.053382,290 137,290 L137,247 L150,247 Z" id="Path" fill="#F2F4FD"/>
                    <path d="M236,241 C236,241.181678 235.819922,241.181678 235.819922,241.363355 C235.819922,241.363355 235.819922,241.363355 235.819922,241.545033 C230.087853,248.635614 223.640545,255.181162 216.47546,261 L121,261 L121,241.181678 L236,241.181678 L236,241 Z" id="Path" fill="#F2F4FD"/>
                </g>
            </g>
        </g>
    </g>
</svg>