<svg width="38" height="37" viewBox="0 0 38 37" fill="none" xmlns="http://www.w3.org/2000/svg">
<path d="M16.9615 1.25227C17.7996 -0.427947 20.2075 -0.406869 21.0385 1.25227L25.6766 10.5605L36.0538 12.058C37.9147 12.3251 38.6605 14.5959 37.311 15.8966L29.8033 23.1379L31.579 33.3671C31.8987 35.2161 29.9312 36.594 28.2834 35.7363L19 30.9064L9.71663 35.7363C8.06877 36.601 6.10135 35.2161 6.42098 33.3671L8.19667 23.1379L0.689004 15.8966C-0.660527 14.5959 0.0852667 12.3251 1.94621 12.058L12.3234 10.5605L16.9615 1.25227Z" fill="#F6732F"/>
<path d="M20.9799 1C20.9999 1.03535 21.0191 1.07151 21.0376 1.10847L24.8686 8.82841L24.8645 8.82781L20.9799 1ZM37.311 15.8134L29.8029 23.0846L31.5787 33.3562C31.8983 35.2129 29.9308 36.5965 28.2828 35.7352L18.9989 30.8853L9.71502 35.7352C8.21345 36.5264 6.44656 35.4421 6.38631 33.8387C7.05166 34.3908 8.02324 34.5717 8.90361 34.1078L18.9989 28.6212L27.4714 34.1078C29.1194 34.9691 31.0869 33.5854 30.7672 31.7287L29.108 22.2087L36.7326 14.5839C37.2406 14.0924 37.2186 13.0649 37.1852 12.4566C38.1517 13.2632 38.3374 14.82 37.311 15.8134Z" fill="#EB6621"/>
<path fill-rule="evenodd" clip-rule="evenodd" d="M14 21H24C24 23.2091 22.2091 25 20 25H18C15.7909 25 14 23.2091 14 21Z" fill="white"/>
<path fill-rule="evenodd" clip-rule="evenodd" d="M14.7873 23.3834C15.676 22.5514 17.2307 22 19 22C20.7693 22 22.324 22.5514 23.2127 23.3834C22.4837 24.3644 21.3161 25 20 25H18C16.6839 25 15.5163 24.3644 14.7873 23.3834Z" fill="#DCE0F6"/>
<path fill-rule="evenodd" clip-rule="evenodd" d="M14 18C14 16.8954 14.8954 16 16 16C17.1046 16 18 16.8954 18 18C18 18.1366 17.8893 18.2473 17.7527 18.2473C17.6678 18.2473 17.5888 18.2036 17.5435 18.1318C17.0684 17.3773 16.5539 17 16 17C15.4461 17 14.9316 17.3773 14.4565 18.1318C14.3838 18.2473 14.2311 18.282 14.1155 18.2092C14.0436 18.164 14 18.085 14 18Z" fill="white"/>
<path fill-rule="evenodd" clip-rule="evenodd" d="M20 18C20 16.8954 20.8954 16 22 16C23.1046 16 24 16.8954 24 18C24 18.1366 23.8893 18.2473 23.7527 18.2473C23.6678 18.2473 23.5888 18.2036 23.5435 18.1318C23.0684 17.3773 22.5539 17 22 17C21.4461 17 20.9316 17.3773 20.4565 18.1318C20.3838 18.2473 20.2311 18.282 20.1155 18.2092C20.0436 18.164 20 18.085 20 18Z" fill="white"/>
<path d="M9.00554 11.6154C10.3935 6.52081 14.1989 3.05262 18.5 3.05262C22.8011 3.05262 26.6065 6.52081 27.9945 11.6154C28.0707 11.8954 28.3534 12.0587 28.6258 11.9804C28.8982 11.902 29.0572 11.6116 28.9809 11.3317C27.4767 5.81053 23.2957 2 18.5 2C13.7043 2 9.52328 5.81053 8.01909 11.3317C7.94283 11.6116 8.10184 11.902 8.37424 11.9804C8.64664 12.0587 8.92929 11.8954 9.00554 11.6154Z" fill="#4B43C4"/>
<path d="M28.8867 13H27.8126C26.2951 8.24353 22.6256 5.05262 18.5 5.05262C14.6707 5.05262 11.2344 7.80165 9.54705 12H8.44536C10.218 7.20715 14.1003 4 18.5 4C23.1991 4 27.308 7.6585 28.8867 13V13Z" fill="#08135A" fill-opacity="0.247869"/>
<path fill-rule="evenodd" clip-rule="evenodd" d="M14.5261 7.06384C15.1898 7.73121 15.1898 8.80935 14.5261 9.47672L10.9266 13.096C10.2676 13.7587 9.19611 13.7616 8.53346 13.1026C8.53127 13.1004 8.52908 13.0982 8.5269 13.096L14.5261 7.06384Z" fill="#6254E8"/>
<path fill-rule="evenodd" clip-rule="evenodd" d="M22.9115 7.10767C22.2478 7.77503 22.2478 8.85318 22.9115 9.52054L26.5111 13.1399C27.1701 13.8025 28.2415 13.8054 28.9042 13.1464C28.9064 13.1442 28.9086 13.142 28.9107 13.1399L22.9115 7.10767Z" fill="#6254E8"/>
<path fill-rule="evenodd" clip-rule="evenodd" d="M14.5261 7.06385L8.5269 13.096C6.93398 11.4944 6.93398 8.90681 8.5269 7.30513L8.76686 7.06385C10.3485 5.47348 12.92 5.46643 14.5104 7.0481C14.5156 7.05334 14.5209 7.05858 14.5261 7.06385Z" fill="#B5BEEC"/>
<path fill-rule="evenodd" clip-rule="evenodd" d="M14.5104 7.04812C14.5156 7.05335 14.5209 7.0586 14.5261 7.06386C15.1898 7.73122 15.1898 8.80937 14.5261 9.47674L10.9266 13.096C10.4647 13.5605 9.80019 13.7009 9.21584 13.5164C9.35168 13.4409 9.47931 13.3453 9.59437 13.2296C12.4259 10.5752 13.8944 8.86082 14 8.08655C14.1583 6.92513 11.5246 6.06995 10.5788 6.00861C11.9341 5.64075 13.4431 5.98671 14.5104 7.04812Z" fill="#08135A" fill-opacity="0.25"/>
<path fill-rule="evenodd" clip-rule="evenodd" d="M22.9115 7.10767L28.9107 13.1399C30.5037 11.5382 30.5037 8.95063 28.9107 7.34896L28.6708 7.10767C27.0891 5.5173 24.5176 5.51025 22.9273 7.09193C22.922 7.09716 22.9168 7.10241 22.9115 7.10767Z" fill="#B5BEEC"/>
<path fill-rule="evenodd" clip-rule="evenodd" d="M24.8297 6.02511C26.1646 5.70123 27.6314 6.0626 28.6708 7.10768L28.9107 7.34897C30.5037 8.95065 30.5037 11.5382 28.9107 13.1399C28.9086 13.1421 28.9064 13.1443 28.9042 13.1464C28.4157 13.6322 27.7052 13.7583 27.1014 13.5257C27.241 13.4502 27.3722 13.3537 27.4904 13.2361C27.4926 13.234 27.4948 13.2318 27.497 13.2296C29.0899 11.6279 29.0899 9.04036 27.497 7.43868L27.257 7.19739C26.5783 6.51491 25.7172 6.12401 24.8297 6.02511Z" fill="#08135A" fill-opacity="0.25"/>
</svg>
