<svg xmlns="http://www.w3.org/2000/svg" xmlns:xlink="http://www.w3.org/1999/xlink" width="264px" height="265px" viewBox="0 0 264 265" version="1.1">
    <title>08C2E058-33FB-407C-A607-6B5CE5A87E05</title>
    <g id="Front" stroke="none" stroke-width="1" fill="none" fill-rule="evenodd">
        <g id="Home" transform="translate(-1014.000000, -2473.000000)" fill-rule="nonzero">
            <g id="Group-24" transform="translate(162.000000, 2381.000000)">
                <g id="Group-23" transform="translate(851.000000, 0.000000)">
                    <g id="start.e935bb50" transform="translate(1.000000, 92.000000)">
                        <path d="M263.847881,132.61231 C263.847881,143.652714 262.421929,154.336 259.927143,164.66469 C259.214167,167.869929 258.323262,170.897238 257.253167,174.102476 C253.153238,186.388381 247.2715,197.963833 239.96381,208.46919 C224.100405,231.083786 201.285167,248.356738 174.725857,257.438667 C171.873952,258.32831 169.022048,259.219214 166.170143,260.108857 C161.536429,261.355619 156.723524,262.424452 151.910619,263.136167 C147.811952,263.671214 143.712024,264.205 139.612095,264.382929 C137.11731,264.560857 134.621262,264.560857 131.947286,264.560857 C126.778524,264.560857 121.609762,264.205 116.440621,263.671214 C110.023836,262.958238 103.785357,261.711476 97.5467524,260.108857 C95.4078238,259.575071 93.2688952,258.863357 91.1299667,258.150381 C90.4169905,257.972452 89.5258333,257.616595 88.8128571,257.438667 C48.1732143,243.548881 16.4457738,210.249738 4.68162881,168.759571 C1.82972405,157.185381 0.0472906381,145.077405 0.0472906381,132.61231 C0.0472906381,100.381621 11.6331593,70.6442048 30.8834786,47.8514286 C38.0132405,39.4820976 46.0342857,32.0032929 54.9464881,25.5928167 C76.6922619,9.9227231 103.250562,0.841218524 131.947286,0.841218524 C204.850048,0.841218524 263.847881,59.781981 263.847881,132.61231 Z" id="Path" fill="#F9E8DF"/>
                        <path d="M259.927143,164.66469 C259.214167,167.869929 258.323262,170.897238 257.253167,174.102476 L226.95231,174.992119 C223.922476,175.527167 145.315905,174.992119 145.315905,174.992119 C145.315905,174.992119 155.119643,173.3895 159.040381,160.746476 C162.962381,147.925524 178.647857,137.420167 192.551524,150.06319 C206.276,162.884143 212.157738,143.652714 228.021143,154.336 C236.221,159.856833 246.737714,155.76069 254.223333,159.500976 C256.362262,160.390619 258.323262,162.528286 259.927143,164.66469 Z" id="Path" fill="#FFFFFF"/>
                        <path d="M143.534095,94.8615452 C146.20681,95.3957095 217.504429,94.8615452 217.504429,94.8615452 C217.504429,94.8615452 208.592857,93.436981 205.027976,82.7528119 C201.463095,72.068769 187.203571,63.1652738 174.725857,73.8494429 C162.249405,84.5336119 156.901452,68.5074214 142.641929,77.4107905 C128.382405,86.3142857 109.132679,93.9711452 109.132679,93.9711452 L143.534095,94.8615452 Z" id="Path" fill="#FFFFFF"/>
                        <path d="M174.725857,257.260738 C174.37,259.041286 177.043976,254.233429 176.508929,255.836048 C167.596095,256.72569 161.536429,260.110119 151.910619,262.78031 C145.315905,263.671214 138.72119,264.205 131.947286,264.205 C120.005502,264.205 108.597883,262.602381 97.7250595,259.753 C96.6555952,259.041286 95.7643119,258.150381 94.6948476,257.438667 C72.4144048,239.987786 50.1338357,216.482286 36.7655952,186.389643 C26.4274405,163.062071 22.6842524,138.489 22.5060714,115.517664 C22.1495833,89.3415952 26.6056214,65.1241286 31.0617857,47.6735 C35.5178238,29.8665095 40.152169,18.826231 40.152169,18.826231 C40.152169,18.826231 46.0342857,20.9631405 55.3029762,25.4148881 C82.9307405,38.59195 141.038048,71.7127857 166.527262,129.229143 C174.37,147.035881 178.469929,165.555595 180.07381,183.540262 C182.212738,210.962714 179.003714,237.138405 174.725857,257.260738 Z" id="Path" fill="#2842B6"/>
                        <path d="M83.8220238,105.01155 C83.4655357,105.01155 83.1090476,104.833495 82.9308667,104.477386 C82.7525595,103.943095 59.2243452,51.2348476 42.8258929,26.3051619 C42.4694048,25.9490524 42.6475857,25.4147619 43.0040738,25.0586524 C43.3605619,24.7025429 43.8953571,24.8805976 44.2518452,25.2367071 C60.6502976,50.3444476 84.1785119,103.230876 84.356819,103.76504 C84.535,104.299331 84.356819,104.65544 83.8220238,105.01155 C84.000331,105.01155 84.000331,105.01155 83.8220238,105.01155 Z" id="Path" fill="#395DFF"/>
                        <path d="M67.2453905,103.230876 L67.0670833,103.230876 C47.281931,98.0669095 38.9045238,97.8887286 38.7262167,97.8887286 C38.1915476,97.8887286 37.8350595,97.532619 37.8350595,96.9984548 C37.8350595,96.4642905 38.1915476,96.1080548 38.7262167,96.1080548 C39.0827048,96.1080548 47.4602381,96.1080548 67.4235714,101.450202 C67.9583667,101.628257 68.1365476,101.984367 68.1365476,102.518531 C67.9583667,103.052821 67.6018786,103.230876 67.2453905,103.230876 Z" id="Path" fill="#395DFF"/>
                        <path d="M57.9767,64.0556738 C57.7983929,64.0556738 57.7983929,64.0556738 57.6202119,64.0556738 C57.6202119,64.0556738 49.5991667,60.4943262 42.8258929,60.1382167 C42.2912238,60.1382167 41.9347357,59.6040524 41.9347357,59.2479429 C41.9347357,58.8917071 42.4694048,58.3575429 42.8258929,58.3575429 C49.9556548,58.8917071 57.9767,62.275 58.3331881,62.4530548 C58.8678571,62.6312357 59.0461643,63.1654 58.8678571,63.6995643 C58.6896762,63.877619 58.3331881,64.0556738 57.9767,64.0556738 Z" id="Path" fill="#395DFF"/>
                        <path d="M239.785881,198.31969 C237.646952,211.140643 232.834048,225.030429 223.03031,235.891643 C210.909714,249.247643 193.620357,254.945143 178.825786,257.794524 C170.092143,259.397143 161.893548,260.465976 156.902714,260.643905 C153.337833,260.643905 151.376833,260.643905 151.376833,260.643905 C151.376833,260.643905 144.247071,214.167952 168.66619,187.101357 C171.340167,184.074048 174.37,181.402595 177.579024,179.26619 C203.066976,160.568548 240.320929,162.528286 240.320929,162.528286 C240.320929,162.528286 242.993643,179.088262 239.785881,198.31969 Z" id="Path" fill="#111F7A"/>
                        <path d="M205.740952,201.169071 C205.563024,201.169071 205.385095,201.169071 205.205905,200.991143 C205.027976,200.811952 204.850048,200.456095 204.850048,200.278167 C206.09681,185.676667 200.928048,171.786881 200.928048,171.786881 C200.750119,171.253095 200.928048,170.897238 201.463095,170.71931 C201.998143,170.541381 202.354,170.71931 202.53319,171.253095 C202.711119,171.786881 207.522762,184.785762 206.631857,199.209333 C218.931643,194.401476 234.082071,195.47031 234.795048,195.47031 C235.330095,195.47031 235.685952,196.004095 235.685952,196.361214 C235.685952,196.895 235.150905,197.250857 234.795048,197.250857 C234.617119,197.250857 218.218667,196.183286 206.098071,201.347 C205.918881,201.169071 205.740952,201.169071 205.740952,201.169071 Z" id="Path" fill="#2842B6"/>
                        <path d="M169.914214,250.672333 C169.736286,250.672333 169.379167,250.672333 169.201238,250.493143 C168.844119,250.137286 168.844119,249.6035 169.201238,249.247643 C176.331,242.12419 184.886714,229.303238 193.977476,215.592643 C208.414929,193.86769 223.565357,171.253095 236.756048,165.020548 C237.111905,164.842619 237.646952,165.020548 238.00281,165.376405 C238.182,165.733524 238.00281,166.26731 237.646952,166.623167 C224.813381,172.677786 209.305833,196.005357 195.581357,216.660214 C186.490595,230.372071 177.756952,243.370952 170.449262,250.672333 C170.270071,250.494405 170.092143,250.672333 169.914214,250.672333 Z" id="Path" fill="#2842B6"/>
                        <path d="M184.173738,233.221452 C183.816619,233.221452 183.460762,232.865595 183.281571,232.508476 C183.103643,231.97469 183.460762,231.618833 183.994548,231.440905 C205.383833,226.098 220.000476,230.016214 220.713452,230.194143 C221.2485,230.372071 221.426429,230.905857 221.2485,231.262976 C221.06931,231.796762 220.713452,231.97469 220.178405,231.796762 C220.000476,231.796762 205.205905,227.700619 184.351667,233.043524 C184.351667,233.221452 184.351667,233.221452 184.173738,233.221452 Z" id="Path" fill="#2842B6"/>
                        <path d="M94.5166667,164.308833 C116.440748,204.196381 94.3384857,258.506238 94.3384857,258.506238 C94.3384857,258.506238 36.5874143,248.000881 14.6633333,208.113333 C-7.26064667,168.225786 14.8416405,113.914919 14.8416405,113.914919 C14.8416405,113.914919 72.5927119,124.421033 94.5166667,164.308833 Z" id="Path" fill="#111F7A"/>
                        <path d="M101.28994,254.589286 C100.933452,254.589286 100.576964,254.411357 100.398783,254.0555 C86.8522357,225.564214 48.5297024,155.226905 17.6935452,120.325521 C17.3370571,119.969286 17.3370571,119.435121 17.6935452,119.079012 C18.0500333,118.722902 18.5847024,118.722902 18.9411905,119.079012 C49.9556548,154.158071 88.2780619,224.67331 102.002917,253.342524 C102.181098,253.698381 102.002917,254.233429 101.646429,254.589286 C101.468248,254.589286 101.28994,254.589286 101.28994,254.589286 Z" id="Path" fill="#395DFF"/>
                        <path d="M66.5324143,190.484524 C66.3541071,190.484524 66.3541071,190.484524 66.1759262,190.484524 C45.8561048,183.540262 19.2976786,189.059833 18.9411905,189.237762 C18.4065214,189.41569 18.0500333,189.059833 17.8717262,188.526048 C17.6935452,187.991 18.0500333,187.635143 18.5847024,187.457214 C18.7630095,187.457214 44.9648214,181.937643 65.641131,188.526048 C65.997619,184.074048 67.7800595,168.581643 72.9492,164.486762 C73.3056881,164.130905 73.8403571,164.308833 74.1968452,164.66469 C74.5533333,165.020548 74.3751524,165.554333 74.0186643,165.911452 C69.5625,169.294619 67.7800595,184.251976 67.2453905,189.593619 C67.2453905,189.950738 67.0670833,190.128667 66.8889024,190.306595 C66.7105952,190.484524 66.5324143,190.484524 66.5324143,190.484524 Z" id="Path" fill="#395DFF"/>
                        <path d="M42.8258929,215.413452 C42.4694048,215.413452 42.1129167,215.235524 41.9347357,214.701738 C41.7564286,214.167952 42.1130429,213.810833 42.469531,213.632905 C42.6477119,213.632905 60.6502976,208.291262 78.4747024,210.606857 C79.0094976,210.606857 79.3659857,211.140643 79.1876786,211.674429 C79.1876786,212.208214 78.6530095,212.565333 78.1183405,212.387405 C60.6502976,210.07181 43.0042,215.235524 42.8258929,215.235524 C43.0042,215.413452 42.8258929,215.413452 42.8258929,215.413452 Z" id="Path" fill="#395DFF"/>
                        <path d="M42.8258929,153.624286 L42.6477119,153.624286 C29.6358333,150.06319 20.1889619,150.06319 20.1889619,150.06319 C19.6541667,150.06319 19.2976786,149.707333 19.2976786,149.172286 C19.2976786,148.6385 19.6541667,148.282643 20.1889619,148.282643 C20.54545,148.282643 29.8141405,148.282643 43.182381,151.843738 C43.7171762,152.021667 43.8953571,152.377524 43.8953571,152.912571 C43.538869,153.268429 43.182381,153.624286 42.8258929,153.624286 Z" id="Path" fill="#395DFF"/>
                        <path d="M150.841786,75.9862262 C148.702857,69.0415857 142.821119,69.7538048 142.464,69.57575 C140.503,68.6854762 138.899119,71.3564238 140.503,72.4248786 C139.256238,72.7809881 139.077048,70.8222595 139.077048,72.068769 C139.077048,72.7809881 141.395167,76.3423357 140.325071,79.1914643 C138.72119,78.3011905 136.938119,77.9449548 135.15631,78.3011905 C132.126476,78.8353548 129.808357,81.3283738 129.808357,84.355431 C129.808357,84.7116667 129.808357,84.8897214 129.987548,85.245831 C129.987548,85.4238857 129.987548,85.6019405 129.808357,85.7799952 C129.4525,85.95805 129.095381,86.1361048 128.917452,86.4923405 C127.135643,87.9169048 125.887619,90.5878524 127.313571,92.546581 C128.561595,94.327381 130.878452,94.1493262 132.482333,93.0808714 C133.017381,93.7930905 133.908286,94.1492 134.79919,93.436981 C134.978381,93.2589262 135.15631,93.0808714 135.334238,93.0808714 C136.76019,94.5054357 138.543262,95.3957095 140.68219,95.2176548 C143.354905,94.8615452 147.454833,93.436981 149.77169,90.5878524 C149.950881,90.5878524 149.950881,90.5878524 150.12881,90.5878524 C150.306738,90.5878524 150.484667,90.4097976 150.484667,90.4097976 C156.901452,87.73885 157.080643,79.1914643 150.841786,75.9862262 Z" id="Path" fill="#08135A"/>
                        <path d="M192.551524,186.032524 C191.125571,184.251976 189.164571,180.690881 187.025643,176.238881 C182.390667,179.088262 177.934881,182.2935 173.479095,185.498738 C174.727119,187.991 175.795952,190.128667 176.508929,191.375429 C183.63869,203.839262 187.203571,212.743262 194.333333,203.839262 C201.463095,194.936524 199.681286,194.936524 192.551524,186.032524 Z" id="Path" fill="#F4A880"/>
                        <path d="M164.031214,107.682498 C160.288405,90.231869 153.871619,86.6703952 144.425,85.6020667 C143.712024,85.6020667 142.999048,85.4240119 142.286071,85.4240119 C142.108143,85.6020667 142.108143,85.6020667 141.928952,85.7801214 C139.077048,87.73885 136.047214,89.341469 132.839452,90.5879786 L133.730357,92.5467071 L135.15631,95.7519452 L141.038048,109.463298 C139.969214,107.860679 145.137976,122.28425 152.623595,140.269548 C159.753357,157.36331 168.66619,177.8415 176.331,190.840381 C180.608857,187.279286 184.886714,184.074048 189.520429,181.046738 C181.499762,166.26731 168.66619,129.407071 164.031214,107.682498 Z" id="Path" fill="#FCA58C"/>
                        <path d="M140.860119,109.463298 C139.790024,107.860679 144.960048,122.28425 152.445667,140.269548 C154.762524,145.967048 157.4365,152.021667 160.110476,158.076286 C159.932548,151.66581 157.614429,144.1865 156.901452,139.378643 C152.623595,108.750952 140.860119,109.463298 140.860119,109.463298 Z" id="Path" fill="#ED957C"/>
                        <path d="M174.012881,232.152619 L166.883119,228.056476 L163.853286,236.069571 C163.318238,237.316333 163.853286,238.741024 165.10131,239.454 C166.170143,240.165714 167.775286,239.809857 168.488262,238.918952 L174.012881,232.152619 Z" id="Path" fill="#6254E8"/>
                        <polygon id="Path" fill="#6254E8" points="214.831714 162.528286 214.474595 163.062071 213.58369 164.66469 212.692786 166.089381 174.012881 232.330548 167.06231 228.057738 171.160976 220.934286 172.053143 219.509595 175.082976 214.345881 175.973881 212.743262 179.538762 206.510714 180.429667 205.086024 197.541095 175.883024 198.433262 174.280405 205.563024 161.993238 206.631857 160.390619 207.522762 158.965929 207.701952 158.432143"/>
                        <polygon id="Path" fill="#6254E8" points="226.417262 153.446357 225.704286 153.980143 215.722619 161.637381 214.831714 162.528286 207.701952 158.432143 207.879881 157.185381 209.840881 144.899476 210.01881 143.830643"/>
                        <path d="M226.417262,154.336 C226.239333,154.336 226.060143,154.337262 225.882214,154.158071 L209.483762,144.542357 C209.127905,144.364429 208.948714,143.830643 209.127905,143.296857 C209.305833,142.939738 209.840881,142.76181 210.374667,142.939738 L226.773119,152.555452 C227.130238,152.733381 227.308167,153.268429 227.130238,153.802214 C226.95231,154.158071 226.773119,154.336 226.417262,154.336 Z" id="Path" fill="#08135A"/>
                        <path d="M175.618024,221.468071 L171.160976,218.97581 C170.092143,218.440762 169.201238,219.865452 170.270071,220.578429 L174.725857,223.07069 C175.618024,223.605738 176.508929,222.181048 175.618024,221.468071 Z" id="Path" fill="#08135A"/>
                        <path d="M179.538762,214.879667 L175.082976,212.387405 C174.012881,211.852357 173.121976,213.277048 174.192071,213.990024 L178.647857,216.482286 C179.538762,216.839405 180.429667,215.414714 179.538762,214.879667 Z" id="Path" fill="#08135A"/>
                        <path d="M183.994548,207.0445 L179.538762,204.552238 C178.469929,204.01719 177.577762,205.441881 178.647857,206.154857 L183.103643,208.647119 C184.173738,209.182167 185.064643,207.757476 183.994548,207.0445 Z" id="Path" fill="#08135A"/>
                        <path d="M201.998143,176.41681 L197.541095,173.924548 C196.472262,173.3895 195.581357,174.81419 196.65019,175.527167 L201.105976,178.019429 C201.998143,178.554476 203.066976,176.951857 201.998143,176.41681 Z" id="Path" fill="#08135A"/>
                        <polygon id="Path" fill="#FFFFFF" points="215.722619 161.637381 214.831714 162.528286 214.474595 163.062071 207.522762 158.965929 207.701952 158.432143 207.879881 157.185381"/>
                        <polygon id="Path" fill="#FFFFFF" points="213.58369 164.66469 212.692786 166.089381 205.563024 161.993238 206.631857 160.390619"/>
                        <path d="M169.201238,230.727929 L167.06231,234.468214 C166.527262,235.535786 167.953214,236.42669 168.66619,235.357857 L170.805119,231.618833 C171.340167,230.55 169.735024,229.660357 169.201238,230.727929 Z" id="Path" fill="#FFFFFF"/>
                        <path d="M188.985381,182.471429 L187.203571,189.594881 C194.333333,193.155976 194.333333,187.813071 194.333333,191.375429 C194.333333,194.936524 196.115143,198.497619 198.076143,193.86769 C200.037143,189.237762 196.115143,184.251976 188.985381,182.471429 Z" id="Path" fill="#F4A880"/>
                        <path d="M196.828119,197.428786 C196.472262,195.648238 195.224238,191.196238 192.550262,192.978048 C191.837286,193.511833 191.3035,194.401476 191.3035,195.292381 C190.768452,195.47031 190.233405,196.004095 189.877548,196.539143 C189.698357,197.072929 189.520429,197.785905 189.698357,198.497619 C189.3425,198.853476 189.164571,199.209333 188.985381,199.566452 C188.451595,201.347 189.3425,203.127548 190.233405,204.552238 C190.768452,205.441881 191.837286,204.908095 191.837286,204.196381 C192.372333,204.01719 192.907381,203.483405 193.263238,202.77169 C193.442429,202.593762 193.442429,202.414571 193.620357,202.414571 C193.798286,202.414571 193.976214,202.236643 193.976214,202.058714 C194.333333,201.524929 194.68919,200.456095 194.68919,199.388524 C195.224238,199.744381 196.115143,199.566452 196.115143,198.675548 C196.115143,198.497619 196.115143,198.497619 196.115143,198.31969 C196.472262,198.497619 197.00731,197.963833 196.828119,197.428786 Z" id="Path" fill="#F4A880"/>
                        <path d="M156.545595,178.910333 C155.119643,165.376405 153.69369,152.199595 152.445667,140.269548 C151.019714,126.913548 150.12881,115.339483 149.772952,107.682624 C149.772952,107.682624 143.712024,100.915912 136.582262,94.8616714 C135.691357,94.1493262 134.621262,93.2590524 133.730357,92.5467071 C130.522595,90.0538143 127.135643,87.9169048 124.283486,86.6703952 C123.926998,86.4923405 123.57051,86.3142857 123.214021,86.3142857 C118.044881,84.5336119 112.875867,87.9169048 108.77619,93.7932167 C105.389617,98.6010738 102.715893,105.01155 101.28994,112.134245 C100.755271,114.627264 100.398783,117.298338 100.042295,119.969286 C99.6858071,124.064924 99.1510119,132.61231 98.2598548,143.652714 C97.9033667,149.528143 97.5468786,155.938619 97.0120833,162.884143 C96.8339024,167.156952 96.4774143,171.431024 96.1209262,176.060952 C116.26244,176.594738 136.404333,177.8415 156.545595,178.910333 Z" id="Path" fill="#FCA58C"/>
                        <path d="M118.044881,162.706214 C123.392202,157.36331 118.57955,155.76069 113.945205,155.048976 C110.736812,154.51519 107.528419,154.158071 104.320026,153.624286 C102.002917,153.0905 99.685681,152.555452 97.5467524,151.487881 C97.3685714,155.226905 97.0120833,159.323048 96.8337762,163.417929 C96.6555952,165.733524 96.4772881,168.225786 96.4772881,170.541381 C103.963538,168.938762 112.519252,168.225786 118.044881,162.706214 Z" id="Path" fill="#ED957C"/>
                        <path d="M86.3174405,142.939738 C80.2571429,141.337119 77.9399071,137.598095 79.7223476,132.256452 C80.7918119,129.051214 84.1785119,125.311307 87.5650857,122.106069 C91.1299667,118.544721 94.8731548,115.161429 101.111633,112.3123 C113.945205,106.436114 128.382405,102.340476 128.382405,102.340476 L127.313571,98.423019 L125.531131,91.8343619 C119.114345,91.3001976 112.519252,89.1634143 109.489167,84.3555571 C107.350238,84.7116667 105.38949,84.8897214 103.785357,85.245831 C91.1299667,87.3827405 86.4956214,91.1221429 77.226931,101.272021 C59.4025262,120.859686 57.9765738,131.721405 57.9765738,140.625405 C57.9765738,146.502095 64.2151786,155.226905 84.0002048,160.568548 C84.713181,154.693119 85.6044643,148.816429 86.3174405,142.939738 Z" id="Path" fill="#FCA58C"/>
                        <path d="M94.6948476,100.025512 C88.63455,99.6694024 82.5742524,100.025512 77.04875,101.628131 C72.7708929,106.435988 69.3841929,110.709681 66.7105952,114.627138 C67.4235714,122.284124 70.4536571,129.940857 75.2663095,134.748714 C76.5139548,135.995476 78.1182143,137.06431 79.5441667,137.953952 C79.0093714,136.351333 79.0093714,134.570786 79.7223476,132.434381 C80.7918119,129.229143 84.1785119,125.489362 87.5650857,122.284124 C91.1299667,118.722776 94.8731548,115.339483 101.111633,112.490355 C106.815443,109.819281 113.054048,107.504443 118.044881,105.901824 C112.341071,100.559802 101.468248,100.381748 94.6948476,100.025512 Z" id="Path" fill="#ED957C"/>
                        <path d="M126.778524,156.11781 L82.9307405,158.965929 C82.2177643,139.378643 79.5440405,120.681631 76.1574667,99.4913476 L120.18381,94.8615452 C123.213895,111.422026 125.352824,132.61231 126.778524,156.11781 Z" id="Path" fill="#F2F4FD"/>
                        <path d="M125.887619,158.788 L81.6830952,154.336 C84.8914881,134.926643 86.8521095,114.271029 87.7433929,92.9028167 L131.947286,97.3545643 C131.4135,114.271029 129.095381,135.639619 125.887619,158.788 Z" id="Path" fill="#FFFFFF"/>
                        <path d="M125.531005,106.970279 C121.074967,106.970279 94.5165405,103.052821 93.2688952,102.874767 C92.7341,102.874767 92.3776119,102.340476 92.555919,101.806312 C92.555919,101.272148 93.0905881,100.916038 93.6253833,101.094093 C93.9818714,101.094093 121.253148,105.01155 125.531005,105.01155 C126.0658,105.01155 126.422667,105.36766 126.422667,105.90195 C126.422667,106.436114 126.0658,106.970279 125.531005,106.970279 Z" id="Path" fill="#395DFF"/>
                        <path d="M125.531005,111.4219 C121.074967,111.4219 94.5165405,107.504443 93.2688952,107.326388 C92.7341,107.326388 92.3776119,106.792098 92.555919,106.257933 C92.555919,105.723769 93.0905881,105.36766 93.6253833,105.545714 C93.9818714,105.545714 121.253148,109.463171 125.531005,109.463171 C126.0658,109.463171 126.422667,109.819281 126.422667,110.353571 C126.422667,110.887736 126.0658,111.4219 125.531005,111.4219 Z" id="Path" fill="#395DFF"/>
                        <path d="M125.531005,115.873774 C121.074967,115.873774 94.5165405,111.95619 93.2688952,111.778136 C92.7341,111.778136 92.3776119,111.243971 92.555919,110.709681 C92.555919,110.175517 93.0905881,109.819407 93.6253833,109.997462 C93.9818714,109.997462 121.253148,113.915045 125.531005,113.915045 C126.0658,113.915045 126.422667,114.271155 126.422667,114.805319 C126.422667,115.339483 126.0658,115.873774 125.531005,115.873774 Z" id="Path" fill="#395DFF"/>
                        <path d="M123.213769,127.091476 C118.757731,127.091476 92.1993048,123.174398 90.9516595,122.996343 C90.4168643,122.996343 90.0603762,122.462179 90.2386833,121.928014 C90.2386833,121.393724 90.7733524,121.037614 91.3081476,121.215669 C91.6646357,121.215669 118.935912,125.133252 123.213769,125.133252 C123.748564,125.133252 124.105052,125.489362 124.105052,126.023526 C124.105052,126.55769 123.748564,127.091476 123.213769,127.091476 Z" id="Path" fill="#395DFF"/>
                        <path d="M123.213769,131.543476 C118.757731,131.543476 92.1993048,127.626524 90.9516595,127.448595 C90.4168643,127.448595 90.0603762,126.913548 90.2386833,126.379762 C90.2386833,125.845471 90.7733524,125.489362 91.3081476,125.667417 C91.6646357,125.667417 118.935912,129.585 123.213769,129.585 C123.748564,129.585 124.105052,129.940857 124.105052,130.475905 C124.105052,131.00969 123.748564,131.543476 123.213769,131.543476 Z" id="Path" fill="#395DFF"/>
                        <path d="M123.213769,135.995476 C118.757731,135.995476 92.1993048,132.078524 90.9516595,131.899333 C90.4168643,131.899333 90.0603762,131.365548 90.2386833,130.831762 C90.2386833,130.296714 90.7733524,129.940857 91.3081476,130.118786 C91.6646357,130.118786 118.935912,134.037 123.213769,134.037 C123.748564,134.037 124.105052,134.392857 124.105052,134.926643 C124.105052,135.46169 123.748564,135.995476 123.213769,135.995476 Z" id="Path" fill="#395DFF"/>
                        <path d="M115.014669,90.4099238 C118.757731,92.0125429 122.6791,92.5468333 126.600595,93.0809976 C130.521333,92.3687786 134.265405,91.122269 137.830286,89.8757595 C132.660262,82.3968286 133.730357,72.24695 134.621262,63.1655262 C135.15631,58.8918333 131.769357,56.9331048 128.382405,57.2892143 C124.46154,54.0839762 117.331779,55.3304857 118.223062,61.3847262 C119.649014,71.3566762 118.57955,81.1504452 115.014669,90.4099238 Z" id="Path" fill="#F4A880"/>
                        <path d="M144.425,85.6019405 C140.325071,85.0677762 135.512167,85.0677762 130.165476,84.5336119 L123.035588,82.7529381 C116.262314,83.4651571 111.0933,84.1773762 106.815443,84.8897214 C108.597883,91.4782524 133.19531,102.340476 144.425,85.6019405 Z" id="Path" fill="#F4A880"/>
                        <path d="M117.688393,81.8626643 C123.926871,83.1091738 129.808357,79.9039357 134.086214,74.9180238 C134.086214,71.0004405 134.443333,67.0829833 134.978381,63.1655262 C135.512167,58.8918333 132.126476,56.9331048 128.739524,57.2892143 C124.818029,54.0839762 117.688393,55.3304857 118.57955,61.3847262 C119.292526,68.3294929 118.936038,75.2741333 117.688393,81.8626643 Z" id="Path" fill="#DC9772"/>
                        <path d="M106.993624,57.8233786 C105.211183,70.2880952 105.211183,73.849569 112.340945,73.849569 C119.470707,73.849569 126.600595,68.5074214 126.600595,68.5074214 C126.600595,68.5074214 137.295238,75.6302429 142.641929,73.849569 C147.989881,72.068769 140.860119,57.8233786 140.860119,57.8233786 L106.993624,57.8233786 Z" id="Path" fill="#08135A"/>
                        <path d="M116.79711,63.6996905 C115.549464,62.2751262 114.123512,61.2066714 111.984583,61.0286167 C110.736812,61.0286167 109.31086,61.3847262 108.241395,62.0970714 C107.350238,62.6312357 107.350238,69.3978214 106.99375,69.5758762 C103.428869,71.1784952 97.5467524,59.6040524 94.1601786,58.5355976 C91.4864548,57.6453238 88.456369,58.5357238 86.1391333,60.1383429 C84.535,61.2066714 82.9307405,62.9873452 82.3960714,65.1242548 C81.5047881,64.9460738 80.7918119,64.768019 80.2571429,64.5899643 C78.8311905,64.4119095 77.583419,64.4119095 76.1574667,64.768019 C74.1968452,65.4803643 72.5925857,67.0829833 72.2360976,69.2197667 C72.0579167,71.534731 73.483869,73.4934595 75.6227976,74.7398429 C72.9490738,76.3424619 70.9884524,78.3013167 72.4144048,82.2187738 C75.0880024,89.341469 85.4261571,89.6977048 90.9517857,86.3144119 C93.4472024,84.8898476 94.5166667,82.3968286 98.0815476,83.4652833 C99.3291929,83.8213929 100.576964,85.6020667 102.002917,85.9581762 C104.676514,86.8485762 107.528419,86.4924667 109.489167,84.3555571 C111.806276,82.040719 108.597883,74.7398429 113.767024,71.5346048 C114.123512,71.5346048 114.658181,71.35655 115.014669,71.35655 C115.905952,70.8223857 117.153598,71.0004405 118.044755,69.9321119 C120.896786,67.2610381 119.292526,64.9460738 116.79711,63.6996905 Z" id="Path" fill="#08135A"/>
                        <path d="M141.395167,41.2628976 C143.354905,62.2751262 141.395167,77.4109167 126.778524,77.4109167 C117.153598,77.4109167 114.658181,71.7126595 112.162764,64.9460738 C109.31086,57.1110333 107.350112,47.6733738 108.063088,43.0436976 C110.202017,27.907781 139.434167,18.2920667 141.395167,41.2628976 Z" id="Path" fill="#F4A880"/>
                        <path d="M124.28336,37.70155 C125.174517,36.2769857 127.313571,36.2769857 128.204476,37.70155 C131.591429,42.8655167 136.582262,46.4268643 141.928952,49.6321024 C141.751024,46.9611548 141.573095,44.290081 141.395167,41.2628976 C139.256238,18.4701214 110.202017,27.907781 108.063088,43.2216262 C107.884907,45.0024262 107.528419,47.6733738 107.528419,50.5225024 C114.123386,47.3172643 120.183683,44.1120262 124.28336,37.70155 Z" id="Path" fill="#08135A"/>
                        <path d="M126.422667,32.0032929 C129.095381,32.5375833 131.23431,32.8936929 133.552429,34.6743667 C136.938119,37.3454405 139.077048,41.9751167 141.751024,44.8242452 C141.751024,43.5777357 141.573095,42.3313524 141.395167,41.0848429 C140.147143,26.4832167 127.669429,25.0586524 118.401369,30.0445643 C120.005502,31.4691286 124.461667,31.6471833 126.422667,32.0032929 Z" id="Path" fill="#2842B6"/>
                        <path d="M117.510086,54.6181405 C118.223062,58.3575429 115.905826,61.9188905 111.984457,62.6312357 C108.063088,63.3434548 105.38949,61.562781 103.60705,57.2892143 C102.00279,53.9057952 103.60705,48.7418286 109.132552,49.276119 C113.053921,49.8102833 116.79711,51.0567929 117.510086,54.6181405 Z" id="Path" fill="#F4A880"/>
                        <path d="M131.947286,54.6180143 C131.23431,58.3574167 133.552429,61.9187643 137.473167,62.6311095 C141.395167,63.3433286 144.602929,61.0284905 145.850952,57.2889619 C147.098976,53.7276143 145.850952,48.7417024 140.325071,49.2758667 C136.582262,49.8101571 132.839452,51.0565405 131.947286,54.6180143 Z" id="Path" fill="#F4A880"/>
                        <path d="M132.304405,148.282643 C130.521333,148.282643 129.095381,149.172286 127.313571,149.350214 C126.0658,149.529405 116.79711,148.816429 109.31086,147.747595 C105.21131,147.391738 101.646429,146.857952 98.7945238,146.144976 C97.7250595,151.66581 97.3685714,157.36331 96.8337762,163.062071 C102.002917,163.952976 107.528419,164.486762 112.162764,164.308833 C115.727645,164.130905 118.401369,165.198476 120.896786,163.595857 C121.074967,163.417929 121.431455,163.24 121.609762,163.062071 C122.322738,162.884143 123.035714,162.706214 123.570383,162.350357 C124.818155,161.637381 125.531131,160.390619 126.0658,159.145119 C126.600595,158.788 127.135643,158.432143 127.4915,157.720429 C128.382405,156.295738 130.165476,153.0905 130.165476,152.912571 C131.23431,152.021667 132.304405,150.952833 133.19531,149.707333 C133.552429,149.172286 133.19531,148.460571 132.304405,148.282643 Z" id="Path" fill="#F4A880"/>
                        <path d="M106.102467,148.104714 C112.69756,144.542357 113.410536,143.830643 121.431455,144.1865 C129.4525,144.542357 124.461667,147.925524 121.788069,147.569667 L115.192976,151.309952 L106.102467,148.104714 Z" id="Path" fill="#F4A880"/>
                        <path d="M79.3658595,137.776024 C74.1968452,142.050095 69.740681,147.21381 65.997619,152.912571 C71.7014286,157.007452 81.3266071,160.925667 96.8337762,163.24 C97.9032405,163.417929 98.9727048,163.595857 99.8639881,163.773786 C100.576964,158.254214 101.468121,152.734643 102.715893,147.21381 C101.28994,147.035881 99.8639881,146.680024 98.7945238,146.502095 C87.9215738,143.652714 80.7918119,142.228024 79.3658595,137.776024 Z" id="Path" fill="#FCA58C"/>
                        <path d="M166.170143,259.930929 C161.536429,261.17769 156.723524,262.246524 151.910619,262.958238 C147.811952,263.493286 143.712024,264.027071 139.612095,264.205 C138.364071,253.877571 135.869286,237.494262 133.19531,223.42781 C130.521333,209.004238 128.026548,196.717071 126.600595,195.292381 C124.818029,204.552238 118.936038,230.016214 116.440621,263.493286 C110.023836,262.78031 103.785231,261.533548 97.5467524,259.930929 C95.4078238,259.397143 93.2688952,258.685429 91.1299667,257.972452 C92.0211238,243.370952 94.1600524,205.976929 96.1208,173.56869 C115.905826,173.924548 135.691357,170.541381 155.297571,169.828405 C159.219571,204.196381 163.853286,241.590405 166.170143,259.930929 Z" id="Path" fill="#395DFF"/>
                        <path d="M133.19531,223.42781 C130.521333,209.004238 128.026548,196.717071 126.600595,195.292381 C126.600595,195.292381 130.165476,194.045619 132.304405,194.045619 C134.443333,194.045619 131.769357,196.717071 132.660262,202.593762 C133.19531,206.510714 133.19531,216.839405 133.19531,223.42781 Z" id="Path" fill="#3059EF"/>
                    </g>
                </g>
            </g>
        </g>
    </g>
</svg>