<svg width="18" height="21" viewBox="0 0 18 21" fill="none" xmlns="http://www.w3.org/2000/svg">
<path d="M12.4759 12.2639C11.3431 12.2639 10.8353 12.8889 8.99935 12.8889C7.12435 12.8889 6.61654 12.2639 5.48372 12.2639C2.5931 12.2639 0.24935 14.6467 0.24935 17.5373V18.5139C0.24935 19.5686 1.06966 20.3889 2.12435 20.3889H15.8743C16.89 20.3889 17.7493 19.5686 17.7493 18.5139V17.5373C17.7493 14.6467 15.3665 12.2639 12.4759 12.2639ZM15.8743 18.5139H2.12435V17.5373C2.12435 15.6623 3.60872 14.1389 5.48372 14.1389C6.06966 14.1389 6.9681 14.7639 8.99935 14.7639C10.9915 14.7639 11.89 14.1389 12.4759 14.1389C14.3509 14.1389 15.8743 15.6623 15.8743 17.5373V18.5139ZM8.99935 11.6389C12.0853 11.6389 14.6243 9.13889 14.6243 6.01389C14.6243 2.92795 12.0853 0.388885 8.99935 0.388885C5.87435 0.388885 3.37435 2.92795 3.37435 6.01389C3.37435 9.13889 5.87435 11.6389 8.99935 11.6389ZM8.99935 2.26389C11.0306 2.26389 12.7493 3.98264 12.7493 6.01389C12.7493 8.0842 11.0306 9.76389 8.99935 9.76389C6.92904 9.76389 5.24935 8.0842 5.24935 6.01389C5.24935 3.98264 6.92904 2.26389 8.99935 2.26389Z" fill="white"/>
</svg>
