<svg width="100" height="42" viewBox="0 0 100 42" fill="none" xmlns="http://www.w3.org/2000/svg">
<path fill-rule="evenodd" clip-rule="evenodd" d="M99.9057 23.947H86.4019C86.7113 27.1841 89.0811 28.2203 91.7679 28.2203C94.5075 28.2203 96.7151 27.6069 98.5434 26.6253V32.1898C96.6698 33.3827 94.1943 34.0452 90.8981 34.0452C84.1811 34.0452 79.4717 29.8322 79.4717 21.5045C79.4717 14.4716 83.4641 8.88644 90.0264 8.88644C96.5792 8.88644 100 14.3867 100 21.4611C100 22.1293 99.9377 23.5751 99.9057 23.9488V23.947ZM89.983 14.5169C88.2585 14.5169 86.3415 15.7381 86.3415 18.8488H93.4736C93.4736 15.7419 91.6774 14.5169 89.983 14.5169ZM68.6 34.0452C66.1868 34.0452 64.7113 33.0259 63.7208 32.2992L63.7057 40.0569L56.8075 41.5254V9.34511H63.0943L63.2396 11.0533C64.2509 10.1662 65.9377 8.88644 68.6415 8.88644C73.4868 8.88644 78.0491 13.256 78.0491 21.295C78.0491 30.0701 73.5359 34.0452 68.6 34.0452ZM66.9943 15.0039C65.4094 15.0039 64.4189 15.5834 63.7 16.3723L63.7396 26.6329C64.4094 27.3596 65.3755 27.9447 66.9943 27.9447C69.5453 27.9447 71.2547 25.1644 71.2547 21.446C71.2547 17.8333 69.5189 15.0039 66.9943 15.0039ZM47.2962 9.34511H54.2208V33.5525H47.2962V9.34322V9.34511ZM47.2962 1.47415L54.2208 0V5.63047L47.2962 7.10462V1.47415ZM40.066 17.1406V33.5525H33.1736V9.34322H39.3491L39.5698 11.3855C41.2491 8.41456 44.7151 9.01479 45.634 9.347V15.6928C44.7566 15.4097 41.8 14.9756 40.0679 17.1406H40.066ZM25.7415 25.0587C25.7415 29.1301 30.0943 27.8617 30.9774 27.5087V33.1297C30.0585 33.6356 28.3925 34.0452 26.1358 34.0452C22.0415 34.0452 18.9717 31.0252 18.9717 26.9387L19.0019 4.84337L25.7358 3.40886L25.7415 9.34511H30.9811V15.2342H25.7415V25.0587ZM17.5208 26.2365C17.5208 31.2082 13.6528 34.0452 7.91698 34.0452C5.34857 34.0396 2.80866 33.5064 0.454717 32.4785V25.8836C2.76981 27.1444 5.63774 28.0901 7.92264 28.0901C9.46038 28.0901 10.4868 27.6767 10.4868 26.4007C10.4868 23.1051 0 24.3452 0 16.7008C0 11.8121 3.81132 8.88644 9.40755 8.88644C11.6925 8.88644 13.9774 9.23752 16.2623 10.1511V16.6536C14.1642 15.5211 11.5 14.8755 9.40189 14.8755C7.9566 14.8755 6.97736 15.2946 6.97736 16.3723C6.97736 19.4811 17.5208 18.0032 17.5208 26.2365Z" fill="#AAB7C4"/>
</svg>
