<svg width="50" height="50" viewBox="0 0 50 50" fill="none" xmlns="http://www.w3.org/2000/svg">
<path fill-rule="evenodd" clip-rule="evenodd" d="M25 50C38.8071 50 50 38.8071 50 25C50 11.1929 38.8071 0 25 0C11.1929 0 0 11.1929 0 25C0 38.8071 11.1929 50 25 50Z" fill="#B5BEEC"/>
<circle cx="25" cy="25" r="19.1176" fill="white"/>
<path d="M33.4795 16.1887C33.2344 15.4656 32.5482 14.9509 31.7393 14.9509H18.2589C17.4501 14.9509 16.7761 15.4656 16.5187 16.1887L13.9697 23.5294V33.3333C13.9697 34.0073 14.5212 34.5588 15.1952 34.5588H16.4207C17.0947 34.5588 17.6462 34.0073 17.6462 33.3333V32.1078H32.3521V33.3333C32.3521 34.0073 32.9036 34.5588 33.5776 34.5588H34.8031C35.4771 34.5588 36.0286 34.0073 36.0286 33.3333V23.5294L33.4795 16.1887ZM18.2589 28.4313C17.2418 28.4313 16.4207 27.6102 16.4207 26.5931C16.4207 25.5759 17.2418 24.7548 18.2589 24.7548C19.2761 24.7548 20.0972 25.5759 20.0972 26.5931C20.0972 27.6102 19.2761 28.4313 18.2589 28.4313ZM31.7393 28.4313C30.7222 28.4313 29.9011 27.6102 29.9011 26.5931C29.9011 25.5759 30.7222 24.7548 31.7393 24.7548C32.7565 24.7548 33.5776 25.5759 33.5776 26.5931C33.5776 27.6102 32.7565 28.4313 31.7393 28.4313ZM16.4207 22.3039L18.2589 16.7892H31.7393L33.5776 22.3039H16.4207Z" fill="#B5BEEC"/>
</svg>
