<svg width="16" height="16" viewBox="0 0 16 16" fill="none" xmlns="http://www.w3.org/2000/svg">
<path d="M15.75 8.03607C15.7188 3.75482 12.25 0.286072 8 0.286072C5.84375 0.286072 3.875 1.19232 2.46875 2.59857L1.0625 1.19232C0.84375 0.973572 0.4375 1.12982 0.4375 1.47357V5.41107C0.4375 5.62982 0.59375 5.78607 0.8125 5.78607H4.8125C5.15625 5.78607 5.3125 5.37982 5.09375 5.16107L3.5625 3.66107C4.6875 2.50482 6.25 1.78607 8 1.78607C11.4375 1.78607 14.25 4.59857 14.25 8.03607C14.25 11.5048 11.4375 14.2861 8 14.2861C6.375 14.2861 4.9375 13.6923 3.8125 12.7236C3.6875 12.5986 3.4375 12.5986 3.3125 12.7236L2.78125 13.2548C2.625 13.4111 2.625 13.6611 2.78125 13.8173C4.15625 15.0361 6 15.8173 8 15.7861C12.25 15.7861 15.75 12.3173 15.75 8.03607ZM10.5 10.8486L10.9688 10.2548C11.0625 10.0673 11.0312 9.84857 10.875 9.72357L8.75 8.16107V3.66107C8.75 3.47357 8.5625 3.28607 8.375 3.28607H7.625C7.40625 3.28607 7.25 3.47357 7.25 3.66107V8.94232L10 10.9423C10.1562 11.0673 10.4062 11.0361 10.5 10.8486Z" fill="white"/>
</svg>
