<svg width="67" height="16" viewBox="0 0 67 16" fill="none" xmlns="http://www.w3.org/2000/svg">
<path fill-rule="evenodd" clip-rule="evenodd" d="M27.2953 2.8115C25.8593 1.3815 23.9814 0.666504 22.085 0.666504C20.2071 0.666504 18.3108 1.3815 16.8748 2.8115C14.0027 5.6715 14.0027 10.3098 16.8748 13.1882C19.7469 16.0482 24.4048 16.0482 27.2953 13.1882C30.1674 10.3282 30.1674 5.6715 27.2953 2.8115ZM25.2149 11.1165C23.4843 12.8398 20.6858 12.8398 18.9736 11.1165C17.243 9.39317 17.243 6.6065 18.9736 4.9015C20.7042 3.17817 23.5027 3.17817 25.2149 4.9015C26.9271 6.6065 26.9271 9.39317 25.2149 11.1165Z" fill="white"/>
<path fill-rule="evenodd" clip-rule="evenodd" d="M42.7602 2.8115C41.3241 1.3815 39.4462 0.666504 37.5499 0.666504C35.672 0.666504 33.7757 1.3815 32.3396 2.8115C29.4675 5.6715 29.4675 10.3098 32.3396 13.1882C35.2117 16.0482 39.8696 16.0482 42.7602 13.1882C45.6322 10.3282 45.6322 5.6715 42.7602 2.8115ZM40.6797 11.1165C38.9491 12.8398 36.1507 12.8398 34.4385 11.1165C32.7078 9.39317 32.7078 6.6065 34.4385 4.9015C36.1691 3.17817 38.9675 3.17817 40.6797 4.9015C42.3919 6.6065 42.3919 9.39317 40.6797 11.1165Z" fill="white"/>
<path fill-rule="evenodd" clip-rule="evenodd" d="M3.67425 15.2965L4.41069 15.3332H15.4572L15.4204 14.5998C15.3283 13.3898 14.463 12.5098 13.2479 12.4365L12.5115 12.3998H5.88355L14.7208 3.59984L14.6839 2.8665C14.6287 1.6565 13.7266 0.75817 12.5115 0.70317L11.775 0.666504H0.728516L0.765337 1.39984C0.857391 2.5915 1.74111 3.48984 2.93782 3.56317L3.67425 3.59984H10.3022L1.46495 12.3998L1.50177 13.1332C1.57541 14.3432 2.45914 15.2232 3.67425 15.2965Z" fill="white"/>
<path fill-rule="evenodd" clip-rule="evenodd" d="M54.0826 5.0665C54.3403 5.5065 54.414 5.98317 54.4508 6.53317L54.4876 7.2665V12.3998L54.5244 13.1332C54.5981 14.3248 55.4818 15.2232 56.6969 15.2965L57.4333 15.3332V7.2665L57.4702 6.53317C57.507 5.98317 57.5806 5.48817 57.8384 5.04817C58.3539 4.16817 59.2928 3.59984 60.3791 3.59984C61.4653 3.59984 62.4227 4.1865 62.9382 5.0665C63.1959 5.5065 63.2696 6.0015 63.288 6.53317L63.3248 7.2665V12.3998L63.3616 13.1332C63.4353 14.3432 64.319 15.2232 65.5341 15.2965L66.2705 15.3332V7.2665V6.53317C66.2705 3.28817 63.6378 0.666504 60.3791 0.666504C58.6116 0.666504 57.0467 1.4365 55.9605 2.6465C54.8742 1.4365 53.3093 0.666504 51.5419 0.666504C50.3267 0.666504 49.1853 1.03317 48.2463 1.67484C47.6756 1.03317 46.3868 0.666504 45.6504 0.666504V15.3332L46.3868 15.2965C47.6204 15.2232 48.5041 14.3432 48.5593 13.1332L48.5961 12.3998V7.2665L48.633 6.53317C48.6698 5.98317 48.7434 5.48817 49.0012 5.0665C49.5167 4.1865 50.4556 3.59984 51.5419 3.59984C52.6281 3.59984 53.5855 4.1865 54.0826 5.0665Z" fill="white"/>
</svg>
