<svg width="89" height="20" viewBox="0 0 89 20" fill="none" xmlns="http://www.w3.org/2000/svg">
<path fill-rule="evenodd" clip-rule="evenodd" d="M36.0789 2.925C34.1289 0.974999 31.5789 0 29.0039 0C26.4539 0 23.8789 0.974999 21.9289 2.925C18.0289 6.825 18.0289 13.15 21.9289 17.075C25.8289 20.975 32.1539 20.975 36.0789 17.075C39.9789 13.175 39.9789 6.825 36.0789 2.925ZM33.2539 14.25C30.9039 16.6 27.1039 16.6 24.7789 14.25C22.4289 11.9 22.4289 8.1 24.7789 5.775C27.1289 3.425 30.9289 3.425 33.2539 5.775C35.5789 8.1 35.5789 11.9 33.2539 14.25Z" fill="#2D8CFF"/>
<path fill-rule="evenodd" clip-rule="evenodd" d="M57.075 2.925C55.125 0.974999 52.575 0 50 0C47.45 0 44.875 0.974999 42.925 2.925C39.025 6.825 39.025 13.15 42.925 17.075C46.825 20.975 53.15 20.975 57.075 17.075C60.975 13.175 60.975 6.825 57.075 2.925ZM54.25 14.25C51.9 16.6 48.1 16.6 45.775 14.25C43.425 11.9 43.425 8.1 45.775 5.775C48.125 3.425 51.925 3.425 54.25 5.775C56.575 8.1 56.575 11.9 54.25 14.25Z" fill="#2D8CFF"/>
<path fill-rule="evenodd" clip-rule="evenodd" d="M4 19.95L5 20H20L19.95 19C19.825 17.35 18.65 16.15 17 16.05L16 16H7L19 4L18.95 3C18.875 1.35 17.65 0.124999 16 0.0499992L15 0H0L0.0499992 1C0.174999 2.625 1.375 3.85 3 3.95L4 4H13L1 16L1.05 17C1.15 18.65 2.35 19.85 4 19.95Z" fill="#2D8CFF"/>
<path fill-rule="evenodd" clip-rule="evenodd" d="M72.4461 6C72.7961 6.6 72.8961 7.25 72.9461 8L72.9961 9V16L73.0461 17C73.1461 18.625 74.3461 19.85 75.9961 19.95L76.9961 20V9L77.0461 8C77.0961 7.25 77.1961 6.575 77.5461 5.975C78.2461 4.775 79.5211 4 80.9961 4C82.4711 4 83.7711 4.8 84.4711 6C84.8211 6.6 84.9211 7.275 84.9461 8L84.9961 9V16L85.0461 17C85.1461 18.65 86.3461 19.85 87.9961 19.95L88.9961 20V9V8C88.9961 3.575 85.4211 0 80.9961 0C78.5961 0 76.4711 1.05 74.9961 2.7C73.5211 1.05 71.3961 0 68.9961 0C67.3461 0 65.7961 0.5 64.5211 1.375C63.7461 0.5 61.9961 0 60.9961 0V20L61.9961 19.95C63.6711 19.85 64.8711 18.65 64.9461 17L64.9961 16V9L65.0461 8C65.0961 7.25 65.1961 6.575 65.5461 6C66.2461 4.8 67.5211 4 68.9961 4C70.4711 4 71.7711 4.8 72.4461 6Z" fill="#2D8CFF"/>
</svg>
