<?xml version="1.0" standalone="no"?>
<!DOCTYPE svg PUBLIC "-//W3C//DTD SVG 1.1//EN" "http://www.w3.org/Graphics/SVG/1.1/DTD/svg11.dtd" >
<svg xmlns="http://www.w3.org/2000/svg">
<metadata>Generated by IcoMoon</metadata>
<defs>
<font id="icomoon" horiz-adv-x="1024">
<font-face units-per-em="1024" ascent="960" descent="-64" />
<missing-glyph horiz-adv-x="1024" />
<glyph unicode="&#x20;" horiz-adv-x="512" d="" />
<glyph unicode="&#xe900;" glyph-name="x" d="M745.373 726.627c12.497 12.497 32.758 12.497 45.255 0 11.361-11.361 12.393-29.138 3.098-41.666l-3.098-3.589-512-512c-12.497-12.497-32.758-12.497-45.255 0-11.361 11.361-12.393 29.138-3.098 41.666l3.098 3.589 512 512zM233.373 726.627c11.361 11.361 29.138 12.393 41.666 3.098l3.589-3.098 512-512c12.497-12.497 12.497-32.758 0-45.255-11.361-11.361-29.138-12.393-41.666-3.098l-3.589 3.098-512 512c-12.497 12.497-12.497 32.758 0 45.255z" />
<glyph unicode="&#xe901;" glyph-name="arrow-left" d="M213.333 480c-17.673 0-32-14.327-32-32 0-16.2 12.039-29.589 27.658-31.708l4.342-0.292h597.333c17.673 0 32 14.327 32 32 0 16.2-12.039 29.589-27.658 31.708l-4.342 0.292h-597.333zM534.627 769.294c-11.361 11.361-29.138 12.393-41.666 3.098l-3.589-3.098-298.667-298.667c-11.361-11.361-12.393-29.138-3.098-41.666l3.098-3.589 298.667-298.667c12.497-12.497 32.758-12.497 45.255 0 11.361 11.361 12.393 29.138 3.098 41.666l-3.098 3.589-276.025 276.039 276.025 276.039c11.361 11.361 12.393 29.138 3.098 41.666l-3.098 3.589z" />
<glyph unicode="&#xe902;" glyph-name="arrow-right" d="M810.667 480c17.673 0 32-14.327 32-32 0-16.2-12.039-29.589-27.658-31.708l-4.342-0.292h-597.333c-17.673 0-32 14.327-32 32 0 16.2 12.039 29.589 27.658 31.708l4.342 0.292h597.333zM489.373 769.294c11.361 11.361 29.138 12.393 41.666 3.098l3.589-3.098 298.667-298.667c11.361-11.361 12.393-29.138 3.098-41.666l-3.098-3.589-298.667-298.667c-12.497-12.497-32.758-12.497-45.255 0-11.361 11.361-12.393 29.138-3.098 41.666l3.098 3.589 276.025 276.039-276.025 276.039c-11.361 11.361-12.393 29.138-3.098 41.666l3.098 3.589z" />
<glyph unicode="&#xe903;" glyph-name="calendar" d="M149.328 448h725.336c11.781-0.006 21.336-9.555 21.336-21.336v-319.998c0-47.128-38.205-85.333-85.333-85.333h-597.333c-47.128 0-85.333 38.205-85.333 85.333v319.998c0 11.782 9.546 21.336 21.328 21.336zM277.333 192h-42.667c-10.473 0-19.183-7.547-20.99-17.499l-0.344-3.835v-42.667c0-10.473 7.547-19.183 17.499-20.99l3.835-0.344h42.667c10.473 0 19.183 7.547 20.99 17.499l0.344 3.835v42.667c0 11.782-9.551 21.333-21.333 21.333zM448 192h-42.667c-10.473 0-19.183-7.547-20.99-17.499l-0.344-3.835v-42.667c0-10.473 7.547-19.183 17.499-20.99l3.835-0.344h42.667c10.473 0 19.183 7.547 20.99 17.499l0.344 3.835v42.667c0 11.782-9.551 21.333-21.333 21.333zM618.667 192h-42.667c-10.473 0-19.183-7.547-20.99-17.499l-0.344-3.835v-42.667c0-10.473 7.547-19.183 17.499-20.99l3.835-0.344h42.667c10.473 0 19.183 7.547 20.99 17.499l0.344 3.835v42.667c0 11.782-9.551 21.333-21.333 21.333zM789.333 192h-42.667c-11.782 0-21.333-9.551-21.333-21.333v-42.667c0-11.782 9.551-21.333 21.333-21.333h42.667c11.782 0 21.333 9.551 21.333 21.333v42.667c0 11.782-9.551 21.333-21.333 21.333zM277.333 362.667h-42.667c-10.473 0-19.183-7.547-20.99-17.499l-0.344-3.835v-42.667c0-10.473 7.547-19.183 17.499-20.99l3.835-0.344h42.667c10.473 0 19.183 7.547 20.99 17.499l0.344 3.835v42.667c0 11.782-9.551 21.333-21.333 21.333zM448 362.667h-42.667c-10.473 0-19.183-7.547-20.99-17.499l-0.344-3.835v-42.667c0-10.473 7.547-19.183 17.499-20.99l3.835-0.344h42.667c10.473 0 19.183 7.547 20.99 17.499l0.344 3.835v42.667c0 11.782-9.551 21.333-21.333 21.333zM618.667 362.667h-42.667c-10.473 0-19.183-7.547-20.99-17.499l-0.344-3.835v-42.667c0-10.473 7.547-19.183 17.499-20.99l3.835-0.344h42.667c10.473 0 19.183 7.547 20.99 17.499l0.344 3.835v42.667c0 11.782-9.551 21.333-21.333 21.333zM789.333 362.667h-42.667c-10.473 0-19.183-7.547-20.99-17.499l-0.344-3.835v-42.667c0-10.473 7.547-19.183 17.499-20.99l3.835-0.344h42.667c10.473 0 19.183 7.547 20.99 17.499l0.344 3.835v42.667c0 11.782-9.551 21.333-21.333 21.333zM682.667 874.667c21.881 0 39.915-16.471 42.38-37.691l0.287-4.976v-85.333h85.333c47.128 0 85.333-38.205 85.333-85.333v-106.667c-0.012-11.779-9.562-21.326-21.341-21.333h-725.333c-10.473-0.007-19.183 7.539-20.99 17.491l-0.336 3.842v106.667c0 47.128 38.205 85.333 85.333 85.333h85.333v85.333c0 21.881 16.471 39.915 37.691 42.38l4.976 0.287c23.564 0 42.667-19.103 42.667-42.667v-85.333h256v85.333c0 20.198 14.035 37.118 32.884 41.54l4.807 0.84 4.976 0.287z" />
<glyph unicode="&#xe904;" glyph-name="camera" d="M640 746.667c47.128 0 85.333-38.205 85.333-85.333v-152.363l145.869 104.18c19.176 13.695 45.823 9.253 59.518-9.923 5.168-7.236 7.946-15.906 7.946-24.798v-260.859c0-23.564-19.103-42.667-42.667-42.667-8.892 0-17.562 2.778-24.798 7.946l-145.869 104.18v-152.363c0-47.128-38.205-85.333-85.333-85.333h-469.333c-47.128 0-85.333 38.205-85.333 85.333v426.667c0 47.128 38.205 85.333 85.333 85.333h469.333z" />
<glyph unicode="&#xe905;" glyph-name="car" d="M874.011 573.229c-4.66 1.165-6.99 4.66-8.155 9.32l-25.629 125.966c-10.485 71.063-71.063 123.486-142.125 123.486h-359.973c-72.228 0-132.805-52.423-142.125-123.486l-25.629-125.966c-1.165-4.66-3.495-8.155-8.155-9.32-44.268-15.144-76.887-57.083-76.887-107.176v-339.003c0-27.959 23.299-51.258 51.258-51.258h57.083c27.959 0 51.258 23.299 51.258 51.258v73.392c0 6.99 5.825 11.65 11.65 11.65h525.397c6.99 0 11.65-5.825 11.65-11.65v-73.392c0-27.959 23.299-51.258 51.258-51.258h57.083c27.959 0 51.258 23.299 51.258 51.258v340.168c-1.165 48.928-33.784 90.867-79.217 106.011zM304.346 693.37c2.33 17.474 17.474 29.124 33.784 29.124h359.973c17.474 0 31.454-12.815 33.784-29.124l20.969-100.337c1.165-6.99-4.66-12.815-11.65-12.815h-446.18c-6.99 0-12.815 5.825-11.65 12.815l20.969 100.337zM381.233 389.165c0-27.959-23.299-51.258-51.258-51.258h-41.939c-27.959 0-51.258 23.299-51.258 51.258v15.144c0 27.959 23.299 51.258 51.258 51.258h41.939c27.959 0 51.258-23.299 51.258-51.258v-15.144zM799.454 389.165c0-27.959-23.299-51.258-51.258-51.258h-41.939c-27.959 0-51.258 23.299-51.258 51.258v15.144c0 27.959 23.299 51.258 51.258 51.258h41.939c27.959 0 51.258-23.299 51.258-51.258v-15.144z" />
<glyph unicode="&#xe906;" glyph-name="chevron-down" d="M233.373 598.627c11.361 11.361 29.138 12.393 41.666 3.098l3.589-3.098 233.373-233.358 233.373 233.358c11.361 11.361 29.138 12.393 41.666 3.098l3.589-3.098c11.361-11.361 12.393-29.138 3.098-41.666l-3.098-3.589-256-256c-11.361-11.361-29.138-12.393-41.666-3.098l-3.589 3.098-256 256c-12.497 12.497-12.497 32.758 0 45.255z" />
<glyph unicode="&#xe907;" glyph-name="chevron-left" d="M662.627 726.627c11.361-11.361 12.393-29.138 3.098-41.666l-3.098-3.589-233.358-233.373 233.358-233.373c11.361-11.361 12.393-29.138 3.098-41.666l-3.098-3.589c-11.361-11.361-29.138-12.393-41.666-3.098l-3.589 3.098-256 256c-11.361 11.361-12.393 29.138-3.098 41.666l3.098 3.589 256 256c12.497 12.497 32.758 12.497 45.255 0z" />
<glyph unicode="&#xe908;" glyph-name="chevron-right" d="M361.373 726.627c-11.361-11.361-12.393-29.138-3.098-41.666l3.098-3.589 233.358-233.373-233.358-233.373c-11.361-11.361-12.393-29.138-3.098-41.666l3.098-3.589c11.361-11.361 29.138-12.393 41.666-3.098l3.589 3.098 256 256c11.361 11.361 12.393 29.138 3.098 41.666l-3.098 3.589-256 256c-12.497 12.497-32.758 12.497-45.255 0z" />
<glyph unicode="&#xe909;" glyph-name="chevron-up" d="M233.373 297.373c11.361-11.361 29.138-12.393 41.666-3.098l3.589 3.098 233.373 233.358 233.373-233.358c11.361-11.361 29.138-12.393 41.666-3.098l3.589 3.098c11.361 11.361 12.393 29.138 3.098 41.666l-3.098 3.589-256 256c-11.361 11.361-29.138 12.393-41.666 3.098l-3.589-3.098-256-256c-12.497-12.497-12.497-32.758 0-45.255z" />
<glyph unicode="&#xe90a;" glyph-name="facebook" d="M85.333 92.441c0-39.287 31.824-71.108 71.108-71.108h711.118c39.287 0 71.108 31.82 71.108 71.108v711.118c0 39.285-31.82 71.108-71.108 71.108h-711.116c-39.285 0-71.11-31.824-71.11-71.108v-711.118zM506.98 149.333v289.616h-80.313v108.609h80.313c0 186.621 8.824 199.109 261.020 199.109v-108.607c-132.925 0-120.472-6.698-120.472-90.505h120.472v-108.609h-120.472v-289.614h-140.547z" />
<glyph unicode="&#xe90b;" glyph-name="instagram" d="M512 682.667c-128.333 0-234.667-104.5-234.667-234.667s104.5-234.667 234.667-234.667c130.167 0 234.667 106.333 234.667 234.667s-106.333 234.667-234.667 234.667zM512 297.667c-82.5 0-150.333 67.833-150.333 150.333s67.833 150.333 150.333 150.333c82.5 0 150.333-67.833 150.333-150.333s-67.833-150.333-150.333-150.333zM789.333 682.667c0-23.564-19.103-42.667-42.667-42.667s-42.667 19.103-42.667 42.667c0 23.564 19.103 42.667 42.667 42.667s42.667-19.103 42.667-42.667zM887.742 821.935c-46.968 48.774-113.806 74.065-189.677 74.065h-372.129c-157.161 0-261.935-104.774-261.935-261.935v-370.323c0-77.677 25.29-144.516 75.871-193.29 48.774-46.968 113.806-70.452 187.871-70.452h368.516c77.677 0 142.71 25.29 189.677 70.452 48.774 46.968 74.065 113.806 74.065 191.484v372.129c0 75.871-25.29 140.903-72.258 187.871zM880.516 261.935c0-56-19.871-101.161-52.387-131.871s-77.677-46.968-131.871-46.968h-368.516c-54.194 0-99.355 16.258-131.871 46.968-32.516 32.516-48.774 77.677-48.774 133.677v370.323c0 54.194 16.258 99.355 48.774 131.871 30.71 30.71 77.677 46.968 131.871 46.968h372.129c54.194 0 99.355-16.258 131.871-48.774 30.71-32.516 48.774-77.677 48.774-130.065v-372.129z" />
<glyph unicode="&#xe90c;" glyph-name="map-pin" d="M512 917.333c212.077 0 384-171.923 384-384 0-298.667-384-554.667-384-554.667s-384 256-384 554.667c0 212.077 171.923 384 384 384zM512 661.333c-70.692 0-128-57.308-128-128s57.308-128 128-128c70.692 0 128 57.308 128 128s-57.308 128-128 128z" />
<glyph unicode="&#xe90d;" glyph-name="monitor" d="M341.333 64c-23.564 0-42.667 19.103-42.667 42.667 0 21.881 16.471 39.915 37.691 42.38l4.976 0.287h128v85.376l-298.667-0.043c-47.128 0-85.333 38.205-85.333 85.333v426.667c0 47.128 38.205 85.333 85.333 85.333h682.667c47.128 0 85.333-38.205 85.333-85.333v-426.667c0-47.128-38.205-85.333-85.333-85.333l-298.667 0.043v-85.376h128c23.564 0 42.667-19.103 42.667-42.667 0-21.881-16.471-39.915-37.691-42.38l-4.976-0.287h-341.333z" />
<glyph unicode="&#xe90e;" glyph-name="note-double" d="M366.864 237.59v500.361c0 31.701 20.717 59.79 51.275 69.554l466.265 148.92c38.922 12.436 80.719-8.623 93.331-47.037 2.382-7.274 3.6-14.872 3.6-22.518v-682.807c0-94.211-88.488-170.586-197.615-170.586-109.153 0-197.615 76.374-197.615 170.586 0 94.214 88.462 170.588 197.615 170.588 48.711 0 93.305-15.215 127.747-40.435v341.389c0 13.46-11.058 24.369-24.705 24.369-2.667 0-5.335-0.427-7.873-1.269l-424.157-140.638c-10.074-3.334-16.833-12.634-16.833-23.1v-428.382c0-94.211-88.488-170.586-197.615-170.586s-197.615 76.374-197.615 170.586c0 94.214 88.488 170.588 197.615 170.588 48.167 0 92.295-14.87 126.582-39.584z" />
<glyph unicode="&#xe90f;" glyph-name="note" d="M431.315 273.466l196.34 654.917c7.144 23.832 31.248 37.013 53.862 29.513 10.694-3.55 19.678-11.406 24.937-21.835 12.49-24.675 25.2-54.499 38.129-89.47 47.989-129.856 47.989-129.856 129.506-211.072 81.472-81.216 179.16-220.081 28.75-292.598-29.889-16.465 43.826 113.968-28.75 145.7-72.62 31.732-166.451 134.161-180.344 207.521-13.849 73.36-50.049-32.841-106.453-219.593-33.089-109.397-66.791-223.321-101.15-341.771-2.717-110.196-100.931-198.778-221.715-198.778-122.493 0-221.759 91.112-221.759 203.483s99.266 203.438 221.759 203.438c66.528 0 126.262-26.894 166.889-69.455z" />
<glyph unicode="&#xe910;" glyph-name="play" d="M512 960c282.77 0 512-229.23 512-512s-229.23-512-512-512c-282.77 0-512 229.23-512 512s229.23 512 512 512zM448 669.626c-35.346 0-64-28.654-64-64v0-315.251c0-15.502 5.627-30.478 15.835-42.144 23.276-26.601 63.708-29.296 90.309-6.021v0l180.143 157.626c2.138 1.871 4.15 3.882 6.021 6.021 23.276 26.601 20.58 67.034-6.021 90.309v0l-180.143 157.626c-11.667 10.208-26.642 15.835-42.144 15.835z" />
<glyph unicode="&#xe911;" glyph-name="search" d="M469.333 864c-206.186 0-373.333-167.147-373.333-373.333s167.147-373.333 373.333-373.333c206.186 0 373.333 167.147 373.333 373.333s-167.147 373.333-373.333 373.333zM469.333 800c170.84 0 309.333-138.493 309.333-309.333s-138.493-309.333-309.333-309.333c-170.84 0-309.333 138.493-309.333 309.333s138.493 309.333 309.333 309.333zM687.773 272.227c11.361 11.361 29.138 12.393 41.666 3.098l3.589-3.098 185.6-185.6c12.497-12.497 12.497-32.758 0-45.255-11.361-11.361-29.138-12.393-41.666-3.098l-3.589 3.098-185.6 185.6c-12.497 12.497-12.497 32.758 0 45.255z" />
<glyph unicode="&#xe912;" glyph-name="star" d="M666.011 604.333l187.161-27.356c23.316-3.408 39.455-25.072 36.047-48.389-1.356-9.278-5.731-17.851-12.448-24.394l-135.361-131.842c-10.064-9.802-14.658-23.931-12.283-37.777l31.937-186.207c3.983-23.225-11.615-45.282-34.84-49.265-9.25-1.587-18.765-0.079-27.072 4.289l-167.292 87.977c-12.432 6.538-27.286 6.538-39.719 0l-167.292-87.977c-20.856-10.968-46.654-2.952-57.622 17.904-4.368 8.307-5.876 17.822-4.289 27.072l31.937 186.207c2.375 13.847-2.219 27.975-12.283 37.777l-135.361 131.842c-16.88 16.441-17.236 43.454-0.795 60.335 6.543 6.717 15.116 11.092 24.394 12.448l187.161 27.356c13.882 2.029 25.879 10.753 32.089 23.333l83.663 169.492c10.43 21.13 36.015 29.804 57.145 19.374 8.412-4.152 15.222-10.962 19.374-19.374l83.663-169.492c6.21-12.58 18.207-21.304 32.089-23.333z" />
<glyph unicode="&#xe913;" glyph-name="twitter" d="M981.333 732.467c-34.611-15.4-71.608-25.8-110.595-30.6 39.782 24 70.415 62 84.737 107.2-37.197-22.2-78.371-38.4-122.331-47-35.207 37.8-85.333 61.4-140.631 61.4-106.418 0-192.547-86.8-192.547-193.8 0-15.2 1.591-30 4.973-44.2-160.124 8-302.148 85.2-397.029 202.6-16.51-28.6-26.057-62-26.057-97.4 0-67.2 34.014-126.6 85.731-161.4-31.627 0.8-61.464 9.6-87.322 24.2 0-0.8 0-1.6 0-2.4 0-94 66.437-172.2 154.555-190-16.112-4.4-33.218-6.8-50.723-6.8-12.333 0-24.466 1.2-36.202 3.6 24.466-77 95.677-133 180.016-134.6-65.84-52-148.985-83-239.291-83-15.515 0-30.831 1-45.949 2.8 85.134-55.6 186.381-87.6 294.987-87.6 354.462 0 548.202 295.4 548.202 551.6 0 8.4-0.199 16.8-0.597 25 37.594 27.4 70.216 61.6 96.075 100.4z" />
<glyph unicode="&#xe914;" glyph-name="zap" d="M173.548 362.667h338.452l-33.641-269.131c-1.461-11.691 6.831-22.353 18.523-23.815 7.21-0.901 14.383 1.929 19.035 7.511l350.925 421.11c7.543 9.051 6.32 22.503-2.731 30.046-3.834 3.195-8.667 4.945-13.657 4.945h-338.452l33.641 269.131c1.461 11.691-6.831 22.353-18.523 23.815-7.21 0.901-14.383-1.929-19.035-7.511l-350.925-421.11c-7.543-9.051-6.32-22.503 2.731-30.046 3.834-3.195 8.667-4.945 13.657-4.945z" />
</font>
</defs>
</svg>
